<svg width="124" height="66" viewBox="0 0 124 66" fill="none" xmlns="http://www.w3.org/2000/svg">
<path d="M73.2822 59.2002L76.9619 50.001H78.3857L72.3184 65.2021H70.873L72.5371 60.9961L67.9814 50.001H69.5801L73.2822 59.2002ZM11.6416 49.6719C15.1459 49.672 16.7664 52.6074 16.7666 55.498C16.7666 58.3889 15.146 61.3251 11.6416 61.3252C8.13739 61.3252 6.5166 58.3889 6.5166 55.498C6.51677 52.6073 8.13758 49.6719 11.6416 49.6719ZM33.6836 49.6719C37.3634 49.6719 38.7001 52.3662 38.7002 55.8047H30.2012C30.2453 58.1482 31.3195 60.1201 34.0137 60.1201C35.568 60.1199 36.8598 59.0027 37.1885 57.4912H38.5684C37.8899 60.1197 36.2471 61.3252 33.5967 61.3252C30.3107 61.3252 28.7774 58.4988 28.7773 55.499C28.7773 52.5193 30.4206 49.6722 33.6836 49.6719ZM54.5469 49.6719C58.2266 49.6719 59.5624 52.3662 59.5625 55.8047H51.0645C51.1086 58.1482 52.1815 60.1201 54.876 60.1201C56.4305 60.1201 57.7225 59.0028 58.0508 57.4912H59.4307C58.7518 60.1197 57.1097 61.3252 54.459 61.3252C51.1731 61.3252 49.6407 58.4988 49.6406 55.499C49.6406 52.5191 51.2835 49.6719 54.5469 49.6719ZM88.1328 49.6719C90.3883 49.672 92.2286 51.0306 92.3379 53.374H90.9141C90.8051 51.6875 89.7319 50.877 87.9131 50.877C85.8983 50.877 84.6494 52.9792 84.6494 55.4766C84.6494 57.995 85.8982 60.1201 87.9131 60.1201C89.6222 60.1201 90.8051 59.0684 90.9141 57.5576H92.3379C91.9877 60.0763 90.5421 61.3251 88.0449 61.3252C84.759 61.3252 83.2256 58.4996 83.2256 55.499C83.2256 52.5195 84.8699 49.6719 88.1328 49.6719ZM121.931 58.5215C121.931 59.3753 121.996 60.252 122.04 60.9961H120.682L120.616 59.376L120.571 59.2881C119.673 60.6027 118.338 61.3252 116.805 61.3252C113.541 61.3249 112.293 58.2141 112.293 55.4541C112.293 52.6075 113.541 49.6722 116.805 49.6719C118.272 49.6719 119.805 50.3726 120.571 51.666L120.616 51.6211V45.1826H121.931V58.5215ZM44.2627 59.1777L47.9209 50.001H49.3662L45.0088 60.9971H43.5186L39.0283 50.001H40.4736L44.2627 59.1777ZM4.86328 44.9189C5.27852 44.9191 5.71718 45.0716 6.11133 45.1602V46.2109C5.84859 46.168 5.56273 46.123 5.30078 46.123C3.5044 46.1232 3.46042 47.0214 3.52637 48.5986V50H6.02344V51.2051H3.52637V60.9961H2.21191V51.2051H0V50H2.21191V47.6562C2.21201 45.7728 2.97894 44.9189 4.86328 44.9189ZM22.5137 49.6719C22.9516 49.65 23.3902 49.6725 23.8281 49.6943V50.9648C23.5654 50.943 23.2807 50.877 23.0176 50.877C21.0682 50.8771 20.0386 52.2788 19.9951 54.3809V60.9961H18.6807V52.4756C18.7033 51.6206 18.6154 50.7452 18.5713 50H19.9287L19.9951 51.6211H20.0381C20.4332 50.5046 21.4187 49.7153 22.5137 49.6719ZM65.4404 49.6719C65.8787 49.65 66.317 49.6725 66.7549 49.6943V50.9648C66.4927 50.943 66.2079 50.877 65.9453 50.877C63.9958 50.877 62.9649 52.2787 62.9219 54.3809V60.9961H61.6074V52.4756C61.6297 51.6206 61.5431 50.7453 61.499 50H62.8564L62.9219 51.6211H62.9648C63.3599 50.5047 64.3455 49.7154 65.4404 49.6719ZM95.4873 51.665H95.5303C96.2973 50.3074 97.5458 49.673 98.9697 49.6729C102.562 49.6729 102.847 52.8478 102.847 54.1182V60.9961H101.532V53.8994C101.532 51.9941 100.437 50.877 98.6406 50.877C96.4726 50.8772 95.4873 52.6958 95.4873 54.666V60.9961H94.1729V45.1826H95.4873V51.665ZM106.373 60.9961H105.059V50H106.373V60.9961ZM110.271 60.9961H108.957V45.1816H110.271V60.9961ZM11.6416 50.876C8.991 50.876 7.94059 53.4606 7.94043 55.498C7.94043 57.5355 8.9908 60.1201 11.6416 60.1201C14.2915 60.12 15.3428 57.5355 15.3428 55.498C15.3426 53.4607 14.2913 50.8761 11.6416 50.876ZM117.023 50.877C114.526 50.8772 113.716 53.199 113.716 55.3008C113.716 57.3381 114.308 60.1198 116.826 60.1201C119.696 60.1201 120.571 57.7327 120.571 55.2354C120.571 53.0013 119.586 50.877 117.023 50.877ZM33.7061 50.877C31.5597 50.877 30.4205 52.6727 30.2451 54.5996H37.2764C37.1225 52.4756 35.9843 50.877 33.7061 50.877ZM54.5684 50.877C52.4218 50.8771 51.2837 52.6728 51.1084 54.5996H58.1387C57.9852 52.4756 56.8466 50.877 54.5684 50.877ZM106.482 46.8242H104.949V45.1826H106.482V46.8242ZM121.937 37.9443H0.191406V37.2803H121.937V37.9443ZM106.275 24.6074C108.343 23.7735 111.687 23.2318 115.969 24.3564L116.452 24.4834L115.989 24.667C114.034 25.4415 111.584 25.6718 110.166 25.208C109.629 25.0312 109.305 24.7472 108.909 24.374C108.239 24.4409 107.58 24.6373 106.948 24.917C107.517 25.221 109.314 26.2566 110.525 27.79L110.611 27.9004L110.516 28.002C110.416 28.1058 110.179 28.2827 110.026 28.333L109.92 28.3662C109.92 28.3662 109.847 28.2848 109.847 28.2832C108.98 27.2393 107.718 26.0472 106.273 25.251C104.829 26.0471 103.569 27.2396 102.703 28.2832C102.702 28.2856 102.635 28.36 102.63 28.3652L102.525 28.332C102.371 28.2817 102.135 28.1054 102.037 28.002L101.94 27.9004L102.026 27.79C103.235 26.2577 105.029 25.2228 105.601 24.918C104.969 24.6382 104.311 24.441 103.641 24.374C103.243 24.7472 102.92 25.0312 102.386 25.208C100.965 25.6713 98.5153 25.4415 96.5615 24.667L96.0996 24.4834L96.582 24.3564C100.862 23.2317 104.207 23.7737 106.275 24.6074ZM3.30469 18.2422C3.30472 21.1739 4.00066 23.3281 7.16504 23.3281C8.52201 23.3281 10.3638 22.6543 11.0596 20.9043C11.6841 19.3199 11.7217 17.3322 11.7217 16.9277V8.2334H15.0254V25.1494H11.791V22.6543H11.7217C10.3991 24.7787 8.17421 25.6532 5.73828 25.6533C2.08689 25.6533 0 22.9574 0 19.5547V8.2334H3.30469V18.2422ZM50.4912 7.76465C54.1531 7.76465 56.9155 10.0105 57.083 13.6592H53.8057C53.6331 11.5487 52.5965 10.0781 50.2451 10.0781C47.1048 10.0784 45.8927 12.7195 45.8926 16.6719C45.8926 20.6221 47.1047 23.2683 50.2451 23.2686C52.4196 23.2686 53.7681 21.8994 53.9414 19.4844H57.2266C56.9459 23.2684 54.047 25.578 50.21 25.5781C44.6488 25.5781 42.4365 21.7631 42.4365 16.8066C42.4365 11.8791 44.9915 7.76479 50.4912 7.76465ZM66.7559 7.76465C71.9367 7.86927 74.3885 11.0461 74.3887 15.7041V17.2734H62.1611C61.9192 20.2205 63.1632 23.2686 66.5127 23.2686C69.0699 23.2685 70.3484 22.3002 70.7256 19.8496H74.1865C73.6653 23.6723 70.6233 25.5771 66.4805 25.5771C60.9156 25.577 58.7012 21.7627 58.7012 16.8066C58.7013 11.8781 61.2636 7.76471 66.7559 7.76465ZM26.9795 7.72852C28.1956 7.72852 33.5869 8.03187 33.5869 13.4561V25.1484H30.2842V14.501C30.2842 11.7046 29.0662 10.1885 26.2842 10.1885C26.2679 10.1876 24.4679 10.0942 23.084 11.4346C22.5971 11.9066 21.6934 12.6469 21.6934 15.9492V25.1484H18.3877V8.2334H21.623V10.7256H21.6934C22.8041 8.60318 25.2396 7.72854 26.9795 7.72852ZM39.9678 25.1338H36.6641V8.21875H39.9678V25.1338ZM83.5342 0C84.3282 0 85.0923 0.198906 85.8887 0.332031V2.97559C85.3305 2.94747 84.7801 2.87305 84.2246 2.87305C82.3624 2.87305 81.2895 3.34814 81.3906 5.18652V8.26562H85.4004V10.4785H81.3906V25.0762H78.1094V10.4785H75.124V8.26562H78.1094V4.65234C78.2174 0.969793 81.0795 4.10167e-05 83.5342 0ZM120.515 20.3643L120.422 20.5137C119.455 22.0865 117.813 24.1163 114.737 23.5957L114.48 23.5518L114.625 23.3438C115.199 22.5169 118.93 20.4775 120.249 20.2686L120.607 20.2119L120.515 20.3643ZM92.3027 20.2686C93.621 20.4774 97.3498 22.5161 97.9248 23.3428L98.0693 23.5518L97.8135 23.5947C94.7403 24.1159 93.0969 22.0872 92.1279 20.5146L92.0352 20.3633L91.9424 20.21L92.3027 20.2686ZM96.957 19.3135C97.9525 19.9752 100.802 22.3321 101.012 23.1426L101.062 23.3311L100.862 23.3457C97.7524 23.6048 97.0053 21.2645 96.7129 19.4805L96.6846 19.3223L96.6582 19.1631L96.957 19.3135ZM115.866 19.3223L115.838 19.4795C115.545 21.2636 114.798 23.6048 111.688 23.3457L111.491 23.3311L111.538 23.1416C111.749 22.331 114.597 19.9742 115.594 19.3125L115.892 19.1621L115.866 19.3223ZM106.253 0.0166016C112.597 0.0166016 117.762 5.0192 117.762 11.168C117.761 17.315 112.597 22.3164 106.253 22.3164C99.9064 22.3163 94.7444 17.3149 94.7441 11.168C94.7441 5.01926 99.9063 0.0166917 106.253 0.0166016ZM94.8184 15.792C95.5383 16.7129 96.4612 19.731 96.4971 20.9287C96.496 20.9405 96.4775 21.149 96.4775 21.1543L96.4307 21.4385L96.2129 21.3057C94.925 20.5065 94.2533 19.3528 94.208 17.8799C94.1897 17.2289 94.2975 16.5431 94.5234 15.8418L94.5703 15.6885L94.6191 15.5381L94.8184 15.792ZM117.978 15.6895L118.026 15.8408C118.255 16.5426 118.36 17.2283 118.342 17.8809C118.299 19.3534 117.624 20.5057 116.337 21.3057L116.119 21.4375L116.072 21.1553C116.071 21.1498 116.054 20.9287 116.054 20.9287C116.087 19.7293 117.009 16.7123 117.731 15.791L117.928 15.5391L117.978 15.6895ZM90.123 15.3975C91.6183 16.3157 93.9469 19.1009 94.3975 20.2959L94.5166 20.6113L94.1855 20.5078C91.771 19.7578 90.206 17.1682 89.8672 15.5703L89.8281 15.3809L89.7861 15.1904L90.123 15.3975ZM122.725 15.3809L122.682 15.5713C122.343 17.1687 120.779 19.7555 118.365 20.5068L118.032 20.6113L118.153 20.2949C118.603 19.1004 120.932 16.3172 122.427 15.3984L122.765 15.1904L122.725 15.3809ZM102.129 1.24219C98.0044 2.85024 95.3132 6.62867 95.2148 10.9219C95.8289 10.4034 96.6434 9.87608 97.001 9.71289C97.4515 9.50674 97.8419 9.03012 97.7061 8.50195C97.5705 7.97712 96.9204 5.97549 98.2227 4.60645C99.527 3.23758 101.55 3.10888 103.548 4.71289C105.641 6.39384 104.454 8.01328 104.146 8.39844C103.957 8.63346 103.761 8.99179 103.902 9.32129C104.158 9.91726 103.731 9.73619 103.575 9.96387C103.518 10.0427 103.642 10.2379 103.533 10.332C103.426 10.4237 103.38 10.386 103.337 10.4639C103.296 10.5423 103.406 10.6873 103.29 10.7607C103.198 10.8159 103.076 10.7022 102.91 10.9043C102.735 11.1115 102.634 11.3675 102 11.3848C101.47 11.3969 100.493 10.843 100.138 11.3584C100.002 11.5563 100.04 11.7352 100.084 11.8457C100.285 12.3588 100.681 15.3315 100.64 15.5293C101.073 16.2617 102.468 15.9347 102.938 16.1611C102.992 16.1875 103.14 16.2003 103.29 16.0693C103.439 15.9378 103.902 15.5751 104.254 15.6084C104.391 15.6201 104.632 15.5883 104.471 15.8994C104.416 16.0038 104.567 16.0191 104.676 15.9648C104.785 15.9128 105.652 15.5698 105.285 16.7939C104.919 18.0163 104.015 17.9463 103.356 17.7148C103.206 17.6618 103.1 17.6352 102.854 17.7148C102.609 17.795 100.885 18.0563 100.531 18.042C100.18 18.0303 99.5539 18.0564 99.1338 17.6484C98.8758 18.0045 98.6214 18.5331 98.7686 19.0244C99.1249 19.3433 99.5013 19.6393 99.8975 19.9102C100.631 20.0881 101.573 19.9992 102.285 19.7549C102.475 19.6885 104.717 18.7113 105.979 18.6621C107.01 18.6234 107.038 17.7544 106.837 17.2812C106.667 16.8877 106.632 16.2939 106.617 15.9258C106.604 15.5565 106.508 15.044 105.764 14.5029C105.014 13.9624 104.567 13.6357 104.566 13.1611C104.566 12.898 104.736 12.5546 104.879 12.4766C105.029 12.3953 105.069 12.2128 105.056 12.1094C105.042 12.0001 104.918 11.6084 105.368 11.6084C105.448 11.6081 105.598 11.5279 105.598 11.3701C105.597 11.2115 105.452 10.692 105.815 10.792C105.91 10.8185 106.074 10.6992 106.074 10.5283C106.074 10.3593 105.399 9.54127 106.47 9.58105C107.193 9.60409 108.028 9.29839 108.371 8.87988C110.04 6.83984 112.629 6.44261 115.065 8.71387C117.325 10.8193 116.864 14.0491 115.393 15.5049C114.089 16.7939 113.03 17.082 112.024 17.082C111.834 17.082 111.535 16.8975 111.454 17.3203C111.372 17.7356 111.403 18.8633 112.934 19.6777C115.581 17.72 117.293 14.6336 117.293 11.168C117.293 9.07973 116.67 7.05973 115.496 5.32129C114.88 5.72252 114.235 6.08149 113.58 6.39648C113.627 6.50415 113.827 6.97075 113.832 6.98145L113.904 7.14941L113.284 6.88184C113.28 6.87182 113.197 6.68592 113.154 6.59277C113.046 6.6391 112.876 6.70908 112.867 6.71289C112.867 6.71289 112.491 6.5986 111.995 6.5459C112.003 6.54308 112.615 6.33266 112.953 6.18066C112.576 5.45101 112.12 4.76194 111.591 4.13184C110.935 4.48158 110.242 4.76889 109.524 4.98438C109.751 5.53079 110.18 6.83865 110.188 6.86426L109.738 7C109.73 6.97398 109.301 5.65596 109.071 5.11133C108.222 5.32683 107.355 5.44337 106.488 5.46094V7.58301C106.594 7.57651 106.79 7.56584 106.798 7.56543C107.39 7.53342 108.046 7.4894 108.792 7.39453L109.13 7.36621L108.51 7.89648L108.479 7.90039C107.774 7.96051 107.19 8.00686 106.488 8.04004V8.80371H106.01V5.46191C105.773 5.45566 105.139 5.43495 104.935 5.41895L104.889 5.41504L104.868 5.375C104.818 5.27944 104.759 5.17445 104.685 5.06836L104.585 4.92578L104.764 4.94238C105.045 4.97009 105.74 4.99824 106.01 5.00488V3.16797C105.522 3.14805 105.042 3.06216 104.58 2.91309C104.373 3.24805 103.823 4.25098 103.823 4.25098C103.823 4.25098 103.757 4.19048 103.652 4.12305C103.548 4.05512 103.433 3.98828 103.433 3.98828C103.442 3.97064 103.937 3.06845 104.136 2.74316C103.763 2.5839 103.409 2.38518 103.086 2.14746C102.673 2.43714 101.788 3.16406 101.788 3.16406C101.778 3.16099 101.6 3.10923 101.514 3.08984C101.386 3.05939 101.249 3.03906 101.249 3.03906C101.267 3.02393 102.256 2.16841 102.713 1.8457C102.5 1.65519 102.304 1.45495 102.129 1.24219ZM93.8984 12.3545C93.9898 12.6566 94.0461 13.0999 94.0605 13.6357C94.0976 15.1509 93.8412 17.0681 93.5156 17.6592L93.3838 17.8994L93.2275 17.6719C92.7572 17.0012 92.5068 16.2776 92.4873 15.5215C92.4632 14.4992 92.8457 13.39 93.5967 12.3096L93.6992 12.1641L93.8008 12.0195L93.8984 12.3545ZM118.953 12.3086C119.705 13.3895 120.087 14.4995 120.062 15.5215C120.043 16.2777 119.794 17.0008 119.325 17.6719L119.166 17.8994L119.033 17.6602C118.71 17.0679 118.452 15.1505 118.49 13.6357C118.504 13.1003 118.559 12.6563 118.651 12.3545L118.754 12.0195L118.953 12.3086ZM89.7119 10.5186C90.666 11.6471 91.9365 14.7951 91.9766 15.8506L91.9902 16.168C91.9902 16.168 91.7139 15.9953 91.7139 15.9941C89.3906 14.5188 89.3307 11.7398 89.4131 10.6123L89.4424 10.1982L89.7119 10.5186ZM123.122 10.4053L123.138 10.6133C123.219 11.7406 123.159 14.5196 120.835 15.9951C120.833 15.9975 120.562 16.168 120.562 16.168L120.574 15.8506C120.613 14.7951 121.886 11.6472 122.838 10.5186L123.108 10.1982L123.122 10.4053ZM66.5127 10.0781C63.7799 10.0781 62.1611 12.3159 62.1611 15.0674H70.9375C71.0066 12.2558 69.6907 10.0783 66.5127 10.0781ZM93.7715 9.10352C93.8234 10.2944 92.8783 12.8557 92.167 13.8262L91.9736 14.0879L91.8691 13.7842C91.7521 13.4572 91.6844 13.1439 91.6641 12.8516C91.5353 10.9526 93.024 9.41858 93.4854 8.99316L93.6221 8.86816L93.7549 8.74316L93.7715 9.10352ZM118.931 8.86816L119.064 8.99316C119.526 9.41713 121.016 10.9523 120.886 12.8516C120.866 13.144 120.798 13.4568 120.684 13.7852L120.575 14.0879L120.383 13.8262C119.67 12.8557 118.73 10.2963 118.779 9.10547L118.794 8.74316L118.931 8.86816ZM90.8115 6.07617C91.2862 7.25138 91.5024 9.8842 91.3389 11.1396L91.1914 11.8516L91.0762 11.709L90.9668 11.5703C89.9756 10.402 89.9421 8.83651 90.0869 7.72949C90.1904 6.94806 90.386 6.36044 90.4941 6.08008L90.5713 5.87598L90.6465 5.67676L90.8115 6.07617ZM121.979 5.87598L122.059 6.0791C122.165 6.3598 122.359 6.94792 122.463 7.72949C122.61 8.83664 122.575 10.4028 121.584 11.5723C121.579 11.5777 121.474 11.71 121.474 11.71L121.358 11.8506L121.211 11.1406C121.046 9.88308 121.264 7.25024 121.741 6.0752L121.904 5.67676L121.979 5.87598ZM117.959 5.33691L118.148 5.45215C119.924 6.54839 120.741 7.85405 120.644 9.44141L120.623 9.80566L120.363 9.58887C119.406 8.79022 118.23 6.775 117.896 5.63574L117.772 5.2207L117.959 5.33691ZM94.7393 5.6875C94.3793 6.81848 93.1623 8.81256 92.1895 9.5918L91.9287 9.80371L91.9131 9.44141C91.8483 7.85171 92.6897 6.56227 94.4883 5.5L94.6797 5.38672L94.8691 5.27441L94.7393 5.6875ZM93.8008 3.28516C93.5127 4.9215 92.8028 6.33917 91.8594 7.17773L91.6445 7.36816C91.6445 7.36816 91.5676 7.03769 91.5664 7.03613C91.5664 7.03613 91.5441 6.92402 91.543 6.91895C91.3062 5.24151 92.8485 3.71252 93.5234 3.13477L93.7031 2.98047L93.8838 2.82422L93.8008 3.28516ZM118.848 2.98145L119.028 3.13379C119.703 3.71309 121.245 5.24215 121.008 6.91797C121.006 6.92327 120.984 7.02894 120.982 7.03516C120.982 7.03789 120.907 7.36816 120.907 7.36816L120.692 7.17773C119.748 6.34033 119.037 4.92151 118.749 3.28418L118.667 2.82422L118.848 2.98145ZM113.343 2.96973C112.926 3.31054 112.475 3.62126 112.003 3.90039C112.536 4.54649 112.997 5.24673 113.376 5.9834C114.02 5.67773 114.64 5.33003 115.229 4.94434C114.69 4.21507 114.055 3.54947 113.343 2.96973ZM107.937 2.91309C107.47 3.06495 106.983 3.14923 106.488 3.17188V5.00586C107.294 4.98868 108.098 4.88054 108.881 4.68652C108.603 4.07408 108.289 3.47948 107.937 2.91309ZM109.432 2.14941C109.103 2.38834 108.751 2.58447 108.381 2.74414C108.74 3.33013 109.062 3.94079 109.341 4.56152C110.009 4.36362 110.662 4.10013 111.278 3.77734C110.726 3.17242 110.105 2.62363 109.432 2.14941ZM40.2832 4.27637H36.3525V0.804688H40.2832V4.27637ZM110.387 1.24609C110.21 1.46146 110.014 1.66271 109.804 1.84961C110.496 2.34967 111.133 2.9186 111.697 3.5459C112.144 3.28668 112.571 2.99649 112.967 2.67871C112.17 2.08732 111.305 1.60523 110.387 1.24609ZM106.01 0.952148C105.586 1.45342 105.192 1.97473 104.839 2.50879C105.22 2.62199 105.614 2.69141 106.01 2.71094V0.952148ZM106.488 2.71094C106.891 2.69298 107.291 2.62318 107.677 2.50879C107.311 1.95484 106.912 1.42743 106.488 0.931641V2.71094ZM105.486 0.858398C104.788 1.13633 104.123 1.47511 103.502 1.87402C103.776 2.06236 104.068 2.22283 104.384 2.35156C104.72 1.83325 105.094 1.33457 105.486 0.858398ZM107.025 0.854492C107.424 1.34093 107.801 1.84092 108.135 2.35156C108.444 2.22356 108.741 2.06404 109.018 1.87402C108.392 1.47272 107.723 1.13088 107.025 0.854492ZM107.48 0.545898C108.155 0.831967 108.801 1.1762 109.408 1.58008C109.593 1.42436 109.762 1.25685 109.919 1.07617C109.136 0.808855 108.319 0.633738 107.48 0.545898ZM105.049 0.541016C104.208 0.627296 103.388 0.803956 102.596 1.07324C102.752 1.24853 102.92 1.41826 103.105 1.5791C103.719 1.17395 104.368 0.827924 105.049 0.541016Z" fill="#222222"/>
</svg>
