<svg width="302" height="52" viewBox="0 0 302 52" fill="none" xmlns="http://www.w3.org/2000/svg">
<g clip-path="url(#clip0_1283_55)">
<path d="M289.083 10.5879C291.707 10.5879 293.967 11.0957 295.863 12.1113C297.759 13.11 299.223 14.5658 300.255 16.4785C301.288 18.3913 301.804 20.7272 301.804 23.4863V27.2441H283.498C283.582 29.4277 284.234 31.1458 285.453 32.3984C286.688 33.6341 288.398 34.252 290.582 34.252C292.393 34.252 294.052 34.0658 295.558 33.6934C297.065 33.321 298.613 32.7624 300.205 32.0176V38.0098C298.8 38.7038 297.327 39.2116 295.787 39.5332C294.263 39.8548 292.41 40.0156 290.226 40.0156C287.382 40.0156 284.86 39.4909 282.66 38.4414C280.476 37.3919 278.758 35.7923 277.505 33.6426C276.27 31.4928 275.652 28.7845 275.652 25.5176C275.652 22.1999 276.21 19.4408 277.328 17.2402C278.462 15.0228 280.036 13.3639 282.05 12.2637C284.065 11.1465 286.409 10.5879 289.083 10.5879ZM289.134 16.0977C287.628 16.0977 286.375 16.5801 285.376 17.5449C284.395 18.5098 283.828 20.0247 283.675 22.0898H294.542C294.526 20.9388 294.314 19.9147 293.908 19.0176C293.518 18.1204 292.926 17.4095 292.13 16.8848C291.352 16.36 290.353 16.0977 289.134 16.0977Z" fill="#FFFFFF"/>
<path d="M267.78 33.8457C268.626 33.8457 269.447 33.7611 270.243 33.5918C271.055 33.4225 271.859 33.2109 272.655 32.957V38.7207C271.825 39.0931 270.793 39.3978 269.557 39.6348C268.338 39.8887 267.001 40.0156 265.545 40.0156C263.853 40.0156 262.329 39.7448 260.975 39.2031C259.638 38.6445 258.58 37.6882 257.801 36.334C257.039 34.9629 256.659 33.0586 256.659 30.6211V16.9355H252.952V13.6602L257.217 11.0703L259.452 5.07812H264.403V11.1211H272.35V16.9355H264.403V30.6211C264.403 31.7044 264.707 32.5169 265.317 33.0586C265.943 33.5833 266.764 33.8457 267.78 33.8457Z" fill="#FFFFFF"/>
<path d="M237.056 10.5371C240.865 10.5371 243.785 11.3665 245.816 13.0254C247.847 14.6842 248.863 17.2064 248.863 20.5918V39.5078H243.454L241.956 35.6484H241.753C240.941 36.6641 240.111 37.4935 239.265 38.1367C238.419 38.7799 237.445 39.2539 236.345 39.5586C235.245 39.8633 233.908 40.0156 232.333 40.0156C230.658 40.0156 229.151 39.694 227.814 39.0508C226.494 38.4076 225.453 37.4258 224.691 36.1055C223.929 34.7682 223.548 33.0755 223.548 31.0273C223.548 28.0143 224.606 25.7969 226.722 24.375C228.838 22.9362 232.012 22.1406 236.244 21.9883L241.169 21.8359V20.5918C241.169 19.1022 240.78 18.0104 240.001 17.3164C239.223 16.6224 238.139 16.2754 236.751 16.2754C235.38 16.2754 234.035 16.4701 232.714 16.8594C231.394 17.2487 230.074 17.7396 228.753 18.332L226.189 13.1016C227.695 12.306 229.38 11.6797 231.242 11.2227C233.12 10.7656 235.059 10.5371 237.056 10.5371ZM241.169 26.3555L238.173 26.457C235.668 26.5247 233.925 26.9733 232.943 27.8027C231.978 28.6322 231.495 29.724 231.495 31.0781C231.495 32.263 231.842 33.1094 232.536 33.6172C233.231 34.1081 234.136 34.3535 235.253 34.3535C236.912 34.3535 238.309 33.8626 239.443 32.8809C240.594 31.8991 241.169 30.5026 241.169 28.6914V26.3555Z" fill="#FFFFFF"/>
<path d="M202.549 40.0156C199.384 40.0156 196.802 38.7799 194.805 36.3086C192.824 33.8203 191.834 30.1725 191.834 25.3652C191.834 20.5072 192.841 16.834 194.856 14.3457C196.87 11.8405 199.502 10.5879 202.752 10.5879C204.106 10.5879 205.3 10.7741 206.332 11.1465C207.365 11.5189 208.253 12.0182 208.998 12.6445C209.76 13.2708 210.403 13.9733 210.928 14.752H211.182C211.08 14.2103 210.953 13.4147 210.801 12.3652C210.666 11.2988 210.598 10.207 210.598 9.08984V0H218.367V39.5078H212.426L210.928 35.8262H210.598C210.107 36.6048 209.489 37.3158 208.744 37.959C208.017 38.5853 207.145 39.0846 206.129 39.457C205.114 39.8294 203.92 40.0156 202.549 40.0156ZM205.266 33.8457C207.382 33.8457 208.871 33.2194 209.735 31.9668C210.615 30.6973 211.08 28.793 211.131 26.2539V25.416C211.131 22.6569 210.708 20.5495 209.862 19.0938C209.015 17.6211 207.441 16.8848 205.139 16.8848C203.429 16.8848 202.092 17.6211 201.127 19.0938C200.162 20.5664 199.68 22.6908 199.68 25.4668C199.68 28.2428 200.162 30.3333 201.127 31.7383C202.109 33.1432 203.489 33.8457 205.266 33.8457Z" fill="#FFFFFF"/>
<path d="M186.45 11.1211V39.5078H178.706V11.1211H186.45ZM182.591 0C183.742 0 184.732 0.270833 185.562 0.8125C186.391 1.33724 186.806 2.32747 186.806 3.7832C186.806 5.22201 186.391 6.2207 185.562 6.7793C184.732 7.32096 183.742 7.5918 182.591 7.5918C181.423 7.5918 180.424 7.32096 179.595 6.7793C178.782 6.2207 178.376 5.22201 178.376 3.7832C178.376 2.32747 178.782 1.33724 179.595 0.8125C180.424 0.270833 181.423 0 182.591 0Z" fill="#FFFFFF"/>
<path d="M171.596 39.5078H163.852V0H171.596V39.5078Z" fill="#FFFFFF"/>
<path d="M145.087 10.5371C148.896 10.5371 151.816 11.3665 153.847 13.0254C155.878 14.6842 156.894 17.2064 156.894 20.5918V39.5078H151.486L149.988 35.6484H149.784C148.972 36.6641 148.142 37.4935 147.296 38.1367C146.45 38.7799 145.476 39.2539 144.376 39.5586C143.276 39.8633 141.939 40.0156 140.365 40.0156C138.689 40.0156 137.182 39.694 135.845 39.0508C134.525 38.4076 133.484 37.4258 132.722 36.1055C131.96 34.7682 131.579 33.0755 131.579 31.0273C131.579 28.0143 132.637 25.7969 134.753 24.375C136.869 22.9362 140.043 22.1406 144.275 21.9883L149.2 21.8359V20.5918C149.2 19.1022 148.811 18.0104 148.032 17.3164C147.254 16.6224 146.17 16.2754 144.782 16.2754C143.411 16.2754 142.066 16.4701 140.745 16.8594C139.425 17.2487 138.105 17.7396 136.784 18.332L134.22 13.1016C135.726 12.306 137.411 11.6797 139.273 11.2227C141.152 10.7656 143.09 10.5371 145.087 10.5371ZM149.2 26.3555L146.204 26.457C143.699 26.5247 141.956 26.9733 140.974 27.8027C140.009 28.6322 139.527 29.724 139.527 31.0781C139.527 32.263 139.874 33.1094 140.568 33.6172C141.262 34.1081 142.167 34.3535 143.284 34.3535C144.943 34.3535 146.34 33.8626 147.474 32.8809C148.625 31.8991 149.2 30.5026 149.2 28.6914V26.3555Z" fill="#FFFFFF"/>
<path d="M130.41 2.38672L117.791 39.5078H109.209L96.6154 2.38672H104.563L111.545 24.4766C111.664 24.849 111.858 25.5514 112.129 26.584C112.4 27.5996 112.671 28.6829 112.942 29.834C113.229 30.9681 113.424 31.9076 113.526 32.6523C113.627 31.9076 113.805 30.9681 114.059 29.834C114.33 28.6999 114.592 27.625 114.846 26.6094C115.117 25.5768 115.311 24.8659 115.43 24.4766L122.463 2.38672H130.41Z" fill="#FFFFFF"/>
<path d="M84.2999 11.4258C87.3299 11.4258 89.5981 12.1875 91.1046 13.7109C92.6111 15.2344 93.3644 17.6634 93.3644 20.998V39.5078H91.3839L90.9269 34.6836H90.7745C90.1821 35.7161 89.4627 36.6387 88.6163 37.4512C87.77 38.2467 86.729 38.873 85.4933 39.3301C84.2745 39.7871 82.785 40.0156 81.0245 40.0156C79.2472 40.0156 77.7238 39.7194 76.4542 39.127C75.2016 38.5345 74.2283 37.6712 73.5343 36.5371C72.8572 35.403 72.5187 34.0234 72.5187 32.3984C72.5187 29.6562 73.6528 27.5742 75.921 26.1523C78.1892 24.7135 81.4477 23.901 85.6964 23.7148L90.8253 23.4609V21.4551C90.8253 18.6283 90.2667 16.6139 89.1495 15.4121C88.0323 14.2103 86.382 13.6094 84.1984 13.6094C82.7765 13.6094 81.4054 13.7956 80.0851 14.168C78.7817 14.5234 77.4529 15.0397 76.0988 15.7168L75.2863 13.584C76.6066 12.9577 78.02 12.4414 79.5265 12.0352C81.0499 11.6289 82.6411 11.4258 84.2999 11.4258ZM90.7999 25.4668L85.9757 25.6699C82.4718 25.8392 79.8058 26.4655 77.9777 27.5488C76.1495 28.6322 75.2355 30.2572 75.2355 32.4238C75.2355 34.1673 75.7771 35.5046 76.8605 36.4355C77.9607 37.3665 79.4842 37.832 81.4308 37.832C84.4607 37.832 86.7713 36.9688 88.3624 35.2422C89.9705 33.5156 90.783 31.1628 90.7999 28.1836V25.4668Z" fill="#FFFFFF"/>
<path d="M55.9883 52C52.5183 52 49.8184 51.3314 47.8887 49.9941C45.976 48.6569 45.0196 46.7865 45.0196 44.3828C45.0196 42.5208 45.6036 40.9128 46.7715 39.5586C47.9395 38.2214 49.5222 37.4173 51.5196 37.1465C50.724 36.7741 50.0723 36.2663 49.5645 35.623C49.0736 34.9798 48.8282 34.235 48.8282 33.3887C48.8282 32.4408 49.1244 31.5605 49.7169 30.748C50.3093 29.9186 51.198 29.1569 52.3829 28.4629C50.7917 27.8874 49.5391 26.9141 48.6251 25.543C47.711 24.1549 47.254 22.4876 47.254 20.541C47.254 18.679 47.6518 17.0625 48.4473 15.6914C49.2429 14.3203 50.3686 13.2624 51.8243 12.5176C53.2969 11.7559 55.032 11.375 57.0294 11.375C57.6387 11.375 58.1889 11.3919 58.6797 11.4258C59.1876 11.4596 59.6531 11.5189 60.0762 11.6035C60.4994 11.6712 60.8803 11.7643 61.2188 11.8828H70.1309V13.7109L64.4434 14.0918C65.1882 14.9889 65.7468 15.9622 66.1192 17.0117C66.4916 18.0443 66.6778 19.1361 66.6778 20.2871C66.6778 23.0293 65.8145 25.2044 64.088 26.8125C62.3614 28.4206 59.9577 29.2246 56.877 29.2246C56.0307 29.2246 55.2012 29.1484 54.3887 28.9961C53.3562 29.6055 52.5691 30.2233 52.0274 30.8496C51.4857 31.459 51.2149 32.2207 51.2149 33.1348C51.2149 33.7103 51.3842 34.1842 51.7227 34.5566C52.0613 34.9121 52.5521 35.1914 53.1954 35.3945C53.8386 35.5807 54.6257 35.6738 55.5567 35.6738H60.4063C63.4024 35.6738 65.696 36.2832 67.2872 37.502C68.8783 38.7207 69.6739 40.515 69.6739 42.8848C69.6739 45.7793 68.4805 48.0221 66.0938 49.6133C63.724 51.2044 60.3555 52 55.9883 52ZM56.1661 49.8418C58.5866 49.8418 60.601 49.5794 62.209 49.0547C63.834 48.5299 65.0528 47.7513 65.8653 46.7188C66.6778 45.7031 67.084 44.4421 67.084 42.9355C67.084 41.6999 66.7878 40.7435 66.1954 40.0664C65.6029 39.3893 64.765 38.9238 63.6817 38.6699C62.5984 38.3991 61.3204 38.2637 59.8477 38.2637H55.2266C53.754 38.2637 52.4421 38.4668 51.2911 38.873C50.14 39.2624 49.2429 39.8887 48.5997 40.752C47.9734 41.6152 47.6602 42.7663 47.6602 44.2051C47.6602 46.0501 48.3796 47.4466 49.8184 48.3945C51.2741 49.3594 53.39 49.8418 56.1661 49.8418ZM56.9786 27.168C59.2637 27.168 61.0157 26.5924 62.2344 25.4414C63.4532 24.2904 64.0626 22.623 64.0626 20.4395C64.0626 18.1035 63.4363 16.3516 62.1837 15.1836C60.9311 14.0156 59.1791 13.4316 56.9278 13.4316C54.7442 13.4316 53.0261 14.0579 51.7735 15.3105C50.5378 16.5462 49.92 18.2897 49.92 20.541C49.92 22.64 50.5124 24.2734 51.6973 25.4414C52.8822 26.5924 54.6426 27.168 56.9786 27.168Z" fill="#FFFFFF"/>
<path d="M40.4991 11.9082V39.5078H37.9346V11.9082H40.4991ZM39.2549 1.70117C39.8982 1.70117 40.3721 1.89583 40.6768 2.28516C40.9815 2.65755 41.1339 3.16536 41.1339 3.80859C41.1339 4.45182 40.9815 4.95964 40.6768 5.33203C40.3721 5.70443 39.8982 5.89062 39.2549 5.89062C38.6456 5.89062 38.1885 5.70443 37.8839 5.33203C37.5792 4.95964 37.4268 4.45182 37.4268 3.80859C37.4268 3.16536 37.5792 2.65755 37.8839 2.28516C38.1885 1.89583 38.6456 1.70117 39.2549 1.70117Z" fill="#FFFFFF"/>
<path d="M16.6562 20.7695H30.291V37.8066C28.5137 38.5514 26.6178 39.11 24.6035 39.4824C22.5892 39.8379 20.4479 40.0156 18.1797 40.0156C14.2357 40.0156 10.9095 39.2708 8.20117 37.7812C5.50977 36.2747 3.47005 34.0996 2.08203 31.2559C0.69401 28.4121 0 24.9928 0 20.998C0 17.2741 0.753255 13.9648 2.25977 11.0703C3.7832 8.17578 5.95833 5.90755 8.78516 4.26562C11.612 2.6237 14.9974 1.80273 18.9414 1.80273C20.9727 1.80273 22.8854 1.98893 24.6797 2.36133C26.4909 2.73372 28.209 3.29232 29.834 4.03711L28.793 6.37305C27.1849 5.62826 25.543 5.06966 23.8672 4.69727C22.2083 4.32487 20.5241 4.13867 18.8145 4.13867C15.4629 4.13867 12.5768 4.85807 10.1562 6.29688C7.7526 7.71875 5.90755 9.69922 4.62109 12.2383C3.35156 14.7604 2.7168 17.6719 2.7168 20.9727C2.7168 24.7135 3.33464 27.8197 4.57031 30.291C5.80599 32.7624 7.60872 34.6159 9.97852 35.8516C12.3652 37.0872 15.2598 37.7051 18.6621 37.7051C20.5241 37.7051 22.1914 37.5697 23.6641 37.2988C25.1536 37.028 26.4993 36.6725 27.7012 36.2324V23.1562H16.6562V20.7695Z" fill="#FFFFFF"/>
</g>
<defs>
<clipPath id="clip0_1283_55">
<rect width="301.804" height="52" fill="white"/>
</clipPath>
</defs>
</svg>
