<svg width="238" height="50" viewBox="0 0 238 50" fill="none" xmlns="http://www.w3.org/2000/svg">
<g clip-path="url(#clip0_444_3418)">
<path d="M16.5157 18.9228H30.1478V35.796C26.5729 37.3213 22.5453 38.0839 18.0887 38.0839C13.632 38.0839 7.79314 36.4395 4.67112 33.1506C1.54909 29.8141 0 25.143 0 19.1134C0 13.0839 0.762631 12.0114 2.31173 9.10391C3.86082 6.19638 6.05338 3.95615 8.93708 2.35939C11.8208 0.786463 15.1096 0 18.8513 0C22.5929 0 26.5014 0.738799 29.6949 2.2164L28.6702 4.55195C25.4766 3.07436 22.1401 2.33556 18.7083 2.33556C13.8465 2.33556 9.96187 3.83699 7.102 6.83985C4.24214 9.84271 2.8122 13.918 2.8122 19.0181C2.8122 24.1182 4.17064 28.7655 6.88751 31.5777C9.60439 34.3899 13.5844 35.796 18.8513 35.796C24.1182 35.796 25.143 35.3193 27.5262 34.3661V21.3775H16.5157V18.9228Z" fill="#FFFFFF"/>
<path d="M37.7502 2.43089C37.7502 0.810295 38.2746 0 39.3472 0C40.4199 0 40.2768 0.21449 40.5629 0.64347C40.8489 1.07245 41.0158 1.66826 41.0158 2.43089C41.0158 3.19352 40.8727 3.78932 40.5629 4.2183C40.253 4.64728 39.8478 4.88561 39.3472 4.88561C38.2746 4.88561 37.7502 4.07531 37.7502 2.43089ZM40.5867 37.5596H38.0839V10.0572H40.5867V37.5596Z" fill="#FFFFFF"/>
<path d="M70.3289 10.0572V11.797L64.633 12.1544C66.1583 14.0372 66.9209 16.1106 66.9209 18.3746C66.9209 20.6387 66.0391 23.1649 64.2755 24.8093C62.5119 26.4538 60.1525 27.2641 57.1735 27.2641C54.1945 27.2641 55.0524 27.2164 54.552 27.1211C53.551 27.6454 52.7884 28.265 52.2641 28.9562C51.7398 29.6473 51.4776 30.4099 51.4776 31.1964C51.4776 31.9828 51.8113 32.7216 52.4786 33.1268C53.1459 33.5319 54.266 33.7226 55.8389 33.7226H60.653C63.632 33.7226 65.9199 34.3184 67.5167 35.5338C69.0896 36.7493 69.8999 38.5129 69.8999 40.8723C69.8999 43.2317 68.7321 46.02 66.3727 47.5929C64.0134 49.1659 60.6768 49.9523 56.3156 49.9523C51.9543 49.9523 50.1907 49.285 48.2841 47.9504C46.3775 46.6158 45.4481 44.7569 45.4481 42.3975C45.4481 40.0381 46.0439 38.9419 47.2116 37.7026C48.3794 36.4633 49.9762 35.6053 51.9781 35.1525C51.144 34.795 50.5005 34.2946 50 33.6511C49.4995 33.0076 49.2612 32.245 49.2612 31.4109C49.2612 29.5758 50.429 27.9552 52.7646 26.5491C51.1678 25.8818 49.9047 24.857 49.0229 23.4509C48.1411 22.0448 47.6883 20.4242 47.6883 18.613C47.6883 15.8723 48.5701 13.6559 50.3098 12.0114C52.0496 10.3432 54.409 9.53289 57.388 9.53289C60.367 9.53289 60.5815 9.69972 61.5825 10.0572H70.3766H70.3289ZM48.0696 42.2069C48.0696 45.9724 50.8818 47.8789 56.4824 47.8789C62.083 47.8789 67.3022 45.5672 67.3022 40.9676C67.3022 36.368 66.7302 38.1077 65.6101 37.3689C64.49 36.6301 62.6549 36.2488 60.1287 36.2488H55.6244C50.572 36.2488 48.0696 38.2269 48.0696 42.183V42.2069ZM50.1668 18.6368C50.1668 20.7579 50.8103 22.4023 52.0973 23.5701C53.3842 24.7378 55.1001 25.3337 57.2688 25.3337C59.4376 25.3337 61.3203 24.7617 62.5358 23.5939C63.7512 22.4261 64.3708 20.734 64.3708 18.5415C64.3708 16.3489 63.7512 14.4423 62.4881 13.2745C61.225 12.1068 59.4852 11.511 57.2212 11.511C54.9571 11.511 53.3127 12.1306 52.0496 13.3937C50.7865 14.6568 50.1668 16.3966 50.1668 18.6368Z" fill="#FFFFFF"/>
<path d="M91.9923 37.5596L91.3489 33.1983H91.1582C89.7759 34.9619 88.346 36.225 86.8922 36.9638C85.4385 37.7026 83.6987 38.0601 81.7207 38.0601C79.7426 38.0601 76.9304 37.3689 75.4289 35.9867C73.9275 34.6044 73.1887 32.6978 73.1887 30.2431C73.1887 27.7884 74.3088 25.4766 76.5491 23.999C78.7893 22.5214 82.0066 21.735 86.2488 21.6397L91.4919 21.4967V19.6854C91.4919 17.0639 90.9676 15.1096 89.8951 13.775C88.8227 12.4404 87.1306 11.7731 84.7712 11.7731C82.4118 11.7731 79.5996 12.4881 76.8589 13.8942L75.9294 11.7255C78.9561 10.3194 81.9351 9.60439 84.8903 9.60439C87.8455 9.60439 90.1573 10.3908 91.6587 11.9638C93.1601 13.5367 93.8989 15.9676 93.8989 19.3041V37.5834H92.0638L91.9923 37.5596ZM81.8875 35.7722C84.8188 35.7722 87.1306 34.938 88.8227 33.2459C90.5147 31.5777 91.3727 29.2421 91.3727 26.2631V23.5462L86.5586 23.7369C82.6978 23.9275 79.9571 24.5234 78.3126 25.5481C76.6682 26.5729 75.8579 28.1697 75.8579 30.3146C75.8579 32.4595 76.3822 33.3651 77.4309 34.3184C78.4795 35.2717 79.9809 35.7483 81.8875 35.7483V35.7722Z" fill="#FFFFFF"/>
<path d="M123.093 37.5596L114.18 8.55577H113.942C114.252 14.4662 114.419 18.3985 114.419 20.3766V37.5834H107.412V0.571976H118.089L126.835 28.837H126.978L136.297 0.571976H146.973V37.5358H139.657V20.0429C139.657 19.2088 139.657 18.2555 139.705 17.183C139.728 16.1106 139.848 13.2269 140.038 8.5796H139.8L130.267 37.5358H123.093V37.5596Z" fill="#FFFFFF"/>
<path d="M172.688 37.5596L171.187 33.7226H170.996C169.686 35.367 168.351 36.4871 166.992 37.1306C165.61 37.7741 163.823 38.0839 161.63 38.0839C159.438 38.0839 156.768 37.2974 155.219 35.7483C153.67 34.1992 152.884 31.9828 152.884 29.123C152.884 26.2631 153.932 23.9037 156.03 22.4738C158.127 21.0439 161.297 20.2574 165.515 20.1144L170.424 19.9714V18.7321C170.424 15.8723 168.947 14.4423 166.015 14.4423C163.084 14.4423 161.106 15.1335 158.055 16.4919L155.505 11.2726C158.77 9.58056 162.369 8.7226 166.325 8.7226C170.281 8.7226 173.022 9.55672 175.048 11.2011C177.073 12.8456 178.074 15.3718 178.074 18.7321V37.5834H172.688V37.5596ZM170.424 24.4519L167.445 24.5472C165.205 24.6187 163.537 25.0238 162.441 25.7626C161.344 26.5014 160.796 27.6215 160.796 29.1468C160.796 31.3155 162.035 32.4118 164.538 32.4118C167.04 32.4118 167.755 31.8875 168.828 30.8627C169.9 29.8379 170.424 28.4795 170.424 26.7636V24.428V24.4519Z" fill="#FFFFFF"/>
<path d="M200.715 38.0601C197.402 38.0601 194.781 36.8446 192.898 34.4376H192.493C192.755 36.797 192.898 38.1554 192.898 38.5367V50H185.176V9.27074H191.444L192.541 12.9409H192.898C194.709 10.1525 197.378 8.74643 200.906 8.74643C204.433 8.74643 206.864 10.0334 208.746 12.6072C210.629 15.1811 211.582 18.7798 211.582 23.3556C211.582 27.9314 211.13 29.0038 210.248 31.2202C209.366 33.4366 208.103 35.1287 206.459 36.2965C204.814 37.4643 202.908 38.0362 200.691 38.0362L200.715 38.0601ZM198.451 14.919C196.544 14.919 195.162 15.5148 194.28 16.6826C193.399 17.8503 192.946 19.7807 192.922 22.4976V23.3317C192.922 26.3584 193.375 28.551 194.28 29.8618C195.186 31.1726 196.616 31.8399 198.57 31.8399C202.026 31.8399 203.766 28.98 203.766 23.2841C203.766 17.5882 203.337 18.4223 202.479 17.0162C201.621 15.6339 200.286 14.919 198.475 14.919H198.451Z" fill="#FFFFFF"/>
<path d="M237.44 29.1468C237.44 32.0543 236.439 34.2469 234.414 35.7722C232.388 37.2974 229.385 38.0601 225.381 38.0601C221.378 38.0601 221.568 37.9171 220.114 37.6549C218.661 37.3689 217.302 36.9638 216.039 36.4395V30.0763C217.469 30.7436 219.09 31.3155 220.877 31.7684C222.664 32.2212 224.261 32.4595 225.62 32.4595C228.408 32.4595 229.814 31.6492 229.814 30.0286C229.814 28.408 229.623 28.9323 229.266 28.551C228.909 28.1697 228.265 27.7407 227.336 27.2641C226.43 26.7874 225.215 26.2154 223.689 25.572C221.521 24.6664 219.924 23.8084 218.899 23.0458C217.874 22.2831 217.135 21.3775 216.683 20.3765C216.23 19.3756 215.991 18.1363 215.991 16.6826C215.991 14.1802 216.969 12.2259 218.923 10.8437C220.877 9.46139 223.642 8.79409 227.216 8.79409C230.791 8.79409 233.937 9.53289 237.154 11.0105L234.819 16.5634C233.413 15.9676 232.078 15.4671 230.839 15.062C229.6 14.6568 228.36 14.49 227.073 14.49C224.809 14.49 223.665 15.1096 223.665 16.3251C223.665 17.5405 224.023 17.612 224.762 18.1125C225.501 18.613 227.097 19.3756 229.576 20.3527C231.792 21.2345 233.413 22.0925 234.438 22.8551C235.462 23.6416 236.225 24.5234 236.725 25.5243C237.226 26.5253 237.464 27.7407 237.464 29.1468H237.44Z" fill="#FFFFFF"/>
</g>
<defs>
<clipPath id="clip0_444_3418">
<rect width="237.464" height="50" fill="white"/>
</clipPath>
</defs>
</svg>
