<svg width="211" height="52" viewBox="0 0 211 52" fill="none" xmlns="http://www.w3.org/2000/svg">
<g clip-path="url(#clip0_849_32)">
<path d="M16.5113 18.92H30.1476V35.7938C26.5734 37.309 22.546 38.073 18.0782 38.073C12.2378 38.073 7.77001 36.4284 4.662 33.1261C1.554 29.8239 0 25.1619 0 19.1272C0 15.3717 0.777001 12.0306 2.31805 9.12976C3.8591 6.22896 6.06061 3.9627 8.93551 2.3828C11.8104 0.802901 15.1127 0 18.8423 0C22.8697 0 26.4828 0.738151 29.6944 2.2274L28.6584 4.5584C25.4597 3.06915 22.1316 2.331 18.6869 2.331C13.8177 2.331 9.94561 3.8332 7.08366 6.85056C4.2217 9.86791 2.7972 13.9213 2.7972 19.0236C2.7972 24.5921 4.15695 28.7749 6.86351 31.5851C9.58301 34.3952 13.5716 35.7938 18.8293 35.7938C22.2352 35.7938 25.123 35.3147 27.5058 34.3564V21.3546H16.4983V18.92H16.5113Z" fill="black"/>
<path d="M37.7493 2.4346C37.7493 0.815851 38.2802 0 39.3419 0C39.8599 0 40.2742 0.2072 40.572 0.634551C40.8698 1.0619 41.0123 1.6576 41.0123 2.4346C41.0123 3.2116 40.8698 3.79435 40.572 4.23465C40.2742 4.67495 39.8728 4.8951 39.3419 4.8951C38.2802 4.8951 37.7493 4.07925 37.7493 2.44755V2.4346ZM40.6109 37.555H38.1118V10.0622H40.6109V37.555Z" fill="black"/>
<path d="M70.3575 10.0622V11.8104L64.6724 12.1601C66.1876 14.0508 66.9516 16.1228 66.9516 18.3761C66.9516 21.0179 66.071 23.1676 64.3098 24.8123C62.5486 26.4569 60.1788 27.2728 57.2132 27.2728C55.97 27.2728 55.0894 27.221 54.5844 27.1174C53.5872 27.6354 52.8361 28.257 52.3051 28.9692C51.7871 29.6815 51.5152 30.4326 51.5152 31.2225C51.5152 32.1031 51.8519 32.7377 52.5123 33.1391C53.1728 33.5406 54.2994 33.7478 55.8664 33.7478H60.6709C63.6494 33.7478 65.9415 34.3564 67.5214 35.5608C69.1013 36.7651 69.9042 38.5522 69.9042 40.9091C69.9042 43.8099 68.7258 46.0503 66.3818 47.6302C64.0379 49.2101 60.6838 50 56.3326 50C52.8749 50 50.1943 49.3396 48.3036 48.0057C46.4129 46.6719 45.4546 44.82 45.4546 42.4372C45.4546 40.5465 46.0373 38.9796 47.2158 37.7364C48.3813 36.4932 49.9741 35.6385 51.9814 35.1852C51.1526 34.8356 50.4921 34.3305 50 33.683C49.5079 33.0355 49.2489 32.2844 49.2489 31.4427C49.2489 29.6038 50.4144 27.985 52.7584 26.5864C51.1526 25.926 49.9094 24.89 49.0158 23.4914C48.1223 22.0798 47.669 20.474 47.669 18.648C47.669 15.9026 48.5367 13.6882 50.2849 12.0306C52.0332 10.373 54.3901 9.54419 57.3557 9.54419C59.1557 9.54419 60.5543 9.72549 61.5515 10.0751H70.3575V10.0622ZM48.0964 42.2171C48.0964 45.9985 50.9065 47.8892 56.5139 47.8892C63.7271 47.8892 67.3401 45.5841 67.3401 40.9868C67.3401 39.3292 66.7703 38.1378 65.6437 37.3997C64.517 36.6615 62.6781 36.286 60.1529 36.286H55.6463C50.6087 36.286 48.0834 38.2673 48.0834 42.23L48.0964 42.2171ZM50.1943 18.6351C50.1943 20.7589 50.8418 22.4036 52.1238 23.582C53.4059 24.7605 55.1412 25.3432 57.2909 25.3432C59.5831 25.3432 61.3443 24.7605 62.5616 23.595C63.7789 22.4295 64.4005 20.746 64.4005 18.5315C64.4005 16.1875 63.7659 14.4263 62.5098 13.2608C61.2536 12.0824 59.4924 11.4996 57.2391 11.4996C54.9858 11.4996 53.3282 12.1342 52.072 13.3903C50.8159 14.6465 50.1813 16.3947 50.1813 18.6351H50.1943Z" fill="black"/>
<path d="M92.0487 37.555L91.4141 33.2038H91.2069C89.8213 34.978 88.3968 36.2212 86.9464 36.9593C85.483 37.6975 83.7607 38.0601 81.7793 38.0601C79.0857 38.0601 76.9878 37.3737 75.4856 35.9881C73.9834 34.6024 73.2323 32.6858 73.2323 30.2512C73.2323 27.5706 74.346 25.4856 76.5864 24.0093C78.8267 22.5201 82.0513 21.7431 86.2859 21.6524L91.5177 21.497V19.6711C91.5177 17.0552 90.9868 15.0868 89.9249 13.7529C88.863 12.4191 87.1536 11.7586 84.7967 11.7586C82.2455 11.7586 79.6167 12.4709 76.8842 13.8824L75.9518 11.7068C78.9692 10.2953 81.9606 9.58301 84.9003 9.58301C87.8399 9.58301 90.1709 10.373 91.6602 11.9399C93.1494 13.5069 93.9005 15.9544 93.9005 19.2696V37.555H92.0487ZM81.9218 35.7938C84.8614 35.7938 87.1665 34.9521 88.863 33.2815C90.5594 31.611 91.4012 29.267 91.4012 26.2885V23.582L86.5967 23.7892C82.7376 23.9705 79.9793 24.5791 78.3346 25.6022C76.69 26.6252 75.8741 28.2051 75.8741 30.3678C75.8741 32.0901 76.4051 33.424 77.454 34.3823C78.503 35.3406 79.9922 35.8068 81.9218 35.8068V35.7938Z" fill="black"/>
<path d="M201.345 39.498C198.589 39.498 196.24 39 194.297 38.0039C192.355 36.9912 190.877 35.4307 189.865 33.3223C188.852 31.2139 188.346 28.5161 188.346 25.229C188.346 21.8257 188.918 19.0532 190.064 16.9116C191.226 14.7534 192.828 13.168 194.87 12.1553C196.929 11.1426 199.311 10.6362 202.017 10.6362C203.943 10.6362 205.603 10.8271 206.997 11.209C208.409 11.5742 209.637 12.0142 210.683 12.5288L208.442 18.4058C207.246 17.9243 206.134 17.5342 205.105 17.2354C204.076 16.9199 203.046 16.7622 202.017 16.7622C200.689 16.7622 199.585 17.0776 198.705 17.7085C197.825 18.3228 197.169 19.2524 196.738 20.4976C196.306 21.7427 196.09 23.3032 196.09 25.1792C196.09 27.022 196.323 28.5493 196.787 29.7612C197.252 30.9731 197.925 31.8779 198.805 32.4756C199.684 33.0566 200.755 33.3472 202.017 33.3472C203.594 33.3472 204.997 33.1396 206.225 32.7246C207.454 32.293 208.649 31.6953 209.811 30.9316V37.4312C208.649 38.1616 207.429 38.6846 206.151 39C204.889 39.332 203.287 39.498 201.345 39.498Z" fill="black"/>
<path d="M173.863 10.6362C176.835 10.6362 179.226 11.4497 181.035 13.0767C182.845 14.687 183.75 17.2769 183.75 20.8462V39H176.154V22.7388C176.154 20.7466 175.789 19.2441 175.059 18.2314C174.345 17.2188 173.216 16.7124 171.672 16.7124C169.348 16.7124 167.762 17.501 166.916 19.0781C166.069 20.6553 165.646 22.9297 165.646 25.9014V39H158.05V11.1592H163.853L164.874 14.7202H165.297C165.895 13.7573 166.633 12.9771 167.513 12.3794C168.41 11.7817 169.397 11.3418 170.477 11.0596C171.572 10.7773 172.701 10.6362 173.863 10.6362Z" fill="black"/>
<path d="M126.56 11.1592H134.877L140.132 26.8228C140.298 27.3208 140.439 27.8271 140.555 28.3418C140.671 28.8564 140.771 29.3877 140.854 29.9355C140.937 30.4834 141.003 31.0562 141.053 31.6538H141.202C141.302 30.7573 141.435 29.9189 141.601 29.1387C141.783 28.3584 142.008 27.5864 142.273 26.8228L147.428 11.1592H155.571L143.792 42.561C143.078 44.4868 142.149 46.0889 141.003 47.3672C139.858 48.6621 138.538 49.6333 137.044 50.2808C135.566 50.9282 133.939 51.252 132.163 51.252C131.3 51.252 130.552 51.2021 129.922 51.1025C129.291 51.0195 128.751 50.9282 128.303 50.8286V44.8022C128.652 44.8853 129.092 44.96 129.623 45.0264C130.154 45.0928 130.71 45.126 131.291 45.126C132.354 45.126 133.267 44.9019 134.031 44.4536C134.794 44.0054 135.433 43.3994 135.948 42.6357C136.463 41.8887 136.869 41.0669 137.168 40.1704L137.616 38.8008L126.56 11.1592Z" fill="black"/>
<path d="M126.073 28.8896C126.073 31.0479 125.55 32.9238 124.504 34.5176C123.458 36.1113 121.931 37.3398 119.922 38.2031C117.93 39.0664 115.506 39.498 112.65 39.498C111.389 39.498 110.152 39.415 108.94 39.249C107.745 39.083 106.591 38.8423 105.479 38.5269C104.383 38.1948 103.337 37.7881 102.341 37.3066V30.1348C104.067 30.8984 105.86 31.5874 107.72 32.2017C109.579 32.8159 111.422 33.123 113.248 33.123C114.51 33.123 115.522 32.957 116.286 32.625C117.066 32.293 117.631 31.8364 117.979 31.2554C118.328 30.6743 118.502 30.0103 118.502 29.2632C118.502 28.3501 118.195 27.5698 117.581 26.9224C116.967 26.2749 116.12 25.6689 115.041 25.1045C113.979 24.54 112.775 23.9341 111.43 23.2866C110.583 22.8882 109.662 22.4067 108.666 21.8423C107.67 21.2612 106.724 20.5557 105.827 19.7256C104.931 18.8955 104.192 17.8911 103.611 16.7124C103.046 15.5171 102.764 14.0894 102.764 12.4292C102.764 10.2544 103.262 8.39502 104.258 6.85107C105.254 5.30713 106.674 4.12842 108.517 3.31494C110.376 2.48486 112.567 2.06982 115.091 2.06982C116.983 2.06982 118.785 2.29395 120.495 2.74219C122.221 3.17383 124.022 3.80469 125.898 4.63477L123.408 10.6362C121.731 9.95557 120.229 9.43262 118.901 9.06738C117.573 8.68555 116.22 8.49463 114.842 8.49463C113.879 8.49463 113.057 8.65234 112.376 8.96777C111.696 9.2666 111.181 9.69824 110.833 10.2627C110.484 10.8105 110.31 11.4497 110.31 12.1802C110.31 13.0435 110.559 13.7739 111.057 14.3716C111.571 14.9526 112.335 15.5171 113.348 16.0649C114.377 16.6128 115.655 17.252 117.183 17.9824C119.042 18.8623 120.627 19.7837 121.939 20.7466C123.267 21.6929 124.288 22.8135 125.002 24.1084C125.716 25.3867 126.073 26.9805 126.073 28.8896Z" fill="black"/>
</g>
<defs>
<clipPath id="clip0_849_32">
<rect width="211" height="52" fill="white"/>
</clipPath>
</defs>
</svg>
