<svg width="160" height="160" viewBox="0 0 160 160" fill="none" xmlns="http://www.w3.org/2000/svg">
<path d="M132.5 5H27.5C15.0736 5 5 15.0736 5 27.5V132.5C5 144.926 15.0736 155 27.5 155H132.5C144.926 155 155 144.926 155 132.5V27.5C155 15.0736 144.926 5 132.5 5Z" stroke="white" stroke-width="1.5" stroke-miterlimit="10"/>
<path d="M80 89.375C85.1777 89.375 89.375 85.1777 89.375 80C89.375 74.8223 85.1777 70.625 80 70.625C74.8223 70.625 70.625 74.8223 70.625 80C70.625 85.1777 74.8223 89.375 80 89.375Z" stroke="white" stroke-width="1.5" stroke-miterlimit="10"/>
<path d="M155 27.5V80H110C105.856 80 102.5 76.6438 102.5 72.5C102.5 70.4281 103.339 68.5531 104.694 67.1937C106.053 65.8391 107.928 65 110 65H72.5C68.3562 65 65 61.6438 65 57.5C65 55.4281 65.8391 53.5531 67.1937 52.1938C68.5531 50.8391 70.4281 50 72.5 50H65C60.8562 50 57.5 46.6438 57.5 42.5C57.5 40.4281 58.3391 38.5531 59.6938 37.1938C61.0531 35.8391 62.9281 35 65 35H72.5C68.3562 35 65 31.6438 65 27.5C65 25.4281 65.8391 23.5531 67.1937 22.1938C68.5531 20.8391 70.4281 20 72.5 20H80C75.8562 20 72.5 16.6438 72.5 12.5C72.5 10.4281 73.3391 8.55312 74.6937 7.19375C76.0531 5.83906 77.9281 5 80 5H132.5C144.927 5 155 15.0734 155 27.5Z" stroke="white" stroke-width="1.5" stroke-miterlimit="10"/>
<path d="M80 20H117.5" stroke="white" stroke-width="1.5" stroke-miterlimit="10"/>
<path d="M72.5 35H117.5" stroke="white" stroke-width="1.5" stroke-miterlimit="10"/>
<path d="M72.5 50H117.5" stroke="white" stroke-width="1.5" stroke-miterlimit="10"/>
<path d="M110 65H136.25" stroke="white" stroke-width="1.5" stroke-miterlimit="10"/>
<path d="M5 132.261V79.7612H50C54.1438 79.7612 57.5 83.1175 57.5 87.2612C57.5 89.3331 56.6609 91.2081 55.3062 92.5675C53.9469 93.9222 52.0719 94.7612 50 94.7612H87.5C91.6438 94.7612 95 98.1175 95 102.261C95 104.333 94.1609 106.208 92.8063 107.567C91.4469 108.922 89.5719 109.761 87.5 109.761H95C99.1438 109.761 102.5 113.117 102.5 117.261C102.5 119.333 101.661 121.208 100.306 122.567C98.9469 123.922 97.0719 124.761 95 124.761H87.5C91.6438 124.761 95 128.117 95 132.261C95 134.333 94.1609 136.208 92.8063 137.567C91.4469 138.922 89.5719 139.761 87.5 139.761H80C84.1438 139.761 87.5 143.117 87.5 147.261C87.5 149.333 86.6609 151.208 85.3063 152.567C83.9469 153.922 82.0719 154.761 80 154.761H27.5C15.0734 154.761 5 144.688 5 132.261Z" stroke="white" stroke-width="1.5" stroke-miterlimit="10"/>
<path d="M80 139.761H42.5" stroke="white" stroke-width="1.5" stroke-miterlimit="10"/>
<path d="M87.5 124.761H42.5" stroke="white" stroke-width="1.5" stroke-miterlimit="10"/>
<path d="M87.5 109.761H42.5" stroke="white" stroke-width="1.5" stroke-miterlimit="10"/>
<path d="M50 94.7612H23.75" stroke="white" stroke-width="1.5" stroke-miterlimit="10"/>
</svg>
