<svg width="160" height="160" viewBox="0 0 160 160" fill="none" xmlns="http://www.w3.org/2000/svg">
<path d="M155 151.261C155 153.47 153.209 155.261 151 155.261H9C6.79086 155.261 5 153.47 5 151.261V80.9435C5 79.8784 5.42481 78.8573 6.18027 78.1064L77.1803 7.54123C78.7404 5.9907 81.2596 5.9907 82.8197 7.54123L153.82 78.1064C154.575 78.8573 155 79.8784 155 80.9435V151.261Z" stroke="white" stroke-width="1.5" stroke-miterlimit="10"/>
<path d="M101.353 120.309C106.815 114.82 110.191 107.252 110.191 98.8814C110.191 82.1459 96.6747 68.585 79.9999 68.585C63.325 68.585 49.8086 82.1485 49.8086 98.8814C49.8086 107.417 53.3196 115.118 58.9743 120.622" stroke="white" stroke-width="1.5" stroke-miterlimit="10"/>
<path d="M49.4893 130.14C41.4068 122.192 36.3965 111.126 36.3965 98.8813C36.3965 74.72 55.9152 55.1257 80.0002 55.1257C104.085 55.1257 123.604 74.72 123.604 98.8813C123.604 110.961 118.72 121.902 110.831 129.819" stroke="white" stroke-width="1.5" stroke-miterlimit="10"/>
<path d="M79.999 108.29V136.792" stroke="white" stroke-width="1.5" stroke-miterlimit="10"/>
<path d="M89.3744 98.8807C89.3744 101.48 88.3292 103.835 86.6295 105.533C84.9374 107.238 82.5908 108.287 80.0007 108.287C77.5729 108.287 75.3607 107.363 73.6991 105.843C71.8066 104.122 70.627 101.643 70.627 98.8807C70.627 93.6824 74.8204 89.4744 80.0007 89.4744C85.181 89.4744 89.3744 93.6824 89.3744 98.8807Z" stroke="white" stroke-width="1.5" stroke-miterlimit="10"/>
</svg>
