<svg width="160" height="160" viewBox="0 0 160 160" fill="none" xmlns="http://www.w3.org/2000/svg">
<path d="M109.283 128.204C99.4046 144.431 81.5881 155.263 61.25 155.263C30.1835 155.263 5 129.989 5 98.8166C5 78.4076 15.7944 60.5266 31.9669 50.6111C26.7537 59.1723 23.75 69.2355 23.75 80.0013C23.75 111.173 48.9335 136.447 80.0001 136.447C90.7285 136.447 100.752 133.433 109.283 128.204Z" stroke="white" stroke-width="1.5" stroke-miterlimit="10"/>
<path d="M128.034 109.389C123.366 117.056 116.925 123.52 109.284 128.204C100.753 133.433 90.7295 136.447 80.001 136.447C48.9345 136.447 23.751 111.173 23.751 80.0011C23.751 69.2353 26.7546 59.1722 31.9679 50.611C36.6357 42.9433 43.0769 36.4798 50.7179 31.7957C48.2648 35.823 46.3038 40.1812 44.911 44.7889C43.3432 49.9771 42.501 55.4809 42.501 61.1833C42.501 92.358 67.6845 117.632 98.751 117.632C104.434 117.632 109.918 116.787 115.091 115.211C119.68 113.818 124.023 111.848 128.034 109.389Z" stroke="white" stroke-width="1.5" stroke-miterlimit="10"/>
<path d="M98.75 4.7373C78.4119 4.7373 60.5955 15.5693 50.7169 31.7956C48.2638 35.8229 46.3028 40.1812 44.91 44.7889C43.3422 49.977 42.5 55.4809 42.5 61.1832C42.5 92.358 67.6835 117.632 98.75 117.632C104.433 117.632 109.917 116.787 115.09 115.211C119.679 113.818 124.022 111.848 128.033 109.389C144.206 99.4732 155 81.5922 155 61.1832C155 30.0111 129.817 4.7373 98.75 4.7373ZM114.063 79.3418C109.933 82.8523 104.587 84.9703 98.75 84.9703C85.6598 84.9703 75.0506 74.3216 75.0506 61.1858C75.0506 55.3281 77.1613 49.9643 80.6622 45.8199C85.0078 40.6725 91.4997 37.4038 98.75 37.4038C111.84 37.4038 122.452 48.0525 122.452 61.1858C122.452 68.464 119.195 74.9784 114.063 79.3418Z" stroke="white" stroke-width="1.5" stroke-miterlimit="10"/>
<path d="M98.7502 37.4038C91.4999 37.4038 85.008 40.6725 80.6623 45.8199C77.1615 49.9643 75.0508 55.3281 75.0508 61.1858C75.0508 74.3216 85.66 84.9703 98.7502 84.9703C104.588 84.9703 109.933 82.8523 114.063 79.3418C119.195 74.9784 122.452 68.464 122.452 61.1858C122.452 48.0525 111.84 37.4038 98.7502 37.4038Z" stroke="white" stroke-width="1.5" stroke-miterlimit="10"/>
<path d="M106.042 54.2327H94.9738C92.9722 54.2327 91.3486 55.8619 91.3486 57.8705C91.3486 59.879 92.9722 61.5083 94.9738 61.5083H102.336C104.396 61.5083 106.065 63.1834 106.065 65.2505C106.065 67.3176 104.396 68.9927 102.336 68.9927H91.4577" stroke="white" stroke-width="1.5" stroke-miterlimit="10"/>
<path d="M98.7061 54.2327V48.7009" stroke="white" stroke-width="1.5" stroke-miterlimit="10"/>
<path d="M98.7061 74.5224V68.9932" stroke="white" stroke-width="1.5" stroke-miterlimit="10"/>
</svg>
