<svg width="160" height="160" viewBox="0 0 160 160" fill="none" xmlns="http://www.w3.org/2000/svg">
<path d="M27.8422 5H10.2828C7.3652 5 5 7.3652 5 10.2828V27.8422C5 30.7598 7.3652 33.125 10.2828 33.125H27.8422C30.7598 33.125 33.125 30.7598 33.125 27.8422V10.2828C33.125 7.3652 30.7598 5 27.8422 5Z" stroke="white" stroke-width="1.5" stroke-miterlimit="10"/>
<path d="M149.717 5H132.158C129.24 5 126.875 7.3652 126.875 10.2828V27.8422C126.875 30.7598 129.24 33.125 132.158 33.125H149.717C152.635 33.125 155 30.7598 155 27.8422V10.2828C155 7.3652 152.635 5 149.717 5Z" stroke="white" stroke-width="1.5" stroke-miterlimit="10"/>
<path d="M27.8422 126.875H10.2828C7.3652 126.875 5 129.24 5 132.158V149.717C5 152.635 7.3652 155 10.2828 155H27.8422C30.7598 155 33.125 152.635 33.125 149.717V132.158C33.125 129.24 30.7598 126.875 27.8422 126.875Z" stroke="white" stroke-width="1.5" stroke-miterlimit="10"/>
<path d="M149.717 126.875H132.158C129.24 126.875 126.875 129.24 126.875 132.158V149.717C126.875 152.635 129.24 155 132.158 155H149.717C152.635 155 155 152.635 155 149.717V132.158C155 129.24 152.635 126.875 149.717 126.875Z" stroke="white" stroke-width="1.5" stroke-miterlimit="10"/>
<path d="M94.0625 19.0625C94.0625 11.296 87.7665 5 80 5C72.2335 5 65.9375 11.296 65.9375 19.0625C65.9375 26.829 72.2335 33.125 80 33.125C87.7665 33.125 94.0625 26.829 94.0625 19.0625Z" stroke="white" stroke-width="1.5" stroke-miterlimit="10"/>
<path d="M94.0625 140.937C94.0625 133.171 87.7665 126.875 80 126.875C72.2335 126.875 65.9375 133.171 65.9375 140.937C65.9375 148.704 72.2335 155 80 155C87.7665 155 94.0625 148.704 94.0625 140.937Z" stroke="white" stroke-width="1.5" stroke-miterlimit="10"/>
<path d="M94.5633 98.7498H65.4398C63.1289 98.7498 61.2539 96.8326 61.2539 94.4701V79.6857C61.2539 79.0998 61.4883 78.542 61.9008 78.1389L78.5555 61.8451C79.3664 61.0529 80.6461 61.0529 81.457 61.8451L98.1117 78.1389C98.5242 78.542 98.7586 79.0998 98.7586 79.6857V94.4701C98.7586 96.8326 96.8836 98.7498 94.5727 98.7498H94.5633Z" stroke="white" stroke-width="1.5" stroke-miterlimit="10"/>
<path d="M155 79.9998C155 72.2333 148.704 65.9373 140.938 65.9373C133.171 65.9373 126.875 72.2333 126.875 79.9998C126.875 87.7663 133.171 94.0623 140.938 94.0623C148.704 94.0623 155 87.7663 155 79.9998Z" stroke="white" stroke-width="1.5" stroke-miterlimit="10"/>
<path d="M33.125 79.9998C33.125 72.2333 26.829 65.9373 19.0625 65.9373C11.296 65.9373 5 72.2333 5 79.9998C5 87.7663 11.296 94.0623 19.0625 94.0623C26.829 94.0623 33.125 87.7663 33.125 79.9998Z" stroke="white" stroke-width="1.5" stroke-miterlimit="10"/>
<path d="M33.125 79.9998H61.25" stroke="white" stroke-width="1.5" stroke-miterlimit="10"/>
<path d="M140.938 33.125V65.9375" stroke="white" stroke-width="1.5" stroke-miterlimit="10"/>
<path d="M80 98.3096V126.875" stroke="white" stroke-width="1.5" stroke-miterlimit="10"/>
<path d="M19.0625 33.125V65.9375" stroke="white" stroke-width="1.5" stroke-miterlimit="10"/>
<path d="M94.0625 19.0625H126.875" stroke="white" stroke-width="1.5" stroke-miterlimit="10"/>
<path d="M126.875 140.937H94.0625" stroke="white" stroke-width="1.5" stroke-miterlimit="10"/>
<path d="M19.0625 94.9998V126.875" stroke="white" stroke-width="1.5" stroke-miterlimit="10"/>
<path d="M140.938 94.0623V126.875" stroke="white" stroke-width="1.5" stroke-miterlimit="10"/>
<path d="M80 35V61.25" stroke="white" stroke-width="1.5" stroke-miterlimit="10"/>
<path d="M33.125 19.0625H65.9375" stroke="white" stroke-width="1.5" stroke-miterlimit="10"/>
<path d="M98.75 79.6812H126.875" stroke="white" stroke-width="1.5" stroke-miterlimit="10"/>
<path d="M33.125 140.937H65.9375" stroke="white" stroke-width="1.5" stroke-miterlimit="10"/>
</svg>
