<?xml version="1.0" encoding="UTF-8"?>
<svg id="Layer_1" data-name="Layer 1" xmlns="http://www.w3.org/2000/svg" width="647" height="92" viewBox="0 0 647.12 92.33">
  <defs>
    <style>
      .cls-1 {
        fill: #fff;
      }
    </style>
  </defs>
  <path class="cls-1" d="M23.39,0c8.5,0,15.07,1.25,19.73,3.74,4.65,2.49,8.45,6.67,11.38,12.55,2.93,5.88,4.39,12.69,4.39,20.43,0,5.76-.88,11.04-2.64,15.84-1.76,4.8-4.09,8.67-7.01,11.6-2.91,2.93-6.19,5-9.81,6.23-3.63,1.22-9.3,1.83-17.02,1.83H0V0h23.39ZM20.51,64.01c7,0,12.27-.85,15.82-2.56,3.55-1.71,6.41-4.69,8.59-8.94,2.18-4.25,3.27-9.38,3.27-15.41,0-8.14-1.77-14.97-5.32-20.51-3.55-5.53-10.17-8.3-19.87-8.3h-12.99v55.71h10.5Z"/>
  <path class="cls-1" d="M76.78.2v10.3h-11.28V.2h11.28ZM75.9,22.02v50.2h-9.42V22.02h9.42Z"/>
  <path class="cls-1" d="M130.89,22.02l-.2,11.18-.1,27.39-.05,7.57c-.07,6.87-.77,11.76-2.12,14.67-1.35,2.91-3.72,5.22-7.1,6.93-3.39,1.71-8.06,2.56-14.01,2.56-4.95,0-8.92-.55-11.91-1.64-3-1.09-5.23-2.72-6.71-4.88-1.48-2.16-2.3-5.4-2.47-9.69h10.01c.26,3.55,1.33,6.07,3.22,7.57,1.89,1.5,4.7,2.25,8.45,2.25,4.72,0,8.1-1.3,10.13-3.91,2.03-2.6,3.08-7.03,3.15-13.28l.05-5.96c-1.17,2.64-3.16,4.72-5.96,6.25-2.8,1.53-6.32,2.29-10.55,2.29-7.26,0-12.6-2.31-16.02-6.93-3.42-4.62-5.13-10.55-5.13-17.77,0-7.78,2.04-13.94,6.13-18.48,4.08-4.54,9.48-6.81,16.19-6.81,3.48,0,6.53.61,9.16,1.83,2.62,1.22,4.84,3.13,6.67,5.74l.1-6.88h9.08ZM117.17,32.01c-2.9-2.65-6.38-3.98-10.45-3.98s-7.57,1.6-9.91,4.79c-2.34,3.19-3.52,7.73-3.52,13.62s1.16,10.14,3.47,13.23c2.31,3.09,5.76,4.64,10.35,4.64,3.19,0,5.81-.68,7.86-2.03,2.05-1.35,3.65-3.21,4.81-5.59,1.16-2.38,1.73-6.27,1.73-11.67,0-6.02-1.45-10.36-4.35-13.01Z"/>
  <path class="cls-1" d="M151.59.2v10.3h-11.28V.2h11.28ZM150.72,22.02v50.2h-9.42V22.02h9.42Z"/>
  <path class="cls-1" d="M173.59,21.83h11.23v6.88h-11.23v30.71c0,2.25.58,3.83,1.73,4.74,1.16.91,2.81,1.37,4.96,1.37.85,0,1.66-.04,2.44-.12.78-.08,1.48-.2,2.1-.37v7.28c-.85.16-1.95.3-3.3.42-1.35.11-2.82.17-4.42.17-4.46,0-7.71-.78-9.74-2.34-2.03-1.56-3.05-4.25-3.05-8.06V28.71h-8.89v-6.88h8.89v-10.5l9.28-3.03v13.53Z"/>
  <path class="cls-1" d="M229.93,59.72c0,1.6.07,3.65.22,6.18.15,2.52.33,4.63.56,6.32h-8.5c-.36-1.14-.6-2.27-.73-3.39-.13-1.12-.2-2.5-.2-4.13-1.53,2.86-3.54,5.1-6.03,6.71s-5.67,2.42-9.55,2.42c-5.27,0-9.52-1.36-12.74-4.08s-4.83-6.29-4.83-10.72c0-5.21,2.05-9.51,6.15-12.92,4.1-3.4,10.51-5.1,19.24-5.1h3.08c1.4,0,2.9.1,4.49.29v-3.37c0-3.03-.33-5.2-.98-6.52-.65-1.32-1.81-2.4-3.47-3.25-1.66-.85-3.81-1.27-6.45-1.27-2.93,0-5.25.72-6.96,2.17-1.71,1.45-2.63,3.56-2.76,6.32h-9.38c.33-5.21,2.21-8.99,5.66-11.35,3.45-2.36,8.12-3.54,14.01-3.54,5.37,0,9.97,1.13,13.79,3.39,3.82,2.26,5.74,6.03,5.74,11.3l-.39,24.51ZM220.9,53.03l.2-5.22-1.07-.15-1.51-.1-2.78-.05c-5.99,0-10.51.85-13.55,2.56-3.04,1.71-4.57,4.22-4.57,7.54,0,2.64.94,4.76,2.81,6.37,1.87,1.61,4.4,2.42,7.59,2.42,3.97,0,7.08-1.22,9.33-3.66s3.43-5.68,3.56-9.72Z"/>
  <path class="cls-1" d="M249.88.1v72.12h-9.42V.1h9.42Z"/>
  <path class="cls-1" d="M297.84,0v72.22h-10.01V0h10.01Z"/>
  <path class="cls-1" d="M352.69,72.22h-9.57v-32.91c0-3.52-1.11-6.23-3.32-8.13-2.21-1.9-4.98-2.86-8.3-2.86-3.78,0-6.9,1.38-9.38,4.13-2.47,2.75-3.71,6.27-3.71,10.57v29.2h-9.42V25.68c0-.98-.03-2.2-.1-3.66h9.42c.06,2.05.1,3.74.1,5.08v3.03c1.56-3.06,3.69-5.35,6.4-6.86,2.7-1.51,5.94-2.27,9.72-2.27,5.31,0,9.66,1.51,13.06,4.54,3.4,3.03,5.1,7.19,5.1,12.5v34.18Z"/>
  <path class="cls-1" d="M392.54,38.13c-.2-3.52-1.18-6.14-2.95-7.89-1.77-1.74-4.13-2.61-7.06-2.61-4.23,0-7.45,1.58-9.67,4.74-2.21,3.16-3.32,7.91-3.32,14.26,0,6.71,1.05,11.68,3.15,14.92,2.1,3.24,5.22,4.86,9.35,4.86,3.16,0,5.71-.95,7.67-2.86s3.03-4.58,3.22-8.03h9.52c-.39,5.31-2.44,9.64-6.15,12.99-3.71,3.35-8.4,5.03-14.06,5.03-7.23,0-12.8-2.24-16.72-6.71-3.92-4.48-5.88-10.82-5.88-19.02s2.13-15.22,6.4-19.97c4.26-4.75,9.7-7.13,16.31-7.13,5.73,0,10.4,1.58,14.01,4.74,3.61,3.16,5.52,7.39,5.71,12.7h-9.52Z"/>
  <path class="cls-1" d="M418.3.1v72.12h-9.42V.1h9.42Z"/>
  <path class="cls-1" d="M472.45,22.02v41.02c0,1.63.1,4.69.29,9.18h-9.81l-.15-5.37c0-1.43-.02-2.51-.05-3.22-1.56,3.12-3.63,5.42-6.2,6.88-2.57,1.46-5.84,2.2-9.81,2.2-5.76,0-10.23-1.5-13.4-4.49-3.17-2.99-4.76-7.23-4.76-12.7V22.02h9.57v32.62c0,3.74.89,6.48,2.69,8.2,1.79,1.73,4.46,2.59,8.01,2.59,4.17,0,7.53-1.21,10.08-3.64,2.55-2.42,3.83-5.62,3.83-9.59v-30.18h9.72Z"/>
  <path class="cls-1" d="M519.81,35.94h-9.57v-.63c0-2.44-.81-4.31-2.42-5.62-1.61-1.3-4.04-1.95-7.3-1.95s-5.77.61-7.54,1.83-2.66,3-2.66,5.35c0,3.09,2.03,5.13,6.1,6.1l11.62,2.88c4.43,1.11,7.72,2.73,9.86,4.88s3.22,5.06,3.22,8.74c0,4.75-1.8,8.63-5.4,11.62-3.6,3-8.93,4.49-15.99,4.49-6.38,0-11.3-1.41-14.75-4.22s-5.18-6.84-5.18-12.08h9.91c0,2.86.94,5.09,2.83,6.69,1.89,1.6,4.64,2.39,8.25,2.39,3.29,0,5.83-.7,7.62-2.1,1.79-1.4,2.69-3.34,2.69-5.81s-.94-4.08-2.81-5-4.6-1.75-8.18-2.47c-3.58-.72-6.84-1.59-9.77-2.64-2.93-1.04-5.25-2.54-6.96-4.49s-2.56-4.57-2.56-7.86c0-4.43,1.78-8.07,5.35-10.94,3.56-2.86,8.31-4.3,14.23-4.3,5.5,0,10.11,1.12,13.82,3.34,3.71,2.23,5.57,5.69,5.57,10.38v1.42Z"/>
  <path class="cls-1" d="M538.57.2v10.3h-11.28V.2h11.28ZM537.69,22.02v50.2h-9.42V22.02h9.42Z"/>
  <path class="cls-1" d="M552.16,66.77c-4.56-4.77-6.84-11.38-6.84-19.85,0-7.98,2.21-14.34,6.64-19.09,4.43-4.75,10.45-7.13,18.07-7.13s13.88,2.43,18.48,7.3c4.61,4.87,6.91,11.37,6.91,19.51s-2.17,14.62-6.49,19.34c-4.33,4.72-10.35,7.08-18.07,7.08s-14.14-2.38-18.7-7.15ZM559.54,61.82c2.93,3.48,6.71,5.22,11.33,5.22s8.13-1.7,10.72-5.1c2.59-3.4,3.88-8.08,3.88-14.04s-1.37-11.13-4.1-14.75-6.48-5.42-11.23-5.42-8.24,1.78-10.94,5.35c-2.7,3.56-4.05,8.44-4.05,14.62s1.46,10.63,4.39,14.11Z"/>
  <path class="cls-1" d="M647.12,72.22h-9.57v-32.91c0-3.52-1.11-6.23-3.32-8.13-2.21-1.9-4.98-2.86-8.3-2.86-3.78,0-6.9,1.38-9.38,4.13-2.47,2.75-3.71,6.27-3.71,10.57v29.2h-9.42V25.68c0-.98-.03-2.2-.1-3.66h9.42c.06,2.05.1,3.74.1,5.08v3.03c1.56-3.06,3.69-5.35,6.4-6.86,2.7-1.51,5.94-2.27,9.72-2.27,5.31,0,9.66,1.51,13.06,4.54,3.4,3.03,5.1,7.19,5.1,12.5v34.18Z"/>
</svg>