<svg width="2408" height="1282" viewBox="0 0 2408 1282" fill="none" xmlns="http://www.w3.org/2000/svg">
<rect width="1282" height="1282" fill="#00AEEF"/>
<path d="M732.06 846.514L760.534 775.265H771.551L724.602 893H713.418L726.295 860.424L691.042 775.265H703.413L732.06 846.514ZM255.083 772.716C282.199 772.717 294.739 795.452 294.741 817.84C294.741 840.231 282.2 862.972 255.083 862.973C227.967 862.973 215.426 840.231 215.426 817.84C215.427 795.451 227.969 772.716 255.083 772.716ZM425.645 772.716C454.119 772.716 464.463 793.584 464.463 820.216H398.698C399.039 838.366 407.351 853.639 428.199 853.639C440.226 853.638 450.222 844.985 452.766 833.278H463.444C458.193 853.636 445.481 862.973 424.972 862.973C399.545 862.973 387.68 841.082 387.68 817.848C387.68 794.77 400.396 772.719 425.645 772.716ZM587.086 772.716C615.559 772.716 625.896 793.584 625.897 820.216H560.139C560.48 838.366 568.782 853.639 589.632 853.639C601.661 853.639 611.659 844.985 614.199 833.278H624.877C619.623 853.636 606.917 862.973 586.406 862.973C560.979 862.973 549.121 841.082 549.121 817.848C549.121 794.768 561.833 772.716 587.086 772.716ZM846.975 772.716C864.428 772.717 878.668 783.24 879.514 801.39H868.496C867.653 788.327 859.348 782.05 845.275 782.05C829.684 782.05 820.02 798.332 820.02 817.675C820.02 837.18 829.683 853.639 845.275 853.639C858.5 853.639 867.653 845.494 868.496 833.792H879.514C876.804 853.3 865.618 862.972 846.294 862.973C820.868 862.973 809.002 841.088 809.002 817.848C809.002 794.771 821.726 772.716 846.975 772.716ZM1108.51 841.258C1108.51 847.871 1109.01 854.661 1109.35 860.424H1098.84L1098.33 847.876L1097.98 847.195C1091.03 857.377 1080.7 862.973 1068.84 862.973C1043.58 862.97 1033.93 838.877 1033.93 817.5C1033.93 795.453 1043.58 772.719 1068.84 772.716C1080.19 772.716 1092.06 778.143 1097.98 788.161L1098.33 787.813V737.946H1108.51V841.258ZM507.506 846.34L535.814 775.265H546.997L513.28 860.432H501.748L467.002 775.265H478.186L507.506 846.34ZM202.632 735.904C205.845 735.905 209.24 737.086 212.29 737.772V745.91C210.257 745.578 208.045 745.23 206.018 745.23C192.117 745.231 191.777 752.188 192.287 764.403V775.257H211.61V784.591H192.287V860.424H182.116V784.591H165V775.257H182.116V757.104C182.117 742.517 188.051 735.904 202.632 735.904ZM339.212 772.716C342.6 772.547 345.994 772.721 349.383 772.89V782.73C347.35 782.561 345.147 782.05 343.111 782.05C328.026 782.051 320.059 792.907 319.723 809.188V860.424H309.552V794.431C309.727 787.809 309.047 781.029 308.705 775.257H319.209L319.723 787.813H320.055C323.113 779.166 330.739 773.052 339.212 772.716ZM671.38 772.716C674.772 772.547 678.163 772.721 681.552 772.89V782.73C679.523 782.561 677.319 782.05 675.287 782.05C660.202 782.05 652.225 792.906 651.892 809.188V860.424H641.72V794.431C641.893 787.809 641.223 781.03 640.881 775.257H651.385L651.892 787.813H652.224C655.281 779.166 662.908 773.053 671.38 772.716ZM903.884 788.153H904.217C910.152 777.638 919.813 772.725 930.831 772.724C958.628 772.724 960.834 797.314 960.834 807.154V860.424H950.658V805.459C950.658 790.702 942.185 782.05 928.284 782.05C911.508 782.051 903.884 796.137 903.884 811.396V860.424H893.713V737.946H903.884V788.153ZM988.118 860.424H977.95V775.257H988.118V860.424ZM1018.28 860.424H1008.11V737.938H1018.28V860.424ZM255.083 782.042C234.573 782.042 226.445 802.06 226.443 817.84C226.443 833.621 234.571 853.639 255.083 853.639C275.588 853.638 283.723 833.621 283.723 817.84C283.722 802.061 275.587 782.043 255.083 782.042ZM1070.53 782.05C1051.21 782.051 1044.94 800.034 1044.94 816.313C1044.94 832.092 1049.52 853.637 1069 853.639C1091.21 853.639 1097.98 835.148 1097.98 815.806C1097.98 798.503 1090.36 782.05 1070.53 782.05ZM425.819 782.05C409.21 782.05 400.395 795.958 399.038 810.882H453.446C452.255 794.431 443.448 782.05 425.819 782.05ZM587.252 782.05C570.642 782.051 561.835 795.959 560.478 810.882H614.879C613.691 794.431 604.881 782.05 587.252 782.05ZM988.961 750.66H977.099V737.946H988.961V750.66ZM1108.55 681.884H166.481V676.741H1108.55V681.884ZM987.36 578.588C1003.36 572.129 1029.24 567.934 1062.37 576.644L1066.11 577.628L1062.53 579.05C1047.4 585.048 1028.44 586.832 1017.47 583.24C1013.31 581.87 1010.81 579.671 1007.74 576.78C1002.56 577.298 997.458 578.82 992.567 580.986C996.97 583.34 1010.88 591.361 1020.25 603.238L1020.91 604.093L1020.18 604.88C1019.4 605.684 1017.57 607.054 1016.38 607.443L1015.56 607.7L1015 607.058C1008.29 598.972 998.525 589.739 987.344 583.573C976.17 589.739 966.42 598.975 959.719 607.058C959.712 607.076 959.193 607.652 959.154 607.693L958.342 607.436C957.15 607.046 955.324 605.681 954.566 604.88L953.815 604.093L954.481 603.238C963.836 591.37 977.718 583.354 982.144 580.994C977.254 578.827 972.162 577.299 966.977 576.78C963.898 579.671 961.398 581.87 957.266 583.24C946.271 586.828 927.315 585.048 912.196 579.05L908.622 577.628L912.355 576.644C945.474 567.933 971.357 572.131 987.36 578.588ZM190.572 529.289C190.572 551.995 195.957 568.68 220.443 568.68C230.944 568.68 245.195 563.461 250.58 549.907C255.412 537.636 255.703 522.24 255.703 519.108V451.769H281.267V582.786H256.239V563.461H255.703C245.469 579.915 228.252 586.688 209.403 586.689C181.148 586.689 165 565.808 165 539.454V451.769H190.572V529.289ZM555.703 448.138C584.038 448.138 605.414 465.533 606.71 493.793H581.35C580.015 477.446 571.993 466.056 553.798 466.056C529.498 466.059 520.119 486.514 520.118 517.126C520.118 547.721 529.498 568.216 553.798 568.219C570.625 568.219 581.059 557.614 582.4 538.91H607.821C605.649 568.217 583.217 586.105 553.527 586.106C510.494 586.106 493.375 556.558 493.375 518.17C493.375 480.005 513.146 448.139 555.703 448.138ZM681.559 448.138C721.649 448.949 740.621 473.554 740.622 509.631V521.785H646.005C644.133 544.611 653.759 568.219 679.678 568.219C699.465 568.218 709.358 560.718 712.277 541.738H739.058C735.025 571.345 711.485 586.098 679.428 586.098C636.367 586.098 619.232 556.555 619.232 518.17C619.233 479.998 639.06 448.139 681.559 448.138ZM373.768 447.859C383.178 447.859 424.897 450.208 424.897 492.22V582.778H399.34V500.312C399.34 478.654 389.915 466.911 368.388 466.911C368.262 466.904 354.333 466.181 343.625 476.563C339.857 480.218 332.864 485.952 332.864 511.529V582.778H307.285V451.769H332.319V471.071H332.864C341.459 454.633 360.305 447.859 373.768 447.859ZM474.272 582.665H448.708V451.655H474.272V582.665ZM811.39 388C817.534 388 823.447 389.541 829.61 390.572V411.046C825.29 410.829 821.031 410.252 816.733 410.252C802.323 410.252 794.021 413.932 794.803 428.17V452.018H825.831V469.158H794.803V582.219H769.413V469.158H746.312V452.018H769.413V424.033C770.249 395.511 792.396 388 811.39 388ZM1097.55 545.725L1096.83 546.882C1089.35 559.063 1076.64 574.784 1052.84 570.752L1050.85 570.412L1051.97 568.801C1056.41 562.397 1085.28 546.601 1095.49 544.983L1098.26 544.544L1097.55 545.725ZM879.241 544.983C889.442 546.601 918.296 562.391 922.745 568.793L923.863 570.412L921.884 570.744C898.104 574.781 885.387 559.069 877.889 546.889L877.171 545.717L876.453 544.529L879.241 544.983ZM915.256 537.586C922.96 542.711 945.009 560.965 946.634 567.243L947.021 568.703L945.474 568.816C921.411 570.823 915.63 552.697 913.368 538.879L913.149 537.654L912.944 536.421L915.256 537.586ZM1061.57 537.654L1061.36 538.872C1059.09 552.69 1053.31 570.823 1029.25 568.816L1027.72 568.703L1028.08 567.235C1029.72 560.957 1051.76 542.703 1059.47 537.578L1061.78 536.413L1061.57 537.654ZM987.189 388.129C1036.28 388.129 1076.25 426.874 1076.25 474.498C1076.24 522.107 1036.28 560.844 987.189 560.844C938.079 560.843 898.135 522.106 898.133 474.498C898.133 426.875 938.078 388.129 987.189 388.129ZM898.708 510.311C904.279 517.444 911.42 540.82 911.698 550.096C911.689 550.187 911.546 551.802 911.546 551.843L911.184 554.044L909.499 553.016C899.533 546.826 894.335 537.89 893.985 526.482C893.843 521.44 894.677 516.129 896.425 510.697L896.788 509.51L897.166 508.345L898.708 510.311ZM1077.92 509.518L1078.29 510.689C1080.06 516.125 1080.87 521.436 1080.73 526.49C1080.4 537.895 1075.18 546.82 1065.22 553.016L1063.53 554.037L1063.17 551.851C1063.16 551.808 1063.03 550.096 1063.03 550.096C1063.29 540.806 1070.42 517.439 1076.01 510.304L1077.53 508.353L1077.92 509.518ZM862.375 507.256C873.945 514.368 891.964 535.939 895.451 545.195L896.373 547.638L893.811 546.836C875.127 541.027 863.017 520.97 860.395 508.594L860.093 507.127L859.768 505.652L862.375 507.256ZM1114.65 507.127L1114.32 508.602C1111.69 520.974 1099.59 541.009 1080.91 546.828L1078.34 547.638L1079.27 545.187C1082.75 535.935 1100.78 514.379 1112.34 507.263L1114.96 505.652L1114.65 507.127ZM955.278 397.621C923.361 410.076 902.537 439.34 901.775 472.592C906.527 468.576 912.83 464.492 915.597 463.228C919.083 461.631 922.104 457.94 921.053 453.849C920.004 449.784 914.973 434.281 925.051 423.678C935.143 413.076 950.797 412.079 966.258 424.502C982.454 437.521 973.269 450.064 970.885 453.047C969.423 454.867 967.906 457.643 968.997 460.195C970.978 464.811 967.674 463.408 966.467 465.172C966.026 465.782 966.985 467.294 966.142 468.023C965.314 468.733 964.958 468.441 964.625 469.044C964.308 469.652 965.159 470.775 964.261 471.343C963.55 471.771 962.606 470.89 961.321 472.455C959.967 474.06 959.185 476.043 954.279 476.177C950.178 476.271 942.618 471.981 939.871 475.973C938.819 477.505 939.113 478.891 939.453 479.747C941.009 483.721 944.073 506.745 943.756 508.277C947.106 513.949 957.901 511.417 961.538 513.17C961.956 513.375 963.101 513.474 964.261 512.459C965.414 511.441 968.997 508.631 971.721 508.889C972.781 508.98 974.646 508.734 973.4 511.143C972.974 511.952 974.143 512.07 974.986 511.65C975.83 511.247 982.539 508.59 979.699 518.071C976.867 527.539 969.872 526.997 964.772 525.204C963.611 524.793 962.791 524.587 960.888 525.204C958.992 525.825 945.651 527.849 942.912 527.738C940.196 527.647 935.351 527.85 932.101 524.689C930.104 527.448 928.136 531.542 929.275 535.347C932.032 537.817 934.944 540.109 938.01 542.207C943.686 543.585 950.975 542.897 956.485 541.005C957.955 540.49 975.304 532.922 985.069 532.541C993.047 532.241 993.264 525.51 991.708 521.845C990.393 518.798 990.122 514.199 990.006 511.348C989.905 508.487 989.162 504.518 983.405 500.327C977.602 496.141 974.143 493.611 974.135 489.935C974.135 487.897 975.451 485.237 976.557 484.633C977.718 484.003 978.027 482.59 977.927 481.789C977.818 480.943 976.859 477.909 980.341 477.909C980.96 477.906 982.121 477.285 982.121 476.063C982.113 474.835 980.991 470.811 983.8 471.586C984.535 471.791 985.804 470.867 985.804 469.543C985.804 468.234 980.581 461.899 988.868 462.207C994.463 462.385 1000.92 460.017 1003.58 456.776C1016.49 440.976 1036.53 437.899 1055.38 455.49C1072.86 471.797 1069.3 496.812 1057.91 508.088C1047.82 518.071 1039.63 520.303 1031.85 520.303C1030.38 520.303 1028.06 518.874 1027.43 522.148C1026.8 525.365 1027.04 534.099 1038.89 540.407C1059.37 525.244 1072.62 501.339 1072.62 474.498C1072.62 458.324 1067.8 442.679 1058.71 429.214C1053.95 432.322 1048.95 435.102 1043.89 437.542C1044.25 438.376 1045.8 441.989 1045.84 442.072L1046.39 443.373L1041.6 441.301C1041.56 441.223 1040.92 439.783 1040.59 439.062C1039.75 439.421 1038.44 439.963 1038.37 439.992C1038.37 439.992 1035.46 439.107 1031.62 438.699C1031.68 438.677 1036.42 437.047 1039.03 435.87C1036.12 430.219 1032.59 424.882 1028.49 420.002C1023.42 422.711 1018.06 424.936 1012.5 426.605C1014.26 430.837 1017.58 440.966 1017.64 441.165L1014.16 442.216C1014.09 442.015 1010.77 431.806 1009 427.588C1002.43 429.257 995.717 430.16 989.008 430.296V446.732C989.828 446.681 991.345 446.599 991.406 446.595C995.987 446.347 1001.06 446.007 1006.84 445.272L1009.45 445.052L1004.65 449.159L1004.41 449.19C998.959 449.655 994.44 450.014 989.008 450.271V456.186H985.309V430.303C983.475 430.255 978.569 430.094 976.991 429.971L976.635 429.94L976.472 429.63C976.085 428.89 975.629 428.077 975.056 427.255L974.282 426.151L975.667 426.279C977.842 426.494 983.22 426.712 985.309 426.764V412.536C981.533 412.382 977.819 411.717 974.244 410.562C972.642 413.157 968.386 420.924 968.386 420.924C968.386 420.924 967.875 420.456 967.063 419.934C966.258 419.408 965.368 418.89 965.368 418.89C965.438 418.753 969.268 411.766 970.808 409.246C967.922 408.013 965.182 406.474 962.683 404.632C959.487 406.876 952.639 412.506 952.639 412.506C952.562 412.482 951.184 412.081 950.519 411.931C949.528 411.695 948.468 411.538 948.468 411.538C948.607 411.421 956.26 404.795 959.797 402.295C958.148 400.82 956.632 399.269 955.278 397.621ZM891.589 483.687C892.296 486.027 892.732 489.461 892.843 493.611C893.13 505.346 891.146 520.195 888.627 524.773L887.607 526.634L886.398 524.871C882.758 519.677 880.821 514.072 880.67 508.216C880.483 500.298 883.443 491.708 889.254 483.34L890.048 482.213L890.834 481.093L891.589 483.687ZM1085.46 483.332C1091.28 491.704 1094.24 500.301 1094.04 508.216C1093.9 514.073 1091.97 519.674 1088.34 524.871L1087.11 526.634L1086.08 524.781C1083.58 520.193 1081.59 505.343 1081.88 493.611C1081.99 489.464 1082.41 486.025 1083.13 483.687L1083.92 481.093L1085.46 483.332ZM859.194 469.468C866.577 478.209 876.408 502.59 876.718 510.765L876.823 513.224L874.685 511.877C856.707 500.45 856.244 478.927 856.882 470.194L857.108 466.987L859.194 469.468ZM1117.72 468.591L1117.85 470.202C1118.47 478.933 1118.01 500.456 1100.03 511.884C1100.01 511.903 1097.91 513.224 1097.91 513.224L1098.01 510.765C1098.31 502.59 1108.16 478.209 1115.52 469.468L1117.61 466.987L1117.72 468.591ZM679.678 466.056C658.531 466.056 646.005 483.388 646.005 504.699H713.917C714.451 482.923 704.269 466.058 679.678 466.056ZM890.607 458.508C891.009 467.732 883.695 487.569 878.191 495.086L876.695 497.113L875.886 494.761C874.981 492.228 874.457 489.801 874.3 487.538C873.303 472.83 884.823 460.948 888.393 457.653L889.451 456.685L890.479 455.717L890.607 458.508ZM1085.29 456.685L1086.32 457.653C1089.9 460.937 1101.43 472.827 1100.42 487.538C1100.27 489.802 1099.74 492.225 1098.86 494.768L1098.01 497.113L1096.53 495.086C1091.01 487.569 1083.74 467.746 1084.12 458.523L1084.23 455.717L1085.29 456.685ZM867.702 435.061C871.376 444.163 873.049 464.555 871.783 474.278L870.642 479.792L869.751 478.688L868.904 477.614C861.234 468.565 860.975 456.44 862.095 447.866C862.896 441.814 864.41 437.263 865.246 435.091L865.844 433.51L866.426 431.967L867.702 435.061ZM1108.88 433.51L1109.5 435.084C1110.32 437.258 1111.82 441.813 1112.62 447.866C1113.76 456.441 1113.49 468.571 1105.82 477.629C1105.78 477.671 1104.97 478.696 1104.97 478.696L1104.07 479.785L1102.93 474.286C1101.66 464.546 1103.34 444.154 1107.04 435.053L1108.3 431.967L1108.88 433.51ZM1077.77 429.335L1079.23 430.228C1092.98 438.718 1099.3 448.831 1098.55 461.125L1098.38 463.946L1096.37 462.267C1088.97 456.082 1079.87 440.473 1077.28 431.65L1076.32 428.435L1077.77 429.335ZM898.096 432.051C895.31 440.81 885.893 456.255 878.365 462.29L876.347 463.931L876.227 461.125C875.725 448.813 882.236 438.826 896.154 430.598L897.635 429.721L899.1 428.851L898.096 432.051ZM890.834 413.444C888.604 426.118 883.111 437.098 875.811 443.593L874.148 445.067L873.544 442.496C873.544 442.496 873.371 441.628 873.363 441.588C871.53 428.596 883.465 416.754 888.687 412.279L890.078 411.084L891.476 409.874L890.834 413.444ZM1084.65 411.092L1086.04 412.272C1091.27 416.758 1103.2 428.601 1101.36 441.581C1101.35 441.622 1101.18 442.44 1101.16 442.488C1101.16 442.51 1100.58 445.067 1100.58 445.067L1098.92 443.593C1091.61 437.107 1086.11 426.118 1083.88 413.436L1083.25 409.874L1084.65 411.092ZM1042.05 411.001C1038.83 413.641 1035.34 416.047 1031.68 418.209C1035.81 423.213 1039.37 428.637 1042.31 434.342C1047.29 431.975 1052.09 429.282 1056.65 426.295C1052.48 420.646 1047.56 415.491 1042.05 411.001ZM1000.22 410.562C996.606 411.738 992.838 412.391 989.008 412.567V426.771C995.245 426.638 1001.47 425.801 1007.52 424.298C1005.37 419.554 1002.94 414.949 1000.22 410.562ZM1011.79 404.648C1009.24 406.498 1006.52 408.017 1003.66 409.254C1006.43 413.792 1008.93 418.522 1011.08 423.33C1016.25 421.797 1021.31 419.756 1026.07 417.256C1021.8 412.571 1017 408.32 1011.79 404.648ZM476.713 421.121H446.297V394.232H476.713V421.121ZM1019.18 397.651C1017.81 399.319 1016.29 400.878 1014.67 402.326C1020.02 406.199 1024.95 410.605 1029.32 415.464C1032.77 413.456 1036.08 411.208 1039.14 408.747C1032.98 404.167 1026.28 400.433 1019.18 397.651ZM985.309 395.375C982.028 399.257 978.979 403.295 976.248 407.431C979.196 408.308 982.245 408.845 985.309 408.997V395.375ZM989.008 408.997C992.126 408.858 995.221 408.317 998.208 407.431C995.376 403.141 992.289 399.056 989.008 395.216V408.997ZM981.254 394.648C975.853 396.801 970.707 399.425 965.902 402.515C968.022 403.973 970.282 405.216 972.727 406.213C975.327 402.199 978.221 398.336 981.254 394.648ZM993.163 394.618C996.251 398.386 999.168 402.258 1001.75 406.213C1004.14 405.222 1006.44 403.986 1008.58 402.515C1003.74 399.406 998.564 396.759 993.163 394.618ZM996.684 392.228C1001.91 394.444 1006.91 397.11 1011.6 400.238C1013.03 399.032 1014.34 397.734 1015.56 396.335C1009.5 394.265 1003.18 392.908 996.684 392.228ZM977.873 392.19C971.365 392.859 965.02 394.227 958.891 396.312C960.098 397.67 961.398 398.985 962.83 400.23C967.581 397.092 972.603 394.412 977.873 392.19Z" fill="white"/>
<rect x="1402" y="108" width="24" height="1066" fill="#FF7100"/>
<path d="M2360.73 931.414C2376.15 931.414 2387.8 935.19 2395.67 942.741C2403.55 950.132 2407.48 962.182 2407.48 978.891V1063H2386.51V980.337C2386.51 969.894 2384.18 962.101 2379.53 956.96C2374.87 951.819 2367.56 949.248 2357.59 949.248C2343.3 949.248 2333.41 953.265 2327.95 961.298C2322.49 969.331 2319.76 980.899 2319.76 996.002V1063H2298.55V933.824H2315.66L2318.79 951.417H2320C2322.89 946.918 2326.43 943.223 2330.6 940.331C2334.94 937.278 2339.68 935.029 2344.82 933.583C2349.96 932.137 2355.26 931.414 2360.73 931.414Z" fill="black"/>
<path d="M2264.94 998.171C2264.94 1008.94 2263.49 1018.5 2260.6 1026.85C2257.87 1035.04 2253.85 1042.03 2248.55 1047.82C2243.41 1053.6 2237.06 1058.02 2229.51 1061.07C2222.12 1063.96 2213.85 1065.41 2204.69 1065.41C2196.17 1065.41 2188.3 1063.96 2181.07 1061.07C2173.84 1058.02 2167.57 1053.6 2162.27 1047.82C2156.97 1042.03 2152.79 1035.04 2149.74 1026.85C2146.85 1018.5 2145.4 1008.94 2145.4 998.171C2145.4 983.872 2147.81 971.822 2152.63 962.021C2157.45 952.06 2164.36 944.508 2173.36 939.367C2182.35 934.065 2193.04 931.414 2205.41 931.414C2217.14 931.414 2227.42 934.065 2236.26 939.367C2245.26 944.508 2252.24 952.06 2257.23 962.021C2262.37 971.822 2264.94 983.872 2264.94 998.171ZM2167.33 998.171C2167.33 1008.29 2168.62 1017.13 2171.19 1024.68C2173.92 1032.07 2178.1 1037.78 2183.72 1041.79C2189.34 1045.81 2196.49 1047.82 2205.17 1047.82C2213.85 1047.82 2221 1045.81 2226.62 1041.79C2232.24 1037.78 2236.34 1032.07 2238.91 1024.68C2241.64 1017.13 2243.01 1008.29 2243.01 998.171C2243.01 987.888 2241.64 979.132 2238.91 971.902C2236.18 964.672 2232 959.129 2226.38 955.273C2220.91 951.256 2213.77 949.248 2204.93 949.248C2191.75 949.248 2182.19 953.586 2176.25 962.262C2170.3 970.938 2167.33 982.908 2167.33 998.171Z" fill="black"/>
<path d="M2111.71 933.824V1063H2090.5V933.824H2111.71ZM2101.34 885.383C2104.56 885.383 2107.37 886.507 2109.78 888.757C2112.35 890.845 2113.63 894.219 2113.63 898.879C2113.63 903.377 2112.35 906.751 2109.78 909.001C2107.37 911.25 2104.56 912.375 2101.34 912.375C2097.81 912.375 2094.84 911.25 2092.43 909.001C2090.02 906.751 2088.81 903.377 2088.81 898.879C2088.81 894.219 2090.02 890.845 2092.43 888.757C2094.84 886.507 2097.81 885.383 2101.34 885.383Z" fill="black"/>
<path d="M2059.29 1027.33C2059.29 1035.69 2057.2 1042.68 2053.02 1048.3C2048.84 1053.92 2042.9 1058.18 2035.19 1061.07C2027.47 1063.96 2018.32 1065.41 2007.71 1065.41C1998.71 1065.41 1990.92 1064.69 1984.33 1063.24C1977.91 1061.8 1972.2 1059.79 1967.22 1057.22V1037.94C1972.36 1040.51 1978.55 1042.92 1985.78 1045.17C1993.17 1047.25 2000.64 1048.3 2008.19 1048.3C2018.96 1048.3 2026.75 1046.61 2031.57 1043.24C2036.39 1039.7 2038.8 1035.04 2038.8 1029.26C2038.8 1026.05 2037.92 1023.15 2036.15 1020.58C2034.38 1018.01 2031.17 1015.44 2026.51 1012.87C2022.01 1010.3 2015.5 1007.41 2006.99 1004.2C1998.63 1000.98 1991.48 997.769 1985.54 994.556C1979.59 991.343 1975.02 987.487 1971.8 982.988C1968.59 978.489 1966.98 972.705 1966.98 965.636C1966.98 954.711 1971.4 946.276 1980.24 940.331C1989.23 934.386 2000.96 931.414 2015.42 931.414C2023.3 931.414 2030.61 932.217 2037.35 933.824C2044.26 935.27 2050.69 937.359 2056.63 940.09L2049.4 956.96C2045.87 955.353 2042.09 953.988 2038.08 952.863C2034.22 951.578 2030.29 950.614 2026.27 949.971C2022.25 949.168 2018.15 948.766 2013.98 948.766C2005.3 948.766 1998.63 950.212 1993.97 953.104C1989.48 955.835 1987.23 959.611 1987.23 964.431C1987.23 967.966 1988.27 971.018 1990.36 973.589C1992.45 975.999 1995.9 978.409 2000.72 980.819C2005.7 983.068 2012.29 985.8 2020.48 989.013C2028.68 992.066 2035.67 995.199 2041.45 998.412C2047.24 1001.63 2051.65 1005.56 2054.71 1010.22C2057.76 1014.72 2059.29 1020.42 2059.29 1027.33Z" fill="black"/>
<path d="M1934.25 933.824V1063H1913.04V933.824H1934.25ZM1923.89 885.383C1927.1 885.383 1929.91 886.507 1932.32 888.757C1934.89 890.845 1936.18 894.219 1936.18 898.879C1936.18 903.377 1934.89 906.751 1932.32 909.001C1929.91 911.25 1927.1 912.375 1923.89 912.375C1920.35 912.375 1917.38 911.25 1914.97 909.001C1912.56 906.751 1911.36 903.377 1911.36 898.879C1911.36 894.219 1912.56 890.845 1914.97 888.757C1917.38 886.507 1920.35 885.383 1923.89 885.383Z" fill="black"/>
<path d="M1819.1 1063L1770.18 933.824H1792.83L1820.3 1009.98C1821.59 1013.51 1822.95 1017.45 1824.4 1021.79C1825.85 1026.13 1827.13 1030.3 1828.26 1034.32C1829.38 1038.18 1830.18 1041.47 1830.67 1044.2H1831.63C1832.27 1041.47 1833.16 1038.1 1834.28 1034.08C1835.57 1030.06 1836.93 1025.89 1838.38 1021.55C1839.99 1017.21 1841.35 1013.35 1842.48 1009.98L1869.95 933.824H1892.6L1843.44 1063H1819.1Z" fill="black"/>
<path d="M1749.74 933.824V1063H1728.53V933.824H1749.74ZM1739.37 885.383C1742.59 885.383 1745.4 886.507 1747.81 888.757C1750.38 890.845 1751.66 894.219 1751.66 898.879C1751.66 903.377 1750.38 906.751 1747.81 909.001C1745.4 911.25 1742.59 912.375 1739.37 912.375C1735.84 912.375 1732.87 911.25 1730.46 909.001C1728.05 906.751 1726.84 903.377 1726.84 898.879C1726.84 894.219 1728.05 890.845 1730.46 888.757C1732.87 886.507 1735.84 885.383 1739.37 885.383Z" fill="black"/>
<path d="M1693.23 975.276C1693.23 994.556 1689.61 1010.7 1682.38 1023.72C1675.31 1036.73 1665.11 1046.53 1651.78 1053.12C1638.44 1059.71 1622.29 1063 1603.34 1063H1555.38V890.926H1608.4C1625.75 890.926 1640.77 894.139 1653.46 900.566C1666.16 906.992 1675.96 916.472 1682.87 929.004C1689.77 941.375 1693.23 956.799 1693.23 975.276ZM1670.33 975.999C1670.33 960.735 1667.76 948.203 1662.62 938.403C1657.64 928.602 1650.25 921.372 1640.45 916.713C1630.81 911.893 1619.08 909.483 1605.26 909.483H1577.07V1044.44H1600.44C1623.74 1044.44 1641.17 1038.74 1652.74 1027.33C1664.47 1015.76 1670.33 998.653 1670.33 975.999Z" fill="black"/>
<path d="M2301.68 720.058C2304.89 720.058 2308.19 719.817 2311.56 719.335C2314.93 718.692 2317.66 718.05 2319.75 717.407V733.554C2317.5 734.679 2314.29 735.562 2310.11 736.205C2305.94 737.008 2301.92 737.41 2298.06 737.41C2291.32 737.41 2285.05 736.285 2279.27 734.036C2273.64 731.626 2269.06 727.529 2265.53 721.745C2261.99 715.961 2260.23 707.847 2260.23 697.404V622.212H2241.91V612.09L2260.47 603.655L2268.9 576.181H2281.43V605.824H2318.79V622.212H2281.43V696.922C2281.43 704.795 2283.28 710.659 2286.98 714.515C2290.83 718.21 2295.73 720.058 2301.68 720.058Z" fill="black"/>
<path d="M2194.56 737.41C2183.15 737.41 2172.95 735.08 2163.95 730.421C2155.12 725.762 2148.13 718.532 2142.99 708.731C2138.01 698.93 2135.52 686.398 2135.52 671.135C2135.52 655.229 2138.17 642.295 2143.47 632.334C2148.77 622.373 2155.92 615.062 2164.92 610.403C2174.08 605.744 2184.44 603.414 2196.01 603.414C2202.59 603.414 2208.94 604.137 2215.05 605.583C2221.15 606.868 2226.13 608.475 2229.99 610.403L2223.48 627.996C2219.63 626.55 2215.13 625.184 2209.99 623.899C2204.84 622.614 2200.02 621.971 2195.53 621.971C2186.85 621.971 2179.7 623.819 2174.08 627.514C2168.45 631.209 2164.28 636.672 2161.54 643.902C2158.81 651.132 2157.45 660.129 2157.45 670.894C2157.45 681.177 2158.81 689.933 2161.54 697.163C2164.28 704.393 2168.37 709.856 2173.84 713.551C2179.3 717.246 2186.13 719.094 2194.32 719.094C2201.39 719.094 2207.58 718.371 2212.88 716.925C2218.34 715.479 2223.32 713.712 2227.82 711.623V730.421C2223.48 732.67 2218.66 734.357 2213.36 735.482C2208.22 736.767 2201.95 737.41 2194.56 737.41Z" fill="black"/>
<path d="M2056.58 603.655C2072.32 603.655 2083.97 607.109 2091.52 614.018C2099.07 620.927 2102.85 631.932 2102.85 647.035V735H2087.43L2083.33 716.684H2082.36C2078.67 721.343 2074.81 725.28 2070.8 728.493C2066.94 731.546 2062.44 733.795 2057.3 735.241C2052.32 736.687 2046.21 737.41 2038.98 737.41C2031.27 737.41 2024.28 736.044 2018.02 733.313C2011.91 730.582 2007.09 726.404 2003.56 720.781C2000.02 714.997 1998.26 707.767 1998.26 699.091C1998.26 686.238 2003.32 676.357 2013.44 669.448C2023.56 662.379 2039.15 658.523 2060.19 657.88L2082.12 657.157V649.445C2082.12 638.68 2079.79 631.209 2075.13 627.032C2070.48 622.855 2063.89 620.766 2055.37 620.766C2048.62 620.766 2042.2 621.81 2036.09 623.899C2029.99 625.827 2024.28 628.076 2018.98 630.647L2012.47 614.741C2018.1 611.688 2024.77 609.118 2032.48 607.029C2040.19 604.78 2048.22 603.655 2056.58 603.655ZM2062.84 672.581C2046.78 673.224 2035.61 675.794 2029.34 680.293C2023.24 684.792 2020.19 691.138 2020.19 699.332C2020.19 706.562 2022.36 711.864 2026.69 715.238C2031.19 718.612 2036.9 720.299 2043.8 720.299C2054.73 720.299 2063.81 717.327 2071.04 711.382C2078.27 705.277 2081.88 695.958 2081.88 683.426V671.858L2062.84 672.581Z" fill="black"/>
<path d="M1920.84 603.414C1936.74 603.414 1949.52 608.957 1959.16 620.043C1968.96 631.129 1973.86 647.838 1973.86 670.171C1973.86 684.792 1971.61 697.163 1967.11 707.285C1962.77 717.246 1956.59 724.798 1948.55 729.939C1940.68 734.92 1931.36 737.41 1920.6 737.41C1914.01 737.41 1908.15 736.526 1903 734.759C1897.86 732.992 1893.44 730.742 1889.75 728.011C1886.21 725.119 1883.16 721.986 1880.59 718.612H1879.15C1879.47 721.343 1879.79 724.798 1880.11 728.975C1880.43 733.152 1880.59 736.767 1880.59 739.82V792.84H1859.38V605.824H1876.74L1879.63 623.417H1880.59C1883.16 619.722 1886.21 616.348 1889.75 613.295C1893.44 610.242 1897.78 607.832 1902.76 606.065C1907.9 604.298 1913.93 603.414 1920.84 603.414ZM1916.98 621.248C1908.31 621.248 1901.32 622.935 1896.02 626.309C1890.71 629.522 1886.86 634.423 1884.45 641.01C1882.04 647.597 1880.75 655.952 1880.59 666.074V670.171C1880.59 680.775 1881.72 689.772 1883.97 697.163C1886.21 704.554 1889.99 710.177 1895.29 714.033C1900.75 717.889 1908.15 719.817 1917.46 719.817C1925.34 719.817 1931.76 717.648 1936.74 713.31C1941.89 708.972 1945.66 703.108 1948.07 695.717C1950.64 688.166 1951.93 679.57 1951.93 669.93C1951.93 655.149 1949.04 643.34 1943.25 634.503C1937.63 625.666 1928.87 621.248 1916.98 621.248Z" fill="black"/>
<path d="M1775.86 603.414C1790.48 603.414 1801.41 607.19 1808.64 614.741C1815.87 622.132 1819.48 634.182 1819.48 650.891V735H1798.51V651.855C1798.51 641.733 1796.35 634.101 1792.01 628.96C1787.83 623.819 1781.24 621.248 1772.25 621.248C1759.71 621.248 1750.72 624.863 1745.25 632.093C1739.95 639.323 1737.3 649.847 1737.3 663.664V735H1716.33V651.855C1716.33 645.107 1715.37 639.484 1713.44 634.985C1711.51 630.326 1708.62 626.871 1704.77 624.622C1700.91 622.373 1695.93 621.248 1689.82 621.248C1681.15 621.248 1674.32 623.096 1669.34 626.791C1664.36 630.326 1660.74 635.547 1658.49 642.456C1656.4 649.365 1655.36 657.88 1655.36 668.002V735H1634.15V605.824H1651.26L1654.4 623.417H1655.6C1658.33 618.918 1661.63 615.223 1665.48 612.331C1669.5 609.278 1673.92 607.029 1678.74 605.583C1683.56 604.137 1688.54 603.414 1693.68 603.414C1703.64 603.414 1711.91 605.181 1718.5 608.716C1725.25 612.251 1730.15 617.713 1733.2 625.104H1734.41C1738.75 617.713 1744.61 612.251 1752 608.716C1759.55 605.181 1767.51 603.414 1775.86 603.414Z" fill="black"/>
<path d="M1603.82 735H1541.64V722.468L1561.88 717.889V580.278L1541.64 575.458V562.926H1603.82V575.458L1583.57 580.278V717.889L1603.82 722.468V735Z" fill="black"/>
<path d="M2244.44 407H2223.24V223.84H2244.44V407Z" fill="black"/>
<path d="M2137.07 275.655C2152.81 275.655 2164.46 279.109 2172.01 286.018C2179.56 292.927 2183.34 303.932 2183.34 319.035V407H2167.92L2163.82 388.684H2162.86C2159.16 393.343 2155.3 397.28 2151.29 400.493C2147.43 403.546 2142.93 405.795 2137.79 407.241C2132.81 408.687 2126.71 409.41 2119.48 409.41C2111.76 409.41 2104.77 408.044 2098.51 405.313C2092.4 402.582 2087.58 398.404 2084.05 392.781C2080.51 386.997 2078.75 379.767 2078.75 371.091C2078.75 358.238 2083.81 348.357 2093.93 341.448C2104.05 334.379 2119.64 330.523 2140.68 329.88L2162.61 329.157V321.445C2162.61 310.68 2160.28 303.209 2155.63 299.032C2150.97 294.855 2144.38 292.766 2135.86 292.766C2129.12 292.766 2122.69 293.81 2116.58 295.899C2110.48 297.827 2104.77 300.076 2099.47 302.647L2092.97 286.741C2098.59 283.688 2105.26 281.118 2112.97 279.029C2120.68 276.78 2128.71 275.655 2137.07 275.655ZM2143.33 344.581C2127.27 345.224 2116.1 347.794 2109.84 352.293C2103.73 356.792 2100.68 363.138 2100.68 371.332C2100.68 378.562 2102.85 383.864 2107.18 387.238C2111.68 390.612 2117.39 392.299 2124.3 392.299C2135.22 392.299 2144.3 389.327 2151.53 383.382C2158.76 377.277 2162.37 367.958 2162.37 355.426V343.858L2143.33 344.581Z" fill="black"/>
<path d="M2044.2 392.058C2047.42 392.058 2050.71 391.817 2054.09 391.335C2057.46 390.692 2060.19 390.05 2062.28 389.407V405.554C2060.03 406.679 2056.82 407.562 2052.64 408.205C2048.46 409.008 2044.45 409.41 2040.59 409.41C2033.84 409.41 2027.58 408.285 2021.79 406.036C2016.17 403.626 2011.59 399.529 2008.05 393.745C2004.52 387.961 2002.75 379.847 2002.75 369.404V294.212H1984.44V284.09L2002.99 275.655L2011.43 248.181H2023.96V277.824H2061.32V294.212H2023.96V368.922C2023.96 376.795 2025.81 382.659 2029.5 386.515C2033.36 390.21 2038.26 392.058 2044.2 392.058Z" fill="black"/>
<path d="M1960.14 277.824V407H1938.93V277.824H1960.14ZM1949.78 229.383C1952.99 229.383 1955.8 230.508 1958.21 232.757C1960.78 234.846 1962.07 238.22 1962.07 242.879C1962.07 247.378 1960.78 250.752 1958.21 253.001C1955.8 255.25 1952.99 256.375 1949.78 256.375C1946.24 256.375 1943.27 255.25 1940.86 253.001C1938.45 250.752 1937.25 247.378 1937.25 242.879C1937.25 238.22 1938.45 234.846 1940.86 232.757C1943.27 230.508 1946.24 229.383 1949.78 229.383Z" fill="black"/>
<path d="M1836.45 275.414C1844.97 275.414 1852.6 277.021 1859.35 280.234C1866.25 283.447 1872.12 288.348 1876.94 294.935H1878.14L1881.04 277.824H1897.91V409.169C1897.91 421.38 1895.82 431.582 1891.64 439.776C1887.46 448.131 1881.12 454.397 1872.6 458.574C1864.09 462.751 1853.24 464.84 1840.07 464.84C1830.75 464.84 1822.15 464.117 1814.28 462.671C1806.57 461.386 1799.66 459.377 1793.55 456.646V437.125C1797.73 439.214 1802.31 440.981 1807.29 442.427C1812.27 444.034 1817.65 445.239 1823.44 446.042C1829.22 446.845 1835.17 447.247 1841.27 447.247C1852.36 447.247 1861.03 443.953 1867.3 437.366C1873.73 430.939 1876.94 422.103 1876.94 410.856V405.795C1876.94 403.867 1877.02 401.136 1877.18 397.601C1877.34 393.906 1877.5 391.335 1877.66 389.889H1876.7C1872.2 396.476 1866.58 401.377 1859.83 404.59C1853.24 407.803 1845.53 409.41 1836.69 409.41C1819.98 409.41 1806.89 403.546 1797.41 391.817C1788.09 380.088 1783.43 363.7 1783.43 342.653C1783.43 328.836 1785.52 316.946 1789.7 306.985C1794.03 296.863 1800.14 289.071 1808.01 283.608C1815.89 278.145 1825.36 275.414 1836.45 275.414ZM1839.34 293.248C1832.11 293.248 1825.93 295.176 1820.79 299.032C1815.81 302.888 1811.95 308.511 1809.22 315.902C1806.65 323.293 1805.36 332.29 1805.36 342.894C1805.36 358.8 1808.25 371.011 1814.04 379.526C1819.98 387.881 1828.58 392.058 1839.82 392.058C1846.41 392.058 1852.04 391.255 1856.69 389.648C1861.35 387.881 1865.21 385.23 1868.26 381.695C1871.32 378 1873.56 373.34 1875.01 367.717C1876.46 362.094 1877.18 355.426 1877.18 347.714V342.653C1877.18 330.924 1875.81 321.445 1873.08 314.215C1870.51 306.985 1866.41 301.683 1860.79 298.309C1855.17 294.935 1848.02 293.248 1839.34 293.248Z" fill="black"/>
<path d="M1749.74 277.824V407H1728.53V277.824H1749.74ZM1739.37 229.383C1742.59 229.383 1745.4 230.508 1747.81 232.757C1750.38 234.846 1751.66 238.22 1751.66 242.879C1751.66 247.378 1750.38 250.752 1747.81 253.001C1745.4 255.25 1742.59 256.375 1739.37 256.375C1735.84 256.375 1732.87 255.25 1730.46 253.001C1728.05 250.752 1726.84 247.378 1726.84 242.879C1726.84 238.22 1728.05 234.846 1730.46 232.757C1732.87 230.508 1735.84 229.383 1739.37 229.383Z" fill="black"/>
<path d="M1693.23 319.276C1693.23 338.556 1689.61 354.703 1682.38 367.717C1675.31 380.731 1665.11 390.532 1651.78 397.119C1638.44 403.706 1622.29 407 1603.34 407H1555.38V234.926H1608.4C1625.75 234.926 1640.77 238.139 1653.46 244.566C1666.16 250.993 1675.96 260.472 1682.87 273.004C1689.77 285.375 1693.23 300.799 1693.23 319.276ZM1670.33 319.999C1670.33 304.736 1667.76 292.204 1662.62 282.403C1657.64 272.602 1650.25 265.372 1640.45 260.713C1630.81 255.893 1619.08 253.483 1605.26 253.483H1577.07V388.443H1600.44C1623.74 388.443 1641.17 382.739 1652.74 371.332C1664.47 359.764 1670.33 342.653 1670.33 319.999Z" fill="black"/>
</svg>
