<svg width="337" height="112" viewBox="0 0 337 112" fill="none" xmlns="http://www.w3.org/2000/svg">
<path d="M222 112H219V0H222V112ZM118.145 99.3828L124.077 84.5518H126.373L116.591 109.059H114.261L116.944 102.279L109.6 84.5518H112.178L118.145 99.3828ZM292.625 89.4883C293.517 89.4883 294.344 89.5789 295.106 89.7607C295.889 89.9244 296.617 90.1616 297.289 90.4707L296.471 92.3799C296.071 92.198 295.643 92.0433 295.189 91.916C294.753 91.7706 294.308 91.6616 293.853 91.5889C293.398 91.498 292.934 91.4522 292.462 91.4521C291.48 91.4521 290.725 91.6161 290.197 91.9434C289.689 92.2525 289.434 92.68 289.434 93.2256C289.434 93.6255 289.552 93.9708 289.788 94.2617C290.025 94.5345 290.415 94.8073 290.961 95.0801C291.525 95.3346 292.27 95.6442 293.197 96.0078C294.125 96.3534 294.917 96.7076 295.571 97.0713C296.227 97.4355 296.725 97.8808 297.071 98.4082C297.417 98.9175 297.59 99.5626 297.59 100.345C297.59 101.291 297.354 102.082 296.881 102.718C296.408 103.354 295.735 103.836 294.862 104.163C293.989 104.49 292.953 104.654 291.752 104.654C290.733 104.654 289.851 104.573 289.105 104.409C288.379 104.246 287.733 104.018 287.169 103.728V101.545C287.751 101.836 288.451 102.109 289.27 102.363C290.106 102.599 290.952 102.718 291.807 102.718C293.026 102.718 293.908 102.527 294.453 102.146C294.999 101.745 295.271 101.217 295.271 100.562C295.271 100.199 295.171 99.8708 294.971 99.5801C294.77 99.2894 294.407 98.9987 293.88 98.708C293.371 98.4172 292.634 98.0898 291.671 97.7266C290.725 97.3621 289.915 96.9984 289.243 96.6348C288.57 96.2711 288.052 95.8344 287.688 95.3252C287.324 94.816 287.142 94.1612 287.142 93.3613C287.142 92.125 287.642 91.1699 288.643 90.4971C289.66 89.8242 290.988 89.4883 292.625 89.4883ZM314.129 89.4883C315.456 89.4883 316.62 89.7887 317.62 90.3887C318.639 90.9705 319.429 91.8248 319.994 92.9521C320.576 94.0614 320.866 95.4256 320.866 97.0439C320.866 98.2628 320.702 99.3449 320.375 100.29C320.066 101.217 319.612 102.009 319.012 102.664C318.43 103.318 317.711 103.818 316.856 104.163C316.02 104.49 315.084 104.654 314.047 104.654C313.083 104.654 312.192 104.49 311.374 104.163C310.556 103.818 309.846 103.318 309.246 102.664C308.646 102.009 308.173 101.217 307.828 100.29C307.501 99.3449 307.337 98.2628 307.337 97.0439C307.337 95.4256 307.61 94.0614 308.155 92.9521C308.701 91.825 309.483 90.9705 310.501 90.3887C311.519 89.7886 312.729 89.4883 314.129 89.4883ZM246.557 84.9053C248.52 84.9053 250.22 85.2697 251.656 85.9971C253.094 86.7244 254.203 87.7974 254.985 89.2158C255.766 90.616 256.157 92.362 256.157 94.4531C256.157 96.635 255.748 98.462 254.93 99.9355C254.129 101.408 252.975 102.518 251.466 103.264C249.956 104.009 248.128 104.382 245.983 104.382H240.555V84.9053H246.557ZM262.554 104.382H260.153V89.7607H262.554V104.382ZM270.54 98.3809C270.686 98.7802 270.84 99.2259 271.004 99.7168C271.168 100.208 271.314 100.681 271.441 101.136C271.568 101.572 271.658 101.945 271.714 102.254H271.822C271.895 101.945 271.995 101.563 272.122 101.108C272.268 100.653 272.423 100.182 272.587 99.6904C272.769 99.1993 272.923 98.7622 273.051 98.3809L276.16 89.7607H278.724L273.159 104.382H270.404L264.867 89.7607H267.431L270.54 98.3809ZM283.438 104.382H281.037V89.7607H283.438V104.382ZM303.523 104.382H301.123V89.7607H303.523V104.382ZM331.709 89.4883C333.454 89.4883 334.772 89.9159 335.663 90.7705C336.555 91.6071 337 92.9711 337 94.8623V104.382H334.627V95.0254C334.627 93.8437 334.363 92.9617 333.837 92.3799C333.31 91.7981 332.482 91.5069 331.354 91.5068C329.736 91.5068 328.616 91.9619 327.998 92.8711C327.38 93.7803 327.071 95.0897 327.071 96.7988V104.382H324.671V89.7607H326.607L326.962 91.752H327.099C327.426 91.2429 327.827 90.8243 328.299 90.4971C328.79 90.1517 329.327 89.897 329.908 89.7334C330.49 89.5698 331.09 89.4883 331.709 89.4883ZM54.3057 84.0225C60.2382 84.0225 62.3925 88.3657 62.3926 93.9092H48.6914C48.7627 97.687 50.4933 100.866 54.8359 100.866C57.3419 100.866 59.4258 99.0655 59.9561 96.6289H62.1797C61.0857 100.866 58.4375 102.81 54.165 102.81C48.8678 102.809 46.3957 98.252 46.3955 93.416C46.3955 88.612 49.0449 84.0227 54.3057 84.0225ZM87.9404 84.0225C93.8728 84.0226 96.0272 88.3657 96.0273 93.9092H82.3252C82.3965 97.6871 84.1271 100.866 88.4707 100.866C90.9766 100.866 93.0602 99.0655 93.5898 96.6289H95.8145C94.7198 100.866 92.072 102.81 87.7988 102.81C82.5016 102.809 80.0304 98.252 80.0303 93.416C80.0303 88.612 82.6796 84.0226 87.9404 84.0225ZM18.7686 84.0225C24.4185 84.0225 27.0322 88.7545 27.0322 93.415C27.032 98.0755 24.4184 102.809 18.7686 102.809C13.1198 102.808 10.506 98.0753 10.5059 93.415C10.5059 88.7547 13.1197 84.0229 18.7686 84.0225ZM142.086 84.0215C145.722 84.0215 148.69 86.2112 148.866 89.9893H146.57C146.395 87.2705 144.665 85.9639 141.732 85.9639C138.484 85.9642 136.472 89.3539 136.472 93.3799C136.472 97.4395 138.485 100.865 141.732 100.865C144.488 100.865 146.394 99.1699 146.57 96.7344H148.866C148.302 100.795 145.97 102.809 141.944 102.809C136.647 102.808 134.176 98.2522 134.176 93.415C134.176 88.6119 136.826 84.0219 142.086 84.0215ZM196.574 98.2891C196.574 99.6651 196.68 101.078 196.751 102.277H194.562L194.455 99.665L194.385 99.5234C192.937 101.643 190.784 102.808 188.312 102.809C183.051 102.808 181.037 97.7933 181.037 93.3438C181.037 88.7543 183.05 84.0217 188.312 84.0215C190.678 84.0216 193.149 85.1503 194.385 87.2354L194.455 87.1641V76.7832H196.574V98.2891ZM314.074 91.5068C312.583 91.5069 311.5 91.9976 310.828 92.9795C310.155 93.9614 309.818 95.3165 309.818 97.0439C309.818 98.1893 309.965 99.1904 310.256 100.045C310.565 100.881 311.038 101.528 311.674 101.981C312.31 102.436 313.119 102.664 314.102 102.664C315.084 102.664 315.893 102.436 316.529 101.981C317.165 101.528 317.63 100.881 317.921 100.045C318.23 99.1904 318.385 98.1893 318.385 97.0439C318.385 95.8804 318.23 94.8895 317.921 94.0713C317.612 93.253 317.138 92.6249 316.502 92.1885C315.883 91.734 315.075 91.5068 314.074 91.5068ZM243.01 102.281H245.655C248.292 102.281 250.266 101.636 251.575 100.345C252.903 99.0352 253.565 97.0983 253.565 94.5342C253.565 92.8068 253.275 91.3884 252.693 90.2793C252.13 89.17 251.293 88.3515 250.184 87.8242C249.093 87.2788 247.765 87.0059 246.201 87.0059H243.01V102.281ZM7.84082 76.3594C8.51039 76.3594 9.21791 76.6052 9.85352 76.748V78.4414C9.43012 78.3722 8.96998 78.2998 8.54785 78.2998C5.65106 78.2999 5.58016 79.7487 5.68652 82.292V84.5508H9.71094V86.4941H5.68652V102.278H3.56738V86.4941H0V84.5508H3.56738V80.7725C3.56739 77.7358 4.80298 76.3595 7.84082 76.3594ZM36.2969 84.0225C37.003 83.9872 37.7109 84.0224 38.417 84.0576V86.1055C37.9936 86.0702 37.5343 85.9639 37.1104 85.9639C33.9674 85.964 32.3062 88.2251 32.2363 91.6143V102.278H30.1172V88.542C30.1537 87.1638 30.0125 85.7522 29.9414 84.5508H32.1299L32.2363 87.1631H32.3066C32.9436 85.3635 34.5319 84.0927 36.2969 84.0225ZM71.3604 99.3467L77.2588 84.5508H79.5889L72.5625 102.278H70.1611L62.9219 84.5508H65.2529L71.3604 99.3467ZM105.504 84.0225C106.21 83.9873 106.917 84.0224 107.623 84.0576V86.1055C107.2 86.0702 106.74 85.9639 106.316 85.9639C103.174 85.9641 101.513 88.2252 101.443 91.6143V102.278H99.3242V88.542C99.3601 87.1638 99.2186 85.7522 99.1475 84.5508H101.337L101.443 87.1631H101.513C102.15 85.3633 103.739 84.0925 105.504 84.0225ZM153.944 87.2344H154.013C155.249 85.0456 157.263 84.0226 159.559 84.0225C165.35 84.0225 165.809 89.1414 165.809 91.1895V102.278H163.688V90.8379C163.688 87.7659 161.924 85.9639 159.028 85.9639C155.533 85.964 153.944 88.8958 153.944 92.0723V102.278H151.825V76.7832H153.944V87.2344ZM171.494 102.278H169.375V84.5508H171.494V102.278ZM177.778 102.278H175.659V76.7822H177.778V102.278ZM18.7686 85.9629C14.4956 85.9634 12.8018 90.1305 12.8018 93.415C12.8019 96.6996 14.4957 100.865 18.7686 100.865C23.0407 100.865 24.7371 96.6998 24.7373 93.415C24.7372 90.1303 23.0408 85.9629 18.7686 85.9629ZM188.664 85.9629C184.638 85.9633 183.332 89.7073 183.332 93.0957C183.332 96.3804 184.287 100.865 188.347 100.865C192.973 100.865 194.385 97.0172 194.385 92.9912C194.385 89.3892 192.796 85.9629 188.664 85.9629ZM54.3408 85.9639C50.8808 85.9642 49.0443 88.8603 48.7617 91.9668H60.0977C59.8497 88.5423 58.014 85.9639 54.3408 85.9639ZM87.9756 85.9639C84.5148 85.964 82.6791 88.8602 82.3965 91.9668H93.7314C93.4841 88.5423 91.6487 85.9639 87.9756 85.9639ZM261.38 84.2783C261.744 84.2783 262.062 84.4056 262.335 84.6602C262.626 84.8965 262.771 85.2782 262.771 85.8057C262.771 86.3147 262.626 86.6965 262.335 86.9512C262.062 87.2056 261.744 87.333 261.38 87.333C260.98 87.333 260.644 87.2057 260.371 86.9512C260.099 86.6965 259.962 86.3146 259.962 85.8057C259.962 85.2785 260.099 84.8965 260.371 84.6602C260.644 84.4055 260.98 84.2784 261.38 84.2783ZM282.265 84.2783C282.628 84.2783 282.946 84.4055 283.219 84.6602C283.51 84.8965 283.656 85.2782 283.656 85.8057C283.656 86.3147 283.51 86.6965 283.219 86.9512C282.946 87.2056 282.628 87.333 282.265 87.333C281.864 87.3329 281.528 87.2057 281.255 86.9512C280.982 86.6965 280.847 86.3146 280.847 85.8057C280.847 85.2785 280.982 84.8965 281.255 84.6602C281.528 84.4056 281.864 84.2784 282.265 84.2783ZM302.35 84.2783C302.714 84.2783 303.032 84.4055 303.305 84.6602C303.596 84.8965 303.74 85.2782 303.74 85.8057C303.74 86.3147 303.596 86.6965 303.305 86.9512C303.032 87.2057 302.714 87.333 302.35 87.333C301.95 87.333 301.614 87.2057 301.341 86.9512C301.068 86.6965 300.932 86.3146 300.932 85.8057C300.932 85.2784 301.068 84.8965 301.341 84.6602C301.614 84.4055 301.95 84.2783 302.35 84.2783ZM171.67 79.4307H169.198V76.7832H171.67V79.4307ZM281.92 52.3633C283.719 52.3633 285.166 52.9914 286.257 54.2461C287.366 55.5008 287.921 57.3915 287.921 59.9189C287.921 61.5737 287.666 62.9745 287.157 64.1201C286.666 65.2476 285.966 66.1027 285.056 66.6846C284.165 67.2482 283.11 67.5303 281.893 67.5303C281.147 67.5303 280.483 67.4295 279.9 67.2295C279.319 67.0295 278.818 66.7749 278.4 66.4658C278 66.1386 277.655 65.784 277.364 65.4023H277.201C277.237 65.7114 277.273 66.1025 277.31 66.5752C277.346 67.0479 277.364 67.4572 277.364 67.8027V73.8037H274.963V52.6367H276.929L277.255 54.6279H277.364C277.655 54.2097 278 53.827 278.4 53.4814C278.818 53.136 279.31 52.864 279.873 52.6641C280.455 52.4641 281.138 52.3633 281.92 52.3633ZM297.283 52.3906C299.065 52.3906 300.384 52.7815 301.238 53.5635C302.093 54.3455 302.521 55.5914 302.521 57.3008V67.2568H300.775L300.312 65.1836H300.201C299.784 65.7109 299.346 66.1568 298.893 66.5205C298.456 66.8659 297.947 67.1205 297.365 67.2842C296.802 67.4478 296.109 67.5303 295.291 67.5303C294.419 67.5302 293.627 67.3755 292.919 67.0664C292.227 66.7573 291.682 66.2839 291.282 65.6475C290.882 64.9928 290.683 64.1742 290.683 63.1924C290.683 61.7379 291.255 60.6198 292.4 59.8379C293.546 59.0378 295.311 58.6011 297.692 58.5283L300.174 58.4463V57.5732C300.174 56.355 299.91 55.5098 299.383 55.0371C298.857 54.5643 298.111 54.3271 297.146 54.3271C296.382 54.3271 295.655 54.4462 294.964 54.6826C294.274 54.9008 293.627 55.1554 293.027 55.4463L292.291 53.6455C292.928 53.3 293.683 53.0089 294.556 52.7725C295.428 52.5179 296.337 52.3906 297.283 52.3906ZM313.064 52.3633C313.809 52.3633 314.528 52.4457 315.22 52.6094C315.91 52.7548 316.474 52.9361 316.911 53.1543L316.174 55.1455C315.738 54.9819 315.229 54.827 314.647 54.6816C314.065 54.5362 313.519 54.4639 313.011 54.4639C312.029 54.4639 311.219 54.6728 310.583 55.0908C309.946 55.509 309.473 56.128 309.163 56.9463C308.854 57.7645 308.7 58.7828 308.7 60.001C308.7 61.1649 308.854 62.1563 309.163 62.9746C309.473 63.7929 309.937 64.4109 310.556 64.8291C311.174 65.2473 311.947 65.457 312.874 65.457C313.674 65.457 314.375 65.3746 314.975 65.2109C315.592 65.0473 316.156 64.8477 316.665 64.6113V66.7393C316.174 66.9937 315.628 67.1842 315.028 67.3115C314.447 67.4569 313.737 67.5303 312.9 67.5303C311.609 67.5302 310.455 67.2664 309.437 66.7393C308.437 66.212 307.645 65.3934 307.063 64.2842C306.5 63.1749 306.219 61.7559 306.219 60.0283C306.219 58.2281 306.518 56.7641 307.118 55.6367C307.718 54.5093 308.527 53.6816 309.546 53.1543C310.583 52.6271 311.755 52.3633 313.064 52.3633ZM322.733 52.6367H326.962V54.4912H322.733V62.9473C322.733 63.8384 322.943 64.502 323.361 64.9385C323.797 65.3567 324.352 65.5664 325.025 65.5664C325.389 65.5664 325.762 65.5389 326.144 65.4844C326.525 65.4116 326.834 65.3384 327.07 65.2656V67.0938C326.816 67.221 326.452 67.3208 325.979 67.3936C325.508 67.4844 325.052 67.5303 324.615 67.5303C323.852 67.5303 323.142 67.403 322.488 67.1484C321.851 66.8757 321.333 66.4114 320.934 65.7568C320.533 65.1022 320.334 64.1839 320.334 63.002V54.4912H318.26V53.3457L320.36 52.3906L321.314 49.2812H322.733V52.6367ZM246.038 49.1992L243.746 49.7451V65.3203L246.038 65.8389V67.2568H239V65.8389L241.291 65.3203V49.7451L239 49.1992V47.7812H246.038V49.1992ZM265.51 52.3633C267.165 52.3633 268.402 52.7908 269.221 53.6455C270.039 54.4821 270.447 55.8462 270.447 57.7373V67.2568H268.074V57.8467C268.074 56.701 267.829 55.8368 267.338 55.2549C266.865 54.6731 266.119 54.3818 265.102 54.3818C263.682 54.3818 262.665 54.7912 262.046 55.6094C261.446 56.4276 261.146 57.6189 261.146 59.1826V67.2568H258.772V57.8467C258.772 57.0829 258.664 56.4457 258.445 55.9365C258.227 55.4093 257.9 55.0182 257.464 54.7637C257.027 54.5092 256.463 54.3818 255.771 54.3818C254.79 54.3819 254.018 54.5916 253.454 55.0098C252.89 55.4098 252.48 56.0003 252.226 56.7822C251.989 57.5642 251.871 58.5282 251.871 59.6738V67.2568H249.471V52.6367H251.407L251.763 54.6279H251.898C252.207 54.1188 252.581 53.7003 253.017 53.373C253.472 53.0275 253.972 52.773 254.518 52.6094C255.063 52.4457 255.627 52.3633 256.209 52.3633C257.336 52.3633 258.272 52.5638 259.018 52.9639C259.782 53.364 260.336 53.9819 260.682 54.8184H260.818C261.31 53.9818 261.973 53.364 262.81 52.9639C263.664 52.5638 264.565 52.3633 265.51 52.3633ZM297.992 60.1924C296.174 60.2652 294.91 60.5562 294.2 61.0654C293.51 61.5746 293.165 62.2925 293.165 63.2197C293.165 64.0381 293.41 64.6386 293.9 65.0205C294.41 65.4023 295.056 65.5928 295.837 65.5928C297.074 65.5928 298.102 65.2568 298.92 64.584C299.738 63.893 300.147 62.8383 300.147 61.4199V60.1104L297.992 60.1924ZM281.482 54.3818C280.501 54.3819 279.71 54.5732 279.11 54.9551C278.509 55.3187 278.074 55.8737 277.801 56.6191C277.528 57.3646 277.382 58.3106 277.364 59.4561V59.9189C277.364 61.1191 277.491 62.1381 277.746 62.9746C278 63.811 278.428 64.4474 279.027 64.8838C279.645 65.3202 280.483 65.5391 281.537 65.5391C282.429 65.5391 283.156 65.2928 283.72 64.8018C284.302 64.3108 284.729 63.6469 285.002 62.8105C285.293 61.9561 285.438 60.9834 285.438 59.8926C285.438 58.2198 285.111 56.883 284.456 55.8828C283.82 54.8826 282.828 54.3818 281.482 54.3818ZM196.585 65.1143H0.30957V64.0449H196.585V65.1143ZM171.336 43.6113C174.67 42.2669 180.06 41.3959 186.964 43.209L187.743 43.4131L186.997 43.709C183.845 44.9576 179.895 45.3287 177.608 44.5811C176.743 44.296 176.221 43.8388 175.582 43.2373C174.502 43.3451 173.441 43.6583 172.423 44.1084C173.339 44.5984 176.234 46.2719 178.188 48.7441L178.326 48.9219L178.172 49.085C178.012 49.2524 177.63 49.538 177.384 49.6191L177.212 49.6719C177.208 49.6673 177.098 49.5457 177.094 49.5391C175.696 47.8559 173.662 45.933 171.333 44.6494C169.004 45.9329 166.973 47.8566 165.577 49.5391C165.571 49.5484 165.458 49.6719 165.458 49.6719L165.29 49.6182C165.041 49.5369 164.662 49.2517 164.504 49.085L164.347 48.9219L164.486 48.7451C166.435 46.2743 169.327 44.6006 170.247 44.1094C169.229 43.659 168.168 43.3452 167.089 43.2373C166.448 43.8387 165.927 44.296 165.065 44.5811C162.776 45.3278 158.826 44.9576 155.676 43.709L154.931 43.4131L155.709 43.209C162.609 41.3959 168.001 42.2675 171.336 43.6113ZM5.3291 33.3506C5.32918 38.077 6.45132 41.5506 11.5527 41.5508C13.7403 41.5507 16.7093 40.4637 17.8311 37.6426C18.8378 35.0885 18.8984 31.884 18.8984 31.2314V17.2148H24.2256V44.4863H19.0098V40.4639H18.8984C16.7661 43.8885 13.179 45.2987 9.25195 45.2988C3.3657 45.2987 0.00127895 40.9531 0.000976562 35.4678V17.2148H5.3291V33.3506ZM81.4023 16.459C87.3059 16.459 91.7591 20.0799 92.0293 25.9619H86.7451C86.4668 22.5596 84.7965 20.1895 81.0059 20.1895C75.9427 20.1897 73.9883 24.448 73.9883 30.8203C73.9884 37.1887 75.9428 41.4549 81.0059 41.4551C84.5114 41.4551 86.6843 39.2476 86.9639 35.3545H92.2607C91.808 41.4548 87.1343 45.1776 80.9482 45.1777C71.983 45.1776 68.4171 39.0275 68.417 31.0371C68.417 23.093 72.5357 16.4592 81.4023 16.459ZM107.624 16.46C115.976 16.6288 119.93 21.7501 119.93 29.2598V31.7891H100.216C99.8258 36.5401 101.832 41.4549 107.231 41.4551C111.354 41.455 113.416 39.8932 114.024 35.9424H119.603C118.762 42.105 113.859 45.1758 107.18 45.1758C98.2083 45.1755 94.6378 39.0268 94.6377 31.0371C94.6378 23.0913 98.7695 16.4601 107.624 16.46ZM43.4971 16.4014C45.4578 16.4014 54.1491 16.8906 54.1494 25.6348V44.4854H48.8242V27.3193C48.8242 22.8111 46.861 20.3682 42.376 20.3682C42.3429 20.3664 39.4443 20.2176 37.2158 22.376C36.4308 23.1369 34.9746 24.3325 34.9746 29.6553V44.4854H29.6455V17.2158H34.8613V21.2334H34.9746C36.7652 17.8117 40.6919 16.4015 43.4971 16.4014ZM64.4365 44.4609H59.1094V17.1914H64.4365V44.4609ZM134.674 3.94141C135.954 3.94147 137.186 4.26196 138.47 4.47656V8.73926C137.57 8.69393 136.682 8.57324 135.786 8.57324C132.784 8.57331 131.055 9.33906 131.218 12.3027V17.2676H137.683V20.835H131.218V44.3682H125.927V20.835H121.114V17.2676H125.927V11.4424C126.101 5.50516 130.716 3.94149 134.674 3.94141ZM148.81 36.6191C150.935 36.9558 156.946 40.2425 157.873 41.5752L158.107 41.9111L157.693 41.9805C152.739 42.8204 150.09 39.5507 148.528 37.0156L148.379 36.7715L148.229 36.5244L148.81 36.6191ZM194.293 36.7715L194.143 37.0137C192.583 39.5494 189.935 42.821 184.978 41.9814L184.564 41.9111L184.798 41.5762C185.723 40.2432 191.738 36.9542 193.864 36.6172L194.442 36.5254L194.293 36.7715ZM156.313 35.0771C157.918 36.1439 162.51 39.943 162.85 41.25L162.932 41.5547L162.609 41.5791C157.596 41.9966 156.39 38.2228 155.919 35.3467L155.875 35.0918L155.832 34.835L156.313 35.0771ZM186.799 35.0918L186.753 35.3467C186.281 38.2229 185.075 41.997 180.061 41.5791L179.744 41.5547L179.821 41.25C180.161 39.9431 184.751 36.1443 186.358 35.0771L186.839 34.835L186.799 35.0918ZM171.3 3.96875C181.527 3.96875 189.853 12.0325 189.854 21.9453C189.853 31.8555 181.527 39.9189 171.3 39.9189C161.068 39.9186 152.746 31.8553 152.746 21.9453C152.746 12.0328 161.068 3.96913 171.3 3.96875ZM152.866 29.4014C154.027 30.8865 155.514 35.7508 155.572 37.6816C155.571 37.6979 155.541 38.0294 155.54 38.0449L155.466 38.5039L155.113 38.29C153.037 37.0018 151.955 35.1418 151.882 32.7676C151.852 31.7179 152.026 30.6113 152.391 29.4805L152.465 29.2334L152.544 28.9922L152.866 29.4014ZM190.201 29.2354L190.281 29.4785C190.649 30.61 190.819 31.7164 190.789 32.7686C190.72 35.1424 189.631 37.0005 187.557 38.29L187.206 38.502L187.131 38.0469C187.128 38.0383 187.102 37.7007 187.101 37.6826C187.154 35.7494 188.64 30.8855 189.805 29.3994L190.122 28.9932L190.201 29.2354ZM145.296 28.7656C147.706 30.2462 151.46 34.7357 152.187 36.6621L152.379 37.1699L151.846 37.0029C147.953 35.7939 145.43 31.6201 144.884 29.0439L144.819 28.7373L144.753 28.4316L145.296 28.7656ZM197.854 28.7383L197.786 29.0449C197.24 31.6204 194.717 35.7921 190.826 37.0029L190.291 37.1699L190.485 36.6602C191.21 34.7344 194.964 30.2481 197.375 28.7666L197.92 28.4316L197.854 28.7383ZM272.368 15.2393C273.332 15.2393 274.196 15.4206 274.96 15.7842C275.741 16.1478 276.406 16.7027 276.951 17.4482H277.087L277.415 15.5117H279.324V30.3779C279.324 31.76 279.087 32.9144 278.614 33.8418C278.141 34.7874 277.424 35.497 276.46 35.9697C275.497 36.4425 274.268 36.6787 272.777 36.6787C271.723 36.6787 270.749 36.5972 269.858 36.4336C268.986 36.2882 268.204 36.0609 267.513 35.752V33.542C267.986 33.7784 268.504 33.9789 269.067 34.1426C269.631 34.3245 270.24 34.4609 270.896 34.5518C271.55 34.6426 272.224 34.6875 272.914 34.6875C274.169 34.6874 275.15 34.3146 275.859 33.5693C276.587 32.8419 276.951 31.8413 276.951 30.5684V29.9961C276.951 29.7779 276.96 29.4685 276.979 29.0684C276.997 28.6502 277.014 28.359 277.032 28.1953H276.924C276.415 28.9407 275.778 29.4957 275.015 29.8594C274.269 30.223 273.396 30.4052 272.396 30.4053C270.504 30.4053 269.022 29.7415 267.949 28.4141C266.894 27.0866 266.367 25.2316 266.367 22.8496C266.367 21.286 266.603 19.9398 267.076 18.8125C267.566 17.6668 268.259 16.7843 269.149 16.166C270.041 15.5478 271.113 15.2393 272.368 15.2393ZM164.651 5.94434C158.002 8.53687 153.663 14.6277 153.504 21.5488C154.493 20.7135 155.807 19.8652 156.384 19.6016C157.11 19.2693 157.74 18.4997 157.521 17.6484C157.303 16.8026 156.254 13.5754 158.353 11.3682C160.455 9.16089 163.719 8.95289 166.939 11.5391C170.315 14.2498 168.4 16.8625 167.902 17.4824C167.598 17.8613 167.282 18.4378 167.51 18.9688C167.923 19.9299 167.233 19.6376 166.982 20.0049C166.891 20.1323 167.091 20.4481 166.916 20.5996C166.743 20.747 166.668 20.6858 166.599 20.8115C166.533 20.9382 166.709 21.1719 166.523 21.29C166.376 21.3782 166.179 21.1955 165.911 21.5205C165.629 21.8546 165.465 22.2681 164.443 22.2959C163.589 22.3152 162.012 21.422 161.44 22.2539C161.223 22.5728 161.285 22.8601 161.355 23.0381C161.679 23.8652 162.317 28.6579 162.251 28.9775C162.95 30.1579 165.197 29.6312 165.954 29.9961C166.042 30.0389 166.281 30.0592 166.523 29.8477C166.764 29.6356 167.51 29.0506 168.078 29.1045C168.298 29.1233 168.686 29.0729 168.427 29.5742C168.351 29.7209 168.526 29.7575 168.688 29.7061L168.874 29.6318C169.251 29.4969 170.258 29.2889 169.74 31.0156C169.149 32.9862 167.692 32.8741 166.631 32.501C166.389 32.4154 166.218 32.3726 165.821 32.501C165.424 32.6302 162.645 33.0516 162.075 33.0283C161.509 33.0095 160.5 33.051 159.823 32.3936C159.407 32.9675 158.996 33.8192 159.233 34.6113C159.808 35.1255 160.414 35.6043 161.053 36.041C162.236 36.328 163.755 36.1839 164.903 35.79C165.21 35.683 168.823 34.1078 170.859 34.0283C172.521 33.9658 172.564 32.5656 172.241 31.8027C171.967 31.1685 171.912 30.2098 171.888 29.6162C171.866 29.0209 171.711 28.1953 170.512 27.3232C169.304 26.4517 168.581 25.9243 168.581 25.1592C168.581 24.7353 168.853 24.182 169.084 24.0557C169.326 23.9249 169.391 23.6307 169.37 23.4639C169.348 23.2877 169.148 22.6564 169.873 22.6562C170.002 22.6561 170.243 22.5269 170.243 22.2725C170.243 22.0171 170.009 21.1787 170.596 21.3408C170.748 21.3831 171.011 21.19 171.012 20.915C171.012 20.6425 169.923 19.3247 171.649 19.3887C172.815 19.4258 174.16 18.9321 174.714 18.2578C177.405 14.9686 181.58 14.3275 185.508 17.9893C189.15 21.3836 188.407 26.5906 186.034 28.9375C183.932 31.0154 182.226 31.4805 180.604 31.4805C180.298 31.4803 179.815 31.1829 179.685 31.8643C179.552 32.5338 179.602 34.3529 182.069 35.666C186.338 32.5097 189.098 27.5329 189.099 21.9453C189.099 18.5791 188.094 15.3239 186.202 12.5215C185.208 13.1684 184.168 13.747 183.112 14.2549C183.19 14.4316 183.517 15.1942 183.519 15.1973L183.635 15.4668L182.636 15.0371C182.636 15.0371 182.496 14.7236 182.426 14.5693C182.246 14.6461 181.963 14.7646 181.963 14.7646C181.952 14.7614 181.35 14.5793 180.558 14.4951C180.573 14.4898 181.558 14.15 182.103 13.9053C181.494 12.729 180.759 11.6183 179.906 10.6025C178.85 11.1663 177.731 11.6292 176.574 11.9766C176.943 12.8661 177.646 15.0088 177.646 15.0088L176.919 15.2275C176.919 15.2275 176.216 13.0696 175.843 12.1826C174.473 12.5299 173.076 12.7178 171.68 12.7461V16.166C171.849 16.1556 172.165 16.1394 172.179 16.1387C173.134 16.0871 174.192 16.0162 175.394 15.8633L175.938 15.8164L174.938 16.6719L174.89 16.6777C173.752 16.7746 172.811 16.8498 171.68 16.9033V18.1357H170.908V12.748C170.527 12.738 169.505 12.7026 169.175 12.6768L169.1 12.6709L169.067 12.6064C168.986 12.4524 168.892 12.2833 168.771 12.1123L168.611 11.8818L168.898 11.9102C169.352 11.9548 170.473 12 170.908 12.0107V9.0498C170.122 9.01768 169.348 8.87809 168.603 8.6377C168.269 9.17686 167.387 10.7858 167.383 10.7939C167.379 10.7909 167.273 10.6951 167.106 10.5879C166.942 10.4806 166.76 10.3761 166.753 10.3721C166.753 10.3721 167.564 8.89302 167.887 8.36328C167.285 8.10653 166.715 7.78654 166.194 7.40332C165.53 7.86862 164.114 9.03343 164.103 9.04297C164.095 9.04075 163.801 8.95461 163.659 8.92285C163.453 8.87378 163.232 8.8418 163.232 8.8418C163.232 8.8418 164.847 7.44338 165.592 6.91797C165.249 6.61089 164.934 6.28728 164.651 5.94434ZM191.614 23.5518L191.775 23.7852C192.988 25.5279 193.603 27.3181 193.562 28.9658C193.533 30.1847 193.131 31.3509 192.375 32.4326L192.118 32.7988L191.903 32.4131C191.383 31.4584 190.968 28.3668 191.029 25.9248C191.051 25.0617 191.138 24.3449 191.288 23.8584L191.454 23.3184L191.614 23.5518ZM151.383 23.8584C151.53 24.3455 151.621 25.0609 151.645 25.9248C151.704 28.3671 151.29 31.4571 150.766 32.4102L150.553 32.7979L150.301 32.4316C149.542 31.3505 149.139 30.1838 149.107 28.9648C149.068 27.3168 149.685 25.5279 150.896 23.7861L151.062 23.5527L151.225 23.3193L151.383 23.8584ZM293.592 15.5117H297.82V17.3662H293.592V25.8223C293.592 26.7134 293.801 27.377 294.219 27.8135C294.656 28.2315 295.21 28.4413 295.882 28.4414C296.246 28.4414 296.619 28.4139 297.002 28.3594C297.383 28.2866 297.692 28.2134 297.929 28.1406V29.9688C297.674 30.096 297.311 30.1958 296.838 30.2686C296.365 30.3594 295.911 30.4053 295.474 30.4053C294.71 30.4053 294.001 30.278 293.346 30.0234C292.71 29.7507 292.192 29.2864 291.791 28.6318C291.391 27.9772 291.19 27.0589 291.19 25.877V17.3662H289.118V16.2207L291.218 15.2656L292.173 12.1562H293.592V15.5117ZM306.394 15.2666C308.175 15.2666 309.494 15.6575 310.349 16.4395C311.203 17.2214 311.631 18.4667 311.631 20.1758V30.1328H309.886L309.421 28.0596H309.312C308.894 28.5868 308.457 29.0319 308.003 29.3955C307.566 29.741 307.057 29.9955 306.476 30.1592C305.912 30.3228 305.221 30.4053 304.402 30.4053C303.529 30.4052 302.738 30.2505 302.029 29.9414C301.338 29.6323 300.792 29.1597 300.393 28.5234C299.992 27.8688 299.793 27.0502 299.793 26.0684C299.793 24.6136 300.365 23.4949 301.511 22.7129C302.656 21.9128 304.421 21.4761 306.803 21.4033L309.284 21.3213V20.4492C309.284 19.2308 309.02 18.3849 308.494 17.9121C307.967 17.4394 307.221 17.2031 306.257 17.2031C305.494 17.2031 304.766 17.3212 304.074 17.5576C303.384 17.7758 302.737 18.0303 302.138 18.3213L301.402 16.5205C302.038 16.175 302.793 15.8848 303.666 15.6484C304.539 15.3939 305.447 15.2666 306.394 15.2666ZM246.557 10.6562C248.52 10.6563 250.22 11.0197 251.656 11.7471C253.094 12.4745 254.203 13.5474 254.985 14.9658C255.766 16.366 256.157 18.1119 256.157 20.2031C256.157 22.3853 255.748 24.2135 254.93 25.6865C254.129 27.1594 252.974 28.2682 251.466 29.0137C249.956 29.7592 248.128 30.1328 245.983 30.1328H240.555V10.6562H246.557ZM262.554 30.1328H260.153V15.5117H262.554V30.1328ZM286.368 30.1328H283.967V15.5117H286.368V30.1328ZM318.546 30.1318H316.146V9.40137H318.546V30.1318ZM144.633 20.8994C146.171 22.719 148.22 27.7946 148.284 29.4961L148.306 30.0068C148.305 30.0064 147.867 29.7333 147.86 29.7275C144.115 27.3493 144.019 22.8688 144.151 21.0508L144.174 20.7178L144.198 20.3838L144.633 20.8994ZM198.496 20.7178L198.521 21.0518C198.652 22.8692 198.556 27.3497 194.809 29.7285C194.793 29.7401 194.369 30.0068 194.369 30.0068L194.389 29.4961C194.45 27.795 196.504 22.7194 198.038 20.8994L198.475 20.3828L198.496 20.7178ZM307.103 23.0674C305.285 23.1402 304.02 23.4312 303.312 23.9404C302.62 24.4496 302.274 25.1683 302.274 26.0957C302.274 26.9138 302.521 27.5137 303.011 27.8955C303.52 28.2774 304.166 28.4687 304.948 28.4688C306.184 28.4688 307.212 28.1319 308.03 27.459C308.849 26.768 309.257 25.7133 309.257 24.2949V22.9854L307.103 23.0674ZM272.695 17.2568C271.877 17.2568 271.177 17.4757 270.596 17.9121C270.032 18.3485 269.595 18.9848 269.286 19.8213C268.995 20.6578 268.849 21.6767 268.849 22.877C268.849 24.677 269.177 26.0588 269.832 27.0225C270.504 27.968 271.477 28.4413 272.749 28.4414C273.495 28.4414 274.133 28.3499 274.659 28.168C275.186 27.968 275.624 27.6685 275.969 27.2686C276.315 26.8504 276.568 26.3228 276.732 25.6865C276.897 25.0501 276.979 24.2948 276.979 23.4219V22.8496C276.979 21.5222 276.823 20.4492 276.514 19.6309C276.223 18.8126 275.759 18.212 275.123 17.8301C274.487 17.4482 273.678 17.2569 272.695 17.2568ZM107.231 20.1895C102.826 20.1896 100.216 23.7966 100.216 28.2324H114.364C114.476 23.6997 112.355 20.1897 107.231 20.1895ZM243.01 28.0322H245.655C248.292 28.0322 250.266 27.3868 251.575 26.0957C252.903 24.7864 253.565 22.8492 253.565 20.2852C253.565 18.5578 253.275 17.1395 252.693 16.0303C252.13 14.9209 251.293 14.1025 250.184 13.5752C249.093 13.0297 247.765 12.7569 246.201 12.7568H243.01V28.0322ZM151.177 18.6191C151.26 20.5397 149.736 24.6686 148.59 26.2324L148.28 26.6533L148.11 26.165C147.922 25.6378 147.813 25.1314 147.78 24.6602C147.573 21.5991 149.972 19.1256 150.716 18.4395L150.938 18.2383L151.151 18.0371L151.177 18.6191ZM191.738 18.2383L191.955 18.4404C192.699 19.1241 195.101 21.5993 194.891 24.6611C194.858 25.1323 194.75 25.6361 194.565 26.165L194.391 26.6533L194.08 26.2314C192.932 24.6667 191.415 20.5399 191.494 18.6201L191.518 18.0371L191.738 18.2383ZM146.405 13.7373C147.17 15.632 147.52 19.8774 147.256 21.9014L147.019 23.0479L146.832 22.8184L146.656 22.5957C145.058 20.7121 145.004 18.1872 145.237 16.4023C145.404 15.1429 145.719 14.1952 145.894 13.7432L146.018 13.416L146.14 13.0938L146.405 13.7373ZM196.654 13.415L196.781 13.7422C196.952 14.1948 197.265 15.1426 197.433 16.4023C197.67 18.1871 197.615 20.7113 196.017 22.5967C196.007 22.6067 195.838 22.8193 195.838 22.8193L195.652 23.0469L195.415 21.9023C195.149 19.8754 195.5 15.6312 196.27 13.7363L196.533 13.0938L196.654 13.415ZM190.173 12.5449L190.479 12.7314C193.342 14.4988 194.658 16.604 194.501 19.1631L194.467 19.749L194.049 19.4004C192.506 18.1127 190.61 14.863 190.071 13.0264L189.872 12.3584L190.173 12.5449ZM152.737 13.1113C152.157 14.9348 150.195 18.1491 148.627 19.4053L148.207 19.7471L148.182 19.1631C148.077 16.6003 149.434 14.5211 152.333 12.8086L152.642 12.627L152.947 12.4453L152.737 13.1113ZM151.226 9.2373C150.761 11.8755 149.616 14.1618 148.095 15.5137L147.748 15.8203C147.747 15.8147 147.629 15.3056 147.623 15.2852C147.623 15.2852 147.588 15.1099 147.585 15.0967C147.203 12.3925 149.69 9.92787 150.778 8.99609L151.066 8.74707L151.358 8.49414L151.226 9.2373ZM191.604 8.74805L191.896 8.99414C192.985 9.92815 195.47 12.393 195.087 15.0947C195.083 15.1085 195.047 15.2842 195.047 15.2842C195.043 15.305 194.929 15.8051 194.926 15.8193L194.579 15.5127C193.056 14.1627 191.911 11.8758 191.446 9.23633L191.313 8.49512L191.604 8.74805ZM182.73 8.72949C182.058 9.27882 181.331 9.78055 180.57 10.2305C181.429 11.272 182.173 12.4004 182.783 13.5879C183.821 13.0952 184.822 12.5338 185.771 11.9121C184.901 10.7365 183.879 9.66408 182.73 8.72949ZM261.38 10.0293C261.744 10.0293 262.062 10.1566 262.335 10.4111C262.626 10.6476 262.771 11.0293 262.771 11.5566C262.771 12.0657 262.626 12.4476 262.335 12.7021C262.062 12.9565 261.744 13.084 261.38 13.084C260.98 13.0839 260.644 12.9567 260.371 12.7021C260.098 12.4476 259.962 12.0656 259.962 11.5566C259.962 11.0296 260.099 10.6476 260.371 10.4111C260.644 10.1566 260.98 10.0293 261.38 10.0293ZM285.195 10.0293C285.559 10.0293 285.877 10.1566 286.149 10.4111C286.44 10.6476 286.586 11.0294 286.586 11.5566C286.586 12.0657 286.44 12.4476 286.149 12.7021C285.877 12.9566 285.559 13.084 285.195 13.084C284.795 13.084 284.458 12.9567 284.186 12.7021C283.913 12.4476 283.777 12.0657 283.777 11.5566C283.777 11.0295 283.913 10.6476 284.186 10.4111C284.458 10.1566 284.795 10.0293 285.195 10.0293ZM174.014 8.6377C173.261 8.88244 172.476 9.01917 171.68 9.05566V12.0127C172.978 11.985 174.275 11.8088 175.537 11.4961C175.09 10.5087 174.581 9.55083 174.014 8.6377ZM176.424 7.40625C175.895 7.79116 175.328 8.10892 174.731 8.36621C175.31 9.31072 175.828 10.2944 176.278 11.2949C177.356 10.9759 178.408 10.5516 179.402 10.0312C178.511 9.0557 177.51 8.17096 176.424 7.40625ZM64.9443 10.8359H58.6084V5.23926H64.9443V10.8359ZM177.965 5.9502C177.68 6.29745 177.362 6.6215 177.023 6.92285C178.14 7.7291 179.167 8.64678 180.077 9.6582C180.798 9.24038 181.486 8.77293 182.124 8.26074C180.84 7.30721 179.445 6.52924 177.965 5.9502ZM170.908 5.47656C170.225 6.28457 169.59 7.12547 169.021 7.98633C169.635 8.16883 170.269 8.28004 170.908 8.31152V5.47656ZM171.68 8.31152C172.329 8.28258 172.974 8.17062 173.595 7.98633C173.006 7.09339 172.362 6.24255 171.68 5.44336V8.31152ZM170.064 5.32422C168.939 5.77229 167.865 6.3188 166.864 6.96191C167.306 7.26586 167.777 7.52572 168.287 7.7334C168.829 6.89773 169.432 6.09194 170.064 5.32422ZM172.546 5.31934C173.188 6.10342 173.798 6.90933 174.335 7.73242C174.834 7.52607 175.312 7.26825 175.758 6.96191C174.749 6.31494 173.671 5.76493 172.546 5.31934ZM173.278 4.82129C174.367 5.28263 175.408 5.83784 176.388 6.48926C176.685 6.23829 176.957 5.96795 177.211 5.67676C175.948 5.24565 174.63 4.9629 173.278 4.82129ZM169.359 4.8125C168.003 4.95161 166.68 5.23763 165.403 5.67188C165.656 5.95443 165.926 6.22706 166.226 6.48633C167.214 5.83315 168.262 5.27504 169.359 4.8125Z" fill="#000000"/>
</svg>
