<svg width="202" height="202" viewBox="0 0 202 202" fill="none" xmlns="http://www.w3.org/2000/svg">
<path d="M201 196.696C201 198.906 199.209 200.696 197 200.696H5C2.79086 200.696 1 198.906 1 196.696V101.052C1 99.9865 1.42481 98.9654 2.18027 98.2146L98.1803 2.80247C99.7404 1.25193 102.26 1.25193 103.82 2.80246L199.82 98.2146C200.575 98.9654 201 99.9865 201 101.052V196.696Z" fill="#A9CAFF" stroke="#002D76" stroke-width="1.5" stroke-miterlimit="10"/>
<path d="M129.471 154.093C136.753 146.775 141.255 136.684 141.255 125.523C141.255 103.209 123.233 85.1282 101 85.1282C78.767 85.1282 60.7451 103.213 60.7451 125.523C60.7451 136.904 65.4264 147.172 72.966 154.51" stroke="#002D76" stroke-width="1.5" stroke-miterlimit="10"/>
<path d="M60.3184 167.202C49.5418 156.605 42.8613 141.85 42.8613 125.523C42.8613 93.3083 68.8863 67.1826 101 67.1826C133.113 67.1826 159.138 93.3083 159.138 125.523C159.138 141.629 152.627 156.218 142.107 166.774" stroke="#002D76" stroke-width="1.5" stroke-miterlimit="10"/>
<path d="M100.999 138.069V176.071" stroke="#002D76" stroke-width="1.5" stroke-miterlimit="10"/>
<path d="M113.499 125.523C113.499 128.988 112.105 132.128 109.839 134.392C107.583 136.666 104.454 138.065 101 138.065C97.7632 138.065 94.8136 136.832 92.5981 134.806C90.0748 132.512 88.502 129.206 88.502 125.523C88.502 118.592 94.0932 112.981 101 112.981C107.907 112.981 113.499 118.592 113.499 125.523Z" fill="#277AFF" stroke="#002D76" stroke-width="1.5" stroke-miterlimit="10"/>
</svg>
