<svg width="202" height="202" viewBox="0 0 202 202" fill="none" xmlns="http://www.w3.org/2000/svg">
<g clip-path="url(#clip0_543_3449)">
<path d="M170.808 0.75H30.8081C14.2396 0.75 0.808105 14.1815 0.808105 30.75V170.75C0.808105 187.319 14.2396 200.75 30.8081 200.75H170.808C187.377 200.75 200.808 187.319 200.808 170.75V30.75C200.808 14.1815 187.377 0.75 170.808 0.75Z" fill="#D4E5FF" stroke="#002D76" stroke-width="1.5" stroke-miterlimit="10"/>
<path d="M100.808 113.25C107.712 113.25 113.308 107.654 113.308 100.75C113.308 93.8464 107.712 88.25 100.808 88.25C93.9045 88.25 88.3081 93.8464 88.3081 100.75C88.3081 107.654 93.9045 113.25 100.808 113.25Z" fill="#277AFF" stroke="#002D76" stroke-width="1.5" stroke-miterlimit="10"/>
<path d="M200.808 30.75V100.75H140.808C135.283 100.75 130.808 96.275 130.808 90.75C130.808 87.9875 131.927 85.4875 133.733 83.675C135.546 81.8687 138.046 80.75 140.808 80.75H90.8081C85.2831 80.75 80.8081 76.275 80.8081 70.75C80.8081 67.9875 81.9269 65.4875 83.7331 63.675C85.5456 61.8688 88.0456 60.75 90.8081 60.75H80.8081C75.2831 60.75 70.8081 56.275 70.8081 50.75C70.8081 47.9875 71.9269 45.4875 73.7331 43.675C75.5456 41.8688 78.0456 40.75 80.8081 40.75H90.8081C85.2831 40.75 80.8081 36.275 80.8081 30.75C80.8081 27.9875 81.9269 25.4875 83.7331 23.675C85.5456 21.8688 88.0456 20.75 90.8081 20.75H100.808C95.2831 20.75 90.8081 16.275 90.8081 10.75C90.8081 7.9875 91.9269 5.4875 93.7331 3.675C95.5456 1.86875 98.0456 0.75 100.808 0.75H170.808C187.377 0.75 200.808 14.1812 200.808 30.75Z" fill="#5495FF" stroke="#002D76" stroke-width="1.5" stroke-miterlimit="10"/>
<path d="M100.808 20.75H150.808" stroke="#002D76" stroke-width="1.5" stroke-miterlimit="10"/>
<path d="M90.8081 40.75H150.808" stroke="#002D76" stroke-width="1.5" stroke-miterlimit="10"/>
<path d="M90.8081 60.75H150.808" stroke="#002D76" stroke-width="1.5" stroke-miterlimit="10"/>
<path d="M140.808 80.75H175.808" stroke="#002D76" stroke-width="1.5" stroke-miterlimit="10"/>
<path d="M0.808105 170.432V100.432H60.8081C66.3331 100.432 70.8081 104.907 70.8081 110.432C70.8081 113.194 69.6894 115.694 67.8831 117.507C66.0706 119.313 63.5706 120.432 60.8081 120.432H110.808C116.333 120.432 120.808 124.907 120.808 130.432C120.808 133.194 119.689 135.694 117.883 137.507C116.071 139.313 113.571 140.432 110.808 140.432H120.808C126.333 140.432 130.808 144.907 130.808 150.432C130.808 153.194 129.689 155.694 127.883 157.507C126.071 159.313 123.571 160.432 120.808 160.432H110.808C116.333 160.432 120.808 164.907 120.808 170.432C120.808 173.194 119.689 175.694 117.883 177.507C116.071 179.313 113.571 180.432 110.808 180.432H100.808C106.333 180.432 110.808 184.907 110.808 190.432C110.808 193.194 109.689 195.694 107.883 197.507C106.071 199.313 103.571 200.432 100.808 200.432H30.8081C14.2394 200.432 0.808105 187 0.808105 170.432Z" fill="#7EB0FF" stroke="#002D76" stroke-width="1.5" stroke-miterlimit="10"/>
<path d="M100.808 180.432H50.8081" stroke="#002D76" stroke-width="1.5" stroke-miterlimit="10"/>
<path d="M110.808 160.432H50.8081" stroke="#002D76" stroke-width="1.5" stroke-miterlimit="10"/>
<path d="M110.808 140.432H50.8081" stroke="#002D76" stroke-width="1.5" stroke-miterlimit="10"/>
<path d="M60.8081 120.432H25.8081" stroke="#002D76" stroke-width="1.5" stroke-miterlimit="10"/>
</g>
<defs>
<clipPath id="clip0_543_3449">
<rect width="201.5" height="201.5" fill="white" transform="translate(0.0581055)"/>
</clipPath>
</defs>
</svg>
