<svg width="202" height="203" viewBox="0 0 202 203" fill="none" xmlns="http://www.w3.org/2000/svg">
<path d="M140.045 165.623C126.873 187.258 103.118 201.7 76.0002 201.7C34.5781 201.7 1 168.002 1 126.439C1 99.2272 15.3925 75.3858 36.956 62.1651C30.005 73.58 26.0001 86.9976 26.0001 101.352C26.0001 142.915 59.5782 176.613 101 176.613C115.305 176.613 128.669 172.594 140.045 165.623Z" fill="#BFD7FF" stroke="#002D76" stroke-width="1.5" stroke-miterlimit="10"/>
<path d="M165.045 140.535C158.822 150.759 150.234 159.377 140.045 165.622C128.67 172.594 115.306 176.613 101.001 176.613C59.5791 176.613 26.001 142.915 26.001 101.352C26.001 86.9974 30.0059 73.5798 36.9569 62.1649C43.1807 51.9413 51.7689 43.3233 61.957 37.0778C58.6861 42.4476 56.0714 48.2586 54.2144 54.4022C52.124 61.3197 51.0011 68.6581 51.0011 76.2613C51.0011 117.828 84.5791 151.526 126.001 151.526C133.578 151.526 140.891 150.399 147.788 148.298C153.907 146.441 159.698 143.814 165.045 140.535Z" fill="#277AFF" stroke="#002D76" stroke-width="1.5" stroke-miterlimit="10"/>
<path d="M126 1C98.8827 1 75.1274 15.4426 61.9559 37.0777C58.685 42.4475 56.0704 48.2585 54.2134 54.4021C52.123 61.3196 51 68.6581 51 76.2612C51 117.827 84.5781 151.526 126 151.526C133.577 151.526 140.89 150.399 147.787 148.298C153.906 146.441 159.697 143.814 165.044 140.535C186.608 127.314 201 103.473 201 76.2612C201 34.6983 167.422 1 126 1ZM146.417 100.473C140.91 105.153 133.783 107.977 126 107.977C108.546 107.977 94.4009 93.7791 94.4009 76.2646C94.4009 68.4544 97.2151 61.3027 101.883 55.7768C107.677 48.9136 116.333 44.5553 126 44.5553C143.454 44.5553 157.603 58.7536 157.603 76.2646C157.603 85.9688 153.26 94.6548 146.417 100.473Z" fill="#5495FF" stroke="#002D76" stroke-width="1.5" stroke-miterlimit="10"/>
<path d="M126.001 44.5552C116.334 44.5552 107.678 48.9135 101.883 55.7767C97.2156 61.3026 94.4014 68.4543 94.4014 76.2645C94.4014 93.779 108.547 107.977 126.001 107.977C133.784 107.977 140.911 105.153 146.417 100.473C153.26 94.6547 157.603 85.9688 157.603 76.2645C157.603 58.7535 143.454 44.5552 126.001 44.5552Z" fill="#A9CAFF" stroke="#002D76" stroke-width="1.5" stroke-miterlimit="10"/>
<path d="M135.723 66.9937H120.965C118.297 66.9937 116.132 69.166 116.132 71.8441C116.132 74.5222 118.297 76.6945 120.965 76.6945H130.781C133.528 76.6945 135.754 78.928 135.754 81.6841C135.754 84.4403 133.528 86.6737 130.781 86.6737H116.277" stroke="#002D76" stroke-width="1.5" stroke-miterlimit="10"/>
<path d="M125.941 66.994V59.6183" stroke="#002D76" stroke-width="1.5" stroke-miterlimit="10"/>
<path d="M125.941 94.0469V86.6745" stroke="#002D76" stroke-width="1.5" stroke-miterlimit="10"/>
</svg>
