<?xml version="1.0" encoding="UTF-8"?>
<svg id="Layer_1" xmlns="http://www.w3.org/2000/svg" width="202" height="203" viewBox="0 0 202 203">
  <!-- Generator: Adobe Illustrator 29.5.1, SVG Export Plug-In . SVG Version: 2.1.0 Build 141)  -->
  <defs>
    <style>
      .st0 {
        fill: #5495ff;
      }

      .st0, .st1, .st2, .st3, .st4, .st5 {
        stroke: #002d76;
        stroke-miterlimit: 10;
        stroke-width: 1.5px;
      }

      .st1 {
        fill: #d4e5ff;
      }

      .st2 {
        fill: #bfd7ff;
      }

      .st3 {
        fill: #277aff;
      }

      .st4 {
        fill: none;
      }

      .st5 {
        fill: #a9caff;
      }
    </style>
  </defs>
  <path class="st0" d="M151,88.5v112.5l-85.8-35.5,25.8-64.5,8.8-25.3,51.2,12.8Z"/>
  <path class="st2" d="M126,1l-26.2,74.7-8.8,25.3H1v-62.5L76,1h50Z"/>
  <path class="st5" d="M76,1L1,38.5v-9.5C1,13.5,13.5,1,29,1h47Z"/>
  <path class="st3" d="M91,101l-25.8,64.5-14.2,35.5h-22c-15.5,0-28-12.5-28-28v-72h90Z"/>
  <path class="st5" d="M151,201H51l14.2-35.5,85.8,35.5Z"/>
  <path class="st5" d="M192.6,9l-41.6,79.5-51.2-12.8L126,1h47c7.6,0,14.6,3.1,19.6,8Z"/>
  <path class="st3" d="M201,29v109.5h-50v-50L192.6,9c5.2,5.1,8.4,12.2,8.4,20Z"/>
  <path class="st2" d="M201,138.5v34.5c0,15.5-12.5,28-28,28h-22v-62.5h50Z"/>
  <path class="st1" d="M51,63.5c6.9,0,12.5-5.6,12.5-12.5s-5.6-12.5-12.5-12.5-12.5,5.6-12.5,12.5,5.6,12.5,12.5,12.5Z"/>
  <path class="st1" d="M176,176c6.9,0,12.5-5.6,12.5-12.5s-5.6-12.5-12.5-12.5-12.5,5.6-12.5,12.5,5.6,12.5,12.5,12.5Z"/>
  <path class="st1" d="M26,165.5c6.9,0,12.5-5.6,12.5-12.5s-5.6-12.5-12.5-12.5-12.5,5.6-12.5,12.5,5.6,12.5,12.5,12.5Z"/>
  <path class="st1" d="M151,38.5c6.9,0,12.5-5.6,12.5-12.5s-5.6-12.5-12.5-12.5-12.5,5.6-12.5,12.5,5.6,12.5,12.5,12.5Z"/>
  <path class="st1" d="M113.5,126c6.9,0,12.5-5.6,12.5-12.5s-5.6-12.5-12.5-12.5-12.5,5.6-12.5,12.5,5.6,12.5,12.5,12.5Z"/>
  <path class="st4" d="M51,63.5v12.5"/>
  <path class="st4" d="M176,176v12.5"/>
  <path class="st4" d="M26,165.5v12.5"/>
  <path class="st4" d="M113.5,126v12.5"/>
  <path class="st4" d="M151,38.5v12.5"/>
</svg>