<svg width="160" height="161" viewBox="0 0 160 161" fill="none" xmlns="http://www.w3.org/2000/svg">
<path d="M134.873 92.926C133.444 99.2771 130.941 105.216 127.566 110.555C126.596 112.092 126.816 114.093 128.1 115.378L136.757 124.035C138.196 125.474 138.276 127.78 136.954 129.322C134.447 132.247 131.719 134.98 128.794 137.483C127.247 138.809 124.946 138.725 123.507 137.286L114.849 128.628C113.565 127.344 111.564 127.124 110.026 128.094C104.692 131.469 98.7488 133.972 92.3977 135.401C90.6306 135.8 89.3744 137.375 89.3744 139.189V151.427C89.3744 153.466 87.8042 155.153 85.77 155.308C83.8669 155.453 81.9405 155.528 80 155.528C78.0595 155.528 76.1331 155.453 74.23 155.308C72.2005 155.153 70.6256 153.466 70.6256 151.427V139.189C70.6256 137.375 69.3694 135.8 67.6023 135.401C61.2512 133.972 55.3125 131.469 49.9738 128.094C48.4364 127.124 46.4349 127.344 45.1506 128.628L36.4933 137.286C35.0544 138.725 32.7483 138.804 31.2062 137.483C28.2814 134.975 25.5487 132.247 23.0457 129.322C21.7193 127.775 21.8036 125.474 23.2426 124.035L31.8999 115.378C33.1842 114.093 33.4045 112.092 32.4342 110.555C29.0594 105.221 26.5565 99.2771 25.1269 92.926C24.7285 91.1589 23.1535 89.9027 21.3396 89.9027H9.10131C7.06237 89.9027 5.37499 88.3325 5.22031 86.2983C5.07501 84.3953 5 82.4688 5 80.5283C5 78.5878 5.07501 76.6614 5.22031 74.7584C5.37499 72.7288 7.06237 71.1539 9.10131 71.1539H21.3396C23.1535 71.1539 24.7285 69.8977 25.1269 68.1307C26.5565 61.7795 29.0594 55.8408 32.4342 50.5021C33.4045 48.9647 33.1842 46.9632 31.8999 45.6789L23.2426 37.0217C21.8036 35.5827 21.724 33.2766 23.0457 31.7345C25.5534 28.8097 28.2814 26.077 31.2062 23.5741C32.753 22.2476 35.0544 22.332 36.4933 23.7709L45.1506 32.4282C46.4349 33.7125 48.4364 33.9328 49.9738 32.9625C55.3078 29.5878 61.2512 27.0848 67.6023 25.6552C69.3694 25.2568 70.6256 23.6819 70.6256 21.8679V9.62963C70.6256 7.59069 72.1958 5.9033 74.23 5.74862C76.1331 5.60332 78.0595 5.52832 80 5.52832C81.9405 5.52832 83.8669 5.60332 85.77 5.74862C87.7995 5.9033 89.3744 7.59069 89.3744 9.62963V21.8679C89.3744 23.6819 90.6306 25.2568 92.3977 25.6552C98.7488 27.0848 104.688 29.5878 110.026 32.9625C111.564 33.9328 113.565 33.7125 114.849 32.4282L123.507 23.7709C124.946 22.332 127.252 22.2523 128.794 23.5741C131.719 26.0817 134.451 28.8097 136.954 31.7345C138.281 33.2813 138.196 35.5827 136.757 37.0217L128.1 45.6789C126.816 46.9632 126.596 48.9647 127.566 50.5021C130.941 55.8361 133.444 61.7795 134.873 68.1307C135.272 69.8977 136.846 71.1539 138.66 71.1539H150.899C152.938 71.1539 154.625 72.7241 154.78 74.7584C154.925 76.6614 155 78.5878 155 80.5283C155 82.4688 154.925 84.3953 154.78 86.2983C154.625 88.3278 152.938 89.9027 150.899 89.9027H138.66C136.846 89.9027 135.272 91.1589 134.873 92.926Z" stroke="white" stroke-width="1.5" stroke-miterlimit="10"/>
<path d="M79.9994 108.412C95.3994 108.412 107.884 95.9282 107.884 80.5282C107.884 65.1282 95.3994 52.644 79.9994 52.644C64.5994 52.644 52.1152 65.1282 52.1152 80.5282C52.1152 95.9282 64.5994 108.412 79.9994 108.412Z" stroke="white" stroke-width="1.5" stroke-miterlimit="10"/>
<path d="M96.3718 80.5282C96.3718 80.5282 89.041 89.9026 79.9994 89.9026C70.9577 89.9026 63.627 80.5282 63.627 80.5282C63.627 80.5282 70.9577 71.1538 79.9994 71.1538C89.041 71.1538 96.3718 80.5282 96.3718 80.5282Z" stroke="white" stroke-width="1.5" stroke-miterlimit="10"/>
<path d="M79.999 83.7578C81.7826 83.7578 83.2285 82.3119 83.2285 80.5283C83.2285 78.7447 81.7826 77.2988 79.999 77.2988C78.2154 77.2988 76.7695 78.7447 76.7695 80.5283C76.7695 82.3119 78.2154 83.7578 79.999 83.7578Z" stroke="white" stroke-width="1.5" stroke-miterlimit="10"/>
</svg>
