<svg width="160" height="160" viewBox="0 0 160 160" fill="none" xmlns="http://www.w3.org/2000/svg">
<path d="M84.6821 42.4661H75.3203V79.9134H84.6821V42.4661Z" stroke="white" stroke-width="1.5" stroke-miterlimit="10"/>
<path d="M89.3621 79.9133H70.6525L56.5957 154.808H103.405L89.3621 79.9133Z" stroke="white" stroke-width="1.5" stroke-miterlimit="10"/>
<path d="M81.1885 23.7424H78.8105V155H81.1885V23.7424Z" stroke="white" stroke-width="1.5" stroke-miterlimit="10"/>
<path d="M75.3203 79.9134L84.6821 61.4004" stroke="white" stroke-width="1.5" stroke-miterlimit="10"/>
<path d="M84.6821 60.9793L75.3203 42.4663" stroke="white" stroke-width="1.5" stroke-miterlimit="10"/>
<line x1="70.7598" y1="79.9409" x2="89.2412" y2="79.9409" stroke="white" stroke-width="1.5"/>
<line x1="74.9512" y1="42.5132" x2="85.3037" y2="42.5132" stroke="white" stroke-width="1.5"/>
<path d="M60.1113 136.084H99.8898" stroke="white" stroke-width="1.5" stroke-miterlimit="10"/>
<path d="M63.6309 117.398L96.3692 117.36" stroke="white" stroke-width="1.5" stroke-miterlimit="10"/>
<path d="M67.1328 98.6367H92.8544" stroke="white" stroke-width="1.5" stroke-miterlimit="10"/>
<path d="M56.5957 154.808L99.8895 136.084" stroke="white" stroke-width="1.5" stroke-miterlimit="10"/>
<path d="M63.6309 117.398L99.8893 136.084" stroke="white" stroke-width="1.5" stroke-miterlimit="10"/>
<path d="M92.8538 98.6367L63.6309 117.398" stroke="white" stroke-width="1.5" stroke-miterlimit="10"/>
<path d="M70.6523 79.9131L92.8539 98.6368" stroke="white" stroke-width="1.5" stroke-miterlimit="10"/>
<path d="M89.3344 79.9131L67.1328 98.6368" stroke="white" stroke-width="1.5" stroke-miterlimit="10"/>
<path d="M96.3698 117.36L67.1328 98.6367" stroke="white" stroke-width="1.5" stroke-miterlimit="10"/>
<path d="M60.1113 136.084L96.3697 117.36" stroke="white" stroke-width="1.5" stroke-miterlimit="10"/>
<path d="M103.405 154.808L60.1113 136.084" stroke="white" stroke-width="1.5" stroke-miterlimit="10"/>
<path d="M84.6821 79.9132L75.3203 61.4001" stroke="white" stroke-width="1.5" stroke-miterlimit="10"/>
<path d="M75.3203 60.9791L84.6821 42.4661" stroke="white" stroke-width="1.5" stroke-miterlimit="10"/>
<path d="M79.9993 8.74473C81.0334 8.74473 81.8717 7.90645 81.8717 6.87237C81.8717 5.83829 81.0334 5 79.9993 5C78.9652 5 78.127 5.83829 78.127 6.87237C78.127 7.90645 78.9652 8.74473 79.9993 8.74473Z" stroke="white" stroke-width="1.5" stroke-miterlimit="10"/>
<path d="M80 23.7423V8.74463" stroke="white" stroke-width="1.5" stroke-miterlimit="10"/>
</svg>
