<svg width="160" height="161" viewBox="0 0 160 161" fill="none" xmlns="http://www.w3.org/2000/svg">
<path d="M66.721 5.52832H93.2749C94.4842 5.52832 95.4639 6.50798 95.4639 7.71731V10.0985H64.5273V7.71731C64.5273 6.50798 65.507 5.52832 66.7163 5.52832H66.721Z" stroke="white" stroke-width="1.5" stroke-miterlimit="10"/>
<path d="M108.655 10.2205H51.3472C50.0865 10.2205 49.0645 11.2425 49.0645 12.5032V17.3124C49.0645 18.5731 50.0865 19.5952 51.3472 19.5952H108.655C109.915 19.5952 110.938 18.5731 110.938 17.3124V12.5032C110.938 11.2425 109.915 10.2205 108.655 10.2205Z" stroke="white" stroke-width="1.5" stroke-miterlimit="10"/>
<path d="M131.561 19.0045V151.432C131.561 153.696 129.728 155.528 127.464 155.528H32.5362C30.2722 155.528 28.4395 153.696 28.4395 151.432V19.0045C28.4395 16.7405 30.2722 14.9077 32.5362 14.9077H49.0638V17.3123C49.0638 18.5732 50.0857 19.5951 51.3466 19.5951H108.654C109.915 19.5951 110.937 18.5732 110.937 17.3123V14.9077H127.464C129.728 14.9077 131.561 16.7405 131.561 19.0045Z" stroke="white" stroke-width="1.5" stroke-miterlimit="10"/>
<path d="M59.377 38.3445H121.25" stroke="white" stroke-width="1.5" stroke-miterlimit="10"/>
<path d="M38.7988 38.3446C40.5191 39.9055 42.2347 41.471 43.9549 43.0319C47.3907 39.9055 50.8313 36.7837 54.2671 33.6572" stroke="white" stroke-width="1.5" stroke-miterlimit="10"/>
<path d="M59.377 57.0986H121.25" stroke="white" stroke-width="1.5" stroke-miterlimit="10"/>
<path d="M38.7988 57.0985C40.5191 58.6594 42.2347 60.225 43.9549 61.7858C47.3907 58.6594 50.8313 55.5376 54.2671 52.4111" stroke="white" stroke-width="1.5" stroke-miterlimit="10"/>
<path d="M59.377 75.8386H121.25" stroke="white" stroke-width="1.5" stroke-miterlimit="10"/>
<path d="M38.7988 75.8387C40.5191 77.3996 42.2347 78.9652 43.9549 80.5261C47.3907 77.3996 50.8313 74.2778 54.2671 71.1514" stroke="white" stroke-width="1.5" stroke-miterlimit="10"/>
<path d="M59.377 94.5928H121.25" stroke="white" stroke-width="1.5" stroke-miterlimit="10"/>
<path d="M38.7988 94.5926C40.5191 96.1535 42.2347 97.7191 43.9549 99.28C47.3907 96.1535 50.8313 93.0317 54.2671 89.9053" stroke="white" stroke-width="1.5" stroke-miterlimit="10"/>
<path d="M59.377 113.352H121.25" stroke="white" stroke-width="1.5" stroke-miterlimit="10"/>
<path d="M38.7988 113.351C40.5191 114.912 42.2347 116.478 43.9549 118.039C47.3907 114.912 50.8313 111.791 54.2671 108.664" stroke="white" stroke-width="1.5" stroke-miterlimit="10"/>
<path d="M59.377 132.106H121.25" stroke="white" stroke-width="1.5" stroke-miterlimit="10"/>
<path d="M38.7988 132.106C40.5191 133.666 42.2347 135.232 43.9549 136.793C47.3907 133.666 50.8313 130.545 54.2671 127.418" stroke="white" stroke-width="1.5" stroke-miterlimit="10"/>
</svg>
