<svg width="160" height="161" viewBox="0 0 160 161" fill="none" xmlns="http://www.w3.org/2000/svg">
<path d="M66.72 5.52832H93.2739C94.4832 5.52832 95.4629 6.50798 95.4629 7.71731V10.0985H64.5264V7.71731C64.5264 6.50798 65.506 5.52832 66.7154 5.52832H66.72Z" stroke="#277AFF" stroke-width="1.5" stroke-miterlimit="10"/>
<path d="M108.653 10.2205H51.3452C50.0845 10.2205 49.0625 11.2425 49.0625 12.5032V17.3124C49.0625 18.5731 50.0845 19.5952 51.3452 19.5952H108.653C109.914 19.5952 110.936 18.5731 110.936 17.3124V12.5032C110.936 11.2425 109.914 10.2205 108.653 10.2205Z" stroke="#277AFF" stroke-width="1.5" stroke-miterlimit="10"/>
<path d="M131.56 19.0045V151.432C131.56 153.696 129.727 155.528 127.464 155.528H32.5352C30.2712 155.528 28.4385 153.696 28.4385 151.432V19.0045C28.4385 16.7405 30.2712 14.9077 32.5352 14.9077H49.0628V17.3123C49.0628 18.5732 50.0847 19.5951 51.3456 19.5951H108.653C109.914 19.5951 110.936 18.5732 110.936 17.3123V14.9077H127.464C129.727 14.9077 131.56 16.7405 131.56 19.0045Z" stroke="#277AFF" stroke-width="1.5" stroke-miterlimit="10"/>
<path d="M59.375 38.3445H121.248" stroke="#277AFF" stroke-width="1.5" stroke-miterlimit="10"/>
<path d="M38.7969 38.3446C40.5171 39.9055 42.2327 41.471 43.953 43.0319C47.3888 39.9055 50.8293 36.7837 54.2651 33.6572" stroke="#277AFF" stroke-width="1.5" stroke-miterlimit="10"/>
<path d="M59.375 57.0986H121.248" stroke="#277AFF" stroke-width="1.5" stroke-miterlimit="10"/>
<path d="M38.7969 57.0985C40.5171 58.6594 42.2327 60.225 43.953 61.7858C47.3888 58.6594 50.8293 55.5376 54.2651 52.4111" stroke="#277AFF" stroke-width="1.5" stroke-miterlimit="10"/>
<path d="M59.375 75.8386H121.248" stroke="#277AFF" stroke-width="1.5" stroke-miterlimit="10"/>
<path d="M38.7969 75.8387C40.5171 77.3996 42.2327 78.9652 43.953 80.5261C47.3888 77.3996 50.8293 74.2778 54.2651 71.1514" stroke="#277AFF" stroke-width="1.5" stroke-miterlimit="10"/>
<path d="M59.375 94.5928H121.248" stroke="#277AFF" stroke-width="1.5" stroke-miterlimit="10"/>
<path d="M38.7969 94.5926C40.5171 96.1535 42.2327 97.7191 43.953 99.28C47.3888 96.1535 50.8293 93.0317 54.2651 89.9053" stroke="#277AFF" stroke-width="1.5" stroke-miterlimit="10"/>
<path d="M59.375 113.352H121.248" stroke="#277AFF" stroke-width="1.5" stroke-miterlimit="10"/>
<path d="M38.7969 113.351C40.5171 114.912 42.2327 116.478 43.953 118.039C47.3888 114.912 50.8293 111.791 54.2651 108.664" stroke="#277AFF" stroke-width="1.5" stroke-miterlimit="10"/>
<path d="M59.375 132.106H121.248" stroke="#277AFF" stroke-width="1.5" stroke-miterlimit="10"/>
<path d="M38.7969 132.106C40.5171 133.666 42.2327 135.232 43.953 136.793C47.3888 133.666 50.8293 130.545 54.2651 127.418" stroke="#277AFF" stroke-width="1.5" stroke-miterlimit="10"/>
</svg>
