<svg width="160" height="161" viewBox="0 0 160 161" fill="none" xmlns="http://www.w3.org/2000/svg">
<path d="M80 5.31006C38.5786 5.31006 5 38.8886 5 80.3101C5 121.731 38.5786 155.31 80 155.31C121.421 155.31 155 121.731 155 80.3101C155 38.8886 121.421 5.31006 80 5.31006ZM87.575 87.8851C86.2839 89.1708 84.7518 90.0654 83.1232 90.5583C79.4643 91.6726 75.3232 90.7833 72.425 87.8851C69.5375 84.9976 68.6429 80.8672 69.7411 77.2083C70.2339 75.569 71.1286 74.0261 72.425 72.7351C73.7161 71.4493 75.2482 70.5547 76.8768 70.0618C80.5357 68.9476 84.6768 69.8368 87.575 72.7351C90.4625 75.6226 91.3572 79.7529 90.2589 83.4118C89.7661 85.0511 88.8714 86.594 87.575 87.8851Z" stroke="white" stroke-width="1.5" stroke-miterlimit="10"/>
<path d="M80 16.0244V37.453" stroke="white" stroke-width="1.5" stroke-miterlimit="10"/>
<path d="M15.7148 80.3101H37.1434" stroke="white" stroke-width="1.5" stroke-miterlimit="10"/>
<path d="M80 144.596V123.167" stroke="white" stroke-width="1.5" stroke-miterlimit="10"/>
<path d="M144.286 80.3101H122.857" stroke="white" stroke-width="1.5" stroke-miterlimit="10"/>
<path d="M90.2591 83.412C91.3573 79.7531 90.4627 75.6227 87.5752 72.7352C84.6769 69.837 80.5359 68.9477 76.877 70.062L110.306 50.0049L90.2591 83.412Z" stroke="white" stroke-width="1.5" stroke-miterlimit="10"/>
<path d="M83.1239 90.558L49.6953 110.615L69.7418 77.208C68.6435 80.8669 69.5382 84.9973 72.4257 87.8848C75.3239 90.783 79.465 91.6723 83.1239 90.558Z" stroke="white" stroke-width="1.5" stroke-miterlimit="10"/>
<path d="M87.5749 72.7351C84.6767 69.8368 80.5357 68.9475 76.8767 70.0618C75.2482 70.5547 73.716 71.4493 72.4249 72.7351C71.1285 74.0261 70.2339 75.569 69.741 77.2083C68.6428 80.8672 69.5374 84.9976 72.4249 87.8851C75.3232 90.7833 79.4642 91.6726 83.1231 90.5583C84.7517 90.0654 86.2839 89.1708 87.5749 87.8851C88.8714 86.594 89.766 85.0511 90.2589 83.4118C91.3571 79.7529 90.4624 75.6226 87.5749 72.7351ZM76.2124 84.0976C74.1231 82.0083 74.1231 78.6118 76.2124 76.5226C78.3071 74.4279 81.6981 74.4279 83.7874 76.5226C85.8821 78.6118 85.8821 82.0083 83.7874 84.0976C81.6981 86.1922 78.3071 86.1922 76.2124 84.0976Z" stroke="white" stroke-width="1.5" stroke-miterlimit="10"/>
<path d="M83.7885 84.0976C81.6992 86.1923 78.3081 86.1923 76.2134 84.0976C74.1242 82.0084 74.1242 78.6119 76.2134 76.5226C78.3081 74.428 81.6992 74.428 83.7885 76.5226C85.8831 78.6119 85.8831 82.0084 83.7885 84.0976Z" stroke="white" stroke-width="1.5" stroke-miterlimit="10"/>
</svg>
