<svg width="160" height="161" viewBox="0 0 160 161" fill="none" xmlns="http://www.w3.org/2000/svg">
<path d="M47.2187 5.47217V24.2222H33.1562C33.1562 21.5925 31.0281 19.4644 28.4031 19.4644C25.7781 19.4644 23.65 21.5925 23.65 24.2175L9.71875 24.2222V5.47217H47.2187Z" stroke="white" stroke-width="1.5" stroke-miterlimit="10"/>
<path d="M49.4835 26.4347V40.755C49.4835 41.9784 48.4898 42.9722 47.2663 42.9722H9.53672C8.31328 42.9722 7.32422 41.9784 7.32422 40.755V26.4347C7.32422 25.2112 8.31328 24.2222 9.53672 24.2222H23.6508C23.6554 26.8472 25.7789 28.9706 28.4039 28.9706C31.0289 28.9706 33.1523 26.8472 33.157 24.2222H47.2663C48.4898 24.2222 49.4835 25.2112 49.4835 26.4347Z" stroke="white" stroke-width="1.5" stroke-miterlimit="10"/>
<path d="M19.0937 61.7222H37.8437L47.2187 42.9722H9.71875L19.0937 61.7222Z" stroke="white" stroke-width="1.5" stroke-miterlimit="10"/>
<path d="M19.0938 5.47217V10.4737" stroke="white" stroke-width="1.5" stroke-miterlimit="10"/>
<path d="M28.4688 5.47217V10.4737" stroke="white" stroke-width="1.5" stroke-miterlimit="10"/>
<path d="M37.8438 5.47217V10.4737" stroke="white" stroke-width="1.5" stroke-miterlimit="10"/>
<path d="M42.5742 5.47217V10.4737" stroke="white" stroke-width="1.5" stroke-miterlimit="10"/>
<path d="M14.4219 5.47217V10.4737" stroke="white" stroke-width="1.5" stroke-miterlimit="10"/>
<path d="M23.7969 5.47217V10.4737" stroke="white" stroke-width="1.5" stroke-miterlimit="10"/>
<path d="M33.1719 5.47217V10.4737" stroke="white" stroke-width="1.5" stroke-miterlimit="10"/>
<path d="M33.1566 24.2175C33.1519 26.8472 31.0285 28.9706 28.4035 28.9706C25.7785 28.9706 23.6551 26.8472 23.6504 24.2222C23.6504 21.5925 25.7785 19.4644 28.4035 19.4644C31.0285 19.4644 33.1566 21.5925 33.1566 24.2175Z" stroke="white" stroke-width="1.5" stroke-miterlimit="10"/>
<path d="M150.279 136.722V155.472H112.779V136.722H126.842C126.842 139.352 128.97 141.48 131.595 141.48C134.22 141.48 136.348 139.352 136.348 136.722H150.279Z" stroke="white" stroke-width="1.5" stroke-miterlimit="10"/>
<path d="M152.675 120.185V134.505C152.675 135.728 151.681 136.722 150.462 136.722H136.348C136.348 134.097 134.22 131.969 131.595 131.969C128.97 131.969 126.842 134.097 126.842 136.722H112.733C111.509 136.722 110.516 135.728 110.516 134.505V120.185C110.516 118.961 111.509 117.972 112.733 117.972H150.462C151.681 117.972 152.675 118.961 152.675 120.185Z" stroke="white" stroke-width="1.5" stroke-miterlimit="10"/>
<path d="M140.904 99.2222H122.154L112.779 117.972H150.279L140.904 99.2222Z" stroke="white" stroke-width="1.5" stroke-miterlimit="10"/>
<path d="M140.904 155.472V150.466" stroke="white" stroke-width="1.5" stroke-miterlimit="10"/>
<path d="M131.529 155.472V150.466" stroke="white" stroke-width="1.5" stroke-miterlimit="10"/>
<path d="M122.154 155.472V150.466" stroke="white" stroke-width="1.5" stroke-miterlimit="10"/>
<path d="M117.424 155.472V150.466" stroke="white" stroke-width="1.5" stroke-miterlimit="10"/>
<path d="M145.578 155.472V150.466" stroke="white" stroke-width="1.5" stroke-miterlimit="10"/>
<path d="M136.203 155.472V150.466" stroke="white" stroke-width="1.5" stroke-miterlimit="10"/>
<path d="M126.828 155.472V150.466" stroke="white" stroke-width="1.5" stroke-miterlimit="10"/>
<path d="M136.348 136.722C136.348 139.352 134.22 141.48 131.595 141.48C128.97 141.48 126.842 139.352 126.842 136.722C126.842 134.093 128.97 131.969 131.595 131.969C134.22 131.969 136.348 134.097 136.348 136.722Z" stroke="white" stroke-width="1.5" stroke-miterlimit="10"/>
<path d="M28.4688 61.7222V129.691C28.4688 143.932 40.0094 155.472 54.25 155.472C68.4906 155.472 80.0312 143.932 80.0312 129.691V31.2534C80.0312 17.0128 91.5718 5.47217 105.812 5.47217C120.053 5.47217 131.594 17.0128 131.594 31.2534V99.2222" stroke="white" stroke-width="1.5" stroke-miterlimit="10"/>
</svg>
