<svg width="160" height="161" viewBox="0 0 160 161" fill="none" xmlns="http://www.w3.org/2000/svg">
<path d="M117.5 14.3784V66.4425H93.2328C91.1 66.4425 89.375 68.1675 89.375 70.3003V75.7847H5V14.3784C5 12.0487 6.88906 10.1597 9.21875 10.1597H113.281C115.611 10.1597 117.5 12.0487 117.5 14.3784Z" stroke="#277AFF" stroke-width="1.5" stroke-miterlimit="10"/>
<path d="M89.375 75.7847V85.1597H9.21875C6.88906 85.1597 5 83.2706 5 80.9409V75.7847H89.375Z" stroke="#277AFF" stroke-width="1.5" stroke-miterlimit="10"/>
<path d="M42.5 103.91H80" stroke="#277AFF" stroke-width="1.5" stroke-miterlimit="10"/>
<path d="M61.25 85.1597V103.91" stroke="#277AFF" stroke-width="1.5" stroke-miterlimit="10"/>
<path d="M117.575 75.7847H117.5" stroke="#277AFF" stroke-width="1.5" stroke-miterlimit="10"/>
<path d="M151.142 66.4424H93.2328C91.1 66.4424 89.375 68.1674 89.375 70.3002V146.927C89.375 149.055 91.1 150.785 93.2328 150.785H151.142C153.27 150.785 155 149.055 155 146.927V70.3002C155 68.1674 153.27 66.4424 151.142 66.4424ZM122.919 70.5439C123.439 70.5439 123.856 70.9658 123.856 71.4814C123.856 71.9971 123.439 72.4189 122.919 72.4189C122.398 72.4189 121.981 72.0018 121.981 71.4814C121.981 70.9611 122.403 70.5439 122.919 70.5439ZM122.919 143.753C121.625 143.753 120.575 142.703 120.575 141.41C120.575 140.116 121.625 139.066 122.919 139.066C124.212 139.066 125.262 140.116 125.262 141.41C125.262 142.703 124.212 143.753 122.919 143.753Z" stroke="#277AFF" stroke-width="1.5" stroke-miterlimit="10"/>
<path d="M122.919 72.4189C123.437 72.4189 123.856 71.9992 123.856 71.4814C123.856 70.9637 123.437 70.5439 122.919 70.5439C122.401 70.5439 121.981 70.9637 121.981 71.4814C121.981 71.9992 122.401 72.4189 122.919 72.4189Z" stroke="#277AFF" stroke-width="1.5" stroke-miterlimit="10"/>
<path d="M122.919 143.753C124.213 143.753 125.263 142.704 125.263 141.41C125.263 140.115 124.213 139.066 122.919 139.066C121.625 139.066 120.575 140.115 120.575 141.41C120.575 142.704 121.625 143.753 122.919 143.753Z" stroke="#277AFF" stroke-width="1.5" stroke-miterlimit="10"/>
<path d="M122.919 72.4189C123.437 72.4189 123.856 71.9992 123.856 71.4814C123.856 70.9637 123.437 70.5439 122.919 70.5439C122.401 70.5439 121.981 70.9637 121.981 71.4814C121.981 71.9992 122.401 72.4189 122.919 72.4189Z" stroke="#277AFF" stroke-width="1.5" stroke-miterlimit="10"/>
<path d="M122.919 143.753C124.213 143.753 125.263 142.704 125.263 141.41C125.263 140.115 124.213 139.066 122.919 139.066C121.625 139.066 120.575 140.115 120.575 141.41C120.575 142.704 121.625 143.753 122.919 143.753Z" stroke="#277AFF" stroke-width="1.5" stroke-miterlimit="10"/>
</svg>
