<svg width="160" height="161" viewBox="0 0 160 161" fill="none" xmlns="http://www.w3.org/2000/svg">
<path d="M69.3056 112.285C98.8458 112.285 122.793 88.3377 122.793 58.7974C122.793 29.2572 98.8458 5.31006 69.3056 5.31006C39.7654 5.31006 15.8184 29.2572 15.8184 58.7974C15.8184 88.3377 39.7654 112.285 69.3056 112.285Z" stroke="white" stroke-width="1.5" stroke-miterlimit="10"/>
<path d="M122.253 5.85059C151.494 35.0921 151.494 82.5087 122.253 111.75C93.0115 140.992 45.595 140.992 16.3535 111.75" stroke="white" stroke-width="1.5" stroke-miterlimit="10"/>
<path d="M16.3535 111.75L31.8167 96.2871" stroke="white" stroke-width="1.5" stroke-miterlimit="10"/>
<path d="M69.3066 155.31V133.444" stroke="white" stroke-width="1.5" stroke-miterlimit="10"/>
<path d="M107.127 20.9767L122.168 5.93066" stroke="white" stroke-width="1.5" stroke-miterlimit="10"/>
<path d="M31.4795 20.9764C14.1924 38.2635 11.2131 64.4403 22.5417 84.7922C33.6136 78.8765 46.8571 64.1086 52.2753 57.7383C53.6981 56.0641 54.3346 53.8605 54.0297 51.6835C53.3772 47.0462 52.7246 42.4035 52.0721 37.7661C51.4677 33.4657 54.5378 29.5184 58.8542 29.0423C63.6146 28.5181 68.3804 27.9886 73.1407 27.4644C77.0453 27.0312 79.9978 23.7364 79.9978 19.8104V6.39041C63.0049 2.94047 44.6587 7.79713 31.4795 20.9764Z" stroke="white" stroke-width="1.5" stroke-miterlimit="10"/>
<path d="M101.788 101.293C99.3114 96.0996 96.8349 90.906 94.3531 85.707C92.0264 80.8343 88.2877 76.7692 83.6022 74.0788C73.5947 68.3343 65.8017 69.0938 62.3678 69.757C49.9534 72.1586 39.4966 83.9793 35.5332 100.282C54.7191 115.933 82.2329 116.27 101.783 101.288L101.788 101.293Z" stroke="white" stroke-width="1.5" stroke-miterlimit="10" stroke-linejoin="bevel"/>
<path d="M113.437 28.5664L106.446 34.6853C105.901 35.1614 105.248 35.5037 104.542 35.6749L94.5937 38.1246C90.518 39.1301 87.2285 42.1789 86.025 46.2012C84.6878 50.662 85.0034 53.1438 85.8111 57.4924C86.5171 61.29 89.0042 64.5153 92.4916 66.1627L99.0759 69.2703C99.7606 69.5912 100.349 70.0779 100.798 70.6877L112.699 86.8837C113.084 87.4079 113.55 87.8144 114.058 88.1085C125.911 70.0565 125.707 46.4151 113.443 28.561L113.437 28.5664Z" stroke="white" stroke-width="1.5"/>
<path d="M48.1777 155.075H90.7001" stroke="white" stroke-width="1.5" stroke-miterlimit="10"/>
</svg>
