<svg width="160" height="161" viewBox="0 0 160 161" fill="none" xmlns="http://www.w3.org/2000/svg">
<path d="M69.3066 112.285C98.8468 112.285 122.794 88.3377 122.794 58.7974C122.794 29.2572 98.8468 5.31006 69.3066 5.31006C39.7664 5.31006 15.8193 29.2572 15.8193 58.7974C15.8193 88.3377 39.7664 112.285 69.3066 112.285Z" stroke="#277AFF" stroke-width="1.5" stroke-miterlimit="10"/>
<path d="M122.254 5.85059C151.495 35.0921 151.495 82.5087 122.254 111.75C93.0124 140.992 45.596 140.992 16.3545 111.75" stroke="#277AFF" stroke-width="1.5" stroke-miterlimit="10"/>
<path d="M16.3545 111.75L31.8177 96.2871" stroke="#277AFF" stroke-width="1.5" stroke-miterlimit="10"/>
<path d="M69.3066 155.31V133.444" stroke="#277AFF" stroke-width="1.5" stroke-miterlimit="10"/>
<path d="M107.127 20.9767L122.168 5.93066" stroke="#277AFF" stroke-width="1.5" stroke-miterlimit="10"/>
<path d="M31.4805 20.9764C14.1934 38.2635 11.2141 64.4403 22.5427 84.7922C33.6146 78.8765 46.8581 64.1086 52.2763 57.7383C53.6991 56.0641 54.3356 53.8605 54.0307 51.6835C53.3782 47.0462 52.7256 42.4035 52.0731 37.7661C51.4687 33.4657 54.5388 29.5184 58.8552 29.0423C63.6156 28.5181 68.3813 27.9886 73.1417 27.4644C77.0463 27.0312 79.9987 23.7364 79.9987 19.8104V6.39041C63.0058 2.94047 44.6597 7.79713 31.4805 20.9764Z" stroke="#277AFF" stroke-width="1.5" stroke-miterlimit="10"/>
<path d="M101.789 101.293C99.3124 96.0996 96.8359 90.906 94.3541 85.707C92.0274 80.8343 88.2887 76.7692 83.6032 74.0788C73.5957 68.3343 65.8026 69.0938 62.3688 69.757C49.9544 72.1586 39.4976 83.9793 35.5342 100.282C54.7201 115.933 82.2339 116.27 101.784 101.288L101.789 101.293Z" stroke="#277AFF" stroke-width="1.5" stroke-miterlimit="10" stroke-linejoin="bevel"/>
<path d="M113.439 28.5664L106.448 34.6853C105.903 35.1614 105.25 35.5037 104.544 35.6749L94.5957 38.1246C90.5199 39.1301 87.2304 42.1789 86.027 46.2012C84.6898 50.662 85.0054 53.1438 85.813 57.4924C86.519 61.29 89.0062 64.5153 92.4936 66.1627L99.0779 69.2703C99.7625 69.5912 100.351 70.0779 100.8 70.6877L112.701 86.8837C113.086 87.4079 113.552 87.8144 114.06 88.1085C125.912 70.0565 125.709 46.4151 113.445 28.561L113.439 28.5664Z" stroke="#277AFF" stroke-width="1.5"/>
<path d="M48.1797 155.075H90.7021" stroke="#277AFF" stroke-width="1.5" stroke-miterlimit="10"/>
</svg>
