<svg width="160" height="161" viewBox="0 0 160 161" fill="none" xmlns="http://www.w3.org/2000/svg">
<path d="M79.3954 155.306C38.2485 154.982 5 121.532 5 80.3103C5 39.0884 38.2485 5.63838 79.3954 5.31494C53.7829 5.83525 33.125 39.2149 33.125 80.3103C33.125 121.406 53.7829 154.785 79.3954 155.306Z" stroke="#277AFF" stroke-width="1.5" stroke-miterlimit="10"/>
<path d="M155 80.3103C155 121.532 121.747 154.982 80.6045 155.306C106.217 154.785 126.875 121.41 126.875 80.3103C126.875 39.2103 106.217 5.83525 80.6045 5.31494C121.747 5.63838 155 39.0931 155 80.3103Z" stroke="#277AFF" stroke-width="1.5" stroke-miterlimit="10"/>
<path d="M80 155.31C79.7984 155.31 79.5969 155.31 79.3954 155.305C53.7829 154.785 33.125 121.41 33.125 80.3101C33.125 39.2101 53.7829 5.83506 79.3954 5.31475C79.5969 5.31006 79.7984 5.31006 80 5.31006C69.6453 5.31006 61.25 38.8913 61.25 80.3101C61.25 121.729 69.6453 155.31 80 155.31Z" stroke="#277AFF" stroke-width="1.5" stroke-miterlimit="10"/>
<path d="M126.875 80.3101C126.875 121.41 106.217 154.785 80.6047 155.305C80.4031 155.31 80.2016 155.31 80 155.31C90.3547 155.31 98.75 121.733 98.75 80.3101C98.75 38.8866 90.3547 5.31006 80 5.31006C80.2016 5.31006 80.4031 5.31006 80.6047 5.31475C106.217 5.83506 126.875 39.2147 126.875 80.3101Z" stroke="#277AFF" stroke-width="1.5" stroke-miterlimit="10"/>
<path d="M80 155.31C90.3553 155.31 98.75 121.731 98.75 80.3101C98.75 38.8887 90.3553 5.31006 80 5.31006C69.6447 5.31006 61.25 38.8887 61.25 80.3101C61.25 121.731 69.6447 155.31 80 155.31Z" stroke="#277AFF" stroke-width="1.5" stroke-miterlimit="10"/>
<path d="M155 80.3101H5" stroke="#277AFF" stroke-width="1.5" stroke-miterlimit="10"/>
</svg>
