<svg width="160" height="161" viewBox="0 0 160 161" fill="none" xmlns="http://www.w3.org/2000/svg">
<path d="M26.4297 74.9088V86.148C26.4297 88.9617 28.7106 91.2427 31.5243 91.2427H42.7636C45.5773 91.2427 47.8583 88.9617 47.8583 86.148V74.9088C47.8583 72.0951 45.5773 69.8141 42.7636 69.8141H31.5243C28.7106 69.8141 26.4297 72.0951 26.4297 74.9088Z" stroke="white" stroke-width="1.5" stroke-miterlimit="10"/>
<path d="M112.145 139.194V150.434C112.145 153.247 114.425 155.528 117.239 155.528H128.478C131.292 155.528 133.573 153.247 133.573 150.434V139.194C133.573 136.381 131.292 134.1 128.478 134.1H117.239C114.425 134.1 112.145 136.381 112.145 139.194Z" stroke="white" stroke-width="1.5" stroke-miterlimit="10"/>
<path d="M112.145 96.3372V107.576C112.145 110.39 114.425 112.671 117.239 112.671H128.478C131.292 112.671 133.573 110.39 133.573 107.576V96.3372C133.573 93.5235 131.292 91.2426 128.478 91.2426H117.239C114.425 91.2426 112.145 93.5235 112.145 96.3372Z" stroke="white" stroke-width="1.5" stroke-miterlimit="10"/>
<path d="M112.145 53.48V64.7193C112.145 67.533 114.425 69.814 117.239 69.814H128.478C131.292 69.814 133.573 67.533 133.573 64.7193V53.48C133.573 50.6663 131.292 48.3854 128.478 48.3854H117.239C114.425 48.3854 112.145 50.6663 112.145 53.48Z" stroke="white" stroke-width="1.5" stroke-miterlimit="10"/>
<path d="M69.2871 117.766V129.005C69.2871 131.819 71.5681 134.1 74.3817 134.1H85.621C88.4347 134.1 90.7157 131.819 90.7157 129.005V117.766C90.7157 114.952 88.4347 112.671 85.621 112.671H74.3817C71.5681 112.671 69.2871 114.952 69.2871 117.766Z" stroke="white" stroke-width="1.5" stroke-miterlimit="10"/>
<path d="M69.2871 32.0516V43.2909C69.2871 46.1045 71.5681 48.3855 74.3818 48.3855H85.621C88.4347 48.3855 90.7157 46.1045 90.7157 43.2909V32.0516C90.7157 29.2379 88.4347 26.9569 85.621 26.9569H74.3818C71.5681 26.9569 69.2871 29.2379 69.2871 32.0516Z" stroke="white" stroke-width="1.5" stroke-miterlimit="10"/>
<path d="M112.145 10.6229V21.8621C112.145 24.6758 114.425 26.9568 117.239 26.9568H128.478C131.292 26.9568 133.573 24.6758 133.573 21.8621V10.6229C133.573 7.80917 131.292 5.52822 128.478 5.52822H117.239C114.425 5.52822 112.145 7.80917 112.145 10.6229Z" stroke="white" stroke-width="1.5" stroke-miterlimit="10"/>
<path d="M47.8574 80.5283H80.0003" stroke="white" stroke-width="1.5" stroke-miterlimit="10"/>
<path d="M80.002 48.3855V112.671" stroke="white" stroke-width="1.5" stroke-miterlimit="10"/>
<path d="M90.7148 123.385H122.858" stroke="white" stroke-width="1.5" stroke-miterlimit="10"/>
<path d="M90.7148 37.6711H122.858" stroke="white" stroke-width="1.5" stroke-miterlimit="10"/>
<path d="M122.857 134.1V112.671" stroke="white" stroke-width="1.5" stroke-miterlimit="10"/>
<path d="M122.857 48.3854V26.9568" stroke="white" stroke-width="1.5" stroke-miterlimit="10"/>
</svg>
