<svg width="160" height="161" viewBox="0 0 160 161" fill="none" xmlns="http://www.w3.org/2000/svg">
<path d="M112.815 38.2867C112.815 19.9012 97.6923 5.04556 79.2083 5.48152C61.84 5.88936 47.6547 20.0277 47.1953 37.396C46.7922 52.6548 56.8053 65.6353 70.6343 69.7418H70.6202V74.5655C70.6202 74.7437 70.7 74.9124 70.8359 75.0249L77.3801 80.5519C77.6754 80.8003 77.6613 81.255 77.3566 81.4894L70.8546 86.4678C70.7046 86.5804 70.6202 86.7585 70.6202 86.946V95.1965C70.6202 95.3747 70.7 95.5434 70.8359 95.6559L77.3894 101.183C77.6801 101.427 77.6754 101.881 77.3754 102.116L71.3 106.893C70.9719 107.15 71 107.657 71.3563 107.877L77.0894 111.435C77.4785 111.679 77.4644 112.246 77.066 112.471L70.9296 115.917C70.7374 116.024 70.6202 116.226 70.6202 116.442V125.536C70.6202 125.742 70.7234 125.934 70.8968 126.042L77.2582 130.092C77.6004 130.313 77.6332 130.8 77.3238 131.063L70.8312 136.543C70.6953 136.655 70.6155 136.824 70.6155 137.002V146.097L79.9911 155.472L89.3667 146.097V69.7324H89.3527C102.914 65.7056 112.806 53.147 112.806 38.2773L112.815 38.2867ZM80.0005 14.8477C82.5882 14.8477 84.6883 16.9479 84.6883 19.5355C84.6883 22.1232 82.5882 24.2233 80.0005 24.2233C77.4129 24.2233 75.3127 22.1232 75.3127 19.5355C75.3127 16.9479 77.4129 14.8477 80.0005 14.8477Z" stroke="white" stroke-width="1.5" stroke-linejoin="round"/>
</svg>
