<svg width="160" height="161" viewBox="0 0 160 161" fill="none" xmlns="http://www.w3.org/2000/svg">
<path d="M155 80.3233C155 84.0218 153.5 87.3968 151.048 89.8249C148.625 92.2483 145.273 93.7483 141.575 93.7483H128.15C122.3 114.847 102.95 130.325 80 130.325C57.05 130.325 37.6766 114.851 31.85 93.7483H18.425C11 93.7483 5 87.7483 5 80.3233C5 76.6249 6.5 73.2733 8.92344 70.8218C11.3469 68.3983 14.6984 66.8983 18.425 66.8983H31.85C37.6766 45.8233 57.0266 30.3218 80 30.3218C102.973 30.3218 122.3 45.8233 128.15 66.8983H141.575C148.977 66.8983 155 72.9218 155 80.3233Z" stroke="white" stroke-width="1.5" stroke-miterlimit="10"/>
<path d="M16.7695 38.1216C23.8945 50.2528 37.1883 58.5263 51.218 59.5622C65.2477 60.5981 79.6148 54.3591 88.4367 43.4091C102.996 50.7966 122.595 46.1044 132.227 32.9185" stroke="white" stroke-width="1.5" stroke-miterlimit="10"/>
<path d="M105.837 92.689C99.5887 99.9405 90.3121 104.539 79.9855 104.539C69.659 104.539 60.3871 99.9358 54.1621 92.689" stroke="white" stroke-width="1.5" stroke-miterlimit="10"/>
<path d="M52.8262 72.481C52.9374 72.481 53.0281 72.571 53.0283 72.6821C53.0283 72.7934 52.9375 72.8843 52.8262 72.8843C52.715 72.8841 52.625 72.7933 52.625 72.6821C52.6252 72.5711 52.7152 72.4812 52.8262 72.481Z" fill="white" stroke="white" stroke-width="1.5"/>
<path d="M107.229 72.481C107.34 72.481 107.43 72.571 107.431 72.6821C107.431 72.7934 107.34 72.8843 107.229 72.8843C107.117 72.8841 107.027 72.7933 107.027 72.6821C107.028 72.5711 107.118 72.4812 107.229 72.481Z" fill="white" stroke="white" stroke-width="1.5"/>
</svg>
