<svg width="160" height="161" viewBox="0 0 160 161" fill="none" xmlns="http://www.w3.org/2000/svg">
<path d="M98.5817 96.1595C120.128 96.1595 137.595 78.6926 137.595 57.1461C137.595 35.5997 120.128 18.1328 98.5817 18.1328C77.0352 18.1328 59.5684 35.5997 59.5684 57.1461C59.5684 78.6926 77.0352 96.1595 98.5817 96.1595Z" stroke="white" stroke-width="1.5" stroke-miterlimit="10"/>
<path d="M42.9766 56.6594H74.4803C74.844 56.6594 75.1703 56.4562 75.3361 56.1299L84.5894 37.6288C84.9905 36.8319 86.1672 36.9709 86.3705 37.8374L95.6611 77.5996C95.8858 78.5516 97.2176 78.5944 97.5064 77.6584L106.471 48.246C106.722 47.4223 107.851 47.326 108.236 48.0962L117.27 66.1641C117.559 66.7471 118.34 66.8754 118.8 66.4101L128.283 56.9269C128.459 56.7504 128.705 56.6487 128.957 56.6487H154.999" stroke="white" stroke-width="1.5" stroke-miterlimit="10"/>
<path d="M60.8573 83.8395L71.8897 94.8718L21.0546 145.707C18.2861 148.475 13.7854 148.475 11.0169 145.707L10.0184 144.708C7.24992 141.94 7.24992 137.439 10.0184 134.671L60.8535 83.8357L60.8573 83.8395Z" stroke="white" stroke-width="1.5" stroke-miterlimit="10"/>
<path d="M138.805 33.0718C120.079 2.75014 77.0915 2.75014 58.3604 33.0718C49.2783 47.7754 49.2783 66.5172 58.3604 81.2207C77.0861 111.542 120.074 111.542 138.805 81.2207C147.887 66.5172 147.887 47.7754 138.805 33.0718ZM132.108 77.1985C116.501 102.482 80.6644 102.482 65.0569 77.1985C57.4939 64.95 57.4939 49.3479 65.0569 37.0994C80.6591 11.8162 116.501 11.8162 132.108 37.0994C139.671 49.3479 139.671 64.95 132.108 77.1985Z" stroke="white" stroke-width="1.5" stroke-miterlimit="10"/>
</svg>
