<svg width="160" height="161" viewBox="0 0 160 161" fill="none" xmlns="http://www.w3.org/2000/svg">
<path d="M51.1545 103.385C51.1545 116.131 28.0773 155.31 28.0773 155.31C28.0773 155.31 5 116.131 5 103.385C5 90.6392 15.3316 80.3076 28.0773 80.3076C40.823 80.3076 51.1545 90.6392 51.1545 103.385Z" stroke="#277AFF" stroke-width="1.5" stroke-miterlimit="10"/>
<path d="M28.0776 117.808C35.8443 117.808 42.1405 111.512 42.1405 103.746C42.1405 95.9788 35.8443 89.6826 28.0776 89.6826C20.3108 89.6826 14.0146 95.9788 14.0146 103.746C14.0146 111.512 20.3108 117.808 28.0776 117.808Z" stroke="#277AFF" stroke-width="1.5" stroke-miterlimit="10"/>
<path d="M154.789 28.3824C154.789 41.1281 131.712 80.3075 131.712 80.3075C131.712 80.3075 108.635 41.1281 108.635 28.3824C108.635 15.6367 118.966 5.30518 131.712 5.30518C144.458 5.30518 154.789 15.6367 154.789 28.3824Z" stroke="#277AFF" stroke-width="1.5" stroke-miterlimit="10"/>
<path d="M131.712 42.8065C139.479 42.8065 145.775 36.5103 145.775 28.7436C145.775 20.9769 139.479 14.6807 131.712 14.6807C123.946 14.6807 117.649 20.9769 117.649 28.7436C117.649 36.5103 123.946 42.8065 131.712 42.8065Z" stroke="#277AFF" stroke-width="1.5" stroke-miterlimit="10"/>
<path d="M131.711 80.3076H79.9973C69.6423 80.3076 61.2467 88.7032 61.2467 99.0582C61.2467 109.413 69.6423 117.809 79.9973 117.809H136.249C146.604 117.809 155 126.204 155 136.559C155 146.919 146.604 155.315 136.249 155.315H28.0723" stroke="#277AFF" stroke-width="1.5" stroke-miterlimit="10"/>
</svg>
