<svg width="160" height="161" viewBox="0 0 160 161" fill="none" xmlns="http://www.w3.org/2000/svg">
<path d="M79.9996 136.57C111.071 136.57 136.259 111.381 136.259 80.3102C136.259 49.239 111.071 24.0508 79.9996 24.0508C48.9284 24.0508 23.7402 49.239 23.7402 80.3102C23.7402 111.381 48.9284 136.57 79.9996 136.57Z" stroke="white" stroke-width="1.5" stroke-miterlimit="10"/>
<path d="M80.0008 102.721C92.378 102.721 102.412 92.6871 102.412 80.3099C102.412 67.9326 92.378 57.8989 80.0008 57.8989C67.6236 57.8989 57.5898 67.9326 57.5898 80.3099C57.5898 92.6871 67.6236 102.721 80.0008 102.721Z" stroke="white" stroke-width="1.5" stroke-miterlimit="10"/>
<path d="M80 5.31006V24.0507" stroke="white" stroke-width="1.5" stroke-miterlimit="10"/>
<path d="M80 155.31V136.574" stroke="white" stroke-width="1.5" stroke-miterlimit="10"/>
<path d="M5 80.3101H23.7406" stroke="white" stroke-width="1.5" stroke-miterlimit="10"/>
<path d="M155 80.3101H136.26" stroke="white" stroke-width="1.5" stroke-miterlimit="10"/>
<path d="M87.0312 78.0803V89.751H72.9688V78.0803L80 71.001L87.0312 78.0803Z" stroke="white" stroke-width="1.5" stroke-miterlimit="10"/>
<path d="M89.375 80.4402L87.0312 78.0801" stroke="white" stroke-width="1.5" stroke-miterlimit="10"/>
<path d="M72.9688 78.0801L70.625 80.4402" stroke="white" stroke-width="1.5" stroke-miterlimit="10"/>
<path d="M72.9688 78.0808V78.0674" stroke="white" stroke-width="1.5" stroke-miterlimit="10"/>
<path d="M87.0312 78.0808V78.0674" stroke="white" stroke-width="1.5" stroke-miterlimit="10"/>
</svg>
