<svg width="160" height="161" viewBox="0 0 160 161" fill="none" xmlns="http://www.w3.org/2000/svg">
<path d="M80 155.528C116.244 155.528 145.625 126.147 145.625 89.9034C145.625 53.6596 116.244 24.2783 80 24.2783C43.7563 24.2783 14.375 53.6596 14.375 89.9034C14.375 126.147 43.7563 155.528 80 155.528Z" stroke="#277AFF" stroke-width="1.5" stroke-miterlimit="10"/>
<path d="M107.553 95.5705C104.933 108.386 93.5891 118.028 80 118.028C64.4656 118.028 51.875 105.438 51.875 89.9033" stroke="#277AFF" stroke-width="1.5" stroke-miterlimit="10"/>
<path d="M52.5547 83.7203C55.3719 71.1625 66.5891 61.7781 80 61.7781C95.5344 61.7781 108.125 74.3687 108.125 89.9031C108.125 89.9359 108.125 89.9687 108.125 90.0015" stroke="#277AFF" stroke-width="1.5" stroke-miterlimit="10"/>
<path d="M80 33.6538V52.4038" stroke="#277AFF" stroke-width="1.5" stroke-miterlimit="10"/>
<path d="M23.75 89.9033H42.5" stroke="#277AFF" stroke-width="1.5" stroke-miterlimit="10"/>
<path d="M80 146.153V127.403" stroke="#277AFF" stroke-width="1.5" stroke-miterlimit="10"/>
<path d="M136.25 89.9033H117.5" stroke="#277AFF" stroke-width="1.5" stroke-miterlimit="10"/>
<path d="M80 24.2783V5.52832" stroke="#277AFF" stroke-width="1.5" stroke-miterlimit="10"/>
<path d="M89.7031 5.52832H70.625" stroke="#277AFF" stroke-width="1.5" stroke-miterlimit="10"/>
<path d="M97.3721 82.1504L108.125 89.9035L115.883 79.1504" stroke="#277AFF" stroke-width="1.5" stroke-miterlimit="10"/>
<path d="M62.6281 97.6611L51.875 89.9033L44.1172 100.656" stroke="#277AFF" stroke-width="1.5" stroke-miterlimit="10"/>
</svg>
