<svg width="160" height="161" viewBox="0 0 160 161" fill="none" xmlns="http://www.w3.org/2000/svg">
<path d="M79.9984 80.2037H51.1523C51.1852 72.255 54.4341 65.0623 59.6644 59.8696L79.9984 80.2037Z" stroke="#277AFF" stroke-width="1.5" stroke-miterlimit="10"/>
<path d="M80.0001 80.2026V109.171C72.0045 109.171 64.7695 105.917 59.5439 100.659L80.0001 80.2026Z" stroke="#277AFF" stroke-width="1.5" stroke-miterlimit="10"/>
<path d="M108.843 80.2026V80.3247C108.843 88.2546 105.636 95.4426 100.453 100.659L79.9971 80.2026H108.843Z" stroke="#277AFF" stroke-width="1.5" stroke-miterlimit="10"/>
<path d="M100.331 59.8699L79.9971 80.204V51.48C87.9269 51.48 95.115 54.6867 100.331 59.8699Z" stroke="#277AFF" stroke-width="1.5" stroke-miterlimit="10"/>
<path d="M79.9983 28.4038C86.3719 28.4038 91.5386 23.2371 91.5386 16.8635C91.5386 10.49 86.3719 5.32324 79.9983 5.32324C73.6248 5.32324 68.458 10.49 68.458 16.8635C68.458 23.2371 73.6248 28.4038 79.9983 28.4038Z" stroke="#277AFF" stroke-width="1.5" stroke-miterlimit="10"/>
<path d="M35.1292 46.9912C41.5027 46.9912 46.6695 41.8245 46.6695 35.4509C46.6695 29.0774 41.5027 23.9106 35.1292 23.9106C28.7556 23.9106 23.5889 29.0774 23.5889 35.4509C23.5889 41.8245 28.7556 46.9912 35.1292 46.9912Z" stroke="#277AFF" stroke-width="1.5" stroke-miterlimit="10"/>
<path d="M16.5413 91.8614C22.9148 91.8614 28.0816 86.6946 28.0816 80.3211C28.0816 73.9475 22.9148 68.7808 16.5413 68.7808C10.1677 68.7808 5.00098 73.9475 5.00098 80.3211C5.00098 86.6946 10.1677 91.8614 16.5413 91.8614Z" stroke="#277AFF" stroke-width="1.5" stroke-miterlimit="10"/>
<path d="M35.1292 136.737C41.5027 136.737 46.6695 131.571 46.6695 125.197C46.6695 118.824 41.5027 113.657 35.1292 113.657C28.7556 113.657 23.5889 118.824 23.5889 125.197C23.5889 131.571 28.7556 136.737 35.1292 136.737Z" stroke="#277AFF" stroke-width="1.5" stroke-miterlimit="10"/>
<path d="M79.9983 155.323C86.3719 155.323 91.5386 150.157 91.5386 143.783C91.5386 137.409 86.3719 132.243 79.9983 132.243C73.6248 132.243 68.458 137.409 68.458 143.783C68.458 150.157 73.6248 155.323 79.9983 155.323Z" stroke="#277AFF" stroke-width="1.5" stroke-miterlimit="10"/>
<path d="M124.874 136.737C131.248 136.737 136.415 131.571 136.415 125.197C136.415 118.824 131.248 113.657 124.874 113.657C118.501 113.657 113.334 118.824 113.334 125.197C113.334 131.571 118.501 136.737 124.874 136.737Z" stroke="#277AFF" stroke-width="1.5" stroke-miterlimit="10"/>
<path d="M143.46 91.8614C149.834 91.8614 155.001 86.6946 155.001 80.3211C155.001 73.9475 149.834 68.7808 143.46 68.7808C137.087 68.7808 131.92 73.9475 131.92 80.3211C131.92 86.6946 137.087 91.8614 143.46 91.8614Z" stroke="#277AFF" stroke-width="1.5" stroke-miterlimit="10"/>
<path d="M124.874 46.9912C131.248 46.9912 136.415 41.8245 136.415 35.4509C136.415 29.0774 131.248 23.9106 124.874 23.9106C118.501 23.9106 113.334 29.0774 113.334 35.4509C113.334 41.8245 118.501 46.9912 124.874 46.9912Z" stroke="#277AFF" stroke-width="1.5" stroke-miterlimit="10"/>
<path d="M79.9971 51.4805V28.3999" stroke="#277AFF" stroke-width="1.5" stroke-miterlimit="10"/>
<path d="M79.9991 51.48V80.204L59.665 59.8699C64.8812 54.6867 72.0692 51.48 79.9991 51.48Z" stroke="#277AFF" stroke-width="1.5" stroke-miterlimit="10"/>
<path d="M59.6645 59.8696L43.3682 43.5732" stroke="#277AFF" stroke-width="1.5" stroke-miterlimit="10"/>
<path d="M51.1521 80.2026H28.1982" stroke="#277AFF" stroke-width="1.5" stroke-miterlimit="10"/>
<path d="M79.9984 80.2026L59.5423 100.659C54.359 95.4426 51.1523 88.2546 51.1523 80.3247V80.2026H79.9984Z" stroke="#277AFF" stroke-width="1.5" stroke-miterlimit="10"/>
<path d="M59.5424 100.66L43.3682 116.834" stroke="#277AFF" stroke-width="1.5" stroke-miterlimit="10"/>
<path d="M79.9971 132.005V109.173" stroke="#277AFF" stroke-width="1.5" stroke-miterlimit="10"/>
<path d="M100.453 100.659C95.2276 105.917 87.9927 109.171 79.9971 109.171V80.2026L100.453 100.659Z" stroke="#277AFF" stroke-width="1.5" stroke-miterlimit="10"/>
<path d="M116.629 116.834L100.455 100.66" stroke="#277AFF" stroke-width="1.5" stroke-miterlimit="10"/>
<path d="M131.803 80.2026H108.845" stroke="#277AFF" stroke-width="1.5" stroke-miterlimit="10"/>
<path d="M108.843 80.2037H79.9971L100.331 59.8696C105.561 65.0623 108.81 72.255 108.843 80.2037Z" stroke="#277AFF" stroke-width="1.5" stroke-miterlimit="10"/>
<path d="M116.63 43.5732L100.334 59.8696" stroke="#277AFF" stroke-width="1.5" stroke-miterlimit="10"/>
</svg>
