<svg width="160" height="161" viewBox="0 0 160 161" fill="none" xmlns="http://www.w3.org/2000/svg">
<path d="M79.9984 80.2037H51.1523C51.1852 72.255 54.4341 65.0623 59.6644 59.8696L79.9984 80.2037Z" stroke="white" stroke-width="1.5" stroke-miterlimit="10"/>
<path d="M79.9991 80.2026V109.171C72.0035 109.171 64.7685 105.917 59.543 100.659L79.9991 80.2026Z" stroke="white" stroke-width="1.5" stroke-miterlimit="10"/>
<path d="M108.842 80.2026V80.3247C108.842 88.2546 105.635 95.4426 100.452 100.659L79.9961 80.2026H108.842Z" stroke="white" stroke-width="1.5" stroke-miterlimit="10"/>
<path d="M100.33 59.8699L79.9961 80.204V51.48C87.9259 51.48 95.114 54.6867 100.33 59.8699Z" stroke="white" stroke-width="1.5" stroke-miterlimit="10"/>
<path d="M79.9973 28.4038C86.3709 28.4038 91.5377 23.2371 91.5377 16.8635C91.5377 10.49 86.3709 5.32324 79.9973 5.32324C73.6238 5.32324 68.457 10.49 68.457 16.8635C68.457 23.2371 73.6238 28.4038 79.9973 28.4038Z" stroke="white" stroke-width="1.5" stroke-miterlimit="10"/>
<path d="M35.1282 46.9912C41.5017 46.9912 46.6685 41.8245 46.6685 35.4509C46.6685 29.0774 41.5017 23.9106 35.1282 23.9106C28.7547 23.9106 23.5879 29.0774 23.5879 35.4509C23.5879 41.8245 28.7547 46.9912 35.1282 46.9912Z" stroke="white" stroke-width="1.5" stroke-miterlimit="10"/>
<path d="M16.5403 91.8614C22.9138 91.8614 28.0806 86.6946 28.0806 80.3211C28.0806 73.9475 22.9138 68.7808 16.5403 68.7808C10.1668 68.7808 5 73.9475 5 80.3211C5 86.6946 10.1668 91.8614 16.5403 91.8614Z" stroke="white" stroke-width="1.5" stroke-miterlimit="10"/>
<path d="M35.1282 136.737C41.5017 136.737 46.6685 131.571 46.6685 125.197C46.6685 118.824 41.5017 113.657 35.1282 113.657C28.7547 113.657 23.5879 118.824 23.5879 125.197C23.5879 131.571 28.7547 136.737 35.1282 136.737Z" stroke="white" stroke-width="1.5" stroke-miterlimit="10"/>
<path d="M79.9973 155.323C86.3709 155.323 91.5377 150.157 91.5377 143.783C91.5377 137.409 86.3709 132.243 79.9973 132.243C73.6238 132.243 68.457 137.409 68.457 143.783C68.457 150.157 73.6238 155.323 79.9973 155.323Z" stroke="white" stroke-width="1.5" stroke-miterlimit="10"/>
<path d="M124.874 136.737C131.248 136.737 136.415 131.571 136.415 125.197C136.415 118.824 131.248 113.657 124.874 113.657C118.501 113.657 113.334 118.824 113.334 125.197C113.334 131.571 118.501 136.737 124.874 136.737Z" stroke="white" stroke-width="1.5" stroke-miterlimit="10"/>
<path d="M143.46 91.8614C149.834 91.8614 155.001 86.6946 155.001 80.3211C155.001 73.9475 149.834 68.7808 143.46 68.7808C137.087 68.7808 131.92 73.9475 131.92 80.3211C131.92 86.6946 137.087 91.8614 143.46 91.8614Z" stroke="white" stroke-width="1.5" stroke-miterlimit="10"/>
<path d="M124.874 46.9912C131.248 46.9912 136.415 41.8245 136.415 35.4509C136.415 29.0774 131.248 23.9106 124.874 23.9106C118.501 23.9106 113.334 29.0774 113.334 35.4509C113.334 41.8245 118.501 46.9912 124.874 46.9912Z" stroke="white" stroke-width="1.5" stroke-miterlimit="10"/>
<path d="M79.9961 51.4805V28.3999" stroke="white" stroke-width="1.5" stroke-miterlimit="10"/>
<path d="M79.9981 51.48V80.204L59.6641 59.8699C64.8802 54.6867 72.0683 51.48 79.9981 51.48Z" stroke="white" stroke-width="1.5" stroke-miterlimit="10"/>
<path d="M59.6635 59.8696L43.3672 43.5732" stroke="white" stroke-width="1.5" stroke-miterlimit="10"/>
<path d="M51.1511 80.2026H28.1973" stroke="white" stroke-width="1.5" stroke-miterlimit="10"/>
<path d="M79.9984 80.2026L59.5423 100.659C54.359 95.4426 51.1523 88.2546 51.1523 80.3247V80.2026H79.9984Z" stroke="white" stroke-width="1.5" stroke-miterlimit="10"/>
<path d="M59.5415 100.66L43.3672 116.834" stroke="white" stroke-width="1.5" stroke-miterlimit="10"/>
<path d="M79.9961 132.005V109.173" stroke="white" stroke-width="1.5" stroke-miterlimit="10"/>
<path d="M100.452 100.659C95.2267 105.917 87.9917 109.171 79.9961 109.171V80.2026L100.452 100.659Z" stroke="white" stroke-width="1.5" stroke-miterlimit="10"/>
<path d="M116.627 116.834L100.453 100.66" stroke="white" stroke-width="1.5" stroke-miterlimit="10"/>
<path d="M131.802 80.2026H108.844" stroke="white" stroke-width="1.5" stroke-miterlimit="10"/>
<path d="M108.842 80.2037H79.9961L100.33 59.8696C105.56 65.0623 108.809 72.255 108.842 80.2037Z" stroke="white" stroke-width="1.5" stroke-miterlimit="10"/>
<path d="M116.628 43.5732L100.332 59.8696" stroke="white" stroke-width="1.5" stroke-miterlimit="10"/>
</svg>
