<svg width="160" height="161" viewBox="0 0 160 161" fill="none" xmlns="http://www.w3.org/2000/svg">
<path d="M4.98828 61.5708H14.3633V76.2192L4.98828 70.9458V61.5708Z" stroke="white" stroke-width="1.5" stroke-miterlimit="10"/>
<path d="M154.988 61.5708V70.9458L145.613 76.2192V61.5708H154.988Z" stroke="white" stroke-width="1.5" stroke-miterlimit="10"/>
<path d="M4.98828 61.5708L14.3633 54.5396V61.5708H4.98828Z" stroke="white" stroke-width="1.5" stroke-miterlimit="10"/>
<path d="M79.9879 5.3208L129.989 42.8208H29.9863L79.9879 5.3208Z" stroke="white" stroke-width="1.5" stroke-miterlimit="10"/>
<path d="M154.988 61.5708H145.613V54.5396L154.988 61.5708Z" stroke="white" stroke-width="1.5" stroke-miterlimit="10"/>
<path d="M154.988 155.321H4.98828V70.9458L14.3633 76.2192L38.3211 89.6958L54.9898 99.0708L71.6539 108.446L79.9883 113.133L104.987 127.196L154.988 155.321Z" stroke="white" stroke-width="1.5" stroke-miterlimit="10"/>
<path d="M154.988 70.9458V155.321L104.987 127.196L79.9883 113.133L88.3226 108.446L104.987 99.0708L121.655 89.6958L145.613 76.2192L154.988 70.9458Z" stroke="white" stroke-width="1.5" stroke-miterlimit="10"/>
<path d="M145.613 42.8208V76.2192L121.655 89.6958L104.987 99.0708L88.3226 108.446L79.9883 113.133L71.6539 108.446L54.9898 99.0708L38.3211 89.6958L14.3633 76.2192V42.8208H145.613Z" stroke="white" stroke-width="1.5" stroke-miterlimit="10"/>
<path d="M23.7188 61.5664H136.237" stroke="white" stroke-width="1.5" stroke-miterlimit="10"/>
<path d="M23.7188 70.9414H136.237" stroke="white" stroke-width="1.5" stroke-miterlimit="10"/>
<path d="M23.7188 80.3164H136.237" stroke="white" stroke-width="1.5" stroke-miterlimit="10"/>
<path d="M38.3027 89.6914H121.656" stroke="white" stroke-width="1.5" stroke-miterlimit="10"/>
<path d="M54.666 99.0664H104.986" stroke="white" stroke-width="1.5" stroke-miterlimit="10"/>
<path d="M71.4473 108.441H88.3223" stroke="white" stroke-width="1.5" stroke-miterlimit="10"/>
</svg>
