<svg width="160" height="161" viewBox="0 0 160 161" fill="none" xmlns="http://www.w3.org/2000/svg">
<path d="M103.441 47.686C103.441 52.9642 101.698 57.8345 98.7586 61.7485C94.4789 67.4438 87.6727 71.1235 80.0039 71.1235C72.3352 71.1235 65.5336 67.4438 61.2586 61.7485C58.3102 57.8345 56.5664 52.9642 56.5664 47.686C56.5664 42.4079 58.3102 37.5423 61.2586 33.6235C65.5289 27.9282 72.3352 24.2485 80.0039 24.2485C87.6727 24.2485 94.4789 27.9282 98.7586 33.6188C98.7539 33.6188 98.7586 33.6235 98.7586 33.6235C101.702 37.5423 103.441 42.4079 103.441 47.686Z" stroke="white" stroke-width="1.5" stroke-miterlimit="10"/>
<path d="M117.504 108.38V136.749H42.5039V108.38C42.5039 94.5376 50.0508 82.4626 61.2539 76.0407C66.7102 72.9095 73.029 71.1235 79.765 71.1235H80.2477C86.9836 71.1235 93.3023 72.9095 98.7539 76.0407C109.957 82.4626 117.504 94.5376 117.504 108.38Z" stroke="white" stroke-width="1.5" stroke-miterlimit="10"/>
<path d="M140.941 47.686C140.941 60.6282 130.45 71.1235 117.503 71.1235C109.839 71.1235 103.033 67.4438 98.7579 61.7485C101.697 57.8345 103.441 52.9642 103.441 47.686C103.441 42.4079 101.702 37.5423 98.7579 33.6235C98.7579 33.6235 98.7533 33.6188 98.7579 33.6188C103.033 27.9282 109.839 24.2485 117.503 24.2485C130.45 24.2485 140.941 34.7392 140.941 47.686Z" stroke="white" stroke-width="1.5" stroke-miterlimit="10"/>
<path d="M155.004 108.38V136.749H117.504V108.38C117.504 94.5376 109.957 82.4626 98.7539 76.0407C104.21 72.9095 110.529 71.1235 117.265 71.1235H117.748C138.326 71.1235 155.004 87.8017 155.004 108.38Z" stroke="white" stroke-width="1.5" stroke-miterlimit="10"/>
<path d="M56.5664 47.686C56.5664 52.9642 58.3102 57.8345 61.2586 61.7485C56.9789 67.4438 50.1727 71.1235 42.5039 71.1235C29.5617 71.1235 19.0664 60.6282 19.0664 47.686C19.0664 34.7438 29.5617 24.2485 42.5039 24.2485C50.1727 24.2485 56.9836 27.9282 61.2586 33.6235C58.3102 37.5423 56.5664 42.4079 56.5664 47.686Z" stroke="white" stroke-width="1.5" stroke-miterlimit="10"/>
<path d="M61.2539 76.0407C50.0508 82.4626 42.5039 94.5376 42.5039 108.38V136.749H5.00391V108.38C5.00391 87.8017 21.6868 71.1235 42.265 71.1235H42.7477C49.4836 71.1235 55.8023 72.9095 61.2539 76.0407Z" stroke="white" stroke-width="1.5" stroke-miterlimit="10"/>
</svg>
