<svg width="160" height="161" viewBox="0 0 160 161" fill="none" xmlns="http://www.w3.org/2000/svg">
<path d="M103.44 47.686C103.44 52.9642 101.697 57.8345 98.7576 61.7485C94.4779 67.4438 87.6717 71.1235 80.0029 71.1235C72.3342 71.1235 65.5326 67.4438 61.2576 61.7485C58.3092 57.8345 56.5654 52.9642 56.5654 47.686C56.5654 42.4079 58.3092 37.5423 61.2576 33.6235C65.5279 27.9282 72.3342 24.2485 80.0029 24.2485C87.6717 24.2485 94.4779 27.9282 98.7576 33.6188C98.7529 33.6188 98.7576 33.6235 98.7576 33.6235C101.701 37.5423 103.44 42.4079 103.44 47.686Z" stroke="#277AFF" stroke-width="1.5" stroke-miterlimit="10"/>
<path d="M117.503 108.38V136.749H42.5029V108.38C42.5029 94.5376 50.0498 82.4626 61.2529 76.0407C66.7092 72.9095 73.028 71.1235 79.764 71.1235H80.2467C86.9826 71.1235 93.3014 72.9095 98.7529 76.0407C109.956 82.4626 117.503 94.5376 117.503 108.38Z" stroke="#277AFF" stroke-width="1.5" stroke-miterlimit="10"/>
<path d="M140.941 47.686C140.941 60.6282 130.45 71.1235 117.503 71.1235C109.839 71.1235 103.033 67.4438 98.7579 61.7485C101.697 57.8345 103.441 52.9642 103.441 47.686C103.441 42.4079 101.702 37.5423 98.7579 33.6235C98.7579 33.6235 98.7533 33.6188 98.7579 33.6188C103.033 27.9282 109.839 24.2485 117.503 24.2485C130.45 24.2485 140.941 34.7392 140.941 47.686Z" stroke="#277AFF" stroke-width="1.5" stroke-miterlimit="10"/>
<path d="M155.003 108.38V136.749H117.503V108.38C117.503 94.5376 109.956 82.4626 98.7529 76.0407C104.209 72.9095 110.528 71.1235 117.264 71.1235H117.747C138.325 71.1235 155.003 87.8017 155.003 108.38Z" stroke="#277AFF" stroke-width="1.5" stroke-miterlimit="10"/>
<path d="M56.5654 47.686C56.5654 52.9642 58.3092 57.8345 61.2576 61.7485C56.9779 67.4438 50.1717 71.1235 42.5029 71.1235C29.5607 71.1235 19.0654 60.6282 19.0654 47.686C19.0654 34.7438 29.5607 24.2485 42.5029 24.2485C50.1717 24.2485 56.9826 27.9282 61.2576 33.6235C58.3092 37.5423 56.5654 42.4079 56.5654 47.686Z" stroke="#277AFF" stroke-width="1.5" stroke-miterlimit="10"/>
<path d="M61.2529 76.0407C50.0498 82.4626 42.5029 94.5376 42.5029 108.38V136.749H5.00293V108.38C5.00293 87.8017 21.6859 71.1235 42.264 71.1235H42.7467C49.4826 71.1235 55.8014 72.9095 61.2529 76.0407Z" stroke="#277AFF" stroke-width="1.5" stroke-miterlimit="10"/>
</svg>
