<svg width="160" height="161" viewBox="0 0 160 161" fill="none" xmlns="http://www.w3.org/2000/svg">
<path d="M5 17.7797V111.595C5 116.756 9.18125 120.937 14.3422 120.937H47.2016C50.1406 120.937 52.9109 122.32 54.6734 124.673L72.5234 148.472C76.2594 153.455 83.7359 153.455 87.4719 148.472L105.322 124.673C107.084 122.32 109.855 120.937 112.794 120.937H145.658C150.819 120.937 155 116.756 155 111.595V17.7797C155 12.6187 150.819 8.4375 145.658 8.4375H14.3422C9.18125 8.4375 5 12.6187 5 17.7797Z" stroke="white" stroke-width="1.5" stroke-miterlimit="10"/>
<path d="M80 64.6875C90.3554 64.6875 98.75 56.2928 98.75 45.9375C98.75 35.5822 90.3554 27.1875 80 27.1875C69.6447 27.1875 61.25 35.5822 61.25 45.9375C61.25 56.2928 69.6447 64.6875 80 64.6875Z" stroke="white" stroke-width="1.5" stroke-miterlimit="10"/>
<path d="M80 64.6875C95.5203 64.6875 108.125 77.2922 108.125 92.8125V102.164H51.875V92.8125C51.875 77.2922 64.4797 64.6875 80 64.6875Z" stroke="white" stroke-width="1.5" stroke-miterlimit="10"/>
</svg>
