<svg width="160" height="160" viewBox="0 0 160 160" fill="none" xmlns="http://www.w3.org/2000/svg">
<path d="M126.916 33.0836C133.206 39.3734 133.206 49.5833 126.916 55.8731L120.649 62.14L97.8637 39.3543L104.131 33.0874C110.42 26.7976 120.63 26.7976 126.92 33.0874L126.916 33.0836Z" stroke="#277AFF" stroke-width="1.5" stroke-miterlimit="10"/>
<path d="M49.6529 142.99H17.0088V110.351" stroke="#277AFF" stroke-width="1.5" stroke-miterlimit="10"/>
<path d="M17.0092 142.99L5 154.999" stroke="#277AFF" stroke-width="1.5" stroke-miterlimit="10"/>
<path d="M33.5546 5.00152L25.2305 13.3257L35.4595 23.5547L43.7836 15.2305L33.5546 5.00152Z" stroke="#277AFF" stroke-width="1.5" stroke-miterlimit="10"/>
<path d="M43.7822 15.2298L35.458 23.554L54.514 42.61L62.8382 34.2858L43.7822 15.2298Z" stroke="#277AFF" stroke-width="1.5" stroke-miterlimit="10"/>
<path d="M62.8368 34.2928L54.5127 42.6169L64.7417 52.8459L73.0658 44.5218L62.8368 34.2928Z" stroke="#277AFF" stroke-width="1.5" stroke-miterlimit="10"/>
<path d="M54.5165 42.6129L46.1885 50.9409L56.4175 61.1699L64.7454 52.8419L54.5165 42.6129Z" stroke="#277AFF" stroke-width="1.5" stroke-miterlimit="10"/>
<path d="M25.2254 13.3251L16.8975 21.6531L27.1264 31.8821L35.4544 23.5541L25.2254 13.3251Z" stroke="#277AFF" stroke-width="1.5" stroke-miterlimit="10"/>
<path d="M16.9013 21.6568L8.57715 29.981L18.8061 40.2099L27.1303 31.8858L16.9013 21.6568Z" stroke="#277AFF" stroke-width="1.5" stroke-miterlimit="10"/>
<path d="M27.1288 31.8848L18.8047 40.209L37.8607 59.265L46.1848 50.9409L27.1288 31.8848Z" stroke="#277AFF" stroke-width="1.5" stroke-miterlimit="10"/>
<path d="M46.1835 50.9405L37.8594 59.2646L48.0884 69.4936L56.4125 61.1695L46.1835 50.9405Z" stroke="#277AFF" stroke-width="1.5" stroke-miterlimit="10"/>
<path d="M35.4627 23.5573L27.1348 31.8853L46.1908 50.9413L54.5187 42.6133L35.4627 23.5573Z" stroke="#277AFF" stroke-width="1.5" stroke-miterlimit="10"/>
<path d="M98.832 103.587L90.5078 111.912L100.737 122.141L109.061 113.816L98.832 103.587Z" stroke="#277AFF" stroke-width="1.5" stroke-miterlimit="10"/>
<path d="M109.059 113.816L100.735 122.14L119.791 141.196L128.116 132.872L109.059 113.816Z" stroke="#277AFF" stroke-width="1.5" stroke-miterlimit="10"/>
<path d="M128.114 132.871L119.79 141.195L130.019 151.424L138.343 143.1L128.114 132.871Z" stroke="#277AFF" stroke-width="1.5" stroke-miterlimit="10"/>
<path d="M136.447 124.544L128.119 132.872L138.348 143.101L146.676 134.773L136.447 124.544Z" stroke="#277AFF" stroke-width="1.5" stroke-miterlimit="10"/>
<path d="M115.485 86.9322L107.161 95.2563L117.39 105.485L125.714 97.1612L115.485 86.9322Z" stroke="#277AFF" stroke-width="1.5" stroke-miterlimit="10"/>
<path d="M107.156 95.256L98.8281 103.584L109.057 113.813L117.385 105.485L107.156 95.256Z" stroke="#277AFF" stroke-width="1.5" stroke-miterlimit="10"/>
<path d="M125.713 97.1607L117.389 105.485L136.445 124.541L144.769 116.217L125.713 97.1607Z" stroke="#277AFF" stroke-width="1.5" stroke-miterlimit="10"/>
<path d="M144.77 116.219L136.446 124.543L146.675 134.772L154.999 126.448L144.77 116.219Z" stroke="#277AFF" stroke-width="1.5" stroke-miterlimit="10"/>
<path d="M117.392 105.488L109.064 113.816L128.12 132.872L136.448 124.544L117.392 105.488Z" stroke="#277AFF" stroke-width="1.5" stroke-miterlimit="10"/>
<rect x="51.251" y="102.532" width="8.77246" height="8.77246" transform="rotate(45 51.251 102.532)" stroke="#277AFF" stroke-width="1.5"/>
<path d="M123.308 64.7991L95.2044 36.6951C94.6573 36.148 93.7704 36.1481 93.2234 36.6951L40.265 89.6534C39.718 90.2005 39.7179 91.0874 40.265 91.6345L68.369 119.738C68.9161 120.286 69.803 120.286 70.35 119.738L123.308 66.7801C123.855 66.2331 123.855 65.3462 123.308 64.7991Z" stroke="#277AFF" stroke-width="1.5" stroke-miterlimit="10"/>
<path d="M55.865 149.202L10.7969 104.134C23.3071 98.9238 38.2526 101.408 48.4246 111.574C58.5965 121.746 61.0803 136.692 55.865 149.202Z" stroke="#277AFF" stroke-width="1.5" stroke-miterlimit="10"/>
<path d="M126.914 33.0823C133.204 39.3721 133.204 49.582 126.914 55.8718L120.647 62.1387L97.8618 39.353L104.129 33.0861C110.418 26.7964 120.628 26.7964 126.918 33.0861L126.914 33.0823Z" stroke="#277AFF" stroke-width="1.5" stroke-miterlimit="10"/>
<path d="M55.8693 149.201L10.7959 104.133C23.3061 98.9228 38.2515 101.407 48.4235 111.573C58.5954 121.745 61.0792 136.691 55.8639 149.201H55.8693Z" stroke="#277AFF" stroke-width="1.5" stroke-miterlimit="10"/>
<path d="M49.6523 142.989H17.0137V110.35" stroke="#277AFF" stroke-width="1.5" stroke-miterlimit="10"/>
<path d="M17.0136 142.989L4.99902 154.998" stroke="#277AFF" stroke-width="1.5" stroke-miterlimit="10"/>
<path d="M103.001 99.4184L96.8379 93.2549" stroke="#277AFF" stroke-width="1.5" stroke-miterlimit="10"/>
<path d="M66.7539 63.1701L60.585 57.0012" stroke="#277AFF" stroke-width="1.5" stroke-miterlimit="10"/>
<path d="M33.5556 5.00155L25.2314 13.3257L35.4604 23.5546L43.7845 15.2305L33.5556 5.00155Z" stroke="#277AFF" stroke-width="1.5" stroke-miterlimit="10"/>
<path d="M43.7821 15.2301L35.458 23.5542L54.514 42.6102L62.8381 34.286L43.7821 15.2301Z" stroke="#277AFF" stroke-width="1.5" stroke-miterlimit="10"/>
<path d="M62.8417 34.2892L54.5176 42.6133L64.7465 52.8422L73.0707 44.5181L62.8417 34.2892Z" stroke="#277AFF" stroke-width="1.5" stroke-miterlimit="10"/>
<path d="M54.5164 42.613L46.1885 50.9409L56.4174 61.1699L64.7454 52.8419L54.5164 42.613Z" stroke="#277AFF" stroke-width="1.5" stroke-miterlimit="10"/>
<path d="M25.2264 13.3254L16.8984 21.6533L27.1274 31.8823L35.4553 23.5543L25.2264 13.3254Z" stroke="#277AFF" stroke-width="1.5" stroke-miterlimit="10"/>
<path d="M16.9023 21.6568L8.57812 29.981L18.8071 40.2099L27.1312 31.8858L16.9023 21.6568Z" stroke="#277AFF" stroke-width="1.5" stroke-miterlimit="10"/>
<path d="M27.1288 31.8851L18.8047 40.2092L37.8607 59.2652L46.1848 50.9411L27.1288 31.8851Z" stroke="#277AFF" stroke-width="1.5" stroke-miterlimit="10"/>
<path d="M46.1894 50.9405L37.8652 59.2646L48.0942 69.4936L56.4183 61.1695L46.1894 50.9405Z" stroke="#277AFF" stroke-width="1.5" stroke-miterlimit="10"/>
<path d="M35.4627 23.5576L27.1348 31.8855L46.1907 50.9415L54.5187 42.6135L35.4627 23.5576Z" stroke="#277AFF" stroke-width="1.5" stroke-miterlimit="10"/>
<path d="M98.8319 103.587L90.5078 111.911L100.737 122.14L109.061 113.816L98.8319 103.587Z" stroke="#277AFF" stroke-width="1.5" stroke-miterlimit="10"/>
<path d="M109.059 113.816L100.734 122.14L119.79 141.196L128.114 132.871L109.059 113.816Z" stroke="#277AFF" stroke-width="1.5" stroke-miterlimit="10"/>
<path d="M128.119 132.871L119.795 141.195L130.024 151.424L138.348 143.1L128.119 132.871Z" stroke="#277AFF" stroke-width="1.5" stroke-miterlimit="10"/>
<path d="M136.447 124.543L128.119 132.871L138.348 143.1L146.676 134.772L136.447 124.543Z" stroke="#277AFF" stroke-width="1.5" stroke-miterlimit="10"/>
<path d="M115.485 86.9322L107.161 95.2563L117.39 105.485L125.714 97.1612L115.485 86.9322Z" stroke="#277AFF" stroke-width="1.5" stroke-miterlimit="10"/>
<path d="M107.156 95.256L98.8281 103.584L109.057 113.813L117.385 105.485L107.156 95.256Z" stroke="#277AFF" stroke-width="1.5" stroke-miterlimit="10"/>
<path d="M125.712 97.1603L117.388 105.484L136.444 124.54L144.768 116.216L125.712 97.1603Z" stroke="#277AFF" stroke-width="1.5" stroke-miterlimit="10"/>
<path d="M144.771 116.219L136.447 124.543L146.676 134.772L155 126.448L144.771 116.219Z" stroke="#277AFF" stroke-width="1.5" stroke-miterlimit="10"/>
<path d="M117.392 105.488L109.064 113.816L128.12 132.872L136.448 124.544L117.392 105.488Z" stroke="#277AFF" stroke-width="1.5" stroke-miterlimit="10"/>
<path d="M45.374 108.529L51.2682 102.635" stroke="#277AFF" stroke-width="1.5" stroke-miterlimit="10"/>
<path d="M51.4727 114.628L57.3668 108.734" stroke="#277AFF" stroke-width="1.5" stroke-miterlimit="10"/>
<path d="M123.313 66.7743L96.8382 93.2548L70.3523 119.735C69.8082 120.279 68.9192 120.279 68.3751 119.735L40.2675 91.6277C39.7233 91.0836 39.7233 90.1946 40.2675 89.6505L66.7534 63.17L93.2285 36.6895C93.7726 36.14 94.6616 36.14 95.2057 36.6895L120.652 62.1355L123.313 64.7971C123.863 65.3412 123.863 66.2302 123.313 66.7743Z" stroke="#277AFF" stroke-width="1.5" stroke-miterlimit="10"/>
</svg>
