<svg width="160" height="160" viewBox="0 0 160 160" fill="none" xmlns="http://www.w3.org/2000/svg">
<path d="M108.125 61.25H51.875V145.625H108.125V61.25Z" stroke="white" stroke-width="1.5" stroke-miterlimit="10"/>
<path d="M145.625 61.25H108.125V145.625H145.625V61.25Z" stroke="white" stroke-width="1.5" stroke-miterlimit="10"/>
<path d="M51.875 61.25H14.375V145.625H51.875V61.25Z" stroke="white" stroke-width="1.5" stroke-miterlimit="10"/>
<path d="M108.125 61.25H51.875L80 23.75L108.125 61.25Z" stroke="white" stroke-width="1.5" stroke-miterlimit="10"/>
<path d="M72.9688 33.125L51.875 61.25H5L23.75 33.125H72.9688Z" stroke="white" stroke-width="1.5" stroke-miterlimit="10"/>
<path d="M155 61.25H108.125L87.0312 33.125H136.25L155 61.25Z" stroke="white" stroke-width="1.5" stroke-miterlimit="10"/>
<path d="M80 23.7734V5" stroke="white" stroke-width="1.5" stroke-miterlimit="10"/>
<path d="M155 145.625H5V155H155V145.625Z" stroke="white" stroke-width="1.5" stroke-miterlimit="10"/>
<path d="M89.375 126.875H70.625V145.625H89.375V126.875Z" stroke="white" stroke-width="1.5" stroke-miterlimit="10"/>
<path d="M75.209 70.625H70.5215V80H75.209V70.625Z" stroke="white" stroke-width="1.5" stroke-miterlimit="10"/>
<path d="M89.2715 70.625H84.584V80H89.2715V70.625Z" stroke="white" stroke-width="1.5" stroke-miterlimit="10"/>
<path d="M75.209 89.375H70.5215V98.75H75.209V89.375Z" stroke="white" stroke-width="1.5" stroke-miterlimit="10"/>
<path d="M89.2715 89.375H84.584V98.75H89.2715V89.375Z" stroke="white" stroke-width="1.5" stroke-miterlimit="10"/>
<path d="M75.209 108.125H70.5215V117.5H75.209V108.125Z" stroke="white" stroke-width="1.5" stroke-miterlimit="10"/>
<path d="M89.2715 108.125H84.584V117.5H89.2715V108.125Z" stroke="white" stroke-width="1.5" stroke-miterlimit="10"/>
<path d="M122.188 70.625H117.5V80H122.188V70.625Z" stroke="white" stroke-width="1.5" stroke-miterlimit="10"/>
<path d="M136.25 70.625H131.562V80H136.25V70.625Z" stroke="white" stroke-width="1.5" stroke-miterlimit="10"/>
<path d="M122.188 89.375H117.5V98.75H122.188V89.375Z" stroke="white" stroke-width="1.5" stroke-miterlimit="10"/>
<path d="M136.25 89.375H131.562V98.75H136.25V89.375Z" stroke="white" stroke-width="1.5" stroke-miterlimit="10"/>
<path d="M122.188 108.125H117.5V117.5H122.188V108.125Z" stroke="white" stroke-width="1.5" stroke-miterlimit="10"/>
<path d="M136.25 108.125H131.562V117.5H136.25V108.125Z" stroke="white" stroke-width="1.5" stroke-miterlimit="10"/>
<path d="M28.4375 70.625H23.75V80H28.4375V70.625Z" stroke="white" stroke-width="1.5" stroke-miterlimit="10"/>
<path d="M42.5 70.625H37.8125V80H42.5V70.625Z" stroke="white" stroke-width="1.5" stroke-miterlimit="10"/>
<path d="M28.4375 89.375H23.75V98.75H28.4375V89.375Z" stroke="white" stroke-width="1.5" stroke-miterlimit="10"/>
<path d="M42.5 89.375H37.8125V98.75H42.5V89.375Z" stroke="white" stroke-width="1.5" stroke-miterlimit="10"/>
<path d="M28.4375 108.125H23.75V117.5H28.4375V108.125Z" stroke="white" stroke-width="1.5" stroke-miterlimit="10"/>
<path d="M42.5 108.125H37.8125V117.5H42.5V108.125Z" stroke="white" stroke-width="1.5" stroke-miterlimit="10"/>
<path d="M79.9961 5V9.6875H89.3711V5L79.9961 5Z" stroke="white" stroke-width="1.5" stroke-miterlimit="10"/>
</svg>
