<svg width="160" height="161" viewBox="0 0 160 161" fill="none" xmlns="http://www.w3.org/2000/svg">
<path d="M145.658 8.4375H14.3422C9.18125 8.4375 5 12.6234 5 17.7797V111.595C5 116.756 9.18125 120.938 14.3422 120.938H47.2062C50.1453 120.938 52.9156 122.325 54.6781 124.673L72.5281 148.472C76.2641 153.455 83.7359 153.455 87.4719 148.472L105.322 124.673C107.084 122.325 109.855 120.938 112.794 120.938H145.658C150.819 120.938 155 116.756 155 111.595V17.7797C155 12.6234 150.819 8.4375 145.658 8.4375ZM108.125 94.337H51.875V55.5047L80 27.1875L108.125 55.5047V94.337Z" stroke="white" stroke-width="1.5" stroke-miterlimit="10"/>
<path d="M108.125 55.5047V94.337H51.875V55.5047L80 27.1875L108.125 55.5047Z" stroke="white" stroke-width="1.5" stroke-miterlimit="10"/>
<path d="M117.5 64.945L108.125 55.5044" stroke="white" stroke-width="1.5" stroke-miterlimit="10"/>
<path d="M51.875 55.5044L42.5 64.945" stroke="white" stroke-width="1.5" stroke-miterlimit="10"/>
<path d="M51.875 55.5047V55.4531" stroke="white" stroke-width="1.5" stroke-miterlimit="10"/>
<path d="M108.125 55.5047V55.4531" stroke="white" stroke-width="1.5" stroke-miterlimit="10"/>
</svg>
