<svg width="160" height="161" viewBox="0 0 160 161" fill="none" xmlns="http://www.w3.org/2000/svg">
<path d="M43.6063 114.977C41.7734 116.805 41.7734 119.772 43.6063 121.605C45.4344 123.433 48.4016 123.433 50.2344 121.605L51.875 119.964V155.191L50.8016 154.764L31.2031 146.978L5 136.562V5.42969L51.875 24.0625V106.708L43.6063 114.977Z" stroke="white" stroke-width="1.5" stroke-miterlimit="10"/>
<path d="M51.875 24.0625V106.708L73.3063 85.2719L76.625 88.5859C65.6375 77.6031 65.6375 59.7953 76.625 48.8125C85.1422 40.2953 97.7656 38.3828 108.125 43.0797V5.42969L51.875 24.0625Z" stroke="white" stroke-width="1.5" stroke-miterlimit="10"/>
<path d="M99.3781 45.4375C98.975 45.3859 98.5672 45.3484 98.1641 45.3203C98.5672 45.3438 98.975 45.3859 99.3781 45.4375Z" stroke="white" stroke-width="1.5" stroke-miterlimit="10"/>
<path d="M108.125 94.3187V136.562L51.875 155.191V119.964L79.9391 91.9L76.625 88.5859C85.1422 97.1031 97.7656 99.0156 108.125 94.3187Z" stroke="white" stroke-width="1.5" stroke-miterlimit="10"/>
<path d="M108.125 5.42969V43.0797C111.125 44.4391 113.933 46.3469 116.398 48.8125C127.381 59.7953 127.381 77.6031 116.398 88.5859C113.933 91.0516 111.125 92.9641 108.125 94.3187V136.562L155 155.191V24.0625L108.125 5.42969Z" stroke="white" stroke-width="1.5" stroke-miterlimit="10"/>
<path d="M98.1641 45.3203C98.5672 45.3484 98.975 45.3859 99.3781 45.4375C98.975 45.3859 98.5672 45.3438 98.1641 45.3203Z" stroke="white" stroke-width="1.5" stroke-miterlimit="10"/>
<path d="M116.399 48.8125C113.933 46.3469 111.125 44.4391 108.125 43.0797C97.766 38.3828 85.1426 40.2953 76.6254 48.8125C65.6379 59.7953 65.6379 77.6032 76.6254 88.586C85.1426 97.1032 97.766 99.0157 108.125 94.3188C111.125 92.9641 113.933 91.0516 116.399 88.586C127.382 77.6032 127.382 59.7953 116.399 48.8125ZM113.085 85.2719C112.907 85.45 112.724 85.6282 112.541 85.7969C112.138 86.1766 111.725 86.5375 111.304 86.8797C111.154 87.0063 110.999 87.1282 110.839 87.25C110.371 87.611 109.893 87.9532 109.41 88.2766C109.204 88.4125 108.997 88.5438 108.786 88.6703C108.566 88.8063 108.346 88.9375 108.125 89.0641C107.9 89.1907 107.675 89.3172 107.45 89.4344C107.338 89.4953 107.221 89.5516 107.108 89.6125C106.982 89.6782 106.855 89.7391 106.729 89.8C106.541 89.8891 106.349 89.9782 106.161 90.0672C106.124 90.0813 106.082 90.1 106.044 90.1188C105.819 90.2219 105.594 90.3157 105.364 90.4094C105.097 90.5172 104.835 90.6203 104.568 90.7188C104.422 90.7703 104.277 90.8219 104.132 90.8735C103.818 90.9766 103.499 91.0797 103.185 91.1735C102.964 91.2391 102.749 91.3 102.529 91.3563C102.463 91.375 102.397 91.3891 102.336 91.4078C102.172 91.4453 102.008 91.4875 101.844 91.525C101.652 91.5719 101.455 91.6141 101.263 91.6516C101.174 91.675 101.08 91.6938 100.986 91.7078C100.719 91.7594 100.452 91.8063 100.185 91.8485C100.016 91.8766 99.8379 91.9047 99.6645 91.9282C99.402 91.961 99.1395 91.9938 98.877 92.0172C98.6426 92.0453 98.4035 92.0641 98.1645 92.0782C98.0379 92.0875 97.9066 92.0969 97.7801 92.1016C97.6066 92.111 97.4379 92.1203 97.2645 92.125C97.0113 92.1344 96.7629 92.1391 96.5098 92.1391C92.3848 92.1391 88.2645 91.0563 84.6035 88.8953C84.2707 88.6985 83.9379 88.4922 83.6145 88.2766C83.127 87.9532 82.6488 87.611 82.1848 87.25C81.8707 87.011 81.566 86.7578 81.2613 86.5C80.9613 86.2422 80.666 85.9703 80.3707 85.6938C80.2254 85.5578 80.0848 85.4172 79.9394 85.2719C70.7848 76.1172 70.7848 61.2813 79.9394 52.1266C80.0988 51.9672 80.2629 51.8078 80.427 51.6532C80.591 51.4985 80.7598 51.3485 80.9238 51.1985C81.0926 51.0485 81.2613 50.8985 81.4348 50.7578C81.6035 50.6125 81.777 50.4719 81.9504 50.336C82.1238 50.1953 82.302 50.0594 82.4754 49.9282C82.6535 49.7922 82.8316 49.6657 83.0098 49.5391C83.1879 49.4125 83.3707 49.286 83.5535 49.1641C84.5473 48.5032 85.5785 47.9266 86.6426 47.4344C86.7973 47.3594 86.952 47.2891 87.1066 47.2235C87.477 47.0641 87.8473 46.9094 88.2223 46.7688C88.5785 46.6328 88.9348 46.5063 89.2957 46.3938C89.5535 46.3094 89.816 46.2297 90.0785 46.1547C90.116 46.1453 90.1488 46.136 90.1863 46.1266C90.4348 46.0563 90.6785 45.9907 90.9316 45.9297C90.9691 45.9203 91.0066 45.911 91.0441 45.9063C91.2691 45.85 91.4941 45.7985 91.7238 45.7516C91.7801 45.7375 91.841 45.7282 91.8973 45.7188C92.1551 45.6625 92.4082 45.6157 92.666 45.5782C92.741 45.5641 92.816 45.55 92.8863 45.5407C93.0973 45.5078 93.3035 45.4797 93.5145 45.4516C93.5566 45.4516 93.5988 45.4375 93.641 45.4375C94.1191 45.3766 94.5973 45.3344 95.0754 45.3063C95.2582 45.2922 95.4457 45.2828 95.6285 45.2782C95.7035 45.2735 95.7785 45.2735 95.8535 45.2688C96.0738 45.2641 96.2895 45.2594 96.5098 45.2594C96.7629 45.2594 97.0113 45.2641 97.2645 45.2735C97.4379 45.2782 97.6066 45.2875 97.7801 45.2969C97.9066 45.2969 98.0379 45.311 98.1645 45.3203C98.5676 45.3438 98.9754 45.386 99.3785 45.4375C99.5426 45.4563 99.7113 45.4797 99.8754 45.5032C100.049 45.5266 100.222 45.5547 100.396 45.5828C100.593 45.6157 100.789 45.6532 100.986 45.6907C101.08 45.7047 101.174 45.7235 101.263 45.7469C101.455 45.7844 101.652 45.8266 101.844 45.8735C102.008 45.911 102.172 45.9532 102.336 45.9907C102.397 46.0094 102.463 46.0235 102.529 46.0422C102.749 46.0985 102.964 46.1594 103.185 46.225C103.686 46.375 104.183 46.5391 104.68 46.7266C104.788 46.7641 104.891 46.8016 104.999 46.8485C106.068 47.261 107.113 47.7578 108.125 48.3344C108.224 48.3907 108.322 48.4469 108.421 48.5078C108.589 48.6016 108.754 48.7047 108.918 48.8078C109.307 49.0516 109.696 49.3094 110.075 49.5813C110.235 49.6938 110.394 49.811 110.549 49.9282C110.647 49.9985 110.746 50.0735 110.839 50.1485C110.999 50.2703 111.154 50.3922 111.304 50.5188C111.725 50.861 112.138 51.2219 112.541 51.6016C112.724 51.7703 112.907 51.9485 113.085 52.1266C122.235 61.2813 122.235 76.1172 113.085 85.2719Z" stroke="white" stroke-width="1.5" stroke-miterlimit="10"/>
<path d="M113.086 85.2718C112.907 85.4499 112.725 85.6233 112.542 85.7968C112.139 86.1765 111.726 86.5374 111.304 86.8796C111.154 87.0062 111 87.128 110.84 87.2499C110.371 87.6108 109.893 87.953 109.411 88.2765C109.204 88.4124 108.998 88.5437 108.787 88.6702C108.567 88.8062 108.346 88.9374 108.126 89.064C107.901 89.1905 107.676 89.3171 107.451 89.4343C107.339 89.4952 107.221 89.5515 107.109 89.6124C106.982 89.678 106.856 89.739 106.729 89.7999C106.542 89.889 106.35 89.978 106.162 90.0671C106.125 90.0812 106.082 90.0999 106.045 90.1187C105.82 90.2171 105.59 90.3155 105.365 90.4093C105.098 90.5171 104.836 90.6202 104.568 90.7187C104.423 90.7702 104.278 90.8171 104.132 90.8733C103.818 90.9765 103.5 91.0796 103.186 91.1733C102.965 91.239 102.75 91.2999 102.529 91.3562C102.464 91.3749 102.398 91.389 102.337 91.4077C102.173 91.4452 102.009 91.4874 101.845 91.5249C101.653 91.5718 101.456 91.614 101.264 91.6515C101.175 91.6749 101.081 91.6937 100.987 91.7077C100.72 91.7593 100.453 91.8062 100.186 91.8483C100.017 91.8765 99.8387 91.9046 99.6652 91.928C99.4027 91.9608 99.1402 91.9937 98.8777 92.0171C98.6387 92.0405 98.4043 92.064 98.1652 92.078C98.0387 92.0874 97.9074 92.0968 97.7809 92.1015C97.6074 92.1108 97.4387 92.1202 97.2652 92.1249C97.0121 92.1343 96.7637 92.139 96.5105 92.139C92.3855 92.139 88.2652 91.0562 84.6043 88.8952C84.2715 88.6983 83.9387 88.4921 83.6152 88.2765C83.1277 87.953 82.6496 87.6108 82.1856 87.2499C81.8715 87.0108 81.5668 86.7577 81.2621 86.4999C80.9621 86.2421 80.6668 85.9702 80.3715 85.6937C80.2262 85.5577 80.0855 85.4171 79.9402 85.2718C70.7855 76.1171 70.7855 61.2812 79.9402 52.1265C80.0996 51.9671 80.2637 51.8077 80.4277 51.653C80.5918 51.4983 80.7605 51.3483 80.9246 51.1983C81.0934 51.0483 81.2621 50.8983 81.4355 50.7577C81.6043 50.6124 81.7777 50.4718 81.9512 50.3358C82.1246 50.1952 82.3027 50.0593 82.4762 49.928C82.6543 49.7921 82.8324 49.6655 83.0105 49.539C83.1887 49.4124 83.3715 49.2858 83.5543 49.164C84.548 48.503 85.5793 47.9265 86.6434 47.4343C86.798 47.3593 86.9527 47.289 87.1074 47.2233C87.4777 47.064 87.848 46.9093 88.223 46.7687C88.5793 46.6374 88.9355 46.5108 89.2965 46.3937C89.5543 46.3093 89.8168 46.2296 90.0793 46.1546C90.1168 46.1452 90.1496 46.1358 90.1871 46.1265C90.4355 46.0562 90.684 45.9905 90.9324 45.9296C90.9699 45.9202 91.0074 45.9108 91.0449 45.9062C91.2699 45.8499 91.4949 45.7983 91.7246 45.7515C91.7809 45.7374 91.8418 45.728 91.898 45.7187C92.1512 45.6671 92.409 45.6202 92.6668 45.578C92.7418 45.564 92.8168 45.5499 92.8871 45.5405C93.0981 45.5077 93.3043 45.4796 93.5152 45.4515C93.5574 45.4515 93.5996 45.4374 93.6418 45.4374C94.1199 45.3765 94.598 45.3343 95.0762 45.3062C95.259 45.2921 95.4465 45.2827 95.6293 45.278C95.7043 45.2733 95.7793 45.2733 95.8543 45.2687C96.0746 45.264 96.2902 45.2593 96.5105 45.2593C96.7637 45.2593 97.0121 45.264 97.2652 45.2733C97.4387 45.278 97.6074 45.2874 97.7809 45.2968C97.9074 45.2968 98.0387 45.3108 98.1652 45.3202C98.5684 45.3483 98.9762 45.3858 99.3793 45.4374C99.5434 45.4562 99.7121 45.4796 99.8762 45.503C100.05 45.5265 100.223 45.5546 100.396 45.5827C100.593 45.6155 100.79 45.653 100.987 45.6905C101.081 45.7046 101.175 45.7233 101.264 45.7468C101.456 45.7843 101.653 45.8265 101.845 45.8733C102.009 45.9108 102.173 45.953 102.337 45.9905C102.398 46.0093 102.464 46.0233 102.529 46.0421C102.75 46.0983 102.965 46.1593 103.186 46.2249C103.687 46.3749 104.184 46.539 104.681 46.7265C104.784 46.764 104.892 46.8062 105 46.8483C106.068 47.2608 107.114 47.7577 108.126 48.3343C108.225 48.3905 108.323 48.4468 108.421 48.5077C108.59 48.6062 108.754 48.7046 108.918 48.8077C109.307 49.0515 109.696 49.3093 110.076 49.5812C110.236 49.6937 110.395 49.8108 110.55 49.928C110.648 49.9983 110.746 50.0733 110.84 50.1483C111 50.2702 111.154 50.3921 111.304 50.5187C111.726 50.8608 112.139 51.2218 112.542 51.6015C112.725 51.7749 112.907 51.9483 113.086 52.1265C122.236 61.2812 122.236 76.1171 113.086 85.2718Z" stroke="white" stroke-width="1.5" stroke-miterlimit="10"/>
<path d="M99.3781 45.4375C98.975 45.3859 98.5672 45.3484 98.1641 45.3203C98.5672 45.3438 98.975 45.3859 99.3781 45.4375Z" stroke="white" stroke-width="1.5" stroke-miterlimit="10"/>
<path d="M79.9398 91.9001L51.8758 119.964L50.2352 121.605C48.4023 123.433 45.4352 123.433 43.607 121.605C41.7742 119.772 41.7742 116.805 43.607 114.977L51.8758 106.708L73.307 85.272L76.6258 88.586L79.9398 91.9001Z" stroke="white" stroke-width="1.5" stroke-miterlimit="10"/>
</svg>
