<svg width="160" height="161" viewBox="0 0 160 161" fill="none" xmlns="http://www.w3.org/2000/svg">
<path d="M43.6063 114.977C41.7734 116.805 41.7734 119.772 43.6063 121.605C45.4344 123.433 48.4016 123.433 50.2344 121.605L51.875 119.964V155.191L50.8016 154.764L31.2031 146.978L5 136.562V5.42969L51.875 24.0625V106.708L43.6063 114.977Z" stroke="#277AFF" stroke-width="1.5" stroke-miterlimit="10"/>
<path d="M51.875 24.0625V106.708L73.3063 85.2719L76.625 88.5859C65.6375 77.6031 65.6375 59.7953 76.625 48.8125C85.1422 40.2953 97.7656 38.3828 108.125 43.0797V5.42969L51.875 24.0625Z" stroke="#277AFF" stroke-width="1.5" stroke-miterlimit="10"/>
<path d="M99.3781 45.4375C98.975 45.3859 98.5672 45.3484 98.1641 45.3203C98.5672 45.3438 98.975 45.3859 99.3781 45.4375Z" stroke="#277AFF" stroke-width="1.5" stroke-miterlimit="10"/>
<path d="M108.125 94.3187V136.562L51.875 155.191V119.964L79.9391 91.9L76.625 88.5859C85.1422 97.1031 97.7656 99.0156 108.125 94.3187Z" stroke="#277AFF" stroke-width="1.5" stroke-miterlimit="10"/>
<path d="M108.125 5.42969V43.0797C111.125 44.4391 113.933 46.3469 116.398 48.8125C127.381 59.7953 127.381 77.6031 116.398 88.5859C113.933 91.0516 111.125 92.9641 108.125 94.3187V136.562L155 155.191V24.0625L108.125 5.42969Z" stroke="#277AFF" stroke-width="1.5" stroke-miterlimit="10"/>
<path d="M98.1641 45.3203C98.5672 45.3484 98.975 45.3859 99.3781 45.4375C98.975 45.3859 98.5672 45.3438 98.1641 45.3203Z" stroke="#277AFF" stroke-width="1.5" stroke-miterlimit="10"/>
<path d="M116.399 48.8125C113.933 46.3469 111.125 44.4391 108.125 43.0797C97.766 38.3828 85.1426 40.2953 76.6254 48.8125C65.6379 59.7953 65.6379 77.6032 76.6254 88.586C85.1426 97.1032 97.766 99.0157 108.125 94.3188C111.125 92.9641 113.933 91.0516 116.399 88.586C127.382 77.6032 127.382 59.7953 116.399 48.8125ZM113.085 85.2719C112.907 85.45 112.724 85.6282 112.541 85.7969C112.138 86.1766 111.725 86.5375 111.304 86.8797C111.154 87.0063 110.999 87.1282 110.839 87.25C110.371 87.611 109.893 87.9532 109.41 88.2766C109.204 88.4125 108.997 88.5438 108.786 88.6703C108.566 88.8063 108.346 88.9375 108.125 89.0641C107.9 89.1907 107.675 89.3172 107.45 89.4344C107.338 89.4953 107.221 89.5516 107.108 89.6125C106.982 89.6782 106.855 89.7391 106.729 89.8C106.541 89.8891 106.349 89.9782 106.161 90.0672C106.124 90.0813 106.082 90.1 106.044 90.1188C105.819 90.2219 105.594 90.3157 105.364 90.4094C105.097 90.5172 104.835 90.6203 104.568 90.7188C104.422 90.7703 104.277 90.8219 104.132 90.8735C103.818 90.9766 103.499 91.0797 103.185 91.1735C102.964 91.2391 102.749 91.3 102.529 91.3563C102.463 91.375 102.397 91.3891 102.336 91.4078C102.172 91.4453 102.008 91.4875 101.844 91.525C101.652 91.5719 101.455 91.6141 101.263 91.6516C101.174 91.675 101.08 91.6938 100.986 91.7078C100.719 91.7594 100.452 91.8063 100.185 91.8485C100.016 91.8766 99.8379 91.9047 99.6645 91.9282C99.402 91.961 99.1395 91.9938 98.877 92.0172C98.6426 92.0453 98.4035 92.0641 98.1645 92.0782C98.0379 92.0875 97.9066 92.0969 97.7801 92.1016C97.6066 92.111 97.4379 92.1203 97.2645 92.125C97.0113 92.1344 96.7629 92.1391 96.5098 92.1391C92.3848 92.1391 88.2645 91.0563 84.6035 88.8953C84.2707 88.6985 83.9379 88.4922 83.6145 88.2766C83.127 87.9532 82.6488 87.611 82.1848 87.25C81.8707 87.011 81.566 86.7578 81.2613 86.5C80.9613 86.2422 80.666 85.9703 80.3707 85.6938C80.2254 85.5578 80.0848 85.4172 79.9394 85.2719C70.7848 76.1172 70.7848 61.2813 79.9394 52.1266C80.0988 51.9672 80.2629 51.8078 80.427 51.6532C80.591 51.4985 80.7598 51.3485 80.9238 51.1985C81.0926 51.0485 81.2613 50.8985 81.4348 50.7578C81.6035 50.6125 81.777 50.4719 81.9504 50.336C82.1238 50.1953 82.302 50.0594 82.4754 49.9282C82.6535 49.7922 82.8316 49.6657 83.0098 49.5391C83.1879 49.4125 83.3707 49.286 83.5535 49.1641C84.5473 48.5032 85.5785 47.9266 86.6426 47.4344C86.7973 47.3594 86.952 47.2891 87.1066 47.2235C87.477 47.0641 87.8473 46.9094 88.2223 46.7688C88.5785 46.6328 88.9348 46.5063 89.2957 46.3938C89.5535 46.3094 89.816 46.2297 90.0785 46.1547C90.116 46.1453 90.1488 46.136 90.1863 46.1266C90.4348 46.0563 90.6785 45.9907 90.9316 45.9297C90.9691 45.9203 91.0066 45.911 91.0441 45.9063C91.2691 45.85 91.4941 45.7985 91.7238 45.7516C91.7801 45.7375 91.841 45.7282 91.8973 45.7188C92.1551 45.6625 92.4082 45.6157 92.666 45.5782C92.741 45.5641 92.816 45.55 92.8863 45.5407C93.0973 45.5078 93.3035 45.4797 93.5145 45.4516C93.5566 45.4516 93.5988 45.4375 93.641 45.4375C94.1191 45.3766 94.5973 45.3344 95.0754 45.3063C95.2582 45.2922 95.4457 45.2828 95.6285 45.2782C95.7035 45.2735 95.7785 45.2735 95.8535 45.2688C96.0738 45.2641 96.2895 45.2594 96.5098 45.2594C96.7629 45.2594 97.0113 45.2641 97.2645 45.2735C97.4379 45.2782 97.6066 45.2875 97.7801 45.2969C97.9066 45.2969 98.0379 45.311 98.1645 45.3203C98.5676 45.3438 98.9754 45.386 99.3785 45.4375C99.5426 45.4563 99.7113 45.4797 99.8754 45.5032C100.049 45.5266 100.222 45.5547 100.396 45.5828C100.593 45.6157 100.789 45.6532 100.986 45.6907C101.08 45.7047 101.174 45.7235 101.263 45.7469C101.455 45.7844 101.652 45.8266 101.844 45.8735C102.008 45.911 102.172 45.9532 102.336 45.9907C102.397 46.0094 102.463 46.0235 102.529 46.0422C102.749 46.0985 102.964 46.1594 103.185 46.225C103.686 46.375 104.183 46.5391 104.68 46.7266C104.788 46.7641 104.891 46.8016 104.999 46.8485C106.068 47.261 107.113 47.7578 108.125 48.3344C108.224 48.3907 108.322 48.4469 108.421 48.5078C108.589 48.6016 108.754 48.7047 108.918 48.8078C109.307 49.0516 109.696 49.3094 110.075 49.5813C110.235 49.6938 110.394 49.811 110.549 49.9282C110.647 49.9985 110.746 50.0735 110.839 50.1485C110.999 50.2703 111.154 50.3922 111.304 50.5188C111.725 50.861 112.138 51.2219 112.541 51.6016C112.724 51.7703 112.907 51.9485 113.085 52.1266C122.235 61.2813 122.235 76.1172 113.085 85.2719Z" stroke="#277AFF" stroke-width="1.5" stroke-miterlimit="10"/>
<path d="M113.085 85.2718C112.906 85.4499 112.724 85.6233 112.541 85.7968C112.138 86.1765 111.725 86.5374 111.303 86.8796C111.153 87.0062 110.999 87.128 110.839 87.2499C110.371 87.6108 109.892 87.953 109.41 88.2765C109.203 88.4124 108.997 88.5437 108.786 88.6702C108.566 88.8062 108.346 88.9374 108.125 89.064C107.9 89.1905 107.675 89.3171 107.45 89.4343C107.338 89.4952 107.221 89.5515 107.108 89.6124C106.981 89.678 106.855 89.739 106.728 89.7999C106.541 89.889 106.349 89.978 106.161 90.0671C106.124 90.0812 106.081 90.0999 106.044 90.1187C105.819 90.2171 105.589 90.3155 105.364 90.4093C105.097 90.5171 104.835 90.6202 104.567 90.7187C104.422 90.7702 104.277 90.8171 104.131 90.8733C103.817 90.9765 103.499 91.0796 103.185 91.1733C102.964 91.239 102.749 91.2999 102.528 91.3562C102.463 91.3749 102.397 91.389 102.336 91.4077C102.172 91.4452 102.008 91.4874 101.844 91.5249C101.652 91.5718 101.455 91.614 101.263 91.6515C101.174 91.6749 101.08 91.6937 100.986 91.7077C100.719 91.7593 100.452 91.8062 100.185 91.8483C100.016 91.8765 99.8377 91.9046 99.6643 91.928C99.4018 91.9608 99.1393 91.9937 98.8768 92.0171C98.6377 92.0405 98.4033 92.064 98.1643 92.078C98.0377 92.0874 97.9064 92.0968 97.7799 92.1015C97.6064 92.1108 97.4377 92.1202 97.2643 92.1249C97.0111 92.1343 96.7627 92.139 96.5096 92.139C92.3846 92.139 88.2643 91.0562 84.6033 88.8952C84.2705 88.6983 83.9377 88.4921 83.6143 88.2765C83.1268 87.953 82.6486 87.6108 82.1846 87.2499C81.8705 87.0108 81.5658 86.7577 81.2611 86.4999C80.9611 86.2421 80.6658 85.9702 80.3705 85.6937C80.2252 85.5577 80.0846 85.4171 79.9393 85.2718C70.7846 76.1171 70.7846 61.2812 79.9393 52.1265C80.0986 51.9671 80.2627 51.8077 80.4268 51.653C80.5908 51.4983 80.7596 51.3483 80.9236 51.1983C81.0924 51.0483 81.2611 50.8983 81.4346 50.7577C81.6033 50.6124 81.7768 50.4718 81.9502 50.3358C82.1236 50.1952 82.3018 50.0593 82.4752 49.928C82.6533 49.7921 82.8314 49.6655 83.0096 49.539C83.1877 49.4124 83.3705 49.2858 83.5533 49.164C84.5471 48.503 85.5783 47.9265 86.6424 47.4343C86.7971 47.3593 86.9518 47.289 87.1064 47.2233C87.4768 47.064 87.8471 46.9093 88.2221 46.7687C88.5783 46.6374 88.9346 46.5108 89.2955 46.3937C89.5533 46.3093 89.8158 46.2296 90.0783 46.1546C90.1158 46.1452 90.1486 46.1358 90.1861 46.1265C90.4346 46.0562 90.683 45.9905 90.9314 45.9296C90.9689 45.9202 91.0064 45.9108 91.0439 45.9062C91.2689 45.8499 91.4939 45.7983 91.7236 45.7515C91.7799 45.7374 91.8408 45.728 91.8971 45.7187C92.1502 45.6671 92.408 45.6202 92.6658 45.578C92.7408 45.564 92.8158 45.5499 92.8861 45.5405C93.0971 45.5077 93.3033 45.4796 93.5143 45.4515C93.5564 45.4515 93.5986 45.4374 93.6408 45.4374C94.1189 45.3765 94.5971 45.3343 95.0752 45.3062C95.258 45.2921 95.4455 45.2827 95.6283 45.278C95.7033 45.2733 95.7783 45.2733 95.8533 45.2687C96.0736 45.264 96.2893 45.2593 96.5096 45.2593C96.7627 45.2593 97.0111 45.264 97.2643 45.2733C97.4377 45.278 97.6064 45.2874 97.7799 45.2968C97.9064 45.2968 98.0377 45.3108 98.1643 45.3202C98.5674 45.3483 98.9752 45.3858 99.3783 45.4374C99.5424 45.4562 99.7111 45.4796 99.8752 45.503C100.049 45.5265 100.222 45.5546 100.396 45.5827C100.592 45.6155 100.789 45.653 100.986 45.6905C101.08 45.7046 101.174 45.7233 101.263 45.7468C101.455 45.7843 101.652 45.8265 101.844 45.8733C102.008 45.9108 102.172 45.953 102.336 45.9905C102.397 46.0093 102.463 46.0233 102.528 46.0421C102.749 46.0983 102.964 46.1593 103.185 46.2249C103.686 46.3749 104.183 46.539 104.68 46.7265C104.783 46.764 104.891 46.8062 104.999 46.8483C106.067 47.2608 107.113 47.7577 108.125 48.3343C108.224 48.3905 108.322 48.4468 108.421 48.5077C108.589 48.6062 108.753 48.7046 108.917 48.8077C109.306 49.0515 109.696 49.3093 110.075 49.5812C110.235 49.6937 110.394 49.8108 110.549 49.928C110.647 49.9983 110.746 50.0733 110.839 50.1483C110.999 50.2702 111.153 50.3921 111.303 50.5187C111.725 50.8608 112.138 51.2218 112.541 51.6015C112.724 51.7749 112.906 51.9483 113.085 52.1265C122.235 61.2812 122.235 76.1171 113.085 85.2718Z" stroke="#277AFF" stroke-width="1.5" stroke-miterlimit="10"/>
<path d="M99.3781 45.4375C98.975 45.3859 98.5672 45.3484 98.1641 45.3203C98.5672 45.3438 98.975 45.3859 99.3781 45.4375Z" stroke="#277AFF" stroke-width="1.5" stroke-miterlimit="10"/>
<path d="M79.9389 91.9001L51.8748 119.964L50.2342 121.605C48.4014 123.433 45.4342 123.433 43.6061 121.605C41.7732 119.772 41.7732 116.805 43.6061 114.977L51.8748 106.708L73.3061 85.272L76.6248 88.586L79.9389 91.9001Z" stroke="#277AFF" stroke-width="1.5" stroke-miterlimit="10"/>
</svg>
