<svg width="160" height="161" viewBox="0 0 160 161" fill="none" xmlns="http://www.w3.org/2000/svg">
<path d="M42.5 91.8861V52.4877C42.5 47.2611 46.7375 43.0283 51.9594 43.0283H87.1344" stroke="#277AFF" stroke-width="1.5" stroke-miterlimit="10"/>
<path d="M117.5 69.2407V108.564C117.5 113.791 113.262 118.024 108.04 118.024H72.8887" stroke="#277AFF" stroke-width="1.5" stroke-miterlimit="10"/>
<path d="M80.5488 36.0017L87.1395 43.0236C87.1395 43.0236 82.7473 47.5611 80.5488 50.0455" stroke="#277AFF" stroke-width="1.5" stroke-miterlimit="10"/>
<path d="M79.4793 125.05L72.8887 118.028C72.8887 118.028 77.2809 113.491 79.4793 111.006" stroke="#277AFF" stroke-width="1.5" stroke-miterlimit="10"/>
<path d="M70.625 99.1189V133.164C70.625 135.161 69.0078 136.778 67.0109 136.778H8.61406C6.61719 136.778 5 135.161 5 133.164V99.1189H70.625Z" stroke="#277AFF" stroke-width="1.5" stroke-miterlimit="10"/>
<path d="M155 33.6533V67.5393C155 69.5361 153.383 71.1533 151.386 71.1533H92.9891C90.9922 71.1533 89.375 69.5361 89.375 67.5393V33.6533H155Z" stroke="#277AFF" stroke-width="1.5" stroke-miterlimit="10"/>
<path d="M30.7812 114.639H23.75V131.243H30.7812V114.639Z" stroke="#277AFF" stroke-width="1.5" stroke-miterlimit="10"/>
<path d="M37.8125 109.104H30.7812V131.243H37.8125V109.104Z" stroke="#277AFF" stroke-width="1.5" stroke-miterlimit="10"/>
<path d="M44.8438 103.567H37.8125V131.242H44.8438V103.567Z" stroke="#277AFF" stroke-width="1.5" stroke-miterlimit="10"/>
<path d="M51.875 109.104H44.8438V131.243H51.875V109.104Z" stroke="#277AFF" stroke-width="1.5" stroke-miterlimit="10"/>
<path d="M70.625 93.5174V99.119H5V93.5174C5 91.5205 6.61719 89.9033 8.61406 89.9033H67.0109C69.0078 89.9033 70.625 91.5205 70.625 93.5174Z" stroke="#277AFF" stroke-width="1.5" stroke-miterlimit="10"/>
<path d="M115.156 48.7471H108.125V65.3502H115.156V48.7471Z" stroke="#277AFF" stroke-width="1.5" stroke-miterlimit="10"/>
<path d="M122.188 43.2112H115.156V65.3502H122.188V43.2112Z" stroke="#277AFF" stroke-width="1.5" stroke-miterlimit="10"/>
<path d="M129.219 48.7471H122.188V65.3502H129.219V48.7471Z" stroke="#277AFF" stroke-width="1.5" stroke-miterlimit="10"/>
<path d="M136.25 37.6753H129.219V65.3503H136.25V37.6753Z" stroke="#277AFF" stroke-width="1.5" stroke-miterlimit="10"/>
<path d="M155 27.8924V33.6533H89.375V27.8924C89.375 25.8955 90.9922 24.2783 92.9891 24.2783H151.386C153.383 24.2783 155 25.8955 155 27.8924Z" stroke="#277AFF" stroke-width="1.5" stroke-miterlimit="10"/>
</svg>
