<svg width="160" height="161" viewBox="0 0 160 161" fill="none" xmlns="http://www.w3.org/2000/svg">
<path d="M98.75 42.8232C98.75 53.1779 90.3547 61.5732 80 61.5732V80.3232H61.25C61.25 69.9686 52.8547 61.5732 42.5 61.5732C32.1453 61.5732 23.75 69.9686 23.75 80.3232H5V27.8232C5 15.3967 15.0734 5.32324 27.5 5.32324H80V24.0732C90.3547 24.0732 98.75 32.4686 98.75 42.8232Z" stroke="#277AFF" stroke-width="1.5" stroke-miterlimit="10"/>
<path d="M61.25 117.823C61.25 128.178 69.6453 136.573 80 136.573V155.323H27.5C15.0734 155.323 5 145.25 5 132.823V80.3232H23.75C23.75 69.9686 32.1453 61.5732 42.5 61.5732C52.8547 61.5732 61.25 69.9686 61.25 80.3232H80V99.0732C69.6453 99.0732 61.25 107.469 61.25 117.823Z" stroke="#277AFF" stroke-width="1.5" stroke-miterlimit="10"/>
<path d="M155 27.8232V80.3232H136.25C136.25 90.6779 127.855 99.0732 117.5 99.0732C107.145 99.0732 98.75 90.6779 98.75 80.3232H80V61.5732C90.3547 61.5732 98.75 53.1779 98.75 42.8232C98.75 32.4686 90.3547 24.0732 80 24.0732V5.32324H132.5C144.927 5.32324 155 15.3967 155 27.8232Z" stroke="#277AFF" stroke-width="1.5" stroke-miterlimit="10"/>
<path d="M155 80.3228V132.823C155 145.249 144.927 155.323 132.5 155.323H80V136.573C69.6453 136.573 61.25 128.177 61.25 117.823C61.25 107.468 69.6453 99.0728 80 99.0728V80.3228H98.75C98.75 90.6774 107.145 99.0728 117.5 99.0728C127.855 99.0728 136.25 90.6774 136.25 80.3228H155Z" stroke="#277AFF" stroke-width="1.5" stroke-miterlimit="10"/>
</svg>
