<svg width="160" height="161" viewBox="0 0 160 161" fill="none" xmlns="http://www.w3.org/2000/svg">
<path d="M42.2304 128.379L42.0303 128.179" stroke="#277AFF" stroke-width="1.5" stroke-miterlimit="10"/>
<path d="M111.589 18.9536L104.145 26.4033L133.944 56.1815L141.388 48.7318L111.589 18.9536Z" stroke="#277AFF" stroke-width="1.5" stroke-miterlimit="10"/>
<path d="M155 26.3829C155 31.7752 152.947 37.1675 148.834 41.2802L141.388 48.7263L111.599 18.9369L119.045 11.4908C127.27 3.26543 140.609 3.26543 148.834 11.4908C152.947 15.6035 155 20.9958 155 26.3829Z" stroke="#277AFF" stroke-width="1.5" stroke-miterlimit="10"/>
<path d="M42.0303 128.179L29.6816 130.648L32.1514 118.3L42.0303 128.179Z" stroke="#277AFF" stroke-width="1.5" stroke-miterlimit="10"/>
<path d="M66.9171 123.202L42.0303 128.184L32.1514 118.305L37.1277 93.418L66.9171 123.202Z" stroke="#277AFF" stroke-width="1.5" stroke-miterlimit="10"/>
<path d="M133.941 56.183L99.7863 90.3326L66.9163 123.203L37.127 93.4184L70.0075 60.5379L104.152 26.3936L133.941 56.183Z" stroke="#277AFF" stroke-width="1.5" stroke-miterlimit="10"/>
<path d="M99.7868 90.3323V155.324H5V60.5376H70.008L37.1275 93.4181L66.9169 123.202L99.7868 90.3323Z" stroke="#277AFF" stroke-width="1.5" stroke-miterlimit="10"/>
</svg>
