<svg width="182" height="50" viewBox="0 0 182 50" fill="none" xmlns="http://www.w3.org/2000/svg">
<path d="M107.748 40.3116L109.624 35.4981H110.351L107.256 43.4513H106.519L107.368 41.2511L105.044 35.4981H105.86L107.748 40.3116ZM151.675 5.45615C153.114 7.69117 154.475 9.7931 155.83 11.7315C158.402 10.0673 161.446 9.10263 164.706 9.10263C170.466 9.10267 175.553 12.1122 178.553 16.6788C180.378 19.4051 181.445 22.6988 181.445 26.2462C181.445 31.235 179.334 35.7212 175.973 38.8331C175.63 39.1564 175.273 39.4656 174.904 39.7589C177.071 41.0842 179.42 42.2889 181.508 43.3448C179.021 42.4539 176.469 41.5539 173.93 40.4767C171.286 42.2829 168.114 43.337 164.706 43.337C158.089 43.337 152.36 39.3656 149.664 33.6251C148.606 31.393 148.013 28.89 148.013 26.2462C148.013 25.3265 148.085 24.4239 148.223 23.544C148.936 18.909 151.468 14.8857 155.043 12.2716C153.471 9.30387 152.128 6.3984 151.675 5.45615ZM170.101 40.961C169.677 41.0299 169.236 41.0808 168.778 41.1104C168.441 41.1323 168.099 41.1427 167.753 41.1427C167.289 41.1427 166.816 41.1209 166.338 41.0821C165.883 41.4553 165.416 41.7409 164.944 41.9376C166.756 41.9125 168.492 41.5699 170.101 40.961ZM152.644 34.7892C152.724 35.5778 152.954 36.262 153.333 36.8204C155.818 39.5931 159.267 41.4562 163.14 41.8595C164.027 41.9363 164.921 41.6493 165.786 41.0294C163.354 40.7589 160.805 40.0028 158.374 38.8106C156.146 37.7177 154.189 36.3253 152.644 34.7892ZM76.3081 35.3263C78.0955 35.3263 78.9223 36.8616 78.9223 38.3741C78.9223 39.8867 78.0956 41.4229 76.3081 41.4229C74.5209 41.4229 73.6938 39.8866 73.6938 38.3741C73.6939 36.8617 74.521 35.3263 76.3081 35.3263ZM87.5513 35.3263C89.4279 35.3264 90.1098 36.7362 90.1098 38.5352H85.7749C85.7975 39.7612 86.3453 40.7921 87.7192 40.7921C88.5119 40.7919 89.1707 40.2078 89.3384 39.4171H90.0425C89.6964 40.7924 88.8582 41.4229 87.5063 41.4229C85.8305 41.4229 85.0485 39.9445 85.0483 38.3751C85.0483 36.816 85.8868 35.3263 87.5513 35.3263ZM98.1919 35.3263C100.069 35.3263 100.75 36.7362 100.75 38.5352H96.4155C96.4381 39.7612 96.9857 40.7921 98.3598 40.7921C99.1526 40.792 99.8115 40.2079 99.979 39.4171H100.683C100.337 40.7924 99.499 41.4229 98.147 41.4229C96.4711 41.4229 95.6891 39.9445 95.6889 38.3751C95.6889 36.816 96.5274 35.3263 98.1919 35.3263ZM115.322 35.3253C116.472 35.3253 117.412 36.0366 117.467 37.2628H116.741C116.685 36.3805 116.138 35.9563 115.21 35.9561C114.183 35.9561 113.546 37.056 113.545 38.3624C113.545 39.6801 114.183 40.7921 115.21 40.7921C116.082 40.7919 116.685 40.2424 116.741 39.4522H117.467C117.289 40.7699 116.55 41.4229 115.277 41.4229C113.601 41.4228 112.82 39.944 112.82 38.3741C112.82 36.8154 113.658 35.3254 115.322 35.3253ZM132.56 39.9561C132.56 40.4029 132.593 40.8618 132.616 41.2511H131.923L131.89 40.4024L131.868 40.3565C131.409 41.0445 130.728 41.4229 129.946 41.4229C128.281 41.4226 127.645 39.7955 127.645 38.3517C127.645 36.8623 128.281 35.3266 129.946 35.3263C130.694 35.3263 131.477 35.6925 131.868 36.3692L131.89 36.3458V32.9767H132.56V39.9561ZM72.8511 32.839C73.0629 32.839 73.2867 32.9186 73.4878 32.9649V33.5147C73.3538 33.4923 73.2082 33.4689 73.0747 33.4688C72.1581 33.4688 72.1358 33.9393 72.1694 34.7647V35.4972H73.4429V36.128H72.1694V41.2511H71.4985V36.128H70.3706V35.4972H71.4985V34.2716C71.4985 33.286 71.8899 32.839 72.8511 32.839ZM82.5239 35.337V36.002C82.39 35.9906 82.2449 35.9562 82.1108 35.9561C81.1164 35.9561 80.5909 36.6902 80.5688 37.7901V41.2511H79.8989V36.7931C79.9105 36.3457 79.8657 35.8871 79.8432 35.4972H80.5356L80.5688 36.3458H80.5913C80.7928 35.7616 81.2955 35.3489 81.854 35.3263C82.0772 35.3149 82.3007 35.3256 82.5239 35.337ZM92.9468 40.2999L94.813 35.4981H95.5493L93.3266 41.2511H92.5669L90.2768 35.4981H91.0141L92.9468 40.2999ZM104.418 35.337V36.002C104.285 35.9906 104.139 35.9561 104.005 35.9561C103.011 35.9562 102.485 36.6902 102.463 37.7901V41.2511H101.793V36.7931C101.805 36.3457 101.76 35.8871 101.738 35.4972H102.43L102.463 36.3458H102.486C102.687 35.7616 103.19 35.3489 103.749 35.3263C103.972 35.3149 104.195 35.3256 104.418 35.337ZM119.074 36.3683H119.095C119.486 35.6581 120.124 35.3263 120.85 35.3263C122.682 35.3265 122.827 36.9878 122.827 37.6524V41.2511H122.157V37.5382C122.157 36.5413 121.598 35.9563 120.682 35.9561C119.576 35.9561 119.074 36.9077 119.074 37.9386V41.2511H118.403V32.9767H119.074V36.3683ZM124.625 41.2511H123.956V35.4972H124.625V41.2511ZM126.614 41.2511H125.943V32.9767H126.614V41.2511ZM76.3081 35.9561C74.9563 35.9562 74.4205 37.3081 74.4204 38.3741C74.4204 39.4401 74.9562 40.792 76.3081 40.7921C77.6597 40.7921 78.1958 39.4402 78.1958 38.3741C78.1957 37.3081 77.6596 35.9561 76.3081 35.9561ZM130.058 35.9561C128.784 35.9561 128.371 37.1709 128.371 38.2706C128.371 39.3366 128.673 40.7921 129.958 40.7921C131.421 40.7919 131.868 39.543 131.868 38.2364C131.868 37.0677 131.365 35.9563 130.058 35.9561ZM168.774 38.0558C168.149 39.142 167.473 40.0292 166.765 40.7042C168.81 40.8271 170.681 40.5802 172.202 39.9767C172.287 39.928 172.374 39.8802 172.458 39.8302C171.234 39.2726 170.015 38.6654 168.811 37.9903C168.799 38.012 168.786 38.0343 168.774 38.0558ZM155.841 13.7442C155.433 13.9384 155.033 14.1468 154.645 14.3702C153.899 15.027 153.216 15.7557 152.605 16.545C152.148 17.5804 151.95 18.7484 151.994 19.9913H151.622C151.594 19.1483 151.673 18.346 151.859 17.5968C150.247 20.0769 149.307 23.0499 149.307 26.2462C149.307 29.8052 150.472 33.0869 152.434 35.7198C152.323 35.3056 152.26 34.8572 152.244 34.378C151.925 34.0398 151.624 33.6956 151.347 33.3468H151.843C151.973 33.5026 152.109 33.6578 152.248 33.8116C152.254 33.6592 152.263 33.5045 152.278 33.3468H152.653C152.623 33.6429 152.61 33.9287 152.613 34.2042C154.166 35.8214 156.195 37.2943 158.528 38.4386C161.122 39.7113 163.794 40.4462 166.247 40.6651C167.021 39.9942 167.766 39.0524 168.452 37.8604C168.462 37.8421 168.472 37.8233 168.483 37.8048C167.596 37.2972 166.718 36.7512 165.852 36.1593C164.298 35.79 162.728 35.2361 161.192 34.506C159.644 33.7825 158.23 32.9053 157.006 31.9024C156.595 31.5652 156.207 31.2124 155.84 30.8477V30.3126C156.957 31.4755 158.35 32.5419 159.96 33.4444C160.185 33.5694 160.413 33.6912 160.643 33.8097C160.66 33.8186 160.678 33.8273 160.695 33.836C160.818 33.8993 160.942 33.9623 161.067 34.0235C162.362 34.6589 163.67 35.1591 164.961 35.5284C164.419 35.1333 163.881 34.7204 163.35 34.2843C163.969 34.1734 167.122 33.1915 168.096 32.5255C166.83 31.4515 165.474 30.2861 164.116 29.0177V26.6017C165.074 27.4493 166.066 28.2809 167.082 29.0792C167.736 31.9651 169.749 33.4249 172.98 33.4249C173.167 33.4249 173.349 33.4194 173.528 33.4102C174.108 33.7284 174.689 34.0261 175.267 34.2979C173.72 35.3031 172.416 35.8856 170.778 36.3106C174.657 36.1999 177.813 34.6876 179.117 31.9044C179.784 30.1487 180.151 28.2414 180.151 26.2462C180.151 21.9581 178.461 18.0722 175.722 15.2393C175.238 14.7935 174.611 14.4943 173.867 14.3458C174.118 14.7156 174.302 15.0996 174.402 15.4845C174.558 16.0872 174.499 16.654 174.232 17.13C175.129 18.0156 175.913 18.9778 176.573 19.9913H176.122C175.516 19.093 174.81 18.238 174.011 17.4444C173.527 18.014 172.719 18.326 171.772 18.3673C171.882 18.8956 171.977 19.4373 172.055 19.9913H171.677C171.598 19.4376 171.501 18.8964 171.389 18.3692C170.461 18.3408 169.43 18.0696 168.453 17.547C167.689 17.1391 167.039 16.6235 166.552 16.0567C165.025 16.8617 163.488 17.9002 162.011 19.1261C162.333 19.424 162.658 19.7134 162.99 19.9913H156.648C156.288 19.3647 155.949 18.7218 155.638 18.0597C155.689 18.0645 155.74 18.0696 155.79 18.0743L155.63 18.0274C156.976 18.1883 158.4 18.1021 158.57 18.0909C157.699 16.9399 156.751 15.3814 155.841 13.7442ZM178.208 33.8741C176.826 35.3329 174.756 36.277 172.184 36.5899C171.683 36.6506 171.17 36.6859 170.65 36.6974C171.548 37.4965 172.591 38.2671 173.712 39.004C175.557 37.6559 177.097 35.903 178.208 33.8741ZM87.562 35.9561C86.4673 35.9562 85.8868 36.8962 85.7973 37.9044H89.3833C89.3048 36.793 88.7241 35.9561 87.562 35.9561ZM98.2026 35.9561C97.1079 35.9563 96.5274 36.8962 96.438 37.9044H100.024C99.9457 36.793 99.3647 35.9561 98.2026 35.9561ZM124.681 33.836H123.899V32.9767H124.681V33.836ZM171.201 21.1007C171.297 21.1007 171.374 21.1801 171.374 21.2784V26.6749C171.374 27.8618 171.679 29.2762 173.129 29.2765C174.31 29.2765 174.884 28.4256 174.884 26.6749V21.2784C174.884 21.1802 174.962 21.1007 175.058 21.1007H178.205C178.3 21.1007 178.378 21.1801 178.378 21.2784V26.7735C178.378 30.414 176.519 32.3379 173.002 32.338C169.604 32.338 167.88 30.4382 167.88 26.6915V21.2784C167.881 21.1803 167.959 21.1009 168.054 21.1007H171.201ZM154.59 21.1007C154.686 21.1007 154.764 21.1802 154.764 21.2784V32.0616C154.764 32.1601 154.686 32.2403 154.59 32.2403H151.444C151.348 32.2402 151.27 32.16 151.27 32.0616V21.2784C151.27 21.1802 151.348 21.1008 151.444 21.1007H154.59ZM165.959 21.1007C166.055 21.1009 166.133 21.1803 166.133 21.2784V23.9337C166.133 24.0322 166.055 24.1122 165.959 24.1124H163.211C163.116 24.1126 163.038 24.1919 163.038 24.2901V32.0616C163.038 32.1601 162.96 32.2403 162.864 32.2403H159.717C159.621 32.2402 159.543 32.16 159.543 32.0616V24.2901C159.543 24.1918 159.466 24.1124 159.37 24.1124H156.686C156.59 24.1122 156.512 24.0322 156.512 23.9337V21.2784C156.512 21.1803 156.59 21.1009 156.686 21.1007H165.959ZM132.563 29.1895H70.4682V28.8429H132.563V29.1895ZM124.576 22.212C125.63 21.7757 127.336 21.4926 129.52 22.0811L129.766 22.1466L129.53 22.2433C128.532 22.6484 127.283 22.7681 126.56 22.5255C126.286 22.4329 126.121 22.2852 125.918 22.0899C125.577 22.1249 125.241 22.227 124.919 22.3731C125.21 22.5323 126.125 23.0751 126.743 23.877L126.788 23.9347L126.738 23.9874C126.687 24.0417 126.567 24.1349 126.489 24.1612L126.434 24.1778C126.43 24.1734 126.397 24.1356 126.397 24.1349C125.955 23.5887 125.312 22.9645 124.575 22.5479C123.838 22.9645 123.195 23.5888 122.753 24.1349C122.753 24.1356 122.719 24.1744 122.716 24.1778L122.663 24.1602C122.584 24.1338 122.463 24.0415 122.414 23.9874L122.365 23.9347L122.409 23.877C123.025 23.0757 123.939 22.5339 124.231 22.3741C123.909 22.2279 123.574 22.125 123.232 22.0899C123.029 22.2851 122.865 22.4339 122.592 22.5265C121.868 22.7689 120.618 22.6484 119.622 22.2433L119.385 22.1466L119.631 22.0811C121.815 21.4926 123.52 21.7758 124.576 22.212ZM72.0561 18.881C72.0561 20.4149 72.411 21.5429 74.0249 21.5431C74.7169 21.5431 75.6563 21.1899 76.0112 20.2745C76.3298 19.4454 76.3491 18.4049 76.3491 18.1935V13.6446H78.0347V22.4952H76.3843V21.1895H76.3491C75.6745 22.3011 74.5398 22.7588 73.2973 22.7589C71.435 22.7589 70.3707 21.3487 70.3706 19.5685V13.6446H72.0561V18.881ZM96.1235 13.3995C97.9912 13.3995 99.4004 14.5745 99.4858 16.4835H97.8139C97.7259 15.3793 97.1968 14.6104 95.9975 14.6104C94.3961 14.6107 93.7779 15.992 93.7778 18.0597C93.7778 20.1264 94.396 21.5116 95.9975 21.5118C97.1066 21.5118 97.7949 20.7949 97.8833 19.5313H99.5591C99.4159 21.5111 97.937 22.7197 95.98 22.7198C93.1435 22.7198 92.0151 20.7233 92.0151 18.13C92.0153 15.552 93.3185 13.3995 96.1235 13.3995ZM104.419 13.3995C107.062 13.4544 108.312 15.1167 108.312 17.5538V18.3741H102.076C101.952 19.916 102.586 21.5116 104.294 21.5118C105.599 21.5118 106.251 21.0048 106.444 19.7227H108.208C107.943 21.7225 106.392 22.7188 104.279 22.7188C101.44 22.7188 100.311 20.7238 100.311 18.131C100.311 15.5522 101.618 13.3995 104.419 13.3995ZM84.1313 13.381C84.7516 13.381 87.5013 13.5393 87.5014 16.377V22.4952H85.8169V16.9239C85.8169 15.4608 85.1957 14.6681 83.7768 14.6681C83.7768 14.6681 82.8531 14.6149 82.144 15.3194C81.8957 15.5664 81.4351 15.9542 81.435 17.6817V22.4952H79.7495V13.6446H81.3989V14.9493H81.435C82.0015 13.8387 83.2439 13.381 84.1313 13.381ZM90.7563 22.4874H89.0708V13.6368H90.7563V22.4874ZM112.977 9.33701C113.382 9.33706 113.771 9.4412 114.177 9.51083V10.8936C113.893 10.8789 113.612 10.8399 113.329 10.8399C112.379 10.84 111.832 11.0885 111.883 12.0499V13.6612H113.929V14.8194H111.883V22.4571H110.209V14.8194H108.687V13.6612H110.209V11.7716C110.264 9.84458 111.725 9.33701 112.977 9.33701ZM117.449 19.9415C118.121 20.0508 120.024 21.1185 120.317 21.5509L120.39 21.6593L120.259 21.6817C118.692 21.9543 117.854 20.8931 117.36 20.0704L117.313 19.9913L117.265 19.9112L117.449 19.9415ZM131.791 20.0704C131.297 20.8933 130.46 21.9552 128.891 21.6827L128.76 21.6593L128.834 21.5509C129.127 21.1183 131.03 20.0509 131.703 19.9415L131.886 19.9122L131.791 20.0704ZM119.823 19.4415C120.33 19.7877 121.784 21.0214 121.891 21.4454L121.916 21.544L121.815 21.5518C120.229 21.6875 119.848 20.4628 119.699 19.5294L119.684 19.4464L119.67 19.3634L119.823 19.4415ZM129.467 19.4464L129.454 19.5294C129.304 20.4628 128.922 21.6875 127.335 21.5518L127.236 21.544L127.26 21.4454C127.367 21.0214 128.82 19.7877 129.329 19.4415L129.48 19.3634L129.467 19.4464ZM124.564 9.34579C127.8 9.34579 130.434 11.9627 130.434 15.1798C130.434 18.3961 127.8 21.0128 124.564 21.0128C121.327 21.0126 118.694 18.3959 118.694 15.1798C118.694 11.9629 121.327 9.34599 124.564 9.34579ZM118.732 17.5997C119.099 18.0816 119.57 19.6605 119.588 20.2872C119.588 20.2947 119.579 20.3962 119.579 20.4044L119.554 20.5538L119.443 20.4845C118.786 20.0664 118.443 19.4621 118.42 18.6915C118.411 18.3509 118.466 17.992 118.582 17.6251L118.605 17.545L118.63 17.4669L118.732 17.5997ZM130.544 17.546L130.569 17.6251C130.685 17.9923 130.739 18.351 130.73 18.6925C130.708 19.4629 130.364 20.0659 129.708 20.4845L129.596 20.5528L129.573 20.4054C129.572 20.4026 129.563 20.2911 129.563 20.2872C129.58 19.6597 130.05 18.0808 130.418 17.5987L130.519 17.4669L130.544 17.546ZM116.337 17.3936C117.1 17.8743 118.287 19.331 118.517 19.9561L118.579 20.1212L118.41 20.0665C117.178 19.6741 116.379 18.3195 116.207 17.4835L116.187 17.3839L116.166 17.2843L116.337 17.3936ZM132.965 17.3839L132.944 17.4835C132.771 18.3193 131.973 19.6735 130.742 20.0665L130.573 20.1212L130.634 19.9552C130.864 19.33 132.051 17.8742 132.814 17.3936L132.986 17.2852L132.965 17.3839ZM122.46 9.9874C120.357 10.8288 118.984 12.8049 118.934 15.0509C119.247 14.7797 119.663 14.5045 119.845 14.419C120.075 14.3112 120.275 14.0616 120.206 13.7852C120.136 13.5107 119.804 12.4635 120.468 11.7472C121.134 11.0308 122.166 10.9635 123.185 11.8028C124.252 12.6823 123.647 13.5302 123.49 13.7315C123.393 13.8545 123.293 14.0416 123.365 14.214C123.495 14.5257 123.278 14.4312 123.199 14.5499C123.169 14.5912 123.233 14.694 123.177 14.7433C123.123 14.7911 123.099 14.7709 123.077 14.8116C123.056 14.8526 123.112 14.9285 123.053 14.9669C123.006 14.9959 122.944 14.9363 122.859 15.0421C122.77 15.1505 122.718 15.285 122.395 15.294C122.125 15.3004 121.626 15.0103 121.445 15.2804C121.376 15.3837 121.396 15.4765 121.418 15.5343C121.521 15.8023 121.722 17.3575 121.702 17.462C121.923 17.8451 122.633 17.6748 122.873 17.7931C122.9 17.8069 122.977 17.8131 123.053 17.7442C123.129 17.6754 123.365 17.4858 123.544 17.503C123.614 17.5091 123.737 17.4929 123.656 17.6554C123.628 17.71 123.704 17.7178 123.759 17.6895C123.815 17.6624 124.258 17.483 124.071 18.1231C123.884 18.7626 123.423 18.7266 123.087 18.6056C123.011 18.5778 122.956 18.5639 122.831 18.6056C122.704 18.6476 121.827 18.7839 121.646 18.7765C121.467 18.7703 121.147 18.7839 120.933 18.5704C120.802 18.7566 120.672 19.0331 120.747 19.2901C120.928 19.457 121.121 19.6122 121.323 19.754C121.697 19.8471 122.177 19.8008 122.541 19.6729C122.637 19.6382 123.78 19.1276 124.424 19.1017C124.95 19.0814 124.964 18.6266 124.862 18.379C124.775 18.1731 124.758 17.8617 124.75 17.669C124.744 17.4758 124.694 17.2078 124.315 16.9249C123.933 16.642 123.705 16.4711 123.705 16.2227C123.705 16.0852 123.79 15.9053 123.863 15.8643C123.939 15.8219 123.96 15.7271 123.954 15.6729C123.947 15.616 123.883 15.4102 124.113 15.4102C124.154 15.4102 124.23 15.3688 124.23 15.2862C124.23 15.2035 124.156 14.9308 124.341 14.9835C124.389 14.9974 124.473 14.935 124.473 14.8458C124.473 14.7573 124.129 14.3289 124.675 14.3497C125.044 14.3616 125.469 14.2014 125.644 13.9825C126.495 12.9152 127.816 12.7074 129.059 13.8956C130.211 14.9972 129.977 16.6876 129.226 17.4493C128.561 18.1236 128.021 18.2744 127.508 18.2745C127.411 18.2745 127.259 18.1778 127.217 18.3985C127.175 18.6157 127.19 19.2066 127.971 19.6329C129.322 18.6085 130.195 16.9932 130.195 15.1798C130.195 14.0872 129.878 13.0307 129.279 12.1212C128.964 12.3311 128.635 12.5189 128.301 12.6837C128.326 12.7407 128.43 12.9903 128.43 12.9903L128.466 13.0772L128.151 12.9376C128.15 12.9347 128.106 12.8356 128.084 12.7862C128.029 12.8105 127.942 12.8478 127.938 12.8497C127.938 12.8497 127.746 12.7894 127.493 12.7618C127.493 12.7618 127.808 12.6505 127.982 12.5704C127.789 12.1887 127.556 11.8288 127.287 11.4991C126.952 11.682 126.599 11.8317 126.233 11.9444C126.35 12.233 126.572 12.9288 126.572 12.9288L126.342 13.0001C126.342 13.0001 126.12 12.2998 126.001 12.0118C125.568 12.1245 125.126 12.1852 124.684 12.1944V13.3038C124.739 13.3003 124.842 13.295 124.842 13.295C125.144 13.2783 125.479 13.2558 125.859 13.2061L126.032 13.1905L125.715 13.4688L125.7 13.4698C125.34 13.5013 125.042 13.5257 124.684 13.5431V13.9435H124.44V12.1944C124.319 12.1911 123.997 12.1803 123.892 12.172L123.869 12.17L123.858 12.1495C123.832 12.0995 123.802 12.0439 123.764 11.9884L123.713 11.9142L123.804 11.9229C123.948 11.9374 124.302 11.9527 124.44 11.9561V10.9942C124.191 10.9838 123.946 10.9394 123.71 10.8614C123.605 11.0363 123.327 11.5557 123.325 11.5606C123.321 11.5577 123.289 11.5277 123.238 11.4942C123.185 11.4587 123.125 11.4239 123.125 11.4239C123.125 11.4239 123.382 10.9434 123.484 10.7716C123.294 10.6883 123.113 10.5843 122.949 10.4601C122.741 10.609 122.303 10.9796 122.288 10.9923C122.288 10.9923 122.192 10.9636 122.147 10.9532C122.084 10.9377 122.016 10.9274 122.012 10.9268C122.026 10.9144 122.526 10.4709 122.758 10.3028C122.65 10.2032 122.55 10.0987 122.46 9.9874ZM165.846 12.8302C163.604 12.2716 161.316 12.195 159.139 12.63C158.379 12.7819 157.651 12.9933 156.96 13.2589C156.959 13.2595 156.957 13.2602 156.956 13.2608C156.947 13.2641 156.939 13.2685 156.93 13.2716C158.477 15.3771 160.042 17.2559 161.731 18.8634C163.219 17.6248 164.768 16.5737 166.309 15.754C166.007 15.3419 165.79 14.9087 165.677 14.4747C165.521 13.8726 165.58 13.3061 165.846 12.8302ZM118.263 15.8009C118.31 15.959 118.339 16.1914 118.346 16.4718C118.365 17.2644 118.234 18.2671 118.068 18.5763L118 18.7022L117.92 18.5831C117.681 18.2322 117.553 17.8537 117.543 17.4581C117.531 16.9232 117.726 16.3428 118.109 15.7774L118.162 15.7013L118.213 15.6261L118.263 15.8009ZM131.041 15.7774C131.425 16.343 131.62 16.9234 131.607 17.4581C131.598 17.8537 131.471 18.232 131.232 18.5831L131.151 18.7022L131.083 18.5772C130.918 18.2674 130.787 17.2642 130.806 16.4718C130.813 16.1915 130.841 15.9588 130.888 15.8009L130.94 15.6251L131.041 15.7774ZM170.973 15.5186C171.256 16.2957 171.495 17.1269 171.691 17.9962C172.57 17.9733 173.312 17.6998 173.74 17.1817C172.842 16.3283 171.835 15.5505 170.724 14.8761C170.81 15.0839 170.893 15.2979 170.973 15.5186ZM170.191 14.5919C169.848 14.6832 169.496 14.7911 169.136 14.9171C168.401 15.1752 167.653 15.4979 166.903 15.8761C167.354 16.3804 167.945 16.8437 168.625 17.2071C169.522 17.6862 170.462 17.945 171.305 17.9903C171.117 17.1709 170.89 16.3875 170.623 15.6534C170.487 15.2815 170.343 14.9271 170.191 14.5919ZM116.127 14.8399C116.614 15.4303 117.262 17.0775 117.283 17.63L117.29 17.796L117.149 17.7052C115.964 16.9333 115.933 15.4798 115.975 14.8897L115.983 14.7813L115.99 14.6729L116.127 14.8399ZM133.168 14.7813L133.176 14.8897C133.218 15.4794 133.187 16.933 132.001 17.7052C132.001 17.7058 131.868 17.7928 131.863 17.796L131.869 17.63C131.888 17.0776 132.538 15.4303 133.023 14.8399L133.162 14.6729L133.168 14.7813ZM104.294 14.6104C102.901 14.6106 102.076 15.7805 102.076 17.2198H106.551C106.586 15.7489 105.915 14.6104 104.294 14.6104ZM173.333 14.2667C172.568 14.1906 171.702 14.253 170.76 14.4552C171.936 15.1533 173.003 15.9628 173.95 16.8565C174.129 16.4867 174.16 16.0507 174.04 15.5841C173.925 15.1425 173.679 14.6926 173.333 14.2667ZM118.198 14.1007C118.224 14.7241 117.742 16.0639 117.379 16.5714L117.282 16.7081L117.228 16.5489C117.168 16.3778 117.134 16.2136 117.124 16.0606C117.058 15.067 117.817 14.2645 118.052 14.0421L118.123 13.9767L118.19 13.9112L118.198 14.1007ZM131.031 13.9767L131.099 14.0421C131.334 14.2639 132.094 15.0672 132.028 16.0606C132.018 16.2136 131.983 16.3772 131.924 16.5489L131.87 16.7081L131.771 16.5714C131.408 16.0636 130.928 14.7237 130.953 14.1007L130.96 13.9112L131.031 13.9767ZM166.21 12.9542C165.961 13.3534 165.902 13.845 166.04 14.3761C166.143 14.7769 166.356 15.1848 166.653 15.5753C167.446 15.1709 168.237 14.8265 169.015 14.5538C169.26 14.4678 169.502 14.3909 169.739 14.3204C168.6 13.7225 167.421 13.2572 166.227 12.9298C166.222 12.9379 166.215 12.946 166.21 12.9542ZM116.688 12.5157C116.93 13.1305 117.041 14.5081 116.958 15.1651L116.882 15.5372L116.824 15.463C116.824 15.463 116.77 15.3929 116.768 15.3907C116.262 14.7794 116.245 13.9602 116.319 13.381C116.372 12.972 116.472 12.6643 116.527 12.5177L116.566 12.4112L116.604 12.3067L116.688 12.5157ZM132.585 12.4112L132.625 12.5177C132.68 12.6645 132.779 12.972 132.832 13.381C132.907 13.9602 132.889 14.7797 132.383 15.3917C132.379 15.3969 132.328 15.464 132.328 15.464L132.268 15.5372L132.193 15.1661C132.109 14.5083 132.22 13.1306 132.463 12.5157L132.547 12.3067L132.585 12.4112ZM118.692 12.3126C118.508 12.9043 117.887 13.9479 117.391 14.3556L117.258 14.4669L117.25 14.2765C117.217 13.4448 117.647 12.7707 118.564 12.2149L118.662 12.1554L118.758 12.0968L118.692 12.3126ZM130.535 12.129L130.631 12.1895C131.537 12.763 131.953 13.4461 131.904 14.2765L131.893 14.4669L131.761 14.3536C131.273 13.9357 130.673 12.8813 130.502 12.2852L130.44 12.0685L130.535 12.129ZM169.049 11.9903C169.541 12.5743 169.994 13.2947 170.399 14.1427C171.324 13.9178 172.179 13.8183 172.95 13.8448C172.534 13.4337 172.025 13.0584 171.454 12.753C170.654 12.3257 169.819 12.0722 169.049 11.9903ZM167.813 10.8643C168.114 11.0633 168.406 11.3062 168.686 11.5909C169.615 11.6189 170.647 11.8893 171.626 12.4122C172.383 12.8168 173.027 13.327 173.513 13.8878C173.863 13.9307 174.193 14.0034 174.5 14.1036C172.598 12.5156 170.315 11.3815 167.813 10.8643ZM168.5 11.961C167.674 11.9623 166.96 12.1797 166.499 12.6075C167.651 12.937 168.787 13.3926 169.888 13.9688C169.47 13.1648 169.003 12.4904 168.5 11.961ZM118.213 11.0558C118.066 11.912 117.704 12.6541 117.223 13.0929L117.113 13.1925C117.113 13.1925 117.076 13.0278 117.074 13.0186C117.074 13.0186 117.062 12.9598 117.061 12.9571C116.94 12.0796 117.727 11.28 118.072 10.9776L118.163 10.8966L118.255 10.8145L118.213 11.0558ZM130.988 10.8966L131.081 10.9767C131.425 11.2799 132.211 12.0803 132.089 12.9571C132.088 12.9632 132.077 13.0138 132.077 13.0177C132.077 13.0191 132.04 13.1841 132.039 13.1915L131.929 13.0919C131.447 12.6538 131.085 11.9123 130.938 11.0558L130.896 10.8145L130.988 10.8966ZM164.729 10.5499C161.764 10.5499 158.995 11.4028 156.644 12.879C156.662 12.9035 156.68 12.9278 156.698 12.9522C156.72 12.9431 156.743 12.9339 156.765 12.9249V12.9239C157.493 12.6395 158.262 12.4147 159.067 12.254C161.345 11.7987 163.741 11.8894 166.083 12.4952C166.538 11.9725 167.271 11.6729 168.132 11.6036C167.492 11.037 166.803 10.6973 166.091 10.6104C165.642 10.5706 165.188 10.5499 164.729 10.5499ZM128.18 10.8907C127.968 11.069 127.738 11.232 127.498 11.378C127.769 11.716 128.004 12.0825 128.197 12.4679C128.525 12.308 128.842 12.1256 129.142 11.9239C128.867 11.5424 128.544 11.194 128.18 10.8907ZM125.422 10.8614C125.184 10.9408 124.936 10.9843 124.684 10.9962V11.9561C125.095 11.9472 125.506 11.8907 125.905 11.7892C125.763 11.4687 125.602 11.1578 125.422 10.8614ZM126.185 10.461C126.018 10.586 125.839 10.689 125.65 10.7726C125.833 11.0791 125.997 11.399 126.139 11.7237C126.48 11.6202 126.813 11.4824 127.127 11.3136C126.845 10.997 126.529 10.7092 126.185 10.461ZM90.9165 11.5743H88.9116V9.7579H90.9165V11.5743ZM126.672 9.98837C126.582 10.1011 126.483 10.207 126.375 10.3048C126.729 10.5664 127.053 10.8643 127.341 11.1925C127.569 11.0569 127.787 10.9046 127.989 10.7384C127.583 10.4289 127.141 10.1763 126.672 9.98837ZM124.44 9.83505C124.224 10.0973 124.023 10.3701 123.843 10.6495C124.037 10.7087 124.238 10.7447 124.44 10.755V9.83505ZM124.684 10.755C124.89 10.7456 125.094 10.7094 125.291 10.6495C125.104 10.3597 124.9 10.0837 124.684 9.82431V10.755ZM124.173 9.78622C123.817 9.93165 123.477 10.1087 123.161 10.3175C123.3 10.4161 123.45 10.5001 123.611 10.5675C123.782 10.2963 123.973 10.0354 124.173 9.78622ZM124.958 9.78427C125.162 10.0387 125.354 10.3004 125.524 10.5675C125.682 10.5005 125.833 10.4168 125.974 10.3175C125.655 10.1076 125.314 9.92885 124.958 9.78427ZM125.19 9.62216C125.534 9.77187 125.864 9.95278 126.173 10.1642C126.267 10.0828 126.354 9.99492 126.434 9.90048C126.035 9.76056 125.618 9.66812 125.19 9.62216ZM123.951 9.62021C123.522 9.66535 123.103 9.75759 122.699 9.89853C122.779 9.99023 122.864 10.079 122.958 10.1632C123.271 9.95116 123.603 9.77034 123.951 9.62021Z" fill="#FFFFFF"/>
<path d="M55.9144 0.286909V49.4688" stroke="#CACACA"/>
<path d="M40.6042 0.803144C40.7247 0.584497 40.6806 0.312678 40.4969 0.143889C40.3144 -0.0250654 40.0394 -0.0477574 39.8317 0.0893939C33.861 4.03515 26.3404 9.8008 20.532 16.8853C18.2188 16.0144 16.0764 15.3925 14.1566 14.9526C14.1573 14.9764 14.16 14.9998 14.16 15.0238C14.16 15.3854 14.072 15.7265 13.9199 16.0299C15.7491 16.446 17.7232 17.0133 19.8138 17.7794C18.1988 19.8319 16.7332 21.9897 15.4949 24.2421C14.3476 26.3282 13.5764 28.1645 13.0555 29.6967C12.941 28.7875 12.7578 27.8014 12.4731 26.7713C11.4489 23.0722 8.88859 18.1839 2.54436 15.0581C4.09858 14.937 6.55139 14.8865 9.6734 15.2787C9.66363 15.1946 9.65783 15.1098 9.65783 15.0238C9.65783 14.7268 9.71679 14.4434 9.82214 14.1838C4.1057 13.4663 0.58516 14.2007 0.427304 14.235C0.194413 14.2849 0.0216488 14.4822 0.00210309 14.7197C-0.0179395 14.9571 0.120537 15.1797 0.342496 15.2676C6.15617 17.5666 9.88244 21.5206 11.4178 27.0193C11.8927 28.7202 12.0732 30.3145 12.1211 31.6047C12.3974 31.4831 12.7021 31.4152 13.0225 31.4152C13.0833 31.4152 13.1434 31.419 13.203 31.4242C13.3538 31.4359 13.4994 31.4631 13.6403 31.5032C14.1101 29.7807 14.9577 27.4494 16.4938 24.6724C17.7464 22.4085 19.2354 20.242 20.8762 18.1819C22.6653 18.8833 24.5326 19.7304 26.4621 20.752C26.5804 20.4012 26.783 20.0895 27.0463 19.8397C25.1551 18.8336 23.331 17.9949 21.5944 17.2987C26.7921 11.038 33.3439 5.82474 38.8748 2.03767C38.4613 3.11434 37.9489 4.67767 37.5056 6.71705C37.5348 6.71639 37.5639 6.71324 37.5931 6.71324C37.9457 6.71324 38.2788 6.79672 38.5765 6.94216C38.6911 6.41492 38.8075 5.92512 38.9227 5.48583C39.7211 2.43041 40.5953 0.818052 40.6042 0.803144Z" fill="#277AFF"/>
<path d="M36.801 11.0691C36.5544 13.2929 36.4315 15.8525 36.5357 18.7416C35.6026 18.9273 33.3742 19.4223 30.5661 20.389C30.7409 20.7067 30.8411 21.0702 30.8437 21.4567C34.4489 20.2053 37.1167 19.7328 37.186 19.7213C37.4551 19.6754 37.6486 19.4365 37.6362 19.1635C37.5024 16.1257 37.633 13.4592 37.886 11.1945C37.7902 11.2069 37.6925 11.2159 37.593 11.2159C37.314 11.2159 37.0475 11.1622 36.801 11.0691Z" fill="#277AFF"/>
<path d="M34.4231 25.8028C32.7079 25.7781 29.8931 25.852 26.7312 26.3948C22.5221 27.1162 18.9757 28.4718 16.2141 30.3805C19.274 27.0275 23.265 24.6471 26.9447 22.9991C26.6943 22.7293 26.5099 22.3987 26.4153 22.0311C22.3126 23.8779 17.2559 26.9157 13.8499 31.5744C14.0312 31.6468 14.1999 31.7412 14.3547 31.8552C14.647 32.0713 14.8852 32.3552 15.0457 32.6847C22.3785 25.9081 35.9197 26.9409 36.0704 26.9532C36.3086 26.9719 36.5317 26.8341 36.6192 26.6116C36.7064 26.3883 36.6372 26.1347 36.4489 25.9878C34.5228 24.4783 32.6269 23.1576 30.7796 21.9995C30.6917 22.3624 30.5169 22.6899 30.2769 22.961C31.6377 23.8164 33.0209 24.7604 34.4231 25.8028Z" fill="#277AFF"/>
<path d="M28.5933 20.2168C28.3157 20.2168 28.0608 20.3107 27.8531 20.464C27.5819 20.6639 27.3918 20.968 27.3484 21.3187C27.3419 21.3685 27.3393 21.4197 27.3393 21.4714C27.3393 21.9897 27.6558 22.4363 28.1054 22.6271C28.2556 22.6905 28.4199 22.7255 28.5933 22.7255C28.6793 22.7255 28.7641 22.717 28.8456 22.7001C29.4169 22.583 29.8472 22.0765 29.8472 21.4714C29.8472 20.7798 29.2849 20.2168 28.5933 20.2168Z" fill="black"/>
<path d="M11.6565 16.2525C11.738 16.2693 11.8228 16.2784 11.9088 16.2784C12.6005 16.2784 13.1627 15.7154 13.1627 15.0238C13.1627 14.3321 12.6005 13.7697 11.9088 13.7697C11.2171 13.7697 10.6549 14.3321 10.6549 15.0238C10.6549 15.6287 11.0852 16.1353 11.6565 16.2525Z" fill="black"/>
<path d="M36.7906 8.00853C36.6534 8.12365 36.5408 8.26676 36.462 8.42843C36.3836 8.59092 36.3389 8.77197 36.3389 8.96428C36.3389 9.01861 36.3422 9.07161 36.3493 9.12396C36.3959 9.48953 36.6004 9.80657 36.8921 10.004C37.0927 10.1392 37.3334 10.2188 37.593 10.2188C37.7664 10.2188 37.9307 10.1839 38.0808 10.1198C38.4379 9.9684 38.7071 9.65467 38.8041 9.27287C38.8171 9.22301 38.8282 9.17249 38.8353 9.12147C38.8431 9.07029 38.8469 9.01795 38.8469 8.96428C38.8469 8.27322 38.2847 7.71021 37.593 7.71021C37.2862 7.71021 37.0086 7.82549 36.7906 8.00853Z" fill="black"/>
<path d="M13.9087 32.7798C13.8971 32.7682 13.8822 32.7591 13.8693 32.7475C13.7638 32.6504 13.6442 32.5676 13.5102 32.5113C13.3601 32.4471 13.1958 32.4122 13.0224 32.4122C12.3313 32.4122 11.7683 32.9752 11.7683 33.6661C11.7683 34.0984 11.9885 34.4801 12.3216 34.706C12.389 34.7512 12.46 34.7902 12.5351 34.8218C12.6853 34.8852 12.8496 34.9208 13.0224 34.9208C13.3537 34.9208 13.6545 34.792 13.8791 34.5818C13.9114 34.5513 13.9419 34.5203 13.9702 34.4867C14.0033 34.4484 14.0336 34.409 14.0621 34.3669C14.1975 34.167 14.2763 33.9257 14.2763 33.6661C14.2763 33.3355 14.1456 33.0367 13.9359 32.8121C13.9263 32.8025 13.9185 32.79 13.9087 32.7798Z" fill="black"/>
<path d="M5.25929 38.5067C5.25929 38.9551 5.36149 39.3097 5.56655 39.5711C5.77046 39.8325 6.08219 39.9631 6.5016 39.9631C6.92531 39.9631 7.23588 39.8325 7.43333 39.5711C7.63061 39.3097 7.729 38.9551 7.729 38.5067C7.729 37.5108 7.32003 37.0127 6.5016 37.0127C5.67339 37.0127 5.25929 37.5108 5.25929 38.5067ZM4.4387 45.2352C4.4387 45.5458 4.58761 45.7898 4.88593 45.967C5.18409 46.1449 5.60216 46.2337 6.13917 46.2337C6.94734 46.2337 7.58075 46.1224 8.03958 45.9004C8.49757 45.6784 8.72732 45.3757 8.72732 44.9914C8.72732 44.6808 8.59149 44.4666 8.32034 44.3475C8.04918 44.2297 7.63061 44.1701 7.06312 44.1701H5.89518C5.48108 44.1701 5.13506 44.2678 4.85612 44.4626C4.57784 44.6574 4.4387 44.915 4.4387 45.2352ZM10.8199 35.8001V36.946L9.52571 37.2793C9.76257 37.6486 9.88101 38.0627 9.88101 38.5209C9.88101 39.4086 9.57109 40.0996 8.95242 40.5952C8.33392 41.0903 7.4754 41.3381 6.37604 41.3381L5.96906 41.3161L5.63645 41.2792C5.40489 41.4566 5.28894 41.6539 5.28894 41.8707C5.28894 42.1962 5.70304 42.3585 6.53125 42.3585H7.93605C8.8431 42.3585 9.53416 42.5533 10.0097 42.9427C10.4859 43.3323 10.7235 43.9043 10.7235 44.6581C10.7235 45.6241 10.3203 46.374 9.51478 46.9065C8.7086 47.4384 7.5516 47.7049 6.04343 47.7049C4.88974 47.7049 4.00853 47.5038 3.39963 47.1026C2.79074 46.7001 2.48662 46.1373 2.48662 45.4124C2.48662 44.915 2.64199 44.4983 2.95257 44.1632C3.26314 43.8279 3.71866 43.5885 4.32043 43.4456C4.0887 43.3472 3.88629 43.186 3.71419 42.9616C3.54142 42.737 3.45529 42.4996 3.45529 42.2478C3.45529 41.9328 3.54656 41.6701 3.72893 41.4604C3.9108 41.2508 4.17483 41.045 4.5197 40.8432C4.08622 40.6555 3.74185 40.3552 3.48825 39.9411C3.23465 39.527 3.10777 39.0385 3.10777 38.4768C3.10777 37.5749 3.40096 36.8774 3.98782 36.3845C4.57403 35.8913 5.41201 35.6449 6.5016 35.6449C6.73316 35.6449 7.00813 35.6656 7.32583 35.7076C7.64419 35.7497 7.84743 35.7807 7.93605 35.8001H10.8199Z" fill="#FFFFFF"/>
<path d="M11.8881 35.8001H14.143V44.0666H11.8881V35.8001Z" fill="#FFFFFF"/>
<path d="M17.859 38.5067C17.859 38.9551 17.9612 39.3097 18.1657 39.5711C18.3701 39.8325 18.682 39.9631 19.1006 39.9631C19.5251 39.9631 19.8357 39.8325 20.0323 39.5711C20.2298 39.3097 20.3287 38.9551 20.3287 38.5067C20.3287 37.5108 19.9192 37.0127 19.1006 37.0127C18.2731 37.0127 17.859 37.5108 17.859 38.5067ZM17.0379 45.2352C17.0379 45.5458 17.1873 45.7898 17.4856 45.967C17.7833 46.1449 18.2012 46.2337 18.739 46.2337C19.547 46.2337 20.1806 46.1224 20.6392 45.9004C21.0974 45.6784 21.3265 45.3757 21.3265 44.9914C21.3265 44.6808 21.1912 44.4666 20.92 44.3475C20.649 44.2297 20.2298 44.1701 19.663 44.1701H18.4944C18.0803 44.1701 17.7341 44.2678 17.4558 44.4626C17.177 44.6574 17.0379 44.915 17.0379 45.2352ZM23.4189 35.8001V36.946L22.1255 37.2793C22.3618 37.6486 22.48 38.0627 22.48 38.5209C22.48 39.4086 22.1708 40.0996 21.5523 40.5952C20.9338 41.0903 20.0744 41.3381 18.9751 41.3381L18.5687 41.3161L18.2361 41.2792C18.0039 41.4566 17.8888 41.6539 17.8888 41.8707C17.8888 42.1962 18.3022 42.3585 19.1304 42.3585H20.5357C21.4423 42.3585 22.134 42.5533 22.6095 42.9427C23.0851 43.3323 23.3231 43.9043 23.3231 44.6581C23.3231 45.6241 22.9201 46.374 22.114 46.9065C21.3083 47.4384 20.1508 47.7049 18.6424 47.7049C17.4889 47.7049 16.6075 47.5038 15.9993 47.1026C15.3906 46.7001 15.0858 46.1373 15.0858 45.4124C15.0858 44.915 15.241 44.4983 15.5516 44.1632C15.8622 43.8279 16.3183 43.5885 16.9194 43.4456C16.6879 43.3472 16.486 43.186 16.3132 42.9616C16.1404 42.737 16.0545 42.4996 16.0545 42.2478C16.0545 41.9328 16.1456 41.6701 16.3281 41.4604C16.5105 41.2508 16.7745 41.045 17.1194 40.8432C16.6852 40.6555 16.3417 40.3552 16.0881 39.9411C15.8337 39.527 15.7069 39.0385 15.7069 38.4768C15.7069 37.5749 16 36.8774 16.5868 36.3845C17.1737 35.8913 18.0117 35.6449 19.1006 35.6449C19.3328 35.6449 19.6073 35.6656 19.9257 35.7076C20.2434 35.7497 20.4464 35.7807 20.5357 35.8001H23.4189Z" fill="#FFFFFF"/>
<path d="M28.9549 40.2368L28.0828 40.2666C27.4267 40.286 26.9387 40.4044 26.6186 40.6213C26.2982 40.8379 26.1377 41.1685 26.1377 41.6118C26.1377 42.2479 26.5028 42.5662 27.2326 42.5662C27.7547 42.5662 28.1728 42.4155 28.4858 42.1145C28.7984 41.8144 28.9549 41.4152 28.9549 40.9169V40.2368ZM29.6208 44.0668L29.1847 42.9427H29.1252C28.7461 43.4209 28.3551 43.7529 27.9533 43.9372C27.5516 44.1223 27.0282 44.2149 26.3817 44.2149C25.5884 44.2149 24.9635 43.9884 24.5073 43.5342C24.0518 43.0812 23.8234 42.4355 23.8234 41.5975C23.8234 40.7195 24.1306 40.0732 24.744 39.6564C25.358 39.2398 26.2833 39.0094 27.5205 38.9648L28.9549 38.9208V38.5585C28.9549 37.7205 28.5266 37.3013 27.6687 37.3013C27.008 37.3013 26.2316 37.5006 25.3393 37.9004L24.5926 36.3767C25.5439 35.8791 26.5992 35.63 27.7573 35.63C28.8663 35.63 29.7165 35.872 30.3086 36.3547C30.8999 36.838 31.1957 37.5723 31.1957 38.5585V44.0668H29.6208Z" fill="#FFFFFF"/>
</svg>
