<svg width="94" height="111" viewBox="0 0 94 111" fill="none" xmlns="http://www.w3.org/2000/svg">
<path d="M93.8446 1.85616C94.1229 1.35082 94.0211 0.722592 93.5965 0.332486C93.1747 -0.0580017 92.5392 -0.110448 92.0591 0.206537C78.2595 9.32596 60.8779 22.6516 47.4535 39.0253C42.1073 37.0123 37.1557 35.5752 32.7187 34.5584C32.7202 34.6135 32.7264 34.6675 32.7264 34.723C32.7264 35.5587 32.5231 36.347 32.1716 37.0483C36.3992 38.01 40.9618 39.3212 45.7935 41.0918C42.0609 45.8355 38.6736 50.8226 35.8116 56.0283C33.1601 60.8497 31.3776 65.0938 30.1736 68.635C29.9091 66.5336 29.4857 64.2546 28.8276 61.8738C26.4606 53.3244 20.5431 42.0267 5.88031 34.8022C9.47242 34.5224 15.1414 34.4056 22.357 35.3122C22.3344 35.1177 22.321 34.9217 22.321 34.723C22.321 34.0366 22.4573 33.3816 22.7008 32.7817C9.48888 31.1232 1.35219 32.8207 0.987349 32.9C0.449088 33.0152 0.0497947 33.4711 0.00462059 34.0201C-0.041702 34.5687 0.278345 35.0832 0.791339 35.2865C14.228 40.5998 22.8401 49.7384 26.3886 62.4469C27.4862 66.3782 27.9034 70.0629 28.0141 73.0448C28.6526 72.7638 29.3571 72.6068 30.0975 72.6068C30.238 72.6068 30.3769 72.6157 30.5147 72.6275C30.8631 72.6547 31.1996 72.7175 31.5254 72.8101C32.6111 68.8291 34.5701 63.4411 38.1204 57.0229C41.0154 51.7904 44.4567 46.7833 48.249 42.0221C52.384 43.643 56.6996 45.6008 61.1592 47.9621C61.4326 47.1512 61.9008 46.4308 62.5095 45.8534C58.1383 43.5281 53.9226 41.5899 49.909 39.9808C61.9218 25.5109 77.0643 13.4621 89.8475 4.7094C88.8919 7.19781 87.7074 10.811 86.683 15.5244C86.7504 15.5229 86.8177 15.5156 86.8851 15.5156C87.7002 15.5156 88.47 15.7085 89.158 16.0447C89.4229 14.8261 89.692 13.6941 89.9581 12.6788C91.8034 5.61709 93.8239 1.89061 93.8446 1.85616Z" fill="#277AFF"/>
<path d="M85.0548 25.5829C84.4848 30.7225 84.2007 36.6384 84.4415 43.3157C82.285 43.7449 77.1348 44.8888 70.6447 47.123C71.0485 47.8572 71.2802 48.6975 71.2863 49.5907C79.6186 46.6984 85.7845 45.6066 85.9445 45.5798C86.5666 45.4737 87.0138 44.9217 86.985 44.2908C86.6757 37.2696 86.9778 31.1068 87.5624 25.8727C87.3411 25.9015 87.1152 25.9221 86.8851 25.9221C86.2404 25.9221 85.6245 25.7981 85.0548 25.5829Z" fill="#277AFF"/>
<path d="M79.5589 59.6354C75.5946 59.5784 69.0892 59.7491 61.7813 61.0036C52.0532 62.6709 43.8568 65.804 37.4742 70.2153C44.5463 62.4661 53.7702 56.9644 62.2748 53.1556C61.696 52.532 61.2699 51.7678 61.0513 50.9183C51.5689 55.1865 39.8818 62.2076 32.0101 72.9748C32.4289 73.1421 32.819 73.3603 33.1766 73.6237C33.8523 74.1233 34.4028 74.7795 34.7737 75.5409C51.7213 59.8789 83.0177 62.2658 83.3661 62.2942C83.9166 62.3374 84.4323 62.0189 84.6344 61.5048C84.8362 60.9887 84.6762 60.4026 84.2409 60.063C79.7893 56.5743 75.4074 53.522 71.1381 50.8452C70.9348 51.684 70.5309 52.4409 69.9762 53.0676C73.1212 55.0445 76.3182 57.2262 79.5589 59.6354Z" fill="#277AFF"/>
<path d="M66.0851 46.7252C65.4435 46.7252 64.8543 46.9423 64.3743 47.2964C63.7476 47.7585 63.3081 48.4614 63.2078 49.2718C63.1928 49.387 63.1867 49.5053 63.1867 49.6248C63.1867 50.8227 63.9183 51.8548 64.9573 52.2958C65.3045 52.4424 65.6843 52.5232 66.0851 52.5232C66.2838 52.5232 66.4798 52.5037 66.6682 52.4646C67.9886 52.194 68.9832 51.0233 68.9832 49.6248C68.9832 48.0265 67.6834 46.7252 66.0851 46.7252Z" fill="black"/>
<path d="M26.9407 37.5629C27.129 37.6016 27.325 37.6226 27.5237 37.6226C29.1224 37.6226 30.4217 36.3214 30.4217 34.7231C30.4217 33.1244 29.1224 31.8246 27.5237 31.8246C25.925 31.8246 24.6257 33.1244 24.6257 34.7231C24.6257 36.1212 25.6203 37.2919 26.9407 37.5629Z" fill="black"/>
<path d="M85.0307 18.5094C84.7137 18.7754 84.4534 19.1062 84.2711 19.4798C84.0901 19.8554 83.9867 20.2738 83.9867 20.7183C83.9867 20.8439 83.9943 20.9664 84.0108 21.0874C84.1184 21.9323 84.5912 22.665 85.2653 23.1213C85.729 23.4337 86.2852 23.6179 86.8851 23.6179C87.2859 23.6179 87.6657 23.5371 88.0125 23.3889C88.8379 23.039 89.46 22.3139 89.6844 21.4315C89.7142 21.3163 89.7399 21.1995 89.7563 21.0816C89.7743 20.9633 89.7831 20.8423 89.7831 20.7183C89.7831 19.1211 88.4838 17.8199 86.8851 17.8199C86.1761 17.8199 85.5345 18.0863 85.0307 18.5094Z" fill="black"/>
<path d="M32.146 75.7606C32.1192 75.7338 32.0847 75.7128 32.0549 75.686C31.811 75.4616 31.5346 75.2702 31.2249 75.1401C30.878 74.9919 30.4983 74.9111 30.0975 74.9111C28.5003 74.9111 27.199 76.2124 27.199 77.8092C27.199 78.8084 27.7078 79.6904 28.4777 80.2126C28.6335 80.3171 28.7977 80.4071 28.9712 80.4802C29.3184 80.6268 29.6982 80.7091 30.0975 80.7091C30.8631 80.7091 31.5583 80.4113 32.0775 79.9255C32.1521 79.855 32.2225 79.7834 32.288 79.7057C32.3646 79.6173 32.4346 79.5262 32.5005 79.4289C32.8133 78.9668 32.9955 78.4091 32.9955 77.8092C32.9955 77.045 32.6934 76.3544 32.2088 75.8353C32.1866 75.8131 32.1686 75.7844 32.146 75.7606Z" fill="black"/>
<path d="M12.1553 88.9967C12.1553 90.033 12.3915 90.8527 12.8654 91.4568C13.3367 92.0609 14.0572 92.3629 15.0265 92.3629C16.0058 92.3629 16.7236 92.0609 17.1799 91.4568C17.6359 90.8527 17.8633 90.033 17.8633 88.9967C17.8633 86.6951 16.9181 85.5439 15.0265 85.5439C13.1124 85.5439 12.1553 86.6951 12.1553 88.9967ZM10.2587 104.548C10.2587 105.265 10.6029 105.829 11.2924 106.239C11.9815 106.65 12.9477 106.855 14.1889 106.855C16.0567 106.855 17.5207 106.598 18.5811 106.085C19.6396 105.572 20.1706 104.872 20.1706 103.984C20.1706 103.266 19.8567 102.771 19.23 102.496C18.6033 102.224 17.6359 102.086 16.3243 102.086H13.625C12.6679 102.086 11.8682 102.312 11.2235 102.762C10.5803 103.212 10.2587 103.808 10.2587 104.548ZM25.0069 82.7412V85.3897L22.0159 86.1599C22.5633 87.0136 22.837 87.9707 22.837 89.0296C22.837 91.0812 22.1208 92.6784 20.6909 93.8238C19.2614 94.9681 17.2772 95.5408 14.7363 95.5408L13.7957 95.4899L13.027 95.4045C12.4918 95.8145 12.2238 96.2705 12.2238 96.7716C12.2238 97.5239 13.1809 97.8991 15.095 97.8991H18.3418C20.4382 97.8991 22.0354 98.3493 23.1345 99.2493C24.2351 100.15 24.7841 101.472 24.7841 103.214C24.7841 105.447 23.8523 107.18 21.9906 108.41C20.1274 109.64 17.4533 110.256 13.9676 110.256C11.3012 110.256 9.26452 109.791 7.85724 108.864C6.44995 107.933 5.74707 106.633 5.74707 104.957C5.74707 103.808 6.10616 102.844 6.82397 102.07C7.54178 101.295 8.59457 100.742 9.9854 100.412C9.44981 100.184 8.982 99.8117 8.58423 99.2929C8.18494 98.7738 7.98587 98.2252 7.98587 97.6433C7.98587 96.9152 8.19681 96.308 8.61831 95.8233C9.03865 95.3391 9.64889 94.8632 10.4459 94.3969C9.44407 93.9632 8.64816 93.2691 8.06205 92.312C7.47594 91.3549 7.18269 90.226 7.18269 88.9278C7.18269 86.8433 7.8603 85.2312 9.21667 84.0918C10.5715 82.9522 12.5083 82.3825 15.0265 82.3825C15.5617 82.3825 16.1972 82.4304 16.9315 82.5276C17.6673 82.6248 18.137 82.6964 18.3418 82.7412H25.0069Z" fill="#393939"/>
<path d="M27.4758 82.7412H32.6873V101.847H27.4758V82.7412Z" fill="#393939"/>
<path d="M41.2758 88.9967C41.2758 90.033 41.512 90.8527 41.9848 91.4568C42.4572 92.0609 43.178 92.3629 44.1455 92.3629C45.1267 92.3629 45.8445 92.0609 46.2989 91.4568C46.7552 90.8527 46.9838 90.033 46.9838 88.9967C46.9838 86.6951 46.0374 85.5439 44.1455 85.5439C42.2328 85.5439 41.2758 86.6951 41.2758 88.9967ZM39.3781 104.548C39.3781 105.265 39.7234 105.829 40.4129 106.239C41.1008 106.65 42.0667 106.855 43.3097 106.855C45.1772 106.855 46.6415 106.598 47.7016 106.085C48.7605 105.572 49.2899 104.872 49.2899 103.984C49.2899 103.266 48.9772 102.771 48.3505 102.496C47.7242 102.224 46.7552 102.086 45.4452 102.086H42.7443C41.7872 102.086 40.9871 102.312 40.3439 102.762C39.6996 103.212 39.3781 103.808 39.3781 104.548ZM54.1259 82.7412V85.3897L51.1367 86.1599C51.6826 87.0136 51.956 87.9707 51.956 89.0296C51.956 91.0812 51.2412 92.6784 49.8117 93.8238C48.3823 94.9681 46.3961 95.5408 43.8553 95.5408L42.9162 95.4899L42.1475 95.4045C41.6107 95.8145 41.3447 96.2705 41.3447 96.7716C41.3447 97.5239 42.3002 97.8991 44.2144 97.8991H47.4623C49.5575 97.8991 51.1562 98.3493 52.2554 99.2493C53.3545 100.15 53.9046 101.472 53.9046 103.214C53.9046 105.447 52.9732 107.18 51.1099 108.41C49.2478 109.64 46.5726 110.256 43.0865 110.256C40.4205 110.256 38.3835 109.791 36.9777 108.864C35.5708 107.933 34.8664 106.633 34.8664 104.957C34.8664 103.808 35.2251 102.844 35.9429 102.07C36.6607 101.295 37.715 100.742 39.1043 100.412C38.5691 100.184 38.1025 99.8117 37.7032 99.2929C37.3039 98.7738 37.1052 98.2252 37.1052 97.6433C37.1052 96.9152 37.3157 96.308 37.7376 95.8233C38.1591 95.3391 38.7694 94.8632 39.5664 94.3969C38.563 93.9632 37.769 93.2691 37.1829 92.312C36.5949 91.3549 36.302 90.226 36.302 88.9278C36.302 86.8433 36.9792 85.2312 38.3356 84.0918C39.692 82.9522 41.6287 82.3825 44.1455 82.3825C44.6822 82.3825 45.3165 82.4304 46.0523 82.5276C46.7866 82.6248 47.256 82.6964 47.4623 82.7412H54.1259Z" fill="#393939"/>
<path d="M66.9208 92.9954L64.9052 93.0643C63.3888 93.1091 62.261 93.3828 61.521 93.8839C60.7806 94.3847 60.4096 95.1488 60.4096 96.1733C60.4096 97.6434 61.2534 98.3792 62.9402 98.3792C64.1468 98.3792 65.1131 98.0308 65.8367 97.3352C66.5591 96.6415 66.9208 95.7189 66.9208 94.5673V92.9954ZM68.4598 101.847L67.4518 99.2493H67.3144C66.4381 100.355 65.5346 101.122 64.6059 101.548C63.6775 101.975 62.4678 102.189 60.9736 102.189C59.1402 102.189 57.6958 101.666 56.6414 100.616C55.5887 99.5694 55.0607 98.0771 55.0607 96.1404C55.0607 94.111 55.7709 92.6172 57.1885 91.654C58.6077 90.6911 60.7462 90.1586 63.6055 90.0556L66.9208 89.9538V89.1165C66.9208 87.1798 65.9308 86.2109 63.9482 86.2109C62.421 86.2109 60.6267 86.6714 58.5644 87.5956L56.8386 84.0739C59.0372 82.9239 61.4762 82.3481 64.153 82.3481C66.716 82.3481 68.6811 82.9074 70.0493 84.023C71.416 85.1401 72.0998 86.8372 72.0998 89.1165V101.847H68.4598Z" fill="#393939"/>
</svg>
