<svg width="398" height="165" viewBox="0 0 398 165" fill="none" xmlns="http://www.w3.org/2000/svg">
<g clip-path="url(#clip0_444_3770)">
<path d="M19.63 20.21H35.39V41.71C32.81 42.55 30.34 43.15 27.96 43.5C25.58 43.85 23.02 44.03 20.27 44.03C13.79 44.03 8.79 42.11 5.27 38.27C1.75 34.43 0 29.02 0 22.03C0 15.04 1.98 9.74 5.95 5.84C9.91 1.95 15.37 0 22.32 0C26.79 0 31.03 0.86 35.03 2.58L32.57 8.41C29.09 6.81 25.62 6.01 22.14 6.01C17.57 6.01 13.96 7.45 11.3 10.32C8.64 13.19 7.32 17.12 7.32 22.1C7.32 27.33 8.52 31.31 10.91 34.04C13.3 36.76 16.74 38.13 21.24 38.13C23.51 38.13 25.93 37.85 28.51 37.28V26.24H19.63V20.23V20.21Z" fill="black"/>
<path d="M42.8501 43.4501V0.620117H49.8501V43.4501H42.8501Z" fill="black"/>
<path d="M75.7101 20.21H91.4701V41.71C88.8901 42.55 86.4201 43.15 84.0401 43.5C81.6601 43.85 79.1001 44.03 76.3501 44.03C69.8701 44.03 64.8701 42.11 61.3501 38.27C57.8301 34.43 56.0801 29.02 56.0801 22.02C56.0801 15.02 58.0601 9.72999 62.0301 5.82999C65.9901 1.92999 71.4501 -0.0100098 78.4101 -0.0100098C82.8801 -0.0100098 87.1201 0.84999 91.1201 2.56999L88.6601 8.39999C85.1801 6.79999 81.7101 5.99999 78.2301 5.99999C73.6601 5.99999 70.0501 7.43999 67.3901 10.31C64.7301 13.18 63.4101 17.11 63.4101 22.09C63.4101 27.32 64.6101 31.3 67.0001 34.03C69.3901 36.75 72.8301 38.12 77.3301 38.12C79.6001 38.12 82.0201 37.84 84.6001 37.27V26.23H75.7201V20.22L75.7101 20.21Z" fill="black"/>
<path d="M126.67 43.4499L122.39 31.5599H106.01L101.82 43.4499H94.4399L110.47 0.439941H118.09L134.12 43.4499H126.68H126.67ZM120.55 25.5199L116.54 13.8599C116.25 13.0799 115.84 11.8499 115.32 10.1699C114.8 8.48994 114.45 7.25994 114.25 6.47994C113.72 8.87994 112.95 11.5099 111.94 14.3599L108.07 25.5199H120.55Z" fill="black"/>
<path d="M20.33 66.01C16.31 66.01 13.14 67.44 10.84 70.29C8.53999 73.14 7.37999 77.08 7.37999 82.1C7.37999 87.12 8.48999 91.33 10.71 94.02C12.93 96.72 16.13 98.06 20.33 98.06C22.15 98.06 23.9 97.88 25.6 97.52C27.3 97.16 29.07 96.7 30.9 96.13V102.14C27.54 103.41 23.73 104.04 19.47 104.04C13.2 104.04 8.38999 102.14 5.02999 98.34C1.66999 94.54 -0.0100098 89.11 -0.0100098 82.04C-0.0100098 77.59 0.80999 73.69 2.43999 70.35C4.06999 67.01 6.42999 64.45 9.51999 62.67C12.61 60.89 16.23 60 20.39 60C24.77 60 28.81 60.92 32.52 62.75L30 68.58C28.55 67.9 27.03 67.3 25.42 66.78C23.81 66.26 22.11 66 20.34 66L20.33 66.01Z" fill="black"/>
<path d="M73.7301 81.9699C73.7301 88.9399 71.9901 94.3599 68.5001 98.2299C65.0101 102.1 60.0801 104.03 53.6901 104.03C47.3001 104.03 42.2601 102.11 38.7901 98.2699C35.3201 94.4299 33.5901 88.9799 33.5901 81.9099C33.5901 74.8399 35.3301 69.4099 38.8201 65.6199C42.3101 61.8299 47.2801 59.9399 53.7501 59.9399C60.2201 59.9399 65.0401 61.8599 68.5201 65.7099C72.0001 69.5599 73.7301 74.9799 73.7301 81.9699ZM41.0301 81.9699C41.0301 87.2399 42.0901 91.2399 44.2201 93.9699C46.3501 96.6899 49.5001 98.0599 53.6801 98.0599C57.8601 98.0599 60.9801 96.7099 63.1001 94.0199C65.2201 91.3199 66.2801 87.3099 66.2801 81.9799C66.2801 76.6499 65.2301 72.7399 63.1301 70.0299C61.0301 67.3199 57.9001 65.9599 53.7401 65.9599C49.5801 65.9599 46.3701 67.3199 44.2301 70.0299C42.0901 72.7399 41.0201 76.7299 41.0201 81.9799L41.0301 81.9699Z" fill="black"/>
<path d="M115.59 103.45H107.01L85.9499 69.3201H85.7199L85.8699 71.2201C86.1399 74.8501 86.2799 78.1701 86.2799 81.1801V103.45H79.9199V60.6201H88.4199L109.43 94.5801H109.61C109.57 94.1301 109.49 92.5001 109.38 89.6701C109.26 86.8501 109.2 84.6501 109.2 83.0601V60.6201H115.62V103.45H115.59Z" fill="black"/>
<path d="M159.44 103.45H150.86L129.8 69.3201H129.57L129.72 71.2201C129.99 74.8501 130.13 78.1701 130.13 81.1801V103.45H123.77V60.6201H132.27L153.28 94.5801H153.46C153.42 94.1301 153.34 92.5001 153.23 89.6701C153.11 86.8501 153.05 84.6501 153.05 83.0601V60.6201H159.47V103.45H159.44Z" fill="black"/>
<path d="M191.84 103.45H167.61V60.6201H191.84V66.5401H174.61V78.2001H190.75V84.0601H174.61V97.5101H191.84V103.46V103.45Z" fill="black"/>
<path d="M215.81 66.01C211.79 66.01 208.62 67.44 206.32 70.29C204.02 73.14 202.86 77.08 202.86 82.1C202.86 87.12 203.97 91.33 206.19 94.02C208.41 96.72 211.61 98.06 215.81 98.06C217.63 98.06 219.38 97.88 221.08 97.52C222.78 97.16 224.55 96.7 226.38 96.13V102.14C223.02 103.41 219.21 104.04 214.95 104.04C208.68 104.04 203.87 102.14 200.51 98.34C197.15 94.54 195.47 89.11 195.47 82.04C195.47 77.59 196.29 73.69 197.92 70.35C199.55 67.01 201.91 64.45 205 62.67C208.09 60.89 211.71 60 215.87 60C220.25 60 224.29 60.92 228 62.75L225.48 68.58C224.03 67.9 222.51 67.3 220.9 66.78C219.29 66.26 217.59 66 215.82 66L215.81 66.01Z" fill="black"/>
<path d="M249.86 103.45H242.86V66.6201H230.26V60.6101H262.46V66.6201H249.86V103.45Z" fill="black"/>
<path d="M266.42 103.45V60.6201H273.42V103.45H266.42Z" fill="black"/>
<path d="M306.89 60.6201H314.16L299.16 103.45H291.78L276.84 60.6201H284.05L292.99 87.2501C293.46 88.5201 293.96 90.1601 294.48 92.1601C295.01 94.1601 295.35 95.6501 295.51 96.6301C295.76 95.1501 296.15 93.4301 296.68 91.4701C297.21 89.5201 297.64 88.0701 297.97 87.1301L306.91 60.6201H306.89Z" fill="black"/>
<path d="M317.57 103.45V60.6201H324.57V103.45H317.57Z" fill="black"/>
<path d="M348.1 103.45H341.1V66.6201H328.5V60.6101H360.7V66.6201H348.1V103.45Z" fill="black"/>
<path d="M379.58 80.1601L389.72 60.6201H397.34L383.07 86.8401V103.45H376.04V87.0701L361.83 60.6101H369.45L379.59 80.1501L379.58 80.1601Z" fill="black"/>
<path d="M9.05011 163.45H2.11011V120.62H26.2801V126.54H9.05011V139.93H25.1901V145.88H9.05011V163.46V163.45Z" fill="black"/>
<path d="M69.4 141.97C69.4 148.94 67.66 154.36 64.17 158.23C60.68 162.1 55.75 164.03 49.36 164.03C42.97 164.03 37.93 162.11 34.46 158.27C30.99 154.43 29.26 148.98 29.26 141.91C29.26 134.84 31 129.41 34.49 125.62C37.98 121.83 42.95 119.94 49.42 119.94C55.89 119.94 60.71 121.86 64.19 125.71C67.67 129.56 69.4 134.98 69.4 141.97ZM36.71 141.97C36.71 147.24 37.77 151.24 39.9 153.97C42.03 156.69 45.18 158.06 49.36 158.06C53.54 158.06 56.66 156.71 58.78 154.02C60.9 151.32 61.96 147.31 61.96 141.98C61.96 136.65 60.91 132.74 58.81 130.03C56.71 127.32 53.58 125.96 49.42 125.96C45.26 125.96 42.05 127.32 39.91 130.03C37.77 132.74 36.7 136.73 36.7 141.98L36.71 141.97Z" fill="black"/>
<path d="M82.5801 146.34V163.45H75.5801V120.62H87.6801C93.2101 120.62 97.3001 121.66 99.9601 123.73C102.62 125.8 103.94 128.93 103.94 133.11C103.94 138.44 101.17 142.24 95.6201 144.51L107.72 163.47H99.7501L89.5001 146.36H82.5901L82.5801 146.34ZM82.5801 140.54H87.4401C90.7001 140.54 93.0601 139.94 94.5301 138.72C95.9901 137.51 96.7301 135.71 96.7301 133.33C96.7301 130.95 95.9401 129.17 94.3601 128.12C92.7801 127.07 90.3901 126.54 87.2101 126.54H82.5801V140.54Z" fill="black"/>
<path d="M144.03 120.62V148.33C144.03 151.49 143.35 154.26 141.99 156.64C140.63 159.01 138.67 160.84 136.1 162.12C133.53 163.4 130.46 164.04 126.89 164.04C121.58 164.04 117.45 162.63 114.5 159.82C111.55 157.01 110.08 153.14 110.08 148.22V120.62H117.11V147.72C117.11 151.26 117.93 153.86 119.57 155.54C121.21 157.22 123.73 158.06 127.13 158.06C133.73 158.06 137.03 154.59 137.03 147.66V120.62H144.03Z" fill="black"/>
<path d="M170.44 163.45L158.02 127.68H157.79C158.12 132.99 158.29 137.97 158.29 142.62V163.45H151.93V120.62H161.8L173.69 154.69H173.87L186.12 120.62H196.02V163.45H189.28V142.27C189.28 140.14 189.33 137.37 189.44 133.95C189.55 130.53 189.64 128.46 189.72 127.74H189.49L176.63 163.45H170.45H170.44Z" fill="black"/>
<path d="M229.84 163.45H200.81V158.24L211.85 147.14C215.11 143.8 217.27 141.43 218.34 140.04C219.4 138.64 220.18 137.33 220.67 136.1C221.16 134.87 221.4 133.55 221.4 132.14C221.4 130.21 220.82 128.68 219.66 127.57C218.5 126.46 216.89 125.9 214.84 125.9C213.2 125.9 211.61 126.2 210.08 126.81C208.55 127.42 206.77 128.51 204.76 130.09L201.04 125.55C203.42 123.54 205.74 122.11 207.98 121.27C210.23 120.43 212.62 120.01 215.16 120.01C219.14 120.01 222.34 121.05 224.74 123.13C227.14 125.21 228.34 128.01 228.34 131.52C228.34 133.45 227.99 135.29 227.3 137.03C226.61 138.77 225.54 140.56 224.11 142.41C222.68 144.26 220.29 146.75 216.95 149.9L209.51 157.11V157.4H229.84V163.46V163.45Z" fill="#277AFF"/>
<path d="M261.38 142.03C261.38 149.47 260.18 155 257.79 158.61C255.4 162.22 251.74 164.03 246.82 164.03C241.9 164.03 238.44 162.17 235.98 158.43C233.52 154.7 232.29 149.23 232.29 142.02C232.29 134.81 233.49 128.89 235.88 125.31C238.27 121.73 241.92 119.93 246.82 119.93C251.72 119.93 255.23 121.81 257.69 125.55C260.15 129.29 261.38 134.79 261.38 142.01V142.03ZM239.26 142.03C239.26 147.87 239.86 152.04 241.06 154.54C242.26 157.04 244.18 158.29 246.82 158.29C249.46 158.29 251.39 157.02 252.61 154.48C253.83 151.94 254.44 147.79 254.44 142.03C254.44 136.27 253.83 132.13 252.61 129.56C251.39 126.99 249.46 125.71 246.82 125.71C244.18 125.71 242.26 126.97 241.06 129.49C239.86 132.01 239.26 136.19 239.26 142.03Z" fill="#277AFF"/>
<path d="M292.25 163.45H263.22V158.24L274.26 147.14C277.52 143.8 279.68 141.43 280.75 140.04C281.81 138.64 282.59 137.33 283.08 136.1C283.57 134.87 283.81 133.55 283.81 132.14C283.81 130.21 283.23 128.68 282.07 127.57C280.91 126.46 279.3 125.9 277.25 125.9C275.61 125.9 274.02 126.2 272.49 126.81C270.96 127.42 269.18 128.51 267.17 130.09L263.45 125.55C265.83 123.54 268.15 122.11 270.39 121.27C272.64 120.43 275.03 120.01 277.57 120.01C281.55 120.01 284.75 121.05 287.15 123.13C289.55 125.21 290.75 128.01 290.75 131.52C290.75 133.45 290.4 135.29 289.71 137.03C289.02 138.77 287.95 140.56 286.52 142.41C285.09 144.26 282.7 146.75 279.36 149.9L271.92 157.11V157.4H292.25V163.46V163.45Z" fill="#277AFF"/>
<path d="M309.7 136.7C314.02 136.7 317.43 137.84 319.95 140.13C322.47 142.42 323.73 145.53 323.73 149.48C323.73 154.05 322.3 157.62 319.44 160.19C316.58 162.76 312.51 164.04 307.24 164.04C302.45 164.04 298.7 163.27 295.96 161.73V155.49C297.54 156.39 299.36 157.08 301.41 157.57C303.46 158.06 305.37 158.3 307.12 158.3C310.23 158.3 312.59 157.61 314.21 156.22C315.83 154.83 316.64 152.8 316.64 150.13C316.64 145.01 313.38 142.45 306.85 142.45C305.93 142.45 304.8 142.54 303.45 142.73C302.1 142.92 300.92 143.13 299.91 143.36L296.83 141.54L298.47 120.62H320.74V126.74H304.54L303.57 137.35C304.25 137.23 305.09 137.1 306.07 136.94C307.06 136.78 308.26 136.71 309.69 136.71L309.7 136.7Z" fill="#277AFF"/>
</g>
<defs>
<clipPath id="clip0_444_3770">
<rect width="397.34" height="164.03" fill="white"/>
</clipPath>
</defs>
</svg>
