<svg width="250" height="83" viewBox="0 0 250 83" fill="none" xmlns="http://www.w3.org/2000/svg">
<path d="M100.76 8.54744H108.241V18.3247C107.031 18.721 105.883 18.9954 104.815 19.1581C103.748 19.3207 102.651 19.3918 101.533 19.3918C98.6869 19.3918 96.5119 18.5584 95.0077 16.8815C93.5035 15.2045 92.7515 12.8059 92.7515 9.67558C92.7515 6.54525 93.6255 4.25848 95.3635 2.55102C97.1014 0.843565 99.5203 0 102.61 0C104.541 0 106.411 0.38621 108.21 1.15863L106.879 4.36011C105.507 3.669 104.074 3.32344 102.579 3.32344C100.852 3.32344 99.4695 3.90276 98.4226 5.06139C97.3758 6.22002 96.8575 7.78519 96.8575 9.74673C96.8575 11.7083 97.2742 13.3547 98.1177 14.4321C98.9613 15.5094 100.171 16.0481 101.777 16.0481C102.61 16.0481 103.454 15.9667 104.317 15.794V11.8607H100.74V8.52712L100.76 8.54744ZM124.98 11.9115C124.98 14.2593 124.36 16.0989 123.12 17.4201C121.88 18.7414 120.152 19.4121 117.947 19.4121C116.564 19.4121 115.345 19.1072 114.278 18.4974C113.21 17.8876 112.408 17.0237 111.838 15.8854C111.269 14.7471 110.985 13.4259 110.985 11.9115C110.985 9.55362 111.594 7.72421 112.834 6.41312C114.064 5.10204 115.792 4.45158 118.018 4.45158C119.4 4.45158 120.62 4.75649 121.687 5.35613C122.754 5.95577 123.557 6.81966 124.126 7.9478C124.695 9.07594 124.98 10.3972 124.98 11.9115ZM114.999 11.9115C114.999 13.3344 115.233 14.4219 115.7 15.1537C116.168 15.8854 116.93 16.2513 117.987 16.2513C119.044 16.2513 119.796 15.8854 120.254 15.1638C120.711 14.4422 120.945 13.3547 120.945 11.9217C120.945 10.4887 120.711 9.4215 120.244 8.71006C119.776 7.99862 119.014 7.6429 117.957 7.6429C116.9 7.6429 116.148 7.99862 115.69 8.71006C115.233 9.4215 114.989 10.4887 114.989 11.9319L114.999 11.9115ZM130.753 19.1479L125.254 4.72599H129.37L132.155 12.9482C132.46 13.9849 132.663 14.9707 132.734 15.9058H132.816C132.856 15.0825 133.049 14.0967 133.395 12.9482L136.17 4.72599H140.286L134.787 19.1479H130.753ZM147.99 19.402C145.662 19.402 143.853 18.7617 142.542 17.4811C141.231 16.2005 140.581 14.3813 140.581 12.0335C140.581 9.68575 141.18 7.74453 142.39 6.42329C143.599 5.10204 145.266 4.44142 147.4 4.44142C149.535 4.44142 151.029 5.02073 152.157 6.17937C153.285 7.338 153.864 8.94382 153.864 10.9968V12.9076H144.565C144.605 14.0255 144.941 14.8996 145.561 15.5297C146.181 16.1599 147.044 16.4749 148.162 16.4749C149.026 16.4749 149.85 16.3834 150.622 16.2005C151.394 16.0176 152.208 15.733 153.051 15.3366V18.3856C152.36 18.7312 151.628 18.9853 150.846 19.1581C150.063 19.3308 149.108 19.4121 147.98 19.4121L147.99 19.402ZM147.431 7.24652C146.597 7.24652 145.947 7.51077 145.469 8.03927C144.991 8.56777 144.727 9.31986 144.656 10.2956H150.175C150.154 9.31986 149.9 8.57793 149.413 8.03927C148.925 7.50061 148.264 7.24652 147.421 7.24652H147.431ZM164.597 4.45158C165.125 4.45158 165.572 4.49224 165.928 4.56338L165.633 8.2527C165.318 8.1714 164.932 8.12058 164.475 8.12058C163.215 8.12058 162.239 8.44581 161.538 9.08611C160.836 9.7264 160.491 10.6309 160.491 11.7997V19.1377H156.557V4.71583H159.535L160.115 7.14489H160.308C160.755 6.33182 161.355 5.68136 162.117 5.19351C162.879 4.70567 163.702 4.45158 164.597 4.45158ZM181.153 19.1479H177.22V10.7224C177.22 9.68575 177.037 8.90316 176.661 8.38483C176.285 7.86649 175.705 7.60224 174.892 7.60224C173.795 7.60224 172.992 7.96813 172.504 8.71006C172.016 9.45199 171.772 10.6614 171.772 12.3689V19.1581H167.839V4.71583H170.847L171.376 6.56557H171.599C172.036 5.8643 172.646 5.34596 173.408 4.98008C174.171 4.6142 175.055 4.44142 176.031 4.44142C177.708 4.44142 178.978 4.89877 179.852 5.80332C180.726 6.70786 181.153 8.01894 181.153 9.73656V19.1377V19.1479ZM197.384 19.1479H193.451V10.7224C193.451 9.68575 193.278 8.90316 192.932 8.38483C192.587 7.86649 192.038 7.60224 191.286 7.60224C190.28 7.60224 189.548 7.96813 189.091 8.71006C188.633 9.45199 188.41 10.6716 188.41 12.3587V19.1479H184.476V4.71583H187.485L188.013 6.56557H188.237C188.623 5.90495 189.182 5.38662 189.914 5.01057C190.646 4.63452 191.479 4.45158 192.434 4.45158C194.589 4.45158 196.053 5.15286 196.825 6.56557H197.171C197.557 5.89479 198.126 5.37645 198.878 5.00041C199.63 4.62436 200.484 4.44142 201.429 4.44142C203.065 4.44142 204.295 4.85812 205.139 5.70168C205.982 6.54525 206.399 7.88682 206.399 9.73656V19.1377H202.455V10.7123C202.455 9.67558 202.283 8.893 201.937 8.37467C201.592 7.85633 201.043 7.59208 200.291 7.59208C199.325 7.59208 198.604 7.93764 198.126 8.62875C197.648 9.31986 197.414 10.4074 197.414 11.9014V19.1377L197.384 19.1479ZM216.288 19.402C213.96 19.402 212.151 18.7617 210.84 17.4811C209.529 16.2005 208.879 14.3813 208.879 12.0335C208.879 9.68575 209.478 7.74453 210.688 6.42329C211.897 5.10204 213.564 4.44142 215.698 4.44142C217.833 4.44142 219.327 5.02073 220.455 6.17937C221.583 7.338 222.162 8.94382 222.162 10.9968V12.9076H212.863C212.904 14.0255 213.239 14.8996 213.859 15.5297C214.479 16.1599 215.343 16.4749 216.461 16.4749C217.325 16.4749 218.148 16.3834 218.92 16.2005C219.693 16.0176 220.506 15.733 221.349 15.3366V18.3856C220.658 18.7312 219.926 18.9853 219.144 19.1581C218.361 19.3308 217.406 19.4121 216.278 19.4121L216.288 19.402ZM215.739 7.24652C214.906 7.24652 214.255 7.51077 213.778 8.03927C213.3 8.56777 213.036 9.31986 212.964 10.2956H218.483C218.463 9.31986 218.209 8.57793 217.721 8.03927C217.233 7.50061 216.572 7.24652 215.729 7.24652H215.739ZM238.17 19.1479H234.237V10.7224C234.237 9.68575 234.054 8.90316 233.678 8.38483C233.301 7.86649 232.722 7.60224 231.909 7.60224C230.811 7.60224 230.009 7.96813 229.521 8.71006C229.033 9.45199 228.789 10.6614 228.789 12.3689V19.1581H224.856V4.71583H227.864L228.393 6.56557H228.616C229.053 5.8643 229.663 5.34596 230.425 4.98008C231.188 4.6142 232.072 4.44142 233.047 4.44142C234.724 4.44142 235.995 4.89877 236.869 5.80332C237.743 6.70786 238.17 8.01894 238.17 9.73656V19.1377V19.1479ZM247.52 16.2717C248.211 16.2717 249.034 16.1192 250 15.8245V18.7515C249.024 19.1886 247.815 19.4121 246.392 19.4121C244.817 19.4121 243.668 19.0158 242.957 18.223C242.245 17.4303 241.879 16.231 241.879 14.6455V7.69372H239.999V6.02691L242.164 4.71583L243.302 1.6668H245.823V4.73616H249.858V7.69372H245.823V14.6455C245.823 15.2045 245.975 15.6212 246.29 15.8854C246.605 16.1497 247.022 16.2818 247.54 16.2818L247.52 16.2717ZM104.606 47.6055H93.7411V28.7422H104.606V32.0148H97.7455V36.1615H104.128V39.4341H97.7455V44.3024H104.606V47.6055ZM111.141 40.237L106.496 33.1836H110.958L113.753 37.7775L116.578 33.1836H121.04L116.345 40.237L121.264 47.6055H116.782L113.753 42.6661L110.704 47.6055H106.242L111.131 40.237H111.141ZM128.348 47.8596C123.855 47.8596 121.609 45.4 121.609 40.4708C121.609 38.0214 122.219 36.1513 123.439 34.8504C124.658 33.5596 126.406 32.9092 128.693 32.9092C130.36 32.9092 131.854 33.2344 133.185 33.8849L132.027 36.9339C131.407 36.6798 130.827 36.4765 130.299 36.3241C129.77 36.1615 129.232 36.0802 128.703 36.0802C126.66 36.0802 125.634 37.5335 125.634 40.4403C125.634 43.347 126.66 44.6683 128.703 44.6683C129.455 44.6683 130.157 44.5666 130.807 44.3634C131.447 44.1601 132.098 43.845 132.738 43.4182V46.7823C132.098 47.1888 131.458 47.4632 130.807 47.6258C130.157 47.7884 129.333 47.8596 128.348 47.8596ZM148.715 47.6055H144.782V39.18C144.782 37.0965 144.009 36.0598 142.454 36.0598C141.357 36.0598 140.554 36.4359 140.066 37.1778C139.578 37.9198 139.334 39.1394 139.334 40.8163V47.6055H135.401V27.5327H139.334V31.6184C139.334 31.9335 139.304 32.6856 139.243 33.8645L139.151 35.0232H139.355C140.229 33.6105 141.621 32.9092 143.532 32.9092C145.229 32.9092 146.51 33.3665 147.394 34.2812C148.268 35.196 148.705 36.4969 148.705 38.2043V47.6055H148.715ZM161.165 47.6055L160.403 45.644H160.301C159.641 46.4774 158.96 47.0567 158.259 47.3819C157.557 47.7071 156.643 47.8697 155.514 47.8697C154.132 47.8697 153.035 47.4734 152.242 46.6806C151.449 45.8879 151.053 44.7597 151.053 43.2962C151.053 41.8327 151.591 40.6334 152.658 39.9118C153.726 39.18 155.342 38.7836 157.506 38.7023L160.007 38.621V37.9909C160.007 36.5274 159.255 35.7956 157.76 35.7956C156.612 35.7956 155.25 36.1412 153.695 36.8424L152.394 34.1796C154.051 33.3157 155.89 32.8787 157.913 32.8787C159.935 32.8787 161.328 33.3056 162.365 34.139C163.401 34.9825 163.909 36.2631 163.909 37.9807V47.5953H161.165V47.6055ZM159.996 40.918L158.472 40.9688C157.323 40.9993 156.48 41.2127 155.921 41.5887C155.362 41.9648 155.077 42.5441 155.077 43.3165C155.077 44.4243 155.718 44.9833 156.988 44.9833C157.903 44.9833 158.624 44.7191 159.173 44.2007C159.722 43.6722 159.996 42.9811 159.996 42.1071V40.918ZM180.537 47.6055H176.604V39.18C176.604 38.1433 176.421 37.3608 176.045 36.8424C175.679 36.3241 175.089 36.0598 174.276 36.0598C173.178 36.0598 172.376 36.4257 171.888 37.1677C171.4 37.9096 171.156 39.119 171.156 40.8265V47.6157H167.223V33.1938H170.231L170.76 35.0435H170.983C171.42 34.3422 172.03 33.8239 172.792 33.4682C173.565 33.1124 174.439 32.9295 175.414 32.9295C177.091 32.9295 178.362 33.3869 179.236 34.2914C180.1 35.1959 180.537 36.507 180.537 38.2247V47.6258V47.6055ZM196.524 33.1734V35.1756L194.268 35.7549C194.684 36.3952 194.887 37.127 194.887 37.9198C194.887 39.4646 194.349 40.674 193.272 41.5379C192.194 42.4018 190.69 42.8389 188.779 42.8389L188.068 42.7982L187.489 42.7372C187.082 43.0421 186.879 43.3877 186.879 43.7739C186.879 44.343 187.6 44.6276 189.044 44.6276H191.493C193.078 44.6276 194.278 44.963 195.111 45.644C195.945 46.3249 196.361 47.3209 196.361 48.6422C196.361 50.3293 195.66 51.6404 194.247 52.5653C192.834 53.4901 190.822 53.9576 188.19 53.9576C186.177 53.9576 184.643 53.6121 183.576 52.9108C182.508 52.2095 181.98 51.2237 181.98 49.9634C181.98 49.0995 182.254 48.3678 182.793 47.7783C183.332 47.1888 184.135 46.7721 185.181 46.5282C184.775 46.3554 184.429 46.0708 184.124 45.6846C183.82 45.2882 183.677 44.8817 183.677 44.4345C183.677 43.8857 183.84 43.4283 184.155 43.0624C184.47 42.6966 184.938 42.3408 185.537 41.9851C184.785 41.6599 184.185 41.1314 183.738 40.4098C183.291 39.6882 183.078 38.8345 183.078 37.8588C183.078 36.2834 183.586 35.0638 184.612 34.2101C185.639 33.3462 187.102 32.9193 189.003 32.9193C189.409 32.9193 189.887 32.96 190.446 33.0311C191.005 33.1023 191.361 33.1531 191.513 33.1938H196.544L196.524 33.1734ZM185.395 49.6382C185.395 50.1768 185.659 50.6037 186.177 50.9188C186.696 51.2338 187.428 51.3863 188.363 51.3863C189.775 51.3863 190.883 51.1932 191.676 50.807C192.469 50.4208 192.875 49.8923 192.875 49.2215C192.875 48.6828 192.641 48.3068 192.164 48.1035C191.686 47.9002 190.954 47.7986 189.968 47.7986H187.926C187.204 47.7986 186.594 47.9714 186.116 48.3068C185.629 48.6422 185.385 49.0995 185.385 49.6585L185.395 49.6382ZM186.828 37.8994C186.828 38.682 187.011 39.302 187.367 39.7593C187.722 40.2167 188.271 40.4403 189.003 40.4403C189.735 40.4403 190.283 40.2167 190.629 39.7593C190.975 39.302 191.147 38.682 191.147 37.8994C191.147 36.1615 190.436 35.2976 189.003 35.2976C187.57 35.2976 186.838 36.1716 186.838 37.8994H186.828ZM204.685 47.8596C202.358 47.8596 200.549 47.2193 199.237 45.9387C197.926 44.6581 197.276 42.8389 197.276 40.4911C197.276 38.1433 197.876 36.2021 199.085 34.8809C200.294 33.5596 201.961 32.899 204.096 32.899C206.23 32.899 207.724 33.4783 208.852 34.637C209.98 35.7956 210.56 37.4014 210.56 39.4544V41.3652H201.26C201.301 42.4831 201.636 43.3572 202.256 43.9873C202.876 44.6175 203.74 44.9325 204.858 44.9325C205.722 44.9325 206.545 44.841 207.317 44.6581C208.09 44.4752 208.903 44.1906 209.746 43.7942V46.8432C209.055 47.1888 208.324 47.4429 207.541 47.6157C206.758 47.7884 205.803 47.8697 204.675 47.8697L204.685 47.8596ZM204.136 35.7041C203.303 35.7041 202.652 35.9684 202.175 36.4969C201.697 37.0254 201.433 37.7775 201.362 38.743H206.88C206.86 37.7673 206.606 37.0254 206.118 36.4969C205.63 35.9684 204.97 35.7041 204.126 35.7041H204.136ZM106.635 63.0844C106.635 65.1171 106.005 66.6721 104.734 67.7393C103.464 68.8166 101.665 69.3552 99.317 69.3552H97.5994V76.0631H93.595V57.1998H99.6219C101.909 57.1998 103.647 57.6876 104.846 58.6735C106.035 59.6593 106.635 61.1229 106.635 63.0742V63.0844ZM97.5994 66.0724H98.9105C100.14 66.0724 101.065 65.8285 101.675 65.3407C102.285 64.8528 102.59 64.1516 102.59 63.2165C102.59 62.2815 102.336 61.5904 101.817 61.1432C101.309 60.696 100.506 60.4724 99.4085 60.4724H97.5892V66.0724H97.5994ZM117.083 61.3668C117.611 61.3668 118.058 61.4074 118.414 61.4786L118.119 65.1679C117.804 65.0866 117.418 65.0358 116.961 65.0358C115.7 65.0358 114.725 65.361 114.024 66.0013C113.322 66.6416 112.977 67.5461 112.977 68.7149V76.0529H109.043V61.631H112.021L112.601 64.0601H112.794C113.241 63.2572 113.841 62.5966 114.603 62.1087C115.365 61.6107 116.188 61.3668 117.083 61.3668ZM133.476 68.8166C133.476 71.1643 132.856 73.0039 131.616 74.3252C130.376 75.6464 128.649 76.3172 126.443 76.3172C125.061 76.3172 123.841 76.0123 122.774 75.4126C121.707 74.813 120.904 73.9389 120.335 72.8006C119.766 71.6623 119.481 70.3411 119.481 68.8267C119.481 66.4688 120.091 64.6394 121.331 63.3283C122.561 62.0172 124.289 61.3668 126.514 61.3668C127.897 61.3668 129.116 61.6717 130.183 62.2713C131.24 62.871 132.053 63.7349 132.623 64.863C133.192 65.9911 133.476 67.3124 133.476 68.8267V68.8166ZM123.506 68.8166C123.506 70.2496 123.74 71.327 124.207 72.0587C124.675 72.7905 125.437 73.1564 126.494 73.1564C127.551 73.1564 128.303 72.7905 128.76 72.0689C129.218 71.3371 129.452 70.2598 129.452 68.8267C129.452 67.3937 129.218 66.3265 128.75 65.6151C128.283 64.9037 127.521 64.5479 126.464 64.5479C125.407 64.5479 124.654 64.9037 124.197 65.6151C123.74 66.3265 123.496 67.3937 123.496 68.8369L123.506 68.8166ZM148.691 61.631V63.6332L146.435 64.2125C146.851 64.8528 147.055 65.5846 147.055 66.3774C147.055 67.9222 146.516 69.1316 145.439 69.9955C144.361 70.8594 142.857 71.2965 140.946 71.2965L140.235 71.2558L139.656 71.1948C139.249 71.4997 139.046 71.8453 139.046 72.2315C139.046 72.8006 139.767 73.0852 141.211 73.0852H143.66C145.246 73.0852 146.445 73.4206 147.278 74.1016C148.112 74.7825 148.528 75.7785 148.528 77.0998C148.528 78.7869 147.827 80.098 146.414 81.0229C145.002 81.9477 142.989 82.4152 140.357 82.4152C138.345 82.4152 136.81 82.0697 135.743 81.3684C134.676 80.6671 134.147 79.6813 134.147 78.421C134.147 77.5571 134.421 76.8254 134.96 76.2359C135.499 75.6464 136.302 75.2297 137.349 74.9858C136.942 74.813 136.596 74.5284 136.292 74.1422C135.987 73.7458 135.844 73.3393 135.844 72.8921C135.844 72.3433 136.007 71.8859 136.322 71.5201C136.637 71.1542 137.105 70.7985 137.704 70.4427C136.952 70.1175 136.353 69.589 135.905 68.8674C135.458 68.1458 135.245 67.2921 135.245 66.3164C135.245 64.741 135.753 63.5214 136.779 62.6677C137.806 61.8038 139.269 61.3769 141.17 61.3769C141.577 61.3769 142.054 61.4176 142.613 61.4887C143.172 61.5599 143.528 61.6107 143.68 61.6514H148.711L148.691 61.631ZM137.562 78.0958C137.562 78.6345 137.826 79.0613 138.345 79.3764C138.863 79.6914 139.595 79.8439 140.53 79.8439C141.942 79.8439 143.05 79.6508 143.843 79.2646C144.636 78.8784 145.042 78.3499 145.042 77.6791C145.042 77.1404 144.809 76.7644 144.331 76.5611C143.853 76.3578 143.121 76.2562 142.136 76.2562H140.093C139.371 76.2562 138.761 76.429 138.284 76.7644C137.796 77.0998 137.552 77.5571 137.552 78.1161L137.562 78.0958ZM138.985 66.357C138.985 67.1396 139.168 67.7596 139.524 68.2169C139.879 68.6743 140.428 68.8979 141.16 68.8979C141.892 68.8979 142.44 68.6743 142.786 68.2169C143.132 67.7596 143.304 67.1396 143.304 66.357C143.304 64.6191 142.593 63.7552 141.16 63.7552C139.727 63.7552 138.995 64.6292 138.995 66.357H138.985ZM158.539 61.3668C159.068 61.3668 159.515 61.4074 159.871 61.4786L159.576 65.1679C159.261 65.0866 158.875 65.0358 158.417 65.0358C157.157 65.0358 156.181 65.361 155.48 66.0013C154.779 66.6416 154.433 67.5461 154.433 68.7149V76.0529H150.5V61.631H153.478L154.057 64.0601H154.25C154.698 63.2572 155.297 62.5966 156.059 62.1087C156.822 61.6107 157.645 61.3668 158.539 61.3668ZM170.715 76.0631L169.953 74.1016H169.851C169.191 74.935 168.51 75.5143 167.808 75.8395C167.107 76.1647 166.192 76.3273 165.064 76.3273C163.682 76.3273 162.584 75.931 161.792 75.1382C160.999 74.3455 160.602 73.2173 160.602 71.7538C160.602 70.2903 161.141 69.091 162.208 68.3694C163.275 67.6376 164.891 67.2412 167.056 67.1599L169.556 67.0786V66.4485C169.556 64.985 168.804 64.2532 167.31 64.2532C166.162 64.2532 164.8 64.5988 163.245 65.3L161.944 62.6372C163.601 61.7733 165.44 61.3363 167.463 61.3363C169.485 61.3363 170.878 61.7632 171.914 62.5966C172.951 63.4401 173.459 64.7207 173.459 66.4383V76.0529H170.715V76.0631ZM169.546 69.3756L168.022 69.4264C166.873 69.4569 166.03 69.6703 165.471 70.0464C164.912 70.4224 164.627 71.0017 164.627 71.7741C164.627 72.882 165.268 73.4409 166.538 73.4409C167.453 73.4409 168.174 73.1767 168.723 72.6584C169.272 72.1299 169.546 71.4387 169.546 70.5647V69.3756ZM189.68 76.0631H185.747V67.6376C185.747 66.601 185.574 65.8184 185.229 65.3C184.883 64.7817 184.334 64.5174 183.582 64.5174C182.576 64.5174 181.844 64.8833 181.387 65.6253C180.929 66.3672 180.706 67.5868 180.706 69.2739V76.0631H176.773V61.6412H179.781L180.309 63.4909H180.533C180.919 62.8303 181.478 62.312 182.21 61.9359C182.942 61.5599 183.775 61.3769 184.73 61.3769C186.885 61.3769 188.349 62.0782 189.121 63.4909H189.467C189.853 62.8201 190.422 62.3018 191.174 61.9258C191.926 61.5599 192.78 61.3668 193.725 61.3668C195.361 61.3668 196.591 61.7835 197.435 62.627C198.278 63.4706 198.695 64.8122 198.695 66.6619V76.0631H194.752V67.6376C194.752 66.601 194.579 65.8184 194.233 65.3C193.888 64.7817 193.339 64.5174 192.587 64.5174C191.621 64.5174 190.9 64.863 190.422 65.5541C189.944 66.2452 189.711 67.3327 189.711 68.8267V76.0631H189.68ZM214.896 76.0631H210.962V67.6376C210.962 66.601 210.79 65.8184 210.444 65.3C210.098 64.7817 209.55 64.5174 208.797 64.5174C207.791 64.5174 207.06 64.8833 206.602 65.6253C206.145 66.3672 205.921 67.5868 205.921 69.2739V76.0631H201.988V61.6412H204.996L205.525 63.4909H205.748C206.135 62.8303 206.694 62.312 207.425 61.9359C208.157 61.5599 208.991 61.3769 209.946 61.3769C212.101 61.3769 213.564 62.0782 214.337 63.4909H214.682C215.068 62.8201 215.637 62.3018 216.39 61.9258C217.142 61.5599 217.995 61.3668 218.941 61.3668C220.577 61.3668 221.807 61.7835 222.65 62.627C223.494 63.4706 223.91 64.8122 223.91 66.6619V76.0631H219.967V67.6376C219.967 66.601 219.794 65.8184 219.449 65.3C219.103 64.7817 218.554 64.5174 217.802 64.5174C216.837 64.5174 216.115 64.863 215.637 65.5541C215.16 66.2452 214.926 67.3327 214.926 68.8267V76.0631H214.896ZM233.81 76.3172C231.482 76.3172 229.673 75.6769 228.362 74.3963C227.051 73.1157 226.401 71.2965 226.401 68.9487C226.401 66.601 227 64.6597 228.21 63.3385C229.419 62.0172 231.086 61.3566 233.22 61.3566C235.355 61.3566 236.849 61.9359 237.977 63.0946C239.105 64.2532 239.684 65.859 239.684 67.912V69.8228H230.385C230.425 70.9407 230.761 71.8148 231.381 72.4449C232.001 73.0751 232.864 73.3901 233.982 73.3901C234.846 73.3901 235.67 73.2987 236.442 73.1157C237.214 72.9328 238.028 72.6482 238.871 72.2518V75.3008C238.18 75.6464 237.448 75.9005 236.666 76.0733C235.883 76.246 234.928 76.3273 233.799 76.3273L233.81 76.3172ZM233.261 64.1617C232.427 64.1617 231.777 64.426 231.299 64.9545C230.822 65.483 230.557 66.2351 230.486 67.2006H236.005C235.985 66.2249 235.731 65.483 235.243 64.9545C234.755 64.426 234.094 64.1617 233.251 64.1617H233.261ZM35.6127 0.0813074V5.17319H67.6376L25.4391 47.3717L29.0268 50.9594L71.2355 8.75071V40.7757H76.3273V0.0813074H35.6228H35.6127ZM40.7045 76.3985V71.3066H8.67957L50.8781 29.1081L47.2904 25.5204L5.09188 67.7291V35.7041H0V76.4087H40.7045V76.3985Z" fill="black"/>
</svg>
