<svg width="160" height="160" viewBox="0 0 160 160" fill="none" xmlns="http://www.w3.org/2000/svg">
<path d="M42.5 35.6416H5V138.767H42.5V35.6416Z" fill="#A9CAFF" stroke="#002D76" stroke-width="1.5" stroke-miterlimit="10"/>
<path d="M89.375 14.375H42.5V136.25H89.375V14.375Z" fill="#7EB0FF" stroke="#002D76" stroke-width="1.5" stroke-miterlimit="10"/>
<path d="M117.5 33.125H89.375V136.25H117.5V33.125Z" fill="#BFD7FF" stroke="#002D76" stroke-width="1.5" stroke-miterlimit="10"/>
<path d="M155 51.875H117.5V136.25H155V51.875Z" fill="#A9CAFF" stroke="#002D76" stroke-width="1.5" stroke-miterlimit="10"/>
<path d="M19.0625 42.5H14.375V51.875H19.0625V42.5Z" fill="#277AFF" stroke="#002D76" stroke-width="1.5" stroke-miterlimit="10"/>
<path d="M33.125 42.5H28.4375V51.875H33.125V42.5Z" fill="#277AFF" stroke="#002D76" stroke-width="1.5" stroke-miterlimit="10"/>
<path d="M19.0625 61.25H14.375V70.625H19.0625V61.25Z" fill="#277AFF" stroke="#002D76" stroke-width="1.5" stroke-miterlimit="10"/>
<path d="M33.125 61.25H28.4375V70.625H33.125V61.25Z" fill="#277AFF" stroke="#002D76" stroke-width="1.5" stroke-miterlimit="10"/>
<path d="M19.0625 80H14.375V89.375H19.0625V80Z" fill="#277AFF" stroke="#002D76" stroke-width="1.5" stroke-miterlimit="10"/>
<path d="M33.125 80H28.4375V89.375H33.125V80Z" fill="#277AFF" stroke="#002D76" stroke-width="1.5" stroke-miterlimit="10"/>
<path d="M19.0625 98.75H14.375V108.125H19.0625V98.75Z" fill="#277AFF" stroke="#002D76" stroke-width="1.5" stroke-miterlimit="10"/>
<path d="M33.125 98.75H28.4375V108.125H33.125V98.75Z" fill="#277AFF" stroke="#002D76" stroke-width="1.5" stroke-miterlimit="10"/>
<path d="M131.562 61.25H126.875V70.625H131.562V61.25Z" fill="#277AFF" stroke="#002D76" stroke-width="1.5" stroke-miterlimit="10"/>
<path d="M145.625 61.25H140.938V70.625H145.625V61.25Z" fill="#277AFF" stroke="#002D76" stroke-width="1.5" stroke-miterlimit="10"/>
<path d="M131.562 80H126.875V89.375H131.562V80Z" fill="#277AFF" stroke="#002D76" stroke-width="1.5" stroke-miterlimit="10"/>
<path d="M145.625 80H140.938V89.375H145.625V80Z" fill="#277AFF" stroke="#002D76" stroke-width="1.5" stroke-miterlimit="10"/>
<path d="M131.562 98.75H126.875V108.125H131.562V98.75Z" fill="#277AFF" stroke="#002D76" stroke-width="1.5" stroke-miterlimit="10"/>
<path d="M145.625 98.75H140.938V108.125H145.625V98.75Z" fill="#277AFF" stroke="#002D76" stroke-width="1.5" stroke-miterlimit="10"/>
<path d="M61.25 42.5H56.5625V51.875H61.25V42.5Z" fill="#277AFF" stroke="#002D76" stroke-width="1.5" stroke-miterlimit="10"/>
<path d="M75.3125 42.5H70.625V51.875H75.3125V42.5Z" fill="#277AFF" stroke="#002D76" stroke-width="1.5" stroke-miterlimit="10"/>
<path d="M61.25 23.75H56.5625V33.125H61.25V23.75Z" fill="#277AFF" stroke="#002D76" stroke-width="1.5" stroke-miterlimit="10"/>
<path d="M75.3125 23.75H70.625V33.125H75.3125V23.75Z" fill="#277AFF" stroke="#002D76" stroke-width="1.5" stroke-miterlimit="10"/>
<path d="M61.25 61.25H56.5625V70.625H61.25V61.25Z" fill="#277AFF" stroke="#002D76" stroke-width="1.5" stroke-miterlimit="10"/>
<path d="M75.3125 61.25H70.625V70.625H75.3125V61.25Z" fill="#277AFF" stroke="#002D76" stroke-width="1.5" stroke-miterlimit="10"/>
<path d="M61.25 80H56.5625V89.375H61.25V80Z" fill="#277AFF" stroke="#002D76" stroke-width="1.5" stroke-miterlimit="10"/>
<path d="M75.3125 80H70.625V89.375H75.3125V80Z" fill="#277AFF" stroke="#002D76" stroke-width="1.5" stroke-miterlimit="10"/>
<path d="M61.25 98.75H56.5625V108.125H61.25V98.75Z" fill="#277AFF" stroke="#002D76" stroke-width="1.5" stroke-miterlimit="10"/>
<path d="M75.3125 98.75H70.625V108.125H75.3125V98.75Z" fill="#277AFF" stroke="#002D76" stroke-width="1.5" stroke-miterlimit="10"/>
<path d="M105.781 42.5H101.094V51.875H105.781V42.5Z" fill="#277AFF" stroke="#002D76" stroke-width="1.5" stroke-miterlimit="10"/>
<path d="M105.781 61.25H101.094V70.625H105.781V61.25Z" fill="#277AFF" stroke="#002D76" stroke-width="1.5" stroke-miterlimit="10"/>
<path d="M105.781 80H101.094V89.375H105.781V80Z" fill="#277AFF" stroke="#002D76" stroke-width="1.5" stroke-miterlimit="10"/>
<path d="M105.781 98.75H101.094V108.125H105.781V98.75Z" fill="#277AFF" stroke="#002D76" stroke-width="1.5" stroke-miterlimit="10"/>
<path d="M155 136.25H5V145.625H155V136.25Z" fill="#5495FF" stroke="#002D76" stroke-width="1.5" stroke-miterlimit="10"/>
</svg>
