<svg width="160" height="161" viewBox="0 0 160 161" fill="none" xmlns="http://www.w3.org/2000/svg">
<path d="M155 33.6533V130.197C155 133.835 152.052 136.778 148.419 136.778H11.5812C7.94374 136.778 5 133.83 5 130.197V33.6533H155Z" fill="#A9CAFF" stroke="#002D76" stroke-width="1.5" stroke-miterlimit="10"/>
<path d="M155 30.6439V33.6533H5V30.6439C5 27.1283 7.85001 24.2783 11.3656 24.2783H148.634C152.15 24.2783 155 27.1283 155 30.6439Z" fill="#277AFF" stroke="#002D76" stroke-width="1.5" stroke-miterlimit="10"/>
<path d="M61.25 52.3237V108.742H136.288" stroke="#002D76" stroke-width="1.5" stroke-miterlimit="10"/>
<path d="M70.6621 71.1533V99.2783" stroke="#002D76" stroke-width="1.5" stroke-miterlimit="10"/>
<path d="M80.0371 61.7783V99.2783" stroke="#002D76" stroke-width="1.5" stroke-miterlimit="10"/>
<path d="M89.4121 61.7783V99.2783" stroke="#002D76" stroke-width="1.5" stroke-miterlimit="10"/>
<path d="M98.7871 71.1533V99.2783" stroke="#002D76" stroke-width="1.5" stroke-miterlimit="10"/>
<path d="M108.162 80.533V99.2783" stroke="#002D76" stroke-width="1.5" stroke-miterlimit="10"/>
<path d="M117.537 99.2783V71.1533" stroke="#002D76" stroke-width="1.5" stroke-miterlimit="10"/>
<path d="M126.912 99.2783V61.7783" stroke="#002D76" stroke-width="1.5" stroke-miterlimit="10"/>
<path d="M37.8125 99.2783C45.579 99.2783 51.875 92.9823 51.875 85.2158C51.875 77.4493 45.579 71.1533 37.8125 71.1533C30.046 71.1533 23.75 77.4493 23.75 85.2158C23.75 92.9823 30.046 99.2783 37.8125 99.2783Z" fill="#D4E5FF" stroke="#002D76" stroke-width="1.5" stroke-miterlimit="10"/>
<path d="M30.7812 84.6628C32.3422 86.2238 33.9078 87.7894 35.4688 89.3503C38.5953 86.2238 41.7172 83.1019 44.8438 79.9753" stroke="#002D76" stroke-width="1.5" stroke-miterlimit="10"/>
</svg>
