<svg width="160" height="161" viewBox="0 0 160 161" fill="none" xmlns="http://www.w3.org/2000/svg">
<path d="M68.0283 5.52832H91.9768C93.1299 5.52832 94.0674 6.46582 94.0674 7.61894V10.1033H65.9424V7.61894C65.9424 6.46582 66.8799 5.52832 68.033 5.52832H68.0283Z" fill="#7EB0FF" stroke="#002D76" stroke-width="1.5" stroke-miterlimit="10"/>
<path d="M122.97 14.9033H37.0297C34.8732 14.9033 33.125 16.6515 33.125 18.808V151.624C33.125 153.78 34.8732 155.528 37.0297 155.528H122.97C125.127 155.528 126.875 153.78 126.875 151.624V18.808C126.875 16.6515 125.127 14.9033 122.97 14.9033Z" fill="#BFD7FF" stroke="#002D76" stroke-width="1.5" stroke-miterlimit="10"/>
<path d="M61.25 38.3408H117.5" stroke="#002D76" stroke-width="1.5" stroke-miterlimit="10"/>
<path d="M42.5469 38.3408C44.1078 39.9018 45.6734 41.4674 47.2344 43.0283C50.3609 39.9018 53.4828 36.7799 56.6094 33.6533" fill="#BFD7FF"/>
<path d="M42.5469 38.3408C44.1078 39.9018 45.6734 41.4674 47.2344 43.0283C50.3609 39.9018 53.4828 36.7799 56.6094 33.6533" stroke="#002D76" stroke-width="1.5" stroke-miterlimit="10"/>
<path d="M61.25 57.0955H117.5" stroke="#002D76" stroke-width="1.5" stroke-miterlimit="10"/>
<path d="M42.5469 57.0955C44.1078 58.6564 45.6734 60.222 47.2344 61.783C50.3609 58.6564 53.4828 55.5345 56.6094 52.408" fill="#BFD7FF"/>
<path d="M42.5469 57.0955C44.1078 58.6564 45.6734 60.222 47.2344 61.783C50.3609 58.6564 53.4828 55.5345 56.6094 52.408" stroke="#002D76" stroke-width="1.5" stroke-miterlimit="10"/>
<path d="M61.25 75.8362H117.5" stroke="#002D76" stroke-width="1.5" stroke-miterlimit="10"/>
<path d="M42.5469 75.8362C44.1078 77.3971 45.6734 78.9627 47.2344 80.5237C50.3609 77.3971 53.4828 74.2752 56.6094 71.1487" fill="#BFD7FF"/>
<path d="M42.5469 75.8362C44.1078 77.3971 45.6734 78.9627 47.2344 80.5237C50.3609 77.3971 53.4828 74.2752 56.6094 71.1487" stroke="#002D76" stroke-width="1.5" stroke-miterlimit="10"/>
<path d="M61.25 94.5908H117.5" stroke="#002D76" stroke-width="1.5" stroke-miterlimit="10"/>
<path d="M42.5469 94.5908C44.1078 96.1518 45.6734 97.7174 47.2344 99.2783C50.3609 96.1518 53.4828 93.0299 56.6094 89.9033" fill="#BFD7FF"/>
<path d="M42.5469 94.5908C44.1078 96.1518 45.6734 97.7174 47.2344 99.2783C50.3609 96.1518 53.4828 93.0299 56.6094 89.9033" stroke="#002D76" stroke-width="1.5" stroke-miterlimit="10"/>
<path d="M61.25 113.35H117.5" stroke="#002D76" stroke-width="1.5" stroke-miterlimit="10"/>
<path d="M42.5469 113.35C44.1078 114.911 45.6734 116.477 47.2344 118.038C50.3609 114.911 53.4828 111.789 56.6094 108.663" fill="#BFD7FF"/>
<path d="M42.5469 113.35C44.1078 114.911 45.6734 116.477 47.2344 118.038C50.3609 114.911 53.4828 111.789 56.6094 108.663" stroke="#002D76" stroke-width="1.5" stroke-miterlimit="10"/>
<path d="M61.25 132.105H117.5" stroke="#002D76" stroke-width="1.5" stroke-miterlimit="10"/>
<path d="M42.5469 132.105C44.1078 133.666 45.6734 135.232 47.2344 136.792C50.3609 133.666 53.4828 130.544 56.6094 127.417" fill="#BFD7FF"/>
<path d="M42.5469 132.105C44.1078 133.666 45.6734 135.232 47.2344 136.792C50.3609 133.666 53.4828 130.544 56.6094 127.417" stroke="#002D76" stroke-width="1.5" stroke-miterlimit="10"/>
<path d="M105.95 10.2112H54.05C52.8488 10.2112 51.875 11.185 51.875 12.3862V17.4112C51.875 18.6124 52.8488 19.5862 54.05 19.5862H105.95C107.151 19.5862 108.125 18.6124 108.125 17.4112V12.3862C108.125 11.185 107.151 10.2112 105.95 10.2112Z" fill="#277AFF" stroke="#002D76" stroke-width="1.5" stroke-miterlimit="10"/>
</svg>
