<svg width="160" height="161" viewBox="0 0 160 161" fill="none" xmlns="http://www.w3.org/2000/svg">
<path d="M154.897 20.5386V108.646H5V20.5386C5 17.4362 7.51656 14.9197 10.6189 14.9197H149.278C152.38 14.9197 154.897 17.4362 154.897 20.5386Z" fill="#BFD7FF" stroke="#002D76" stroke-width="1.5" stroke-miterlimit="10"/>
<path d="M80.0195 85.2145C92.9605 85.2145 103.451 74.7238 103.451 61.7829C103.451 48.842 92.9605 38.3513 80.0195 38.3513C67.0786 38.3513 56.5879 48.842 56.5879 61.7829C56.5879 74.7238 67.0786 85.2145 80.0195 85.2145Z" fill="#7EB0FF" stroke="#002D76" stroke-width="1.5" stroke-miterlimit="10"/>
<path d="M154.897 108.646V112.634C154.897 115.737 152.38 118.253 149.278 118.253H10.6189C7.51656 118.253 5 115.737 5 112.634V108.646H154.897Z" fill="#277AFF" stroke="#002D76" stroke-width="1.5" stroke-miterlimit="10"/>
<path d="M54.9658 146.136H104.931" stroke="#002D76" stroke-width="1.5" stroke-miterlimit="10"/>
<path d="M79.9482 118.253V146.137" stroke="#002D76" stroke-width="1.5" stroke-miterlimit="10"/>
<path d="M155 108.646H154.896" stroke="#002D76" stroke-width="1.5" stroke-miterlimit="10"/>
<path d="M69.0859 61.7833H72.207L76.8934 71.1559L81.6922 52.4106L87.8313 61.7833H90.9523" stroke="#002D76" stroke-width="1.5" stroke-miterlimit="10"/>
</svg>
