<svg width="160" height="161" viewBox="0 0 160 161" fill="none" xmlns="http://www.w3.org/2000/svg">
<path d="M80 155.31C121.421 155.31 155 121.731 155 80.3101C155 38.8887 121.421 5.31006 80 5.31006C38.5786 5.31006 5 38.8887 5 80.3101C5 121.731 38.5786 155.31 80 155.31Z" fill="#7EB0FF" stroke="#002D76" stroke-width="1.5" stroke-miterlimit="10"/>
<path d="M80 16.0244V37.453" stroke="#002D76" stroke-width="1.5" stroke-miterlimit="10"/>
<path d="M15.7139 80.3101H37.1424" stroke="#002D76" stroke-width="1.5" stroke-miterlimit="10"/>
<path d="M80 144.596V123.167" stroke="#002D76" stroke-width="1.5" stroke-miterlimit="10"/>
<path d="M144.286 80.3101H122.857" stroke="#002D76" stroke-width="1.5" stroke-miterlimit="10"/>
<path d="M87.5802 87.8847L72.4248 72.7347L110.305 50.0044L87.5802 87.8847Z" fill="#277AFF" stroke="#002D76" stroke-width="1.5" stroke-miterlimit="10"/>
<path d="M72.4252 72.7349L87.5806 87.8849L49.7002 110.615L72.4252 72.7349Z" fill="#A9CAFF" stroke="#002D76" stroke-width="1.5" stroke-miterlimit="10"/>
<path d="M80.0004 91.0243C85.9178 91.0243 90.7147 86.2273 90.7147 80.31C90.7147 74.3927 85.9178 69.5957 80.0004 69.5957C74.0831 69.5957 69.2861 74.3927 69.2861 80.31C69.2861 86.2273 74.0831 91.0243 80.0004 91.0243Z" fill="#7EB0FF" stroke="#002D76" stroke-width="1.5" stroke-miterlimit="10"/>
<path d="M79.9997 85.6669C82.9584 85.6669 85.3569 83.2684 85.3569 80.3098C85.3569 77.3511 82.9584 74.9526 79.9997 74.9526C77.0411 74.9526 74.6426 77.3511 74.6426 80.3098C74.6426 83.2684 77.0411 85.6669 79.9997 85.6669Z" fill="#277AFF" stroke="#002D76" stroke-width="1.5" stroke-miterlimit="10"/>
</svg>
