<svg width="160" height="161" viewBox="0 0 160 161" fill="none" xmlns="http://www.w3.org/2000/svg">
<path d="M44.9026 5.45801H7.39551V24.2115H44.9026V5.45801Z" fill="#7EB0FF" stroke="#002D76" stroke-width="1.5" stroke-miterlimit="10"/>
<path d="M44.9545 24.2119H7.21292C5.99076 24.2119 5 25.2027 5 26.4248V40.7525C5 41.9747 5.99076 42.9654 7.21292 42.9654H44.9545C46.1766 42.9654 47.1674 41.9747 47.1674 40.7525V26.4248C47.1674 25.2027 46.1766 24.2119 44.9545 24.2119Z" fill="#277AFF" stroke="#002D76" stroke-width="1.5" stroke-miterlimit="10"/>
<path d="M16.7723 61.7184H35.5259L44.9026 42.9648H7.39551L16.7723 61.7184Z" fill="#BFD7FF" stroke="#002D76" stroke-width="1.5" stroke-miterlimit="10"/>
<path d="M16.7725 5.45801V10.4652" stroke="#002D76" stroke-width="1.5" stroke-miterlimit="10"/>
<path d="M26.1494 5.45801V10.4652" stroke="#002D76" stroke-width="1.5" stroke-miterlimit="10"/>
<path d="M35.5264 5.45801V10.4652" stroke="#002D76" stroke-width="1.5" stroke-miterlimit="10"/>
<path d="M40.2568 5.45801V10.4652" stroke="#002D76" stroke-width="1.5" stroke-miterlimit="10"/>
<path d="M12.1035 5.45801V10.4652" stroke="#002D76" stroke-width="1.5" stroke-miterlimit="10"/>
<path d="M21.4795 5.45801V10.4652" stroke="#002D76" stroke-width="1.5" stroke-miterlimit="10"/>
<path d="M30.8564 5.45801V10.4652" stroke="#002D76" stroke-width="1.5" stroke-miterlimit="10"/>
<path d="M26.0831 28.9607C28.7087 28.9607 30.8372 26.8322 30.8372 24.2067C30.8372 21.5811 28.7087 19.4526 26.0831 19.4526C23.4576 19.4526 21.3291 21.5811 21.3291 24.2067C21.3291 26.8322 23.4576 28.9607 26.0831 28.9607Z" fill="#BFD7FF" stroke="#002D76" stroke-width="1.5" stroke-miterlimit="10"/>
<path d="M115.096 155.486H152.604V136.732H115.096V155.486Z" fill="#7EB0FF" stroke="#002D76" stroke-width="1.5" stroke-miterlimit="10"/>
<path d="M115.046 136.732H152.787C154.009 136.732 155 135.742 155 134.52V120.192C155 118.97 154.009 117.979 152.787 117.979H115.046C113.823 117.979 112.833 118.97 112.833 120.192V134.52C112.833 135.742 113.823 136.732 115.046 136.732Z" fill="#277AFF" stroke="#002D76" stroke-width="1.5" stroke-miterlimit="10"/>
<path d="M143.227 99.2251H124.473L115.097 117.979H152.604L143.227 99.2251Z" fill="#BFD7FF" stroke="#002D76" stroke-width="1.5" stroke-miterlimit="10"/>
<path d="M143.227 155.486V150.479" stroke="#002D76" stroke-width="1.5" stroke-miterlimit="10"/>
<path d="M133.851 155.486V150.479" stroke="#002D76" stroke-width="1.5" stroke-miterlimit="10"/>
<path d="M124.474 155.486V150.479" stroke="#002D76" stroke-width="1.5" stroke-miterlimit="10"/>
<path d="M119.743 155.486V150.479" stroke="#002D76" stroke-width="1.5" stroke-miterlimit="10"/>
<path d="M147.901 155.486V150.479" stroke="#002D76" stroke-width="1.5" stroke-miterlimit="10"/>
<path d="M138.524 155.486V150.479" stroke="#002D76" stroke-width="1.5" stroke-miterlimit="10"/>
<path d="M129.148 155.486V150.479" stroke="#002D76" stroke-width="1.5" stroke-miterlimit="10"/>
<path d="M133.916 141.491C136.542 141.491 138.67 139.363 138.67 136.737C138.67 134.112 136.542 131.983 133.916 131.983C131.291 131.983 129.162 134.112 129.162 136.737C129.162 139.363 131.291 141.491 133.916 141.491Z" fill="#BFD7FF" stroke="#002D76" stroke-width="1.5" stroke-miterlimit="10"/>
<path d="M26.0977 61.7186V129.7C26.0977 143.943 38.1652 155.486 53.0559 155.486C67.9467 155.486 80.0142 143.943 80.0142 129.7V31.2441C80.0142 17.0008 92.0817 5.45801 106.972 5.45801C121.863 5.45801 133.931 17.0008 133.931 31.2441V99.2257" stroke="#002D76" stroke-width="1.5" stroke-miterlimit="10"/>
</svg>
