<svg width="160" height="161" viewBox="0 0 160 161" fill="none" xmlns="http://www.w3.org/2000/svg">
<path d="M80.1294 124.01C104.025 124.01 123.396 104.639 123.396 80.7437C123.396 56.8484 104.025 37.4775 80.1294 37.4775C56.2342 37.4775 36.8633 56.8484 36.8633 80.7437C36.8633 104.639 56.2342 124.01 80.1294 124.01Z" fill="#BFD7FF" stroke="#002D76" stroke-width="1.5" stroke-miterlimit="10"/>
<path d="M69.1455 69.7656H58.3828V102.054H69.1455V69.7656Z" fill="#5495FF" stroke="#002D76" stroke-width="1.5" stroke-miterlimit="10"/>
<path d="M79.9082 59.0029H69.1455V102.054H79.9082V59.0029Z" fill="#5495FF" stroke="#002D76" stroke-width="1.5" stroke-miterlimit="10"/>
<path d="M90.6709 48.2402H79.9082V102.054H90.6709V48.2402Z" fill="#5495FF" stroke="#002D76" stroke-width="1.5" stroke-miterlimit="10"/>
<path d="M101.434 59.0029H90.6709V102.054H101.434V59.0029Z" fill="#5495FF" stroke="#002D76" stroke-width="1.5" stroke-miterlimit="10"/>
<path d="M142.967 93.4543C136.988 122.681 111.125 144.669 80.1287 144.669C44.7032 144.669 15.9883 115.954 15.9883 80.5283" stroke="#002D76" stroke-width="1.5" stroke-miterlimit="10"/>
<path d="M17.5439 66.4292C23.9693 37.7896 49.5523 16.3879 80.1291 16.3879C115.555 16.3879 144.27 45.1029 144.27 80.5284C144.27 80.6037 144.27 80.6737 144.27 80.749" stroke="#002D76" stroke-width="1.5" stroke-miterlimit="10"/>
<path d="M129.396 69.7979L144.27 80.5284L155 65.6543" stroke="#002D76" stroke-width="1.5" stroke-miterlimit="10"/>
<path d="M31.2234 91.5171L15.9887 80.5283L5 95.7629" stroke="#002D76" stroke-width="1.5" stroke-miterlimit="10"/>
</svg>
