<svg width="160" height="161" viewBox="0 0 160 161" fill="none" xmlns="http://www.w3.org/2000/svg">
<path d="M117.5 14.3784V75.7847H5V14.3784C5 12.0487 6.88906 10.1597 9.21875 10.1597H113.281C115.611 10.1597 117.5 12.0487 117.5 14.3784Z" fill="#5495FF" stroke="#002D76" stroke-width="1.5" stroke-miterlimit="10"/>
<path d="M117.5 75.7847V80.9409C117.5 83.2706 115.611 85.1597 113.281 85.1597H9.21875C6.88906 85.1597 5 83.2706 5 80.9409V75.7847H117.5Z" fill="#277AFF" stroke="#002D76" stroke-width="1.5" stroke-miterlimit="10"/>
<path d="M42.5 103.91H80" stroke="#002D76" stroke-width="1.5" stroke-miterlimit="10"/>
<path d="M61.25 85.1597V103.91" stroke="#002D76" stroke-width="1.5" stroke-miterlimit="10"/>
<path d="M117.575 75.7847H117.5" stroke="#002D76" stroke-width="1.5" stroke-miterlimit="10"/>
<path d="M151.142 66.4424H93.2328C91.1022 66.4424 89.375 68.1696 89.375 70.3002V146.927C89.375 149.057 91.1022 150.785 93.2328 150.785H151.142C153.273 150.785 155 149.057 155 146.927V70.3002C155 68.1696 153.273 66.4424 151.142 66.4424Z" fill="#BFD7FF" stroke="#002D76" stroke-width="1.5" stroke-miterlimit="10"/>
<path d="M122.918 72.4189C123.436 72.4189 123.855 71.9992 123.855 71.4814C123.855 70.9637 123.436 70.5439 122.918 70.5439C122.4 70.5439 121.98 70.9637 121.98 71.4814C121.98 71.9992 122.4 72.4189 122.918 72.4189Z" fill="#A9CAFF" stroke="#002D76" stroke-width="1.5" stroke-miterlimit="10"/>
<path d="M122.918 143.753C124.212 143.753 125.262 142.704 125.262 141.41C125.262 140.115 124.212 139.066 122.918 139.066C121.624 139.066 120.574 140.115 120.574 141.41C120.574 142.704 121.624 143.753 122.918 143.753Z" fill="#A9CAFF" stroke="#002D76" stroke-width="1.5" stroke-miterlimit="10"/>
</svg>
