<svg width="160" height="161" viewBox="0 0 160 161" fill="none" xmlns="http://www.w3.org/2000/svg">
<path d="M26.4287 74.9088V86.148C26.4287 88.9617 28.7097 91.2427 31.5234 91.2427H42.7626C45.5763 91.2427 47.8573 88.9617 47.8573 86.148V74.9088C47.8573 72.0951 45.5763 69.8141 42.7626 69.8141H31.5234C28.7097 69.8141 26.4287 72.0951 26.4287 74.9088Z" fill="#277AFF" stroke="#002D76" stroke-width="1.5" stroke-miterlimit="10"/>
<path d="M112.143 139.194V150.434C112.143 153.247 114.424 155.528 117.237 155.528H128.477C131.29 155.528 133.571 153.247 133.571 150.434V139.194C133.571 136.381 131.29 134.1 128.477 134.1H117.237C114.424 134.1 112.143 136.381 112.143 139.194Z" fill="#BFD7FF" stroke="#002D76" stroke-width="1.5" stroke-miterlimit="10"/>
<path d="M112.143 96.3372V107.576C112.143 110.39 114.424 112.671 117.237 112.671H128.477C131.29 112.671 133.571 110.39 133.571 107.576V96.3372C133.571 93.5235 131.29 91.2426 128.477 91.2426H117.237C114.424 91.2426 112.143 93.5235 112.143 96.3372Z" fill="#BFD7FF" stroke="#002D76" stroke-width="1.5" stroke-miterlimit="10"/>
<path d="M112.143 53.48V64.7193C112.143 67.533 114.424 69.814 117.237 69.814H128.477C131.29 69.814 133.571 67.533 133.571 64.7193V53.48C133.571 50.6663 131.29 48.3854 128.477 48.3854H117.237C114.424 48.3854 112.143 50.6663 112.143 53.48Z" fill="#BFD7FF" stroke="#002D76" stroke-width="1.5" stroke-miterlimit="10"/>
<path d="M69.2861 117.766V129.005C69.2861 131.819 71.5671 134.1 74.3808 134.1H85.6201C88.4338 134.1 90.7147 131.819 90.7147 129.005V117.766C90.7147 114.952 88.4338 112.671 85.6201 112.671H74.3808C71.5671 112.671 69.2861 114.952 69.2861 117.766Z" fill="#7EB0FF" stroke="#002D76" stroke-width="1.5" stroke-miterlimit="10"/>
<path d="M69.2861 32.0516V43.2909C69.2861 46.1045 71.5671 48.3855 74.3808 48.3855H85.6201C88.4338 48.3855 90.7147 46.1045 90.7147 43.2909V32.0516C90.7147 29.2379 88.4338 26.9569 85.6201 26.9569H74.3808C71.5671 26.9569 69.2861 29.2379 69.2861 32.0516Z" fill="#7EB0FF" stroke="#002D76" stroke-width="1.5" stroke-miterlimit="10"/>
<path d="M112.143 10.6229V21.8621C112.143 24.6758 114.424 26.9568 117.237 26.9568H128.477C131.29 26.9568 133.571 24.6758 133.571 21.8621V10.6229C133.571 7.80917 131.29 5.52822 128.477 5.52822H117.237C114.424 5.52822 112.143 7.80917 112.143 10.6229Z" fill="#BFD7FF" stroke="#002D76" stroke-width="1.5" stroke-miterlimit="10"/>
<path d="M47.8574 80.5283H80.0003" stroke="#002D76" stroke-width="1.5" stroke-miterlimit="10"/>
<path d="M80 48.3855V112.671" stroke="#002D76" stroke-width="1.5" stroke-miterlimit="10"/>
<path d="M90.7148 123.385H122.858" stroke="#002D76" stroke-width="1.5" stroke-miterlimit="10"/>
<path d="M90.7148 37.6711H122.858" stroke="#002D76" stroke-width="1.5" stroke-miterlimit="10"/>
<path d="M122.857 134.1V112.671" stroke="#002D76" stroke-width="1.5" stroke-miterlimit="10"/>
<path d="M122.857 48.3854V26.9568" stroke="#002D76" stroke-width="1.5" stroke-miterlimit="10"/>
</svg>
