<svg width="160" height="161" viewBox="0 0 160 161" fill="none" xmlns="http://www.w3.org/2000/svg">
<path d="M112.816 38.2867C112.816 19.9012 97.6933 5.04556 79.2093 5.48152C61.841 5.88936 47.6557 20.0278 47.1963 37.396C46.7932 52.6548 56.8063 65.6353 70.6353 69.7418H70.6212V74.5655C70.6212 74.7437 70.7009 74.9124 70.8369 75.0249L77.381 80.5519C77.6764 80.8003 77.6623 81.255 77.3576 81.4894L70.8556 86.4678C70.7056 86.5804 70.6212 86.7585 70.6212 86.946V95.1965C70.6212 95.3747 70.7009 95.5434 70.8369 95.6559L77.3904 101.183C77.6811 101.427 77.6764 101.881 77.3763 102.116L71.301 106.893C70.9728 107.15 71.001 107.657 71.3572 107.877L77.0904 111.435C77.4795 111.679 77.4654 112.246 77.0669 112.471L70.9306 115.917C70.7384 116.024 70.6212 116.226 70.6212 116.442V125.536C70.6212 125.742 70.7243 125.934 70.8978 126.042L77.2591 130.092C77.6014 130.313 77.6342 130.8 77.3248 131.063L70.8322 136.543C70.6963 136.655 70.6165 136.824 70.6165 137.002V146.097L79.9921 155.472L89.3677 146.097V69.7324H89.3537C102.915 65.7056 112.807 53.147 112.807 38.2773L112.816 38.2867ZM80.0015 14.8477C82.5892 14.8477 84.6893 16.9479 84.6893 19.5355C84.6893 22.1232 82.5892 24.2233 80.0015 24.2233C77.4138 24.2233 75.3137 22.1232 75.3137 19.5355C75.3137 16.9479 77.4138 14.8477 80.0015 14.8477Z" fill="#277AFF" stroke="#002D76" stroke-width="1.5" stroke-linejoin="round"/>
</svg>
