<svg width="160" height="161" viewBox="0 0 160 161" fill="none" xmlns="http://www.w3.org/2000/svg">
<path d="M155 80.3233C155 84.0218 153.5 87.3968 151.048 89.8249C148.625 92.2483 145.273 93.7483 141.575 93.7483H128.15C122.3 114.847 102.95 130.325 80 130.325C57.05 130.325 37.6766 114.851 31.85 93.7483H18.425C11 93.7483 5 87.7483 5 80.3233C5 76.6249 6.5 73.2733 8.92344 70.8218C11.3469 68.3983 14.6984 66.8983 18.425 66.8983H31.85C37.6766 45.8233 57.0266 30.3218 80 30.3218C102.973 30.3218 122.3 45.8233 128.15 66.8983H141.575C148.977 66.8983 155 72.9218 155 80.3233Z" fill="#A9CAFF" stroke="#002D76" stroke-width="1.5" stroke-miterlimit="10"/>
<path d="M16.7705 38.1216C23.8955 50.2528 37.1893 58.5263 51.2189 59.5622C65.2486 60.5981 79.6158 54.3591 88.4377 43.4091C102.997 50.7966 122.595 46.1044 132.228 32.9185" stroke="#002D76" stroke-width="1.5" stroke-miterlimit="10"/>
<path d="M105.837 92.689C99.5887 99.9405 90.3121 104.539 79.9855 104.539C69.659 104.539 60.3871 99.9358 54.1621 92.689" stroke="#002D76" stroke-width="1.5" stroke-miterlimit="10"/>
<path d="M52.8266 73.6341C53.3521 73.6341 53.7781 73.2081 53.7781 72.6825C53.7781 72.157 53.3521 71.731 52.8266 71.731C52.301 71.731 51.875 72.157 51.875 72.6825C51.875 73.2081 52.301 73.6341 52.8266 73.6341Z" fill="#002D76"/>
<path d="M107.23 73.6341C107.755 73.6341 108.181 73.2081 108.181 72.6825C108.181 72.157 107.755 71.731 107.23 71.731C106.704 71.731 106.278 72.157 106.278 72.6825C106.278 73.2081 106.704 73.6341 107.23 73.6341Z" fill="#002D76"/>
</svg>
