<svg width="160" height="161" viewBox="0 0 160 161" fill="none" xmlns="http://www.w3.org/2000/svg">
<path d="M98.5817 96.1595C120.128 96.1595 137.595 78.6926 137.595 57.1461C137.595 35.5997 120.128 18.1328 98.5817 18.1328C77.0352 18.1328 59.5684 35.5997 59.5684 57.1461C59.5684 78.6926 77.0352 96.1595 98.5817 96.1595Z" fill="#BFD7FF" fill-opacity="0.5" stroke="#002D76" stroke-width="1.5" stroke-miterlimit="10"/>
<path d="M42.9775 56.6594H74.4813C74.845 56.6594 75.1713 56.4562 75.3371 56.1299L84.5903 37.6288C84.9915 36.8319 86.1682 36.9709 86.3714 37.8374L95.6621 77.5996C95.8868 78.5516 97.2186 78.5944 97.5074 77.6584L106.472 48.246C106.723 47.4223 107.852 47.326 108.237 48.0962L117.271 66.1641C117.56 66.7471 118.341 66.8754 118.801 66.4101L128.284 56.9269C128.46 56.7504 128.706 56.6487 128.958 56.6487H155" stroke="#002D76" stroke-width="1.5" stroke-miterlimit="10"/>
<path d="M60.8583 83.8395L71.8906 94.8718L21.0555 145.707C18.287 148.475 13.7863 148.475 11.0179 145.707L10.0194 144.708C7.25089 141.94 7.2509 137.439 10.0194 134.671L60.8545 83.8357L60.8583 83.8395Z" fill="#277AFF" stroke="#002D76" stroke-width="1.5" stroke-miterlimit="10"/>
<path d="M138.804 33.0718C120.078 2.75014 77.0905 2.75014 58.3594 33.0718C49.2773 47.7754 49.2773 66.5172 58.3594 81.2207C77.0852 111.542 120.073 111.542 138.804 81.2207C147.886 66.5172 147.886 47.7754 138.804 33.0718ZM132.107 77.1985C116.5 102.482 80.6634 102.482 65.056 77.1985C57.4929 64.95 57.4929 49.3479 65.056 37.0994C80.6581 11.8162 116.5 11.8162 132.107 37.0994C139.67 49.3479 139.67 64.95 132.107 77.1985Z" fill="#5495FF" stroke="#002D76" stroke-width="1.5" stroke-miterlimit="10"/>
</svg>
