<svg width="160" height="161" viewBox="0 0 160 161" fill="none" xmlns="http://www.w3.org/2000/svg">
<path d="M117.498 70.9776C130.442 70.9776 140.935 60.5169 140.935 47.6131C140.935 34.7092 130.442 24.2485 117.498 24.2485C104.555 24.2485 94.0615 34.7092 94.0615 47.6131C94.0615 60.5169 104.555 70.9776 117.498 70.9776Z" fill="#277AFF" stroke="#002D76" stroke-width="1.5" stroke-miterlimit="10"/>
<path d="M117.258 70.9771H117.741C138.304 70.9771 155.001 87.6219 155.001 108.122V136.398H80.0029V108.122C80.0029 87.6219 96.6993 70.9771 117.263 70.9771H117.258Z" fill="#5495FF" stroke="#002D76" stroke-width="1.5" stroke-miterlimit="10"/>
<path d="M42.4993 70.9776C55.443 70.9776 65.936 60.5169 65.936 47.6131C65.936 34.7092 55.443 24.2485 42.4993 24.2485C29.5555 24.2485 19.0625 34.7092 19.0625 47.6131C19.0625 60.5169 29.5555 70.9776 42.4993 70.9776Z" fill="#5495FF" stroke="#002D76" stroke-width="1.5" stroke-miterlimit="10"/>
<path d="M42.2607 70.9771H42.7435C63.3069 70.9771 80.0033 87.6219 80.0033 108.122V136.398H5.00098V108.122C5.00098 87.6219 21.6973 70.9771 42.2607 70.9771Z" fill="#7EB0FF" stroke="#002D76" stroke-width="1.5" stroke-miterlimit="10"/>
<path d="M79.9993 70.9776C92.943 70.9776 103.436 60.5169 103.436 47.6131C103.436 34.7092 92.943 24.2485 79.9993 24.2485C67.0555 24.2485 56.5625 34.7092 56.5625 47.6131C56.5625 60.5169 67.0555 70.9776 79.9993 70.9776Z" fill="#D4E5FF" stroke="#002D76" stroke-width="1.5" stroke-miterlimit="10"/>
<path d="M79.7598 70.9771H80.2426C100.806 70.9771 117.502 87.6219 117.502 108.122V136.398H42.5V108.122C42.5 87.6219 59.1964 70.9771 79.7598 70.9771Z" fill="#A9CAFF" stroke="#002D76" stroke-width="1.5" stroke-miterlimit="10"/>
</svg>
