<svg width="160" height="160" viewBox="0 0 160 160" fill="none" xmlns="http://www.w3.org/2000/svg">
<path d="M126.916 33.0836C133.206 39.3734 133.206 49.5833 126.916 55.8731L120.649 62.14L97.8637 39.3543L104.131 33.0874C110.42 26.7976 120.63 26.7976 126.92 33.0874L126.916 33.0836Z" fill="#D4E5FF" stroke="#002D76" stroke-width="1.5" stroke-miterlimit="10"/>
<path d="M49.6529 142.99H17.0088V110.351" fill="#A9CAFF"/>
<path d="M49.6529 142.99H17.0088V110.351" stroke="#002D76" stroke-width="1.5" stroke-miterlimit="10"/>
<path d="M17.0092 142.99L5 154.999" stroke="#002D76" stroke-width="1.5" stroke-miterlimit="10"/>
<path d="M60.5801 57.0076L102.997 99.4249" stroke="#002D76" stroke-width="1.5" stroke-miterlimit="10"/>
<path d="M33.5546 5.00152L25.2305 13.3257L35.4595 23.5547L43.7836 15.2305L33.5546 5.00152Z" fill="#5495FF" stroke="#002D76" stroke-width="1.5" stroke-miterlimit="10"/>
<path d="M43.7822 15.2298L35.458 23.554L54.514 42.61L62.8382 34.2858L43.7822 15.2298Z" fill="#7EB0FF" stroke="#002D76" stroke-width="1.5" stroke-miterlimit="10"/>
<path d="M62.8368 34.2928L54.5127 42.6169L64.7417 52.8459L73.0658 44.5218L62.8368 34.2928Z" fill="#A9CAFF" stroke="#002D76" stroke-width="1.5" stroke-miterlimit="10"/>
<path d="M54.5165 42.6129L46.1885 50.9409L56.4175 61.1699L64.7454 52.8419L54.5165 42.6129Z" fill="#A9CAFF" stroke="#002D76" stroke-width="1.5" stroke-miterlimit="10"/>
<path d="M25.2254 13.3251L16.8975 21.6531L27.1264 31.8821L35.4544 23.5541L25.2254 13.3251Z" fill="#5495FF" stroke="#002D76" stroke-width="1.5" stroke-miterlimit="10"/>
<path d="M16.9013 21.6568L8.57715 29.981L18.8061 40.2099L27.1303 31.8858L16.9013 21.6568Z" fill="#5495FF" stroke="#002D76" stroke-width="1.5" stroke-miterlimit="10"/>
<path d="M27.1288 31.8848L18.8047 40.209L37.8607 59.265L46.1848 50.9409L27.1288 31.8848Z" fill="#7EB0FF" stroke="#002D76" stroke-width="1.5" stroke-miterlimit="10"/>
<path d="M46.1835 50.9405L37.8594 59.2646L48.0884 69.4936L56.4125 61.1695L46.1835 50.9405Z" fill="#A9CAFF" stroke="#002D76" stroke-width="1.5" stroke-miterlimit="10"/>
<path d="M35.4627 23.5573L27.1348 31.8853L46.1908 50.9413L54.5187 42.6133L35.4627 23.5573Z" fill="#7EB0FF" stroke="#002D76" stroke-width="1.5" stroke-miterlimit="10"/>
<path d="M98.832 103.587L90.5078 111.912L100.737 122.141L109.061 113.816L98.832 103.587Z" fill="#A9CAFF" stroke="#002D76" stroke-width="1.5" stroke-miterlimit="10"/>
<path d="M109.059 113.816L100.735 122.14L119.791 141.196L128.116 132.872L109.059 113.816Z" fill="#7EB0FF" stroke="#002D76" stroke-width="1.5" stroke-miterlimit="10"/>
<path d="M128.114 132.871L119.79 141.195L130.019 151.424L138.343 143.1L128.114 132.871Z" fill="#5495FF" stroke="#002D76" stroke-width="1.5" stroke-miterlimit="10"/>
<path d="M136.447 124.544L128.119 132.872L138.348 143.101L146.676 134.773L136.447 124.544Z" fill="#5495FF" stroke="#002D76" stroke-width="1.5" stroke-miterlimit="10"/>
<path d="M115.485 86.9322L107.161 95.2563L117.39 105.485L125.714 97.1612L115.485 86.9322Z" fill="#A9CAFF" stroke="#002D76" stroke-width="1.5" stroke-miterlimit="10"/>
<path d="M107.156 95.256L98.8281 103.584L109.057 113.813L117.385 105.485L107.156 95.256Z" fill="#A9CAFF" stroke="#002D76" stroke-width="1.5" stroke-miterlimit="10"/>
<path d="M125.713 97.1607L117.389 105.485L136.445 124.541L144.769 116.217L125.713 97.1607Z" fill="#7EB0FF" stroke="#002D76" stroke-width="1.5" stroke-miterlimit="10"/>
<path d="M144.77 116.219L136.446 124.543L146.675 134.772L154.999 126.448L144.77 116.219Z" fill="#5495FF" stroke="#002D76" stroke-width="1.5" stroke-miterlimit="10"/>
<path d="M117.392 105.488L109.064 113.816L128.12 132.872L136.448 124.544L117.392 105.488Z" fill="#7EB0FF" stroke="#002D76" stroke-width="1.5" stroke-miterlimit="10"/>
<rect x="51.251" y="102.532" width="8.77246" height="8.77246" transform="rotate(45 51.251 102.532)" fill="#BFD7FF" stroke="#002D76" stroke-width="1.5"/>
<path d="M123.308 64.7991L95.2044 36.6951C94.6573 36.148 93.7704 36.1481 93.2234 36.6951L40.265 89.6534C39.718 90.2005 39.7179 91.0874 40.265 91.6345L68.369 119.738C68.9161 120.286 69.803 120.286 70.35 119.738L123.308 66.7801C123.855 66.2331 123.855 65.3462 123.308 64.7991Z" fill="#7EB0FF" stroke="#002D76" stroke-width="1.5" stroke-miterlimit="10"/>
<path d="M55.865 149.202L10.7969 104.134C23.3071 98.9238 38.2526 101.408 48.4245 111.574C58.5965 121.746 61.0803 136.692 55.865 149.202Z" fill="#277AFF" stroke="#002D76" stroke-width="1.5" stroke-miterlimit="10"/>
</svg>
