<svg width="160" height="160" viewBox="0 0 160 160" fill="none" xmlns="http://www.w3.org/2000/svg">
<path d="M136.25 33.125H23.75L5 61.25H155L136.25 33.125Z" fill="#277AFF" stroke="#002D76" stroke-width="1.5" stroke-miterlimit="10"/>
<path d="M108.125 61.25H51.875V145.625H108.125V61.25Z" fill="#BFD7FF" stroke="#002D76" stroke-width="1.5" stroke-miterlimit="10"/>
<path d="M108.125 145.625H145.625V61.25H108.125V145.625Z" fill="#A9CAFF" stroke="#002D76" stroke-width="1.5" stroke-miterlimit="10"/>
<path d="M14.375 145.625H51.875L51.875 61.25H14.375L14.375 145.625Z" fill="#A9CAFF" stroke="#002D76" stroke-width="1.5" stroke-miterlimit="10"/>
<path d="M80 23.75L51.875 61.25H108.125L80 23.75Z" fill="#005BED" stroke="#002D76" stroke-width="1.5" stroke-miterlimit="10"/>
<path d="M80 23.7688V5" stroke="#002D76" stroke-width="1.5" stroke-miterlimit="10"/>
<path d="M155 145.625H5V155H155V145.625Z" fill="#5495FF" stroke="#002D76" stroke-width="1.5" stroke-miterlimit="10"/>
<path d="M89.375 126.875H70.625V145.625H89.375V126.875Z" fill="#277AFF" stroke="#002D76" stroke-width="1.5" stroke-miterlimit="10"/>
<path d="M75.21 70.625H70.5225V80H75.21V70.625Z" fill="#277AFF" stroke="#002D76" stroke-width="1.5" stroke-miterlimit="10"/>
<path d="M89.2725 70.625H84.585V80H89.2725V70.625Z" fill="#277AFF" stroke="#002D76" stroke-width="1.5" stroke-miterlimit="10"/>
<path d="M75.21 89.375H70.5225V98.75H75.21V89.375Z" fill="#277AFF" stroke="#002D76" stroke-width="1.5" stroke-miterlimit="10"/>
<path d="M89.2725 89.375H84.585V98.75H89.2725V89.375Z" fill="#277AFF" stroke="#002D76" stroke-width="1.5" stroke-miterlimit="10"/>
<path d="M75.21 108.125H70.5225V117.5H75.21V108.125Z" fill="#277AFF" stroke="#002D76" stroke-width="1.5" stroke-miterlimit="10"/>
<path d="M89.2725 108.125H84.585V117.5H89.2725V108.125Z" fill="#277AFF" stroke="#002D76" stroke-width="1.5" stroke-miterlimit="10"/>
<path d="M122.188 70.625H117.5V80H122.188V70.625Z" fill="#277AFF" stroke="#002D76" stroke-width="1.5" stroke-miterlimit="10"/>
<path d="M136.25 70.625H131.562V80H136.25V70.625Z" fill="#277AFF" stroke="#002D76" stroke-width="1.5" stroke-miterlimit="10"/>
<path d="M122.188 89.375H117.5V98.75H122.188V89.375Z" fill="#277AFF" stroke="#002D76" stroke-width="1.5" stroke-miterlimit="10"/>
<path d="M136.25 89.375H131.562V98.75H136.25V89.375Z" fill="#277AFF" stroke="#002D76" stroke-width="1.5" stroke-miterlimit="10"/>
<path d="M122.188 108.125H117.5V117.5H122.188V108.125Z" fill="#277AFF" stroke="#002D76" stroke-width="1.5" stroke-miterlimit="10"/>
<path d="M136.25 108.125H131.562V117.5H136.25V108.125Z" fill="#277AFF" stroke="#002D76" stroke-width="1.5" stroke-miterlimit="10"/>
<path d="M28.4375 70.625H23.75V80H28.4375V70.625Z" fill="#277AFF" stroke="#002D76" stroke-width="1.5" stroke-miterlimit="10"/>
<path d="M42.5 70.625H37.8125V80H42.5V70.625Z" fill="#277AFF" stroke="#002D76" stroke-width="1.5" stroke-miterlimit="10"/>
<path d="M28.4375 89.375H23.75V98.75H28.4375V89.375Z" fill="#277AFF" stroke="#002D76" stroke-width="1.5" stroke-miterlimit="10"/>
<path d="M42.5 89.375H37.8125V98.75H42.5V89.375Z" fill="#277AFF" stroke="#002D76" stroke-width="1.5" stroke-miterlimit="10"/>
<path d="M28.4375 108.125H23.75V117.5H28.4375V108.125Z" fill="#277AFF" stroke="#002D76" stroke-width="1.5" stroke-miterlimit="10"/>
<path d="M42.5 108.125H37.8125V117.5H42.5V108.125Z" fill="#277AFF" stroke="#002D76" stroke-width="1.5" stroke-miterlimit="10"/>
<path d="M80 5V9.6875H89.375V5L80 5Z" fill="#BFD7FF" stroke="#002D76" stroke-width="1.5" stroke-miterlimit="10"/>
</svg>
