<svg width="160" height="161" viewBox="0 0 160 161" fill="none" xmlns="http://www.w3.org/2000/svg">
<path d="M51.875 155.31L5 136.652V5.31006L51.875 23.9685V155.31Z" fill="#BFD7FF" stroke="#002D76" stroke-width="1.5" stroke-miterlimit="10"/>
<path d="M108.125 136.652L51.875 155.31V23.9685L108.125 5.31006V136.652Z" fill="#A9CAFF" stroke="#002D76" stroke-width="1.5" stroke-miterlimit="10"/>
<path d="M155 155.31L108.125 136.652V5.31006L155 23.9685V155.31Z" fill="#7EB0FF" stroke="#002D76" stroke-width="1.5" stroke-miterlimit="10"/>
<path d="M73.7977 84.8427L80.4269 91.4826L50.2309 121.673C48.4013 123.506 45.4314 123.506 43.6018 121.673C41.7721 119.841 41.7721 116.866 43.6018 115.033L73.7977 84.8427Z" fill="#277AFF" stroke="#002D76" stroke-width="1.5" stroke-miterlimit="10"/>
<path d="M116.399 48.7588C105.416 37.7581 87.6086 37.7581 76.6258 48.7588C65.643 59.7595 65.643 77.5963 76.6258 88.597C87.6086 99.5977 105.416 99.5977 116.399 88.597C127.382 77.5963 127.382 59.7595 116.399 48.7588ZM113.08 85.2775C103.926 94.4471 89.0898 94.4471 79.9352 85.2775C70.7805 76.1079 70.7805 61.2479 79.9352 52.0783C89.0898 42.9087 103.926 42.9087 113.08 52.0783C122.235 61.2479 122.235 76.1079 113.08 85.2775Z" fill="#005BED" stroke="#002D76" stroke-width="1.5" stroke-miterlimit="10"/>
<path d="M96.5098 92.1554C109.454 92.1554 119.947 81.645 119.947 68.6798C119.947 55.7145 109.454 45.2041 96.5098 45.2041C83.5656 45.2041 73.0723 55.7145 73.0723 68.6798C73.0723 81.645 83.5656 92.1554 96.5098 92.1554Z" fill="#EAF2FF" fill-opacity="0.5" stroke="#002D76" stroke-width="1.5" stroke-miterlimit="10"/>
<path d="M17.1357 28.8612C17.5241 28.8612 17.8389 28.5459 17.8389 28.1569C17.8389 27.7679 17.5241 27.4526 17.1357 27.4526C16.7474 27.4526 16.4326 27.7679 16.4326 28.1569C16.4326 28.5459 16.7474 28.8612 17.1357 28.8612Z" fill="#277AFF"/>
<path d="M41.5625 62.3563C41.9508 62.3563 42.2656 62.041 42.2656 61.652C42.2656 61.2631 41.9508 60.9478 41.5625 60.9478C41.1742 60.9478 40.8594 61.2631 40.8594 61.652C40.8594 62.041 41.1742 62.3563 41.5625 62.3563Z" fill="#277AFF"/>
<path d="M17.1357 83.8739C17.5241 83.8739 17.8389 83.5586 17.8389 83.1696C17.8389 82.7806 17.5241 82.4653 17.1357 82.4653C16.7474 82.4653 16.4326 82.7806 16.4326 83.1696C16.4326 83.5586 16.7474 83.8739 17.1357 83.8739Z" fill="#277AFF"/>
<path d="M33.125 137.478C33.5133 137.478 33.8281 137.163 33.8281 136.774C33.8281 136.385 33.5133 136.069 33.125 136.069C32.7367 136.069 32.4219 136.385 32.4219 136.774C32.4219 137.163 32.7367 137.478 33.125 137.478Z" fill="#277AFF"/>
<path d="M44.5859 56.8866C44.9743 56.8866 45.2891 56.5713 45.2891 56.1823C45.2891 55.7933 44.9743 55.478 44.5859 55.478C44.1976 55.478 43.8828 55.7933 43.8828 56.1823C43.8828 56.5713 44.1976 56.8866 44.5859 56.8866Z" fill="#277AFF"/>
<path d="M11.1543 128.722C11.5426 128.722 11.8574 128.407 11.8574 128.018C11.8574 127.629 11.5426 127.313 11.1543 127.313C10.766 127.313 10.4512 127.629 10.4512 128.018C10.4512 128.407 10.766 128.722 11.1543 128.722Z" fill="#277AFF"/>
<path d="M28.4375 105.664C28.8258 105.664 29.1406 105.349 29.1406 104.96C29.1406 104.571 28.8258 104.255 28.4375 104.255C28.0492 104.255 27.7344 104.571 27.7344 104.96C27.7344 105.349 28.0492 105.664 28.4375 105.664Z" fill="#277AFF"/>
<path d="M37.832 132.896C38.2204 132.896 38.5352 132.581 38.5352 132.192C38.5352 131.803 38.2204 131.487 37.832 131.487C37.4437 131.487 37.1289 131.803 37.1289 132.192C37.1289 132.581 37.4437 132.896 37.832 132.896Z" fill="#277AFF"/>
<path d="M34.5312 65.3753C34.9196 65.3753 35.2344 65.06 35.2344 64.6711C35.2344 64.2821 34.9196 63.9668 34.5312 63.9668C34.1429 63.9668 33.8281 64.2821 33.8281 64.6711C33.8281 65.06 34.1429 65.3753 34.5312 65.3753Z" fill="#277AFF"/>
<path d="M44.5859 66.0794C44.9743 66.0794 45.2891 65.7641 45.2891 65.3752C45.2891 64.9862 44.9743 64.6709 44.5859 64.6709C44.1976 64.6709 43.8828 64.9862 43.8828 65.3752C43.8828 65.7641 44.1976 66.0794 44.5859 66.0794Z" fill="#277AFF"/>
<path d="M23.75 58.9754C24.1383 58.9754 24.4531 58.6601 24.4531 58.2712C24.4531 57.8822 24.1383 57.5669 23.75 57.5669C23.3617 57.5669 23.0469 57.8822 23.0469 58.2712C23.0469 58.6601 23.3617 58.9754 23.75 58.9754Z" fill="#277AFF"/>
<path d="M69.2656 28.1566C69.654 28.1566 69.9688 27.8413 69.9688 27.4523C69.9688 27.0634 69.654 26.748 69.2656 26.748C68.8773 26.748 68.5625 27.0634 68.5625 27.4523C68.5625 27.8413 68.8773 28.1566 69.2656 28.1566Z" fill="#277AFF"/>
<path d="M119.244 40.5096C119.632 40.5096 119.947 40.1943 119.947 39.8053C119.947 39.4164 119.632 39.1011 119.244 39.1011C118.856 39.1011 118.541 39.4164 118.541 39.8053C118.541 40.1943 118.856 40.5096 119.244 40.5096Z" fill="#277AFF"/>
<path d="M69.2656 83.1698C69.654 83.1698 69.9688 82.8545 69.9688 82.4655C69.9688 82.0765 69.654 81.7612 69.2656 81.7612C68.8773 81.7612 68.5625 82.0765 68.5625 82.4655C68.5625 82.8545 68.8773 83.1698 69.2656 83.1698Z" fill="#277AFF"/>
<path d="M85.2539 136.774C85.6422 136.774 85.957 136.458 85.957 136.07C85.957 135.681 85.6422 135.365 85.2539 135.365C84.8656 135.365 84.5508 135.681 84.5508 136.07C84.5508 136.458 84.8656 136.774 85.2539 136.774Z" fill="#277AFF"/>
<path d="M101.764 21.3724C102.152 21.3724 102.467 21.0571 102.467 20.6681C102.467 20.2792 102.152 19.9639 101.764 19.9639C101.375 19.9639 101.061 20.2792 101.061 20.6681C101.061 21.0571 101.375 21.3724 101.764 21.3724Z" fill="#277AFF"/>
<path d="M63.2852 128.017C63.6735 128.017 63.9883 127.702 63.9883 127.313C63.9883 126.924 63.6735 126.609 63.2852 126.609C62.8968 126.609 62.582 126.924 62.582 127.313C62.582 127.702 62.8968 128.017 63.2852 128.017Z" fill="#277AFF"/>
<path d="M80.5664 104.96C80.9547 104.96 81.2695 104.644 81.2695 104.256C81.2695 103.867 80.9547 103.551 80.5664 103.551C80.1781 103.551 79.8633 103.867 79.8633 104.256C79.8633 104.644 80.1781 104.96 80.5664 104.96Z" fill="#277AFF"/>
<path d="M98.75 110.012C99.1383 110.012 99.4531 109.696 99.4531 109.307C99.4531 108.918 99.1383 108.603 98.75 108.603C98.3617 108.603 98.0469 108.918 98.0469 109.307C98.0469 109.696 98.3617 110.012 98.75 110.012Z" fill="#277AFF"/>
<path d="M147.574 144.295C147.963 144.295 148.277 143.98 148.277 143.591C148.277 143.202 147.963 142.887 147.574 142.887C147.186 142.887 146.871 143.202 146.871 143.591C146.871 143.98 147.186 144.295 147.574 144.295Z" fill="#277AFF"/>
<path d="M106.043 104.96C106.431 104.96 106.746 104.644 106.746 104.256C106.746 103.867 106.431 103.551 106.043 103.551C105.655 103.551 105.34 103.867 105.34 104.256C105.34 104.644 105.655 104.96 106.043 104.96Z" fill="#277AFF"/>
<path d="M137.52 39.1009C137.908 39.1009 138.223 38.7856 138.223 38.3967C138.223 38.0077 137.908 37.6924 137.52 37.6924C137.131 37.6924 136.816 38.0077 136.816 38.3967C136.816 38.7856 137.131 39.1009 137.52 39.1009Z" fill="#277AFF"/>
<path d="M117.5 15.4046C117.888 15.4046 118.203 15.0893 118.203 14.7004C118.203 14.3114 117.888 13.9961 117.5 13.9961C117.112 13.9961 116.797 14.3114 116.797 14.7004C116.797 15.0893 117.112 15.4046 117.5 15.4046Z" fill="#277AFF"/>
<path d="M145.957 90.5272C146.345 90.5272 146.66 90.2119 146.66 89.8229C146.66 89.434 146.345 89.1187 145.957 89.1187C145.569 89.1187 145.254 89.434 145.254 89.8229C145.254 90.2119 145.569 90.5272 145.957 90.5272Z" fill="#277AFF"/>
<path d="M59.4082 143.591C59.7965 143.591 60.1113 143.276 60.1113 142.887C60.1113 142.498 59.7965 142.183 59.4082 142.183C59.0199 142.183 58.7051 142.498 58.7051 142.887C58.7051 143.276 59.0199 143.591 59.4082 143.591Z" fill="#277AFF"/>
<path d="M136.816 135.44C137.205 135.44 137.52 135.125 137.52 134.736C137.52 134.347 137.205 134.032 136.816 134.032C136.428 134.032 136.113 134.347 136.113 134.736C136.113 135.125 136.428 135.44 136.816 135.44Z" fill="#277AFF"/>
<path d="M148.277 54.8485C148.666 54.8485 148.98 54.5332 148.98 54.1442C148.98 53.7553 148.666 53.4399 148.277 53.4399C147.889 53.4399 147.574 53.7553 147.574 54.1442C147.574 54.5332 147.889 54.8485 148.277 54.8485Z" fill="#277AFF"/>
<path d="M114.848 126.689C115.236 126.689 115.551 126.374 115.551 125.985C115.551 125.596 115.236 125.28 114.848 125.28C114.459 125.28 114.145 125.596 114.145 125.985C114.145 126.374 114.459 126.689 114.848 126.689Z" fill="#277AFF"/>
<path d="M132.129 103.631C132.517 103.631 132.832 103.316 132.832 102.927C132.832 102.538 132.517 102.223 132.129 102.223C131.741 102.223 131.426 102.538 131.426 102.927C131.426 103.316 131.741 103.631 132.129 103.631Z" fill="#277AFF"/>
<path d="M141.523 130.863C141.912 130.863 142.227 130.547 142.227 130.158C142.227 129.769 141.912 129.454 141.523 129.454C141.135 129.454 140.82 129.769 140.82 130.158C140.82 130.547 141.135 130.863 141.523 130.863Z" fill="#277AFF"/>
<path d="M138.223 63.3421C138.611 63.3421 138.926 63.0268 138.926 62.6379C138.926 62.2489 138.611 61.9336 138.223 61.9336C137.834 61.9336 137.52 62.2489 137.52 62.6379C137.52 63.0268 137.834 63.3421 138.223 63.3421Z" fill="#277AFF"/>
<path d="M114.145 112.486C114.533 112.486 114.848 112.171 114.848 111.782C114.848 111.393 114.533 111.078 114.145 111.078C113.756 111.078 113.441 111.393 113.441 111.782C113.441 112.171 113.756 112.486 114.145 112.486Z" fill="#277AFF"/>
<path d="M131.562 78.1927C131.951 78.1927 132.266 77.8774 132.266 77.4884C132.266 77.0995 131.951 76.7842 131.562 76.7842C131.174 76.7842 130.859 77.0995 130.859 77.4884C130.859 77.8774 131.174 78.1927 131.562 78.1927Z" fill="#277AFF"/>
</svg>
