<svg width="160" height="161" viewBox="0 0 160 161" fill="none" xmlns="http://www.w3.org/2000/svg">
<path d="M99.7868 60.5376H5V155.324H99.7868V60.5376Z" fill="#BFD7FF" stroke="#002D76" stroke-width="1.5" stroke-miterlimit="10"/>
<path d="M42.2304 128.379L42.0303 128.179" stroke="#002D76" stroke-width="1.5" stroke-miterlimit="10"/>
<path d="M104.15 26.3853L37.126 93.4097L66.9146 123.198L133.939 56.1739L104.15 26.3853Z" fill="#7EB0FF" stroke="#002D76" stroke-width="1.5" stroke-miterlimit="10"/>
<path d="M111.59 18.9467L104.146 26.3965L133.945 56.1747L141.389 48.725L111.59 18.9467Z" fill="#277AFF" stroke="#002D76" stroke-width="1.5" stroke-miterlimit="10"/>
<path d="M155 26.3829C155 31.7752 152.947 37.1675 148.834 41.2802L141.388 48.7262L111.599 18.9369L119.045 11.4908C127.27 3.26543 140.609 3.26543 148.834 11.4908C152.947 15.6035 155 20.9958 155 26.3829Z" fill="#5495FF" stroke="#002D76" stroke-width="1.5" stroke-miterlimit="10"/>
<path d="M42.0303 128.179L29.6816 130.648L32.1514 118.3L42.0303 128.179Z" fill="#277AFF" stroke="#002D76" stroke-width="1.5" stroke-miterlimit="10"/>
<path d="M66.9171 123.197L42.0303 128.179L32.1514 118.3L37.1277 93.4131L66.9171 123.197Z" fill="#D4E5FF" stroke="#002D76" stroke-width="1.5" stroke-miterlimit="10"/>
</svg>
