<svg width="242" height="50" viewBox="0 0 242 50" fill="none" xmlns="http://www.w3.org/2000/svg">
<g clip-path="url(#clip0_444_898)">
<path d="M16.5113 18.92H30.1476V35.7938C26.5734 37.309 22.546 38.073 18.0782 38.073C12.2378 38.073 7.77001 36.4284 4.662 33.1261C1.554 29.8239 0 25.1619 0 19.1272C0 15.3717 0.777001 12.0306 2.31805 9.12976C3.8591 6.22896 6.06061 3.9627 8.93551 2.3828C11.8104 0.802901 15.1127 0 18.8423 0C22.8697 0 26.4828 0.738151 29.6944 2.2274L28.6584 4.5584C25.4597 3.06915 22.1316 2.331 18.6869 2.331C13.8177 2.331 9.94561 3.8332 7.08366 6.85056C4.2217 9.86791 2.7972 13.9213 2.7972 19.0236C2.7972 24.5921 4.15695 28.7749 6.86351 31.5851C9.58301 34.3952 13.5716 35.7938 18.8293 35.7938C22.2352 35.7938 25.123 35.3147 27.5058 34.3564V21.3546H16.4983V18.92H16.5113Z" fill="#FFFFFF"/>
<path d="M37.7493 2.4346C37.7493 0.815851 38.2802 0 39.3419 0C39.8599 0 40.2742 0.2072 40.572 0.634551C40.8698 1.0619 41.0123 1.6576 41.0123 2.4346C41.0123 3.2116 40.8698 3.79435 40.572 4.23465C40.2742 4.67495 39.8728 4.8951 39.3419 4.8951C38.2802 4.8951 37.7493 4.07925 37.7493 2.44755V2.4346ZM40.6109 37.555H38.1118V10.0622H40.6109V37.555Z" fill="#FFFFFF"/>
<path d="M70.3575 10.0622V11.8104L64.6724 12.1601C66.1876 14.0508 66.9516 16.1228 66.9516 18.3761C66.9516 21.0179 66.071 23.1676 64.3098 24.8123C62.5486 26.4569 60.1788 27.2728 57.2132 27.2728C55.97 27.2728 55.0894 27.221 54.5844 27.1174C53.5872 27.6354 52.8361 28.257 52.3051 28.9692C51.7871 29.6815 51.5152 30.4326 51.5152 31.2225C51.5152 32.1031 51.8519 32.7377 52.5123 33.1391C53.1728 33.5406 54.2994 33.7478 55.8664 33.7478H60.6709C63.6494 33.7478 65.9415 34.3564 67.5214 35.5608C69.1013 36.7651 69.9042 38.5522 69.9042 40.9091C69.9042 43.8099 68.7258 46.0503 66.3818 47.6302C64.0379 49.2101 60.6838 50 56.3326 50C52.8749 50 50.1943 49.3396 48.3036 48.0057C46.4129 46.6719 45.4546 44.82 45.4546 42.4372C45.4546 40.5465 46.0373 38.9796 47.2158 37.7364C48.3813 36.4932 49.9741 35.6385 51.9814 35.1852C51.1526 34.8356 50.4921 34.3305 50 33.683C49.5079 33.0355 49.2489 32.2844 49.2489 31.4427C49.2489 29.6038 50.4144 27.985 52.7584 26.5864C51.1526 25.926 49.9094 24.89 49.0158 23.4914C48.1223 22.0798 47.669 20.474 47.669 18.648C47.669 15.9026 48.5367 13.6882 50.2849 12.0306C52.0332 10.373 54.3901 9.54419 57.3557 9.54419C59.1557 9.54419 60.5543 9.72549 61.5515 10.0751H70.3575V10.0622ZM48.0964 42.2171C48.0964 45.9985 50.9065 47.8892 56.5139 47.8892C63.7271 47.8892 67.3401 45.5841 67.3401 40.9868C67.3401 39.3292 66.7703 38.1378 65.6437 37.3997C64.517 36.6615 62.6781 36.286 60.1529 36.286H55.6463C50.6087 36.286 48.0834 38.2673 48.0834 42.23L48.0964 42.2171ZM50.1943 18.6351C50.1943 20.7589 50.8418 22.4036 52.1238 23.582C53.4059 24.7605 55.1412 25.3432 57.2909 25.3432C59.5831 25.3432 61.3443 24.7605 62.5616 23.595C63.7789 22.4295 64.4005 20.746 64.4005 18.5315C64.4005 16.1875 63.7659 14.4263 62.5098 13.2608C61.2536 12.0824 59.4924 11.4996 57.2391 11.4996C54.9858 11.4996 53.3282 12.1342 52.072 13.3903C50.8159 14.6465 50.1813 16.3947 50.1813 18.6351H50.1943Z" fill="#FFFFFF"/>
<path d="M92.0487 37.555L91.4141 33.2038H91.2069C89.8213 34.978 88.3968 36.2212 86.9464 36.9593C85.483 37.6975 83.7607 38.0601 81.7793 38.0601C79.0857 38.0601 76.9878 37.3737 75.4856 35.9881C73.9834 34.6024 73.2323 32.6858 73.2323 30.2512C73.2323 27.5706 74.346 25.4856 76.5864 24.0093C78.8267 22.5201 82.0513 21.7431 86.2859 21.6524L91.5177 21.497V19.6711C91.5177 17.0552 90.9868 15.0868 89.9249 13.7529C88.863 12.4191 87.1536 11.7586 84.7967 11.7586C82.2455 11.7586 79.6167 12.4709 76.8842 13.8824L75.9518 11.7068C78.9692 10.2953 81.9606 9.58301 84.9003 9.58301C87.8399 9.58301 90.1709 10.373 91.6602 11.9399C93.1494 13.5069 93.9005 15.9544 93.9005 19.2696V37.555H92.0487ZM81.9218 35.7938C84.8614 35.7938 87.1665 34.9521 88.863 33.2815C90.5594 31.611 91.4012 29.267 91.4012 26.2885V23.582L86.5967 23.7892C82.7376 23.9705 79.9793 24.5791 78.3346 25.6022C76.69 26.6252 75.8741 28.2051 75.8741 30.3678C75.8741 32.0901 76.4051 33.424 77.454 34.3823C78.503 35.3406 79.9922 35.8068 81.9218 35.8068V35.7938Z" fill="#FFFFFF"/>
<path d="M131.184 27.2857C131.184 29.4742 130.653 31.3779 129.591 32.9966C128.529 34.6154 126.988 35.8586 124.955 36.7392C122.921 37.6198 120.461 38.0601 117.56 38.0601C116.278 38.0601 115.022 37.9694 113.805 37.8011C112.587 37.6327 111.409 37.3867 110.295 37.05C109.169 36.7262 108.107 36.3118 107.097 35.8197V28.5418C108.845 29.3188 110.671 30.0181 112.561 30.6397C114.452 31.2613 116.317 31.5721 118.182 31.5721C119.464 31.5721 120.5 31.4038 121.277 31.0671C122.054 30.7304 122.624 30.2642 122.986 29.6814C123.349 29.0987 123.517 28.4123 123.517 27.6612C123.517 26.7288 123.206 25.9389 122.585 25.2784C121.963 24.618 121.108 24.0093 120.021 23.4266C118.933 22.8438 117.703 22.2351 116.343 21.5747C115.488 21.1732 114.543 20.6811 113.533 20.0984C112.523 19.5156 111.564 18.8034 110.645 17.9616C109.725 17.1199 108.987 16.0968 108.405 14.8925C107.822 13.6881 107.537 12.2377 107.537 10.5542C107.537 8.33979 108.042 6.46204 109.052 4.88213C110.062 3.30223 111.513 2.11083 113.39 1.28203C115.268 0.453229 117.495 0.0258789 120.06 0.0258789C121.976 0.0258789 123.815 0.246029 125.563 0.69928C127.312 1.15253 129.137 1.78708 131.041 2.62883L128.516 8.72829C126.806 8.04194 125.291 7.49804 123.932 7.12249C122.572 6.74694 121.212 6.55269 119.813 6.55269C118.842 6.55269 118 6.70809 117.314 7.01889C116.628 7.32969 116.097 7.76999 115.747 8.33979C115.398 8.90959 115.216 9.55709 115.216 10.2952C115.216 11.1758 115.475 11.914 115.993 12.5097C116.511 13.1054 117.288 13.6881 118.324 14.245C119.36 14.8018 120.655 15.4493 122.209 16.1875C124.1 17.081 125.719 18.0134 127.053 18.9847C128.386 19.9559 129.422 21.0955 130.148 22.4035C130.873 23.7115 131.235 25.3302 131.235 27.2727L131.184 27.2857Z" fill="#FFFFFF"/>
<path d="M148.731 38.06C145.934 38.06 143.551 37.555 141.57 36.5319C139.588 35.5089 138.099 33.929 137.063 31.7922C136.027 29.6555 135.522 26.9101 135.522 23.569C135.522 20.2279 136.105 17.2882 137.283 15.1126C138.462 12.937 140.08 11.3183 142.165 10.2952C144.25 9.27215 146.659 8.75415 149.417 8.75415C151.373 8.75415 153.069 8.9484 154.494 9.32395C155.918 9.6995 157.161 10.1528 158.223 10.6708L155.944 16.6407C154.727 16.1486 153.6 15.7472 152.551 15.4364C151.502 15.1256 150.466 14.9702 149.417 14.9702C148.07 14.9702 146.944 15.281 146.05 15.9155C145.157 16.5501 144.496 17.4954 144.056 18.7645C143.616 20.0336 143.395 21.6135 143.395 23.5172C143.395 25.4208 143.629 26.936 144.108 28.1662C144.587 29.3965 145.26 30.3159 146.154 30.9116C147.047 31.5073 148.135 31.8052 149.417 31.8052C151.023 31.8052 152.448 31.585 153.691 31.1577C154.934 30.7303 156.151 30.1217 157.33 29.3447V35.9492C156.151 36.6873 154.908 37.2312 153.626 37.555C152.344 37.8787 150.699 38.0471 148.731 38.0471V38.06Z" fill="#FFFFFF"/>
<path d="M188.63 23.3747C188.63 25.7316 188.319 27.8295 187.685 29.6425C187.05 31.4555 186.131 32.9966 184.926 34.2527C183.722 35.5089 182.271 36.4542 180.575 37.1017C178.879 37.7492 176.975 38.06 174.851 38.06C172.857 38.06 171.031 37.7363 169.373 37.1017C167.716 36.4672 166.265 35.5089 165.048 34.2527C163.831 32.9966 162.885 31.4555 162.212 29.6425C161.538 27.8295 161.215 25.7316 161.215 23.3747C161.215 20.2408 161.772 17.5861 162.885 15.4105C163.999 13.2349 165.579 11.5773 167.638 10.4506C169.697 9.32395 172.145 8.75415 174.994 8.75415C177.635 8.75415 179.992 9.32395 182.038 10.4506C184.084 11.5773 185.703 13.2349 186.869 15.4105C188.034 17.5861 188.63 20.2408 188.63 23.3747ZM169.075 23.3747C169.075 25.2266 169.283 26.7935 169.684 28.0497C170.085 29.3058 170.72 30.2641 171.575 30.9116C172.429 31.5591 173.556 31.8699 174.942 31.8699C176.327 31.8699 177.415 31.5462 178.27 30.9116C179.125 30.2771 179.746 29.3188 180.148 28.0497C180.549 26.7806 180.743 25.2266 180.743 23.3747C180.743 21.5229 180.549 19.943 180.148 18.7127C179.746 17.4825 179.125 16.5371 178.257 15.9155C177.389 15.2939 176.276 14.9831 174.89 14.9831C172.844 14.9831 171.368 15.6824 170.448 17.081C169.529 18.4796 169.075 20.5775 169.075 23.3747Z" fill="#FFFFFF"/>
<path d="M210.14 8.75415C210.528 8.75415 210.982 8.78005 211.487 8.8189C211.992 8.85775 212.419 8.9225 212.743 8.98725L212.16 16.2263C211.901 16.1357 211.551 16.0839 211.085 16.0321C210.619 15.9803 210.218 15.9673 209.881 15.9673C208.884 15.9673 207.925 16.0968 206.98 16.3429C206.035 16.5889 205.206 17.0033 204.468 17.5731C203.73 18.1429 203.134 18.8811 202.707 19.8005C202.279 20.72 202.059 21.8466 202.059 23.1805V37.5679H194.341V9.2851H200.181L201.321 14.0378H201.696C202.253 13.0795 202.953 12.1989 203.781 11.396C204.61 10.5931 205.568 9.9585 206.643 9.47935C207.718 9.0002 208.871 8.75415 210.127 8.75415H210.14Z" fill="#FFFFFF"/>
<path d="M228.866 8.75415C231.481 8.75415 233.735 9.2592 235.612 10.2564C237.49 11.2535 238.954 12.7169 239.99 14.6205C241.026 16.5242 241.531 18.8552 241.531 21.6006V25.3431H223.297C223.388 27.5187 224.035 29.2281 225.252 30.4713C226.47 31.7145 228.179 32.3361 230.355 32.3361C232.155 32.3361 233.812 32.1548 235.315 31.7793C236.817 31.4037 238.358 30.8469 239.938 30.1087V36.0787C238.539 36.765 237.076 37.2701 235.548 37.5938C234.02 37.9176 232.168 38.073 229.992 38.073C227.156 38.073 224.657 37.555 222.468 36.506C220.28 35.4571 218.57 33.8642 217.34 31.7275C216.11 29.5907 215.475 26.8842 215.475 23.6337C215.475 20.3833 216.032 17.5731 217.159 15.3716C218.285 13.1701 219.839 11.5125 221.847 10.4118C223.854 9.311 226.185 8.75415 228.853 8.75415H228.866ZM228.904 14.245C227.402 14.245 226.159 14.7241 225.175 15.6824C224.191 16.6407 223.621 18.1559 223.465 20.2149H234.292C234.279 19.0624 234.071 18.0523 233.67 17.1587C233.269 16.2652 232.686 15.5529 231.896 15.0349C231.106 14.5169 230.109 14.245 228.904 14.245Z" fill="#FFFFFF"/>
</g>
<defs>
<clipPath id="clip0_444_898">
<rect width="241.531" height="50" fill="white"/>
</clipPath>
</defs>
</svg>
