<svg width="336" height="50" viewBox="0 0 336 50" fill="none" xmlns="http://www.w3.org/2000/svg">
<g clip-path="url(#clip0_444_870)">
<path d="M16.5113 18.92H30.1476V35.7938C26.5734 37.309 22.546 38.073 18.0782 38.073C12.2378 38.073 7.77001 36.4284 4.662 33.1261C1.554 29.8239 0 25.1619 0 19.1272C0 15.3717 0.777001 12.0306 2.31805 9.12976C3.8591 6.22896 6.06061 3.9627 8.93551 2.3828C11.8104 0.802901 15.1127 0 18.8423 0C22.8697 0 26.4828 0.738151 29.6944 2.2274L28.6584 4.5584C25.4597 3.06915 22.1316 2.331 18.6869 2.331C13.8177 2.331 9.94561 3.8332 7.08366 6.85056C4.2217 9.86791 2.7972 13.9213 2.7972 19.0236C2.7972 24.5921 4.15695 28.7749 6.86351 31.5851C9.58301 34.3952 13.5716 35.7938 18.8293 35.7938C22.2352 35.7938 25.123 35.3147 27.5058 34.3564V21.3546H16.4983V18.92H16.5113Z" fill="#FFFFFF"/>
<path d="M37.7493 2.4346C37.7493 0.815851 38.2802 0 39.3419 0C39.8598 0 40.2742 0.2072 40.572 0.634551C40.8698 1.0619 41.0122 1.6576 41.0122 2.4346C41.0122 3.2116 40.8698 3.79435 40.572 4.23465C40.2742 4.67495 39.8728 4.8951 39.3419 4.8951C38.2802 4.8951 37.7493 4.07925 37.7493 2.44755V2.4346ZM40.6108 37.555H38.1119V10.0622H40.6108V37.555Z" fill="#FFFFFF"/>
<path d="M70.3574 10.0622V11.8104L64.6723 12.1601C66.1875 14.0508 66.9516 16.1228 66.9516 18.3761C66.9516 21.0179 66.0709 23.1676 64.3097 24.8122C62.5485 26.4569 60.1787 27.2727 57.2131 27.2727C55.9699 27.2727 55.0893 27.2209 54.5843 27.1173C53.5871 27.6353 52.836 28.2569 52.3051 28.9692C51.7871 29.6814 51.5151 30.4325 51.5151 31.2225C51.5151 32.1031 51.8518 32.7376 52.5123 33.1391C53.1727 33.5405 54.2994 33.7477 55.8663 33.7477H60.6708C63.6493 33.7477 65.9414 34.3564 67.5213 35.5607C69.1013 36.7651 69.9042 38.5522 69.9042 40.9091C69.9042 43.8099 68.7257 46.0502 66.3817 47.6301C64.0378 49.21 60.6837 50 56.3325 50C52.8749 50 50.1942 49.3396 48.3035 48.0057C46.4128 46.6718 45.4545 44.82 45.4545 42.4372C45.4545 40.5465 46.0373 38.9795 47.2157 37.7363C48.3812 36.4931 49.9741 35.6384 51.9813 35.1852C51.1525 34.8355 50.4921 34.3305 50 33.683C49.5079 33.0355 49.2489 32.2844 49.2489 31.4426C49.2489 29.6037 50.4144 27.985 52.7583 26.5864C51.1525 25.9259 49.9093 24.8899 49.0158 23.4913C48.1222 22.0798 47.669 20.474 47.669 18.648C47.669 15.9026 48.5366 13.6882 50.2849 12.0306C52.0331 10.373 54.39 9.54416 57.3556 9.54416C59.1556 9.54416 60.5542 9.72546 61.5514 10.0751H70.3574V10.0622ZM48.0963 42.217C48.0963 45.9984 50.9065 47.8891 56.5138 47.8891C63.727 47.8891 67.34 45.584 67.34 40.9868C67.34 39.3292 66.7702 38.1378 65.6436 37.3996C64.5169 36.6615 62.678 36.2859 60.1528 36.2859H55.6462C50.6086 36.2859 48.0834 38.2673 48.0834 42.23L48.0963 42.217ZM50.1942 18.6351C50.1942 20.7589 50.8417 22.4035 52.1238 23.582C53.4058 24.7604 55.1411 25.3432 57.2908 25.3432C59.583 25.3432 61.3442 24.7604 62.5615 23.5949C63.7788 22.4294 64.4004 20.7459 64.4004 18.5315C64.4004 16.1875 63.7658 14.4263 62.5097 13.2608C61.2535 12.0824 59.4923 11.4996 57.239 11.4996C54.9857 11.4996 53.3281 12.1342 52.072 13.3903C50.8158 14.6465 50.1813 16.3947 50.1813 18.6351H50.1942Z" fill="#FFFFFF"/>
<path d="M92.0487 37.555L91.4141 33.2038H91.2069C89.8213 34.978 88.3968 36.2212 86.9464 36.9593C85.483 37.6975 83.7607 38.0601 81.7793 38.0601C79.0857 38.0601 76.9878 37.3737 75.4856 35.9881C73.9834 34.6024 73.2323 32.6858 73.2323 30.2512C73.2323 27.5706 74.346 25.4856 76.5864 24.0093C78.8267 22.5201 82.0513 21.7431 86.2859 21.6524L91.5177 21.497V19.6711C91.5177 17.0552 90.9868 15.0868 89.9249 13.7529C88.863 12.4191 87.1536 11.7586 84.7967 11.7586C82.2455 11.7586 79.6167 12.4709 76.8842 13.8824L75.9518 11.7068C78.9692 10.2953 81.9606 9.58301 84.9003 9.58301C87.8399 9.58301 90.1709 10.373 91.6602 11.9399C93.1494 13.5069 93.9005 15.9544 93.9005 19.2696V37.555H92.0487ZM81.9218 35.7938C84.8614 35.7938 87.1665 34.9521 88.863 33.2815C90.5594 31.611 91.4012 29.267 91.4012 26.2885V23.582L86.5967 23.7892C82.7376 23.9705 79.9793 24.5791 78.3346 25.6022C76.69 26.6252 75.8741 28.2051 75.8741 30.3678C75.8741 32.0901 76.4051 33.424 77.454 34.3823C78.503 35.3406 79.9922 35.8068 81.9218 35.8068V35.7938Z" fill="#FFFFFF"/>
<path d="M125.019 37.555L116.11 8.54702H115.877C115.916 9.23337 115.967 10.2823 116.045 11.668C116.123 13.0536 116.187 14.5429 116.265 16.1098C116.33 17.6768 116.369 19.0883 116.369 20.3574V37.555H109.363V0.582764H120.034L128.788 28.8656H128.943L138.215 0.582764H148.886V37.555H141.582V20.0466C141.582 18.8811 141.608 17.5473 141.647 16.0192C141.686 14.4911 141.751 13.0536 141.816 11.6809C141.88 10.3082 141.932 9.27222 141.971 8.58587H141.738L132.207 37.5421H125.019V37.555Z" fill="#FFFFFF"/>
<path d="M168.506 8.7024C172.3 8.7024 175.214 9.53121 177.234 11.1759C179.254 12.8205 180.264 15.3458 180.264 18.7128V37.555H174.877L173.388 33.7089H173.181C172.378 34.719 171.549 35.5478 170.707 36.1823C169.865 36.8169 168.894 37.296 167.793 37.5939C166.693 37.8917 165.359 38.0471 163.792 38.0471C162.121 38.0471 160.632 37.7234 159.298 37.0888C157.964 36.4543 156.928 35.4701 156.177 34.1362C155.426 32.8024 155.038 31.1318 155.038 29.0857C155.038 26.0813 156.087 23.8669 158.197 22.4424C160.308 21.0179 163.468 20.2279 167.677 20.0725L172.585 19.9171V18.6739C172.585 17.1847 172.196 16.0969 171.419 15.4105C170.642 14.7242 169.568 14.3745 168.182 14.3745C166.796 14.3745 165.475 14.5688 164.154 14.9573C162.834 15.3458 161.526 15.8379 160.205 16.4206L157.653 11.2147C159.156 10.4248 160.839 9.80316 162.704 9.33696C164.569 8.87075 166.498 8.6506 168.48 8.6506L168.506 8.7024ZM172.611 24.4626L169.632 24.5662C167.133 24.6309 165.411 25.0842 164.439 25.913C163.468 26.7418 162.989 27.8296 162.989 29.1764C162.989 30.3548 163.339 31.1966 164.025 31.6887C164.711 32.1808 165.618 32.4398 166.731 32.4398C168.389 32.4398 169.775 31.9477 170.914 30.9764C172.054 30.0052 172.624 28.6066 172.624 26.8065V24.4755L172.611 24.4626Z" fill="#FFFFFF"/>
<path d="M203.134 8.75421C206.32 8.75421 208.897 9.99741 210.865 12.4709C212.833 14.9443 213.818 18.5833 213.818 23.3748C213.818 26.5734 213.351 29.267 212.432 31.4556C211.513 33.6441 210.218 35.2888 208.586 36.4025C206.954 37.5162 205.076 38.073 202.94 38.073C201.58 38.073 200.401 37.9047 199.43 37.555C198.459 37.2054 197.617 36.7651 196.931 36.2082C196.245 35.6514 195.636 35.0686 195.131 34.447H194.729C194.859 35.1204 194.962 35.8068 195.027 36.519C195.092 37.2313 195.131 37.9176 195.131 38.591V50H187.413V9.28516H193.68L194.768 12.95H195.118C195.623 12.186 196.245 11.4867 196.97 10.8521C197.695 10.2176 198.563 9.69956 199.586 9.32401C200.609 8.94846 201.787 8.75421 203.134 8.75421ZM200.648 14.9184C199.301 14.9184 198.226 15.1904 197.436 15.7472C196.646 16.3041 196.063 17.1329 195.701 18.2466C195.338 19.3603 195.144 20.7718 195.105 22.4683V23.2971C195.105 25.123 195.273 26.6641 195.623 27.9202C195.973 29.1764 196.555 30.1476 197.371 30.8081C198.187 31.4685 199.314 31.7923 200.751 31.7923C201.93 31.7923 202.901 31.4685 203.665 30.8081C204.429 30.1476 204.999 29.1893 205.374 27.9073C205.75 26.6252 205.944 25.0842 205.944 23.2453C205.944 20.474 205.517 18.402 204.649 17.0034C203.781 15.6048 202.461 14.9055 200.648 14.9055V14.9184Z" fill="#FFFFFF"/>
<path d="M239.666 29.1634C239.666 31.08 239.213 32.7117 238.319 34.0326C237.426 35.3535 236.066 36.3636 234.279 37.037C232.492 37.7104 230.264 38.0601 227.597 38.0601C225.628 38.0601 223.932 37.9306 222.52 37.6845C221.109 37.4385 219.697 37.0111 218.26 36.4154V30.044C219.788 30.7304 221.445 31.3002 223.206 31.7534C224.968 32.2067 226.522 32.4268 227.843 32.4268C229.345 32.4268 230.42 32.2067 231.067 31.7534C231.715 31.3002 232.038 30.7174 232.038 29.9922C232.038 29.526 231.909 29.0987 231.65 28.7102C231.391 28.3217 230.834 27.9073 229.966 27.4152C229.099 26.9231 227.752 26.3015 225.926 25.5245C224.152 24.7863 222.701 24.0352 221.562 23.2712C220.422 22.5071 219.58 21.6136 219.037 20.5776C218.493 19.5416 218.221 18.2207 218.221 16.6149C218.221 13.999 219.231 12.0306 221.264 10.7097C223.297 9.38875 226.017 8.7283 229.422 8.7283C231.171 8.7283 232.854 8.9096 234.447 9.25925C236.04 9.6089 237.685 10.1787 239.368 10.9557L237.037 16.5242C235.638 15.9156 234.318 15.4235 233.074 15.035C231.831 14.6465 230.575 14.4522 229.293 14.4522C228.166 14.4522 227.312 14.6076 226.742 14.9055C226.172 15.2033 225.887 15.6695 225.887 16.2911C225.887 16.7444 226.03 17.1458 226.327 17.5084C226.625 17.871 227.195 18.2595 228.05 18.6869C228.904 19.1142 230.148 19.6711 231.805 20.3445C233.411 21.0049 234.797 21.6913 235.975 22.4035C237.154 23.1158 238.06 24.0093 238.708 25.0583C239.355 26.1072 239.666 27.4799 239.666 29.1375V29.1634Z" fill="#FFFFFF"/>
<path d="M282.388 37.5551L279.707 28.749H266.226L263.546 37.5551H255.102L268.143 0.427368H277.726L290.831 37.5551H282.388ZM277.83 22.1834L275.149 13.5846C274.981 13.0148 274.76 12.2766 274.476 11.3701C274.191 10.4636 273.919 9.54418 273.647 8.61178C273.375 7.67938 273.142 6.86352 272.973 6.17717C272.805 6.86352 272.572 7.71823 272.274 8.74128C271.976 9.76433 271.691 10.7226 271.432 11.6421C271.173 12.5615 270.966 13.1961 270.849 13.5846L268.195 22.1834H277.83Z" fill="#FFFFFF"/>
<path d="M307.498 0.582764C312.264 0.582764 315.747 1.60581 317.949 3.65192C320.15 5.69802 321.238 8.52112 321.238 12.1083C321.238 13.727 320.992 15.2681 320.5 16.7444C320.008 18.2207 319.218 19.5286 318.104 20.6812C316.99 21.8337 315.527 22.7273 313.688 23.4007C311.849 24.0741 309.583 24.3978 306.889 24.3978H303.522V37.555H295.688V0.582764H307.498ZM307.084 7.00597H303.522V17.9876H306.099C307.563 17.9876 308.845 17.7933 309.92 17.4048C310.995 17.0163 311.836 16.4077 312.419 15.5789C313.002 14.7501 313.3 13.6882 313.3 12.3932C313.3 10.5672 312.795 9.22042 311.784 8.33982C310.774 7.45922 309.207 7.00597 307.084 7.00597Z" fill="#FFFFFF"/>
<path d="M327.208 37.555V0.582764H335.043V37.555H327.208Z" fill="#FFFFFF"/>
</g>
<defs>
<clipPath id="clip0_444_870">
<rect width="335.056" height="50" fill="white"/>
</clipPath>
</defs>
</svg>
