<svg width="256" height="50" viewBox="0 0 256 50" fill="none" xmlns="http://www.w3.org/2000/svg">
<g clip-path="url(#clip0_444_884)">
<path d="M16.5052 18.9124H30.1322V35.7743C26.5536 37.2899 22.5419 38.054 18.0717 38.054C12.2388 38.054 7.76867 36.4111 4.6612 33.1126C1.55373 29.8141 0 25.1528 0 19.1162C0 15.3591 0.776867 12.0224 2.31786 9.1187C3.85886 6.21498 6.06211 3.97351 8.94034 2.38156C11.8186 0.802343 15.1043 0 18.8358 0C22.8603 0 26.4771 0.738665 29.6738 2.22873L28.6422 4.55935C25.4456 3.08202 22.1216 2.33062 18.683 2.33062C13.818 2.33062 9.94644 3.83342 7.09369 6.83902C4.24093 9.84463 2.81455 13.9073 2.81455 19.0015C2.81455 24.567 4.16452 28.7443 6.87718 31.5461C9.58985 34.3479 13.5761 35.7489 18.8358 35.7489C22.2362 35.7489 25.1272 35.2649 27.5087 34.3097V21.3194H16.518V18.8869V18.9124H16.5052Z" fill="black"/>
<path d="M37.7099 2.4452C37.7099 0.827774 38.2448 0.0126953 39.3018 0.0126953C39.824 0.0126953 40.2315 0.229201 40.5244 0.649476C40.8174 1.06975 40.9702 1.66832 40.9702 2.4452C40.9702 3.22207 40.8174 3.80791 40.5244 4.24092C40.2315 4.67393 39.824 4.90317 39.3018 4.90317C38.2448 4.90317 37.7099 4.08809 37.7099 2.45793V2.4452ZM40.5754 37.5445H38.0792V10.0738H40.5754V37.5445Z" fill="black"/>
<path d="M70.2746 10.0739V11.8186L64.5946 12.1752C66.1101 14.0601 66.8742 16.136 66.8742 18.3902C66.8742 21.0392 65.9955 23.1788 64.238 24.8217C62.4805 26.4646 60.1117 27.2797 57.1443 27.2797C55.8962 27.2797 55.0175 27.2287 54.5208 27.1268C53.5274 27.649 52.7633 28.2603 52.2411 28.9735C51.719 29.6867 51.4515 30.4254 51.4515 31.2277C51.4515 32.1065 51.7826 32.7432 52.4449 33.1508C53.1071 33.5583 54.2279 33.7621 55.7943 33.7621H60.5956C63.5757 33.7621 65.8554 34.3607 67.4473 35.5705C69.0393 36.7804 69.8289 38.5507 69.8289 40.9195C69.8289 43.8105 68.6572 46.052 66.3011 47.6312C63.9578 49.2104 60.6083 50 56.2528 50C52.8015 50 50.127 49.3377 48.2294 48.0005C46.3318 46.6633 45.3894 44.8166 45.3894 42.435C45.3894 40.5502 45.9752 38.9837 47.1469 37.7356C48.3186 36.4875 49.9105 35.6342 51.91 35.1885C51.0822 34.8319 50.4199 34.3352 49.9233 33.6857C49.4266 33.0362 49.1846 32.2975 49.1846 31.4442C49.1846 29.6103 50.3563 27.9929 52.6996 26.5919C51.0949 25.9297 49.8468 24.8981 48.9553 23.4972C48.0639 22.0963 47.6181 20.4788 47.6181 18.6577C47.6181 15.9068 48.4841 13.7035 50.2289 12.0479C51.9737 10.3922 54.3297 9.5517 57.2971 9.5517C59.1056 9.5517 60.4937 9.73 61.4871 10.0866H70.2873H70.2746V10.0739ZM48.0384 42.1931C48.0384 45.9628 50.8402 47.8604 56.4566 47.8604C63.6649 47.8604 67.269 45.5553 67.269 40.9577C67.269 39.3021 66.7087 38.1049 65.5752 37.3663C64.4417 36.6276 62.6206 36.2583 60.0862 36.2583H55.5906C50.5473 36.2583 48.0384 38.2323 48.0384 42.1931ZM50.127 18.6322C50.127 20.759 50.7765 22.4019 52.0628 23.5736C53.3491 24.7453 55.0811 25.3311 57.2334 25.3311C59.5258 25.3311 61.2833 24.7453 62.5059 23.5863C63.7286 22.4274 64.3399 20.7336 64.3399 18.5303C64.3399 16.1869 63.7158 14.4294 62.455 13.2578C61.1942 12.0861 59.4367 11.5002 57.1825 11.5002C54.9283 11.5002 53.2727 12.1243 52.0119 13.3851C50.7511 14.6459 50.127 16.3907 50.127 18.6322Z" fill="black"/>
<path d="M91.9377 37.5446L91.301 33.2017H91.0972C89.7218 34.972 88.2954 36.2201 86.8435 36.9587C85.3917 37.6974 83.6597 38.054 81.6729 38.054C78.973 38.054 76.8844 37.3663 75.3816 35.9781C73.8788 34.6027 73.1274 32.6796 73.1274 30.2471C73.1274 27.5726 74.2481 25.484 76.4768 24.0066C78.7055 22.5293 81.9404 21.7397 86.1686 21.6633L91.4029 21.5105V19.6893C91.4029 17.0785 90.868 15.1044 89.8109 13.7799C88.7539 12.4554 87.0346 11.7805 84.6785 11.7805C82.1314 11.7805 79.4951 12.4936 76.7697 13.9073L75.84 11.7295C78.8584 10.3159 81.8385 9.60266 84.7931 9.60266C87.7478 9.60266 90.0656 10.3923 91.5557 11.9587C93.0457 13.5252 93.7971 15.9705 93.7971 19.2817V37.5573H91.9377V37.5446ZM81.8257 35.7743C84.7549 35.7743 87.0728 34.9338 88.7666 33.2654C90.4604 31.5971 91.301 29.2537 91.301 26.2736V23.5736L86.4997 23.7774C82.6408 23.9684 79.8899 24.567 78.2471 25.5859C76.6042 26.6047 75.7891 28.1967 75.7891 30.349C75.7891 32.0683 76.3113 33.4055 77.3683 34.3479C78.4254 35.3031 79.9027 35.7743 81.8257 35.7743Z" fill="black"/>
<path d="M123.025 37.5446L114.123 8.55833H113.894C114.212 14.4549 114.378 18.3902 114.378 20.3642V37.5446H107.373V0.598572H118.033L126.782 28.8589H126.935L136.219 0.598572H146.879V37.5446H139.569V20.0586C139.569 19.2308 139.581 18.2756 139.607 17.2058C139.632 16.136 139.747 13.2578 139.951 8.60927H139.721L130.195 37.5446H123.012H123.025Z" fill="black"/>
<path d="M167.816 38.054C163.269 38.054 159.716 36.7932 157.156 34.2842C154.596 31.7753 153.31 28.2221 153.31 23.6245C153.31 19.027 154.495 15.2318 156.863 12.6464C159.232 10.0611 162.505 8.76208 166.682 8.76208C170.86 8.76208 173.789 9.89555 176.005 12.1752C178.234 14.4549 179.342 17.5879 179.342 21.5996V25.3438H161.117C161.206 27.5344 161.856 29.2409 163.066 30.4763C164.275 31.7117 165.982 32.323 168.173 32.323C169.879 32.323 171.484 32.1447 172.999 31.7881C174.515 31.4315 176.094 30.8711 177.75 30.0942V36.0545C176.4 36.7295 174.961 37.2262 173.432 37.5573C171.904 37.8884 170.032 38.054 167.816 38.054ZM166.733 14.2384C165.103 14.2384 163.817 14.7606 162.887 15.7921C161.958 16.8237 161.435 18.3011 161.295 20.1987H172.108C172.07 18.3011 171.573 16.8237 170.618 15.7921C169.663 14.7606 168.364 14.2384 166.721 14.2384H166.733Z" fill="black"/>
<path d="M197.146 31.9027C198.496 31.9027 200.113 31.6098 201.998 31.0112V36.7422C200.075 37.5955 197.719 38.0285 194.917 38.0285C191.835 38.0285 189.594 37.2517 188.18 35.6979C186.766 34.1442 186.066 31.8008 186.066 28.6806V15.0535H182.373V11.7932L186.614 9.22058L188.842 3.26031H193.771V9.27152H201.68V15.0535H193.771V28.6806C193.771 29.7759 194.077 30.5909 194.688 31.1131C195.299 31.6353 196.114 31.9027 197.133 31.9027H197.146Z" fill="black"/>
<path d="M219.726 38.054C215.179 38.054 211.626 36.7932 209.066 34.2842C206.507 31.7753 205.22 28.2221 205.22 23.6245C205.22 19.027 206.405 15.2318 208.773 12.6464C211.142 10.0611 214.415 8.76208 218.593 8.76208C222.77 8.76208 225.699 9.89555 227.915 12.1752C230.144 14.4549 231.252 17.5879 231.252 21.5996V25.3438H213.027C213.116 27.5344 213.766 29.2409 214.976 30.4763C216.186 31.7117 217.892 32.323 220.083 32.323C221.789 32.323 223.394 32.1447 224.909 31.7881C226.425 31.4315 228.004 30.8711 229.66 30.0942V36.0545C228.31 36.7295 226.871 37.2262 225.342 37.5573C223.814 37.8884 221.942 38.054 219.726 38.054ZM218.643 14.2384C217.013 14.2384 215.727 14.7606 214.797 15.7921C213.868 16.8237 213.345 18.3011 213.205 20.1987H224.018C223.98 18.3011 223.483 16.8237 222.528 15.7921C221.573 14.7606 220.274 14.2384 218.631 14.2384H218.643Z" fill="black"/>
<path d="M252.902 8.76213C253.946 8.76213 254.812 8.83854 255.5 8.99137L254.914 16.2252C254.29 16.0596 253.539 15.9705 252.635 15.9705C250.177 15.9705 248.254 16.6073 246.891 17.8681C245.515 19.1289 244.828 20.8992 244.828 23.1788V37.5573H237.123V9.28429H242.956L244.089 14.0347H244.471C245.35 12.4555 246.534 11.1692 248.024 10.2012C249.514 9.23334 251.132 8.74939 252.889 8.74939L252.902 8.76213Z" fill="black"/>
</g>
<defs>
<clipPath id="clip0_444_884">
<rect width="255.5" height="50" fill="white"/>
</clipPath>
</defs>
</svg>
