<svg width="252" height="50" viewBox="0 0 252 50" fill="none" xmlns="http://www.w3.org/2000/svg">
<path d="M15.9663 19.9689H29.145V36.2778C25.6895 37.7442 21.8024 38.4783 17.4817 38.4783C11.8415 38.4783 7.51911 36.8843 4.5111 33.698C1.5031 30.5117 0 26.0006 0 20.1646C0 16.5309 0.746329 13.3062 2.23722 10.4939C3.72812 7.68165 5.86394 5.51086 8.64298 3.97801C11.422 2.44517 14.6136 1.67963 18.2158 1.67963C22.1117 1.67963 25.6074 2.39798 28.7045 3.8312L27.7013 6.08065C24.6041 4.64568 21.3933 3.92908 18.0672 3.92908C13.3568 3.92908 9.62002 5.38327 6.85671 8.29339C4.0934 11.2035 2.71263 15.1274 2.71263 20.0667C2.71263 25.4465 4.02525 29.4928 6.64873 32.2071C9.27221 34.9215 13.1279 36.2778 18.2141 36.2778C21.507 36.2778 24.3017 35.8129 26.6001 34.8848V22.3179H15.9646V19.9706L15.9663 19.9689Z" fill="#FFFFFF"/>
<path d="M99.182 2.24243H110.307C115.066 2.24243 118.668 2.91185 121.114 4.24719C123.559 5.58427 124.781 7.9316 124.781 11.2892C124.781 12.642 124.564 13.8655 124.132 14.9561C123.7 16.0485 123.077 16.9451 122.262 17.646C121.448 18.3469 120.453 18.8031 119.278 19.0145V19.2592C120.469 19.5039 121.544 19.9234 122.507 20.5194C123.468 21.1154 124.239 21.9789 124.817 23.1114C125.396 24.244 125.686 25.7489 125.686 27.6226C125.686 29.7899 125.156 31.6496 124.097 33.1964C123.038 34.745 121.526 35.9317 119.562 36.7532C117.597 37.5764 115.262 37.9872 112.556 37.9872H99.182V2.24243ZM106.761 16.3981H111.162C113.362 16.3981 114.886 16.052 115.734 15.3581C116.582 14.666 117.005 13.6435 117.005 12.2889C117.005 10.9344 116.503 9.9381 115.501 9.34209C114.498 8.74783 112.913 8.44896 110.746 8.44896H106.761V16.3946V16.3981ZM106.761 22.4123V31.7282H111.7C113.983 31.7282 115.571 31.2878 116.468 30.4086C117.365 29.5277 117.812 28.3462 117.812 26.864C117.812 25.9831 117.616 25.2106 117.225 24.5412C116.833 23.8735 116.178 23.3509 115.257 22.9769C114.336 22.6028 113.068 22.4141 111.455 22.4141H106.761V22.4123Z" fill="#FFFFFF"/>
<path d="M34.4811 4.07595C34.4811 2.51339 34.9932 1.73212 36.0191 1.73212C36.5225 1.73212 36.9175 1.93661 37.2024 2.34211C37.4873 2.74935 37.6307 3.32788 37.6307 4.07595C37.6307 4.82402 37.4873 5.38682 37.2024 5.80979C36.9175 6.23276 36.5225 6.44425 36.0191 6.44425C34.9932 6.44425 34.4811 5.65423 34.4811 4.07595ZM37.2409 37.989H34.8236V11.45H37.2409V37.989Z" fill="#FFFFFF"/>
<path d="M65.9349 11.45V13.1349L60.4415 13.4757C61.9079 15.3004 62.6385 17.3017 62.6385 19.4812C62.6385 22.0365 61.7873 24.1077 60.0884 25.6947C58.3878 27.2818 56.1051 28.0753 53.2404 28.0753C52.0362 28.0753 51.1902 28.0263 50.7008 27.9285C49.7395 28.4336 49.0072 29.0261 48.5039 29.7095C48.0005 30.3929 47.747 31.1182 47.747 31.8838C47.747 32.7297 48.0686 33.3485 48.7118 33.7382C49.355 34.128 50.4317 34.3238 51.9471 34.3238H56.5858C59.4662 34.3238 61.6719 34.9058 63.203 36.0698C64.7324 37.2339 65.4979 38.9537 65.4979 41.2346C65.4979 44.0329 64.3619 46.195 62.0914 47.7173C59.821 49.2379 56.5858 50 52.3875 50C49.0509 50 46.4659 49.3568 44.6359 48.0704C42.8042 46.784 41.8901 44.9942 41.8901 42.6993C41.8901 40.8746 42.4564 39.3627 43.5872 38.1585C44.7198 36.9542 46.2527 36.1327 48.191 35.6923C47.394 35.3497 46.7543 34.8673 46.2754 34.2399C45.7947 33.6141 45.5553 32.8923 45.5553 32.0795C45.5553 30.3055 46.6878 28.7429 48.9495 27.3919C47.4027 26.7574 46.1985 25.7594 45.335 24.4014C44.4716 23.0433 44.0417 21.4842 44.0417 19.7259C44.0417 17.0745 44.8841 14.9456 46.569 13.3429C48.2539 11.7401 50.5278 10.9379 53.3943 10.9379C55.1351 10.9379 56.4862 11.1092 57.4475 11.4517H65.9436L65.9349 11.45ZM44.4506 42.4808C44.4506 46.1268 47.1597 47.9498 52.5798 47.9498C59.5466 47.9498 63.03 45.7283 63.03 41.2836C63.03 39.6878 62.4847 38.5325 61.3941 37.8176C60.3034 37.101 58.5364 36.7427 56.0946 36.7427H51.7495C46.8836 36.7427 44.4506 38.6549 44.4506 42.4791V42.4808ZM46.4764 19.7259C46.4764 21.7761 47.0986 23.3684 48.3448 24.4992C49.5892 25.6318 51.2532 26.1964 53.3366 26.1964C55.5493 26.1964 57.2482 25.6353 58.428 24.5115C59.6078 23.3894 60.1985 21.7604 60.1985 19.628C60.1985 17.3664 59.5921 15.6692 58.3791 14.5366C57.1661 13.4058 55.4707 12.8395 53.2894 12.8395C51.1081 12.8395 49.5088 13.446 48.2958 14.659C47.0828 15.872 46.4764 17.5604 46.4764 19.7242V19.7259Z" fill="#FFFFFF"/>
<path d="M86.8581 37.9889L86.2481 33.7889H86.0523C84.717 35.4983 83.3467 36.706 81.938 37.4139C80.5292 38.1235 78.8653 38.4766 76.9462 38.4766C74.3419 38.4766 72.3162 37.8089 70.8672 36.4753C69.4183 35.1417 68.6947 33.2943 68.6947 30.933C68.6947 28.3462 69.7731 26.3362 71.9299 24.903C74.0867 23.4715 77.2066 22.7147 81.293 22.6325L86.346 22.4857V20.7274C86.346 18.2036 85.8321 16.3002 84.8079 15.0138C83.7819 13.7274 82.1302 13.0842 79.851 13.0842C77.3936 13.0842 74.8453 13.7676 72.2096 15.1344L71.3059 13.0352C74.2196 11.6684 77.1 10.985 79.9489 10.985C82.7979 10.985 85.0404 11.7419 86.4806 13.2555C87.9208 14.7673 88.6408 17.1286 88.6408 20.3342V37.9872H86.8598L86.8581 37.9889ZM77.093 36.2796C79.9244 36.2796 82.1582 35.4703 83.7941 33.8501C85.4301 32.2298 86.2481 29.9804 86.2481 27.0982V24.487L81.6094 24.681C77.883 24.861 75.2245 25.443 73.6375 26.4271C72.0522 27.4128 71.257 28.9474 71.257 31.0308C71.257 32.6913 71.7656 33.9812 72.7828 34.8988C73.8001 35.8199 75.2368 36.2796 77.093 36.2796Z" fill="#FFFFFF"/>
<path d="M137.835 37.989H130.388V0H137.835V37.989Z" fill="#FFFFFF"/>
<path d="M169.897 24.2913C169.897 28.736 168.726 32.2107 166.382 34.717C164.038 37.2234 160.775 38.4766 156.593 38.4766C153.971 38.4766 151.66 37.9033 149.659 36.7568C147.658 35.6102 146.118 33.9602 145.045 31.8122C143.97 29.6641 143.433 27.1577 143.433 24.2913C143.433 19.8326 144.597 16.3649 146.925 13.8917C149.254 11.4186 152.524 10.1811 156.741 10.1811C159.361 10.1811 161.672 10.7526 163.673 11.8905C165.676 13.03 167.214 14.666 168.287 16.7966C169.362 18.929 169.899 21.4266 169.899 24.2913H169.897ZM151.026 24.2913C151.026 26.9934 151.47 29.0366 152.356 30.4209C153.242 31.8034 154.688 32.4956 156.691 32.4956C158.694 32.4956 160.104 31.8087 160.975 30.4331C161.845 29.0576 162.28 27.0109 162.28 24.293C162.28 21.5752 161.84 19.5652 160.962 18.2141C160.083 16.863 158.643 16.1866 156.64 16.1866C154.637 16.1866 153.223 16.8578 152.344 18.2001C151.465 19.5442 151.026 21.5734 151.026 24.2913Z" fill="#FFFFFF"/>
<path d="M186.793 38.4766C178.297 38.4766 174.05 33.8134 174.05 24.487C174.05 19.8483 175.205 16.3037 177.518 13.8532C179.828 11.4045 183.141 10.1793 187.454 10.1793C190.612 10.1793 193.444 10.7981 195.95 12.0355L193.753 17.7963C192.582 17.3244 191.492 16.9382 190.483 16.6375C189.473 16.3352 188.464 16.1866 187.456 16.1866C183.583 16.1866 181.646 18.9377 181.646 24.4381C181.646 29.9385 183.583 32.4466 187.456 32.4466C188.887 32.4466 190.214 32.2561 191.436 31.8733C192.656 31.4905 193.877 30.8928 195.097 30.0783V36.4509C193.893 37.2164 192.677 37.7443 191.448 38.0379C190.219 38.3298 188.669 38.4766 186.797 38.4766H186.793Z" fill="#FFFFFF"/>
<path d="M207.902 23.1447L211.149 18.9953L218.791 10.6949H227.189L216.349 22.5364L227.848 37.9907H219.254L211.392 26.9305L208.194 29.4945V37.9907H200.746V0H208.194V16.9434L207.804 23.1447H207.902Z" fill="#FFFFFF"/>
<path d="M251.358 29.8843C251.358 32.6843 250.384 34.8149 248.439 36.2813C246.494 37.746 243.585 38.4783 239.712 38.4783C237.727 38.4783 236.033 38.3455 234.633 38.0763C233.233 37.8089 231.924 37.4139 230.702 36.893V30.7407C232.085 31.3926 233.644 31.938 235.378 32.3767C237.111 32.8171 238.637 33.0356 239.955 33.0356C242.657 33.0356 244.008 32.2543 244.008 30.6918C244.008 30.1062 243.83 29.6291 243.472 29.2638C243.113 28.8968 242.495 28.4808 241.617 28.0176C240.738 27.5544 239.567 27.0126 238.102 26.3939C236.002 25.5147 234.46 24.7002 233.476 23.9522C232.49 23.2041 231.775 22.3442 231.328 21.3759C230.88 20.4076 230.657 19.2156 230.657 17.7998C230.657 15.3756 231.597 13.5002 233.476 12.1718C235.357 10.8452 238.022 10.1828 241.472 10.1828C244.922 10.1828 247.958 10.8994 251.068 12.3309L248.822 17.7019C247.455 17.1164 246.177 16.6358 244.989 16.2617C243.8 15.8877 242.589 15.7007 241.35 15.7007C239.153 15.7007 238.054 16.2949 238.054 17.4817C238.054 18.1494 238.408 18.7262 239.116 19.2156C239.824 19.7032 241.374 20.4285 243.767 21.3881C245.9 22.2515 247.462 23.0573 248.455 23.8053C249.448 24.5534 250.18 25.4168 250.652 26.3939C251.124 27.3709 251.361 28.5332 251.361 29.886L251.358 29.8843Z" fill="#FFFFFF"/>
</svg>
